<svg preserveAspectRatio="xMidYMid meet" width="100%" height="100%" overflow="visible" style="display: block;" viewBox="0 0 128 128.002" fill="none" xmlns="http://www.w3.org/2000/svg">
<g id="Group">
<path id="Vector" d="M54.8084 12.9671C54.0535 13.1022 53.372 14.9381 52.7604 18.4806C53.8105 18.093 55.35 17.4234 57.3815 16.461C56.393 14.0006 55.5349 12.8367 54.8084 12.9671Z" fill="var(--fill-0, white)"/>
<g id="Group_2">
<path id="Vector_2" d="M55.0175 127.377C23.6516 122.968 -0.00118514 95.7227 4.45382e-08 64C4.45382e-08 46.9049 6.656 30.8338 18.7437 18.7449C30.8302 6.65718 46.9025 0 63.9976 0C67.0033 0 70.0267 0.210963 72.9813 0.625778C104.347 5.03467 127.999 32.2809 128 64.0012C127.998 81.0975 121.342 97.1698 109.254 109.257C97.165 121.346 81.0927 128.004 63.9976 128.002C60.9932 128.001 57.971 127.791 55.0175 127.377ZM72.736 2.37393C69.8619 1.96978 66.9215 1.76593 63.9976 1.76474C47.3742 1.76474 31.7452 8.23941 19.9905 19.9929C8.23585 31.7476 1.76356 47.3766 1.76474 63.9988C1.76356 94.8468 24.7633 121.34 55.264 125.627C58.1357 126.031 61.075 126.236 63.9976 126.236C80.6222 126.238 96.2513 119.764 108.006 108.009C119.762 96.2536 126.234 80.6246 126.235 64.0012C126.234 33.1544 103.234 6.65956 72.736 2.37393Z" fill="var(--fill-0, white)"/>
</g>
<path id="Vector_3" d="M42.1041 102.822C42.238 102.584 41.8587 102.209 40.9616 101.699C40.0845 101.199 39.2466 100.869 38.4596 100.711C38.4241 100.758 38.3873 100.814 38.3482 100.883C38.2356 101.081 38.0804 101.387 37.8848 101.8C37.6822 102.216 37.5281 102.521 37.4167 102.715C37.4356 102.737 37.4629 102.757 37.4949 102.773C37.5767 102.817 37.6999 102.863 37.8742 102.915C38.0448 102.964 38.1704 103.009 38.2475 103.057C39.0937 103.365 40.1236 103.385 41.3396 103.113C41.7936 103.011 42.0496 102.917 42.1041 102.822Z" fill="var(--fill-0, white)"/>
<path id="Vector_4" d="M84.2406 108.302C83.5472 108.403 82.9677 108.562 82.5043 108.775C81.4127 109.281 80.7443 110.146 80.4859 111.368C80.41 111.758 80.442 112.1 80.5807 112.401C80.8083 112.898 81.1982 113.106 81.7327 113.019C81.997 112.975 82.2388 112.898 82.4509 112.782C82.8693 112.561 83.7096 111.999 84.9825 111.091C85.3748 110.745 85.6415 110.382 85.7777 110.001L85.1721 108.972C84.896 108.581 84.5795 108.358 84.2406 108.302Z" fill="var(--fill-0, white)"/>
<g id="Group_3">
<path id="Vector_5" d="M50.6061 36.2181C50.7602 36.2691 50.8112 36.0641 50.9155 36.0143C51.2201 35.9621 51.4251 36.2181 51.6811 36.3213C52.0367 36.217 52.6506 36.2181 52.7039 35.7073C52.2938 35.2996 52.1907 34.4842 51.4251 34.6347C51.2722 34.7888 51.0162 34.7367 50.9653 34.9915C51.1193 35.5556 50.4544 35.7073 50.6061 36.2181Z" fill="var(--fill-0, white)"/>
<path id="Vector_6" d="M7.16607 47.763C7.08547 47.9858 6.84014 48.9849 6.80221 49.0773C6.80695 49.0785 6.81169 49.0785 6.81644 49.0773C6.9314 48.6341 7.06532 48.1991 7.19095 47.7594C7.18147 47.7606 7.17318 47.763 7.16607 47.763Z" fill="var(--fill-0, white)"/>
<path id="Vector_7" d="M17.0527 47.8187C18.0246 47.3588 19.2501 47.3067 20.1188 46.848C21.8563 46.3882 23.5428 46.4901 25.2803 45.9781L25.4829 45.7731C25.8954 46.0291 25.9973 45.2646 26.3019 45.6735C26.7108 45.2148 27.4266 45.7245 27.7846 45.2137C26.8151 44.755 25.8432 45.6735 24.7683 45.4187C24.6189 45.4697 24.5158 45.6747 24.3606 45.4685C23.3389 45.8785 22.2142 45.9295 21.0906 46.1867C20.581 46.0302 20.0192 46.3894 19.5072 46.4901C18.2308 46.5932 16.9508 47.0531 15.6744 47.3102C15.0106 47.1562 14.3446 47.5651 13.6809 47.5141C12.7635 48.0225 11.6874 47.718 10.7179 48.1257C10.5141 48.2288 10.0032 47.9728 9.90013 48.3307C10.7167 48.5345 12.2006 48.3805 13.0681 48.2797C13.9381 48.3817 14.7535 47.9218 15.6222 47.8697C16.0821 48.2785 16.5929 47.7168 17.0527 47.8187Z" fill="var(--fill-0, white)"/>
<g id="Group_4">
<path id="Vector_8" d="M44.284 58.5755C42.4719 60.4528 40.8221 62.1298 38.7836 63.6884C37.1682 64.9826 34.6449 65.2398 34.0618 67.5995C34.2893 67.9218 34.0298 68.4101 34.031 68.7977C34.2242 69.1236 34.6769 69.0881 35.0004 69.1876C35.6476 69.1568 35.2256 69.7056 35.3892 69.9971C35.2256 70.5767 35.9379 70.5447 36.1347 70.9962C36.9098 71.385 36.7806 70.2851 37.4289 70.0623C38.396 69.3761 39.1735 68.153 40.4025 68.0818C41.0816 68.153 41.5036 68.7621 42.1187 68.9589C42.6354 69.0869 42.9578 70.1867 43.6393 69.8336C44.3504 68.6341 44.7391 67.2771 45.8366 66.3076C46.8724 66.3088 47.5527 67.3435 48.3302 67.8602C48.7178 68.0854 48.879 68.6353 49.3317 68.6021C49.4585 68.5713 49.6873 68.4741 49.5901 68.2821C49.9136 67.7974 49.3341 67.347 49.103 66.9227C49.3637 66.2448 48.4902 65.8869 48.1999 65.4709L48.1655 64.9861C47.5207 64.3995 47.26 63.6232 46.8393 62.9749L46.8381 62.7817C47.4852 61.651 48.3587 60.7456 49.1362 59.7429C50.5264 57.4436 52.8564 55.7654 54.5098 53.5953C55.0882 53.113 55.5433 52.3959 56.0896 51.8484C56.8019 51.0401 57.513 50.1666 58.3865 49.5503C59.0348 48.7112 59.7803 48.0641 60.6182 47.4833C61.6221 46.1903 62.8819 45.0253 64.2413 44.1494C64.9216 43.5343 65.6007 42.5956 66.441 42.3408C66.8914 43.0187 67.4117 43.6327 67.9616 44.281C71.8419 48.2264 75.0763 52.691 78.927 56.6993C79.3169 56.9909 79.4141 57.9616 80.0612 57.5716C80.7996 56.6021 81.3187 55.1171 82.5833 54.7604C84.1655 56.409 83.7779 58.8386 84.5222 60.8427C84.7486 61.2647 84.2959 61.8442 84.9086 62.0718C85.9764 61.8442 86.9128 61.3263 87.8846 60.8427C88.8517 60.4564 89.6967 60.6164 90.7942 60.5879C91.6393 60.8759 92.3788 61.4555 93.0591 62.0386C93.1599 62.1322 93.3815 62.131 93.4799 62.041C93.7359 61.5207 94.2265 61.0359 93.8354 60.422C93.1907 59.6137 92.6396 58.969 91.8941 58.3207C90.7302 57.5147 89.4313 56.7669 88.7249 55.5379C87.1391 54.31 85.9776 53.081 84.2283 52.0759C82.5181 50.5565 80.3812 49.1355 78.6307 47.6789C78.5382 47.2913 78.9554 46.9002 78.8286 46.4475H78.6994C78.2123 43.987 78.863 41.4318 79.2825 38.9761C79.9925 39.2664 80.6396 39.686 81.3519 39.9799C82.0298 40.0096 81.7999 41.0146 82.4849 40.9494C82.5821 40.8878 82.6117 40.787 82.6473 40.691C82.3522 40.0783 83.1652 40.3331 83.2292 39.9147C83.324 39.654 83.1948 39.3968 83.0348 39.2013C82.5821 38.0054 82.063 36.8416 81.6754 35.641C81.5759 35.1906 81.2215 34.8682 81.2227 34.3811C80.8683 33.8644 80.8327 33.2184 80.7699 32.569C80.6076 32.2786 80.5424 31.7607 80.0564 31.8294C79.6404 31.9894 79.151 31.7298 78.7966 32.0842C77.9871 31.7595 77.0816 31.6658 76.239 31.6007C75.1794 31.7263 74.0594 31.347 73.0188 31.5118C73.065 30.9192 73.1113 30.3088 72.988 29.7293C72.0185 29.6297 72.6301 30.8564 72.0647 31.315C71.6582 31.2131 71.3501 30.9559 70.9933 30.7556C70.5833 30.3953 69.8698 29.9331 69.5616 29.3204C68.9003 28.6567 69.5581 28.179 69.8461 27.6018C87.4342 30.4072 100.878 45.6261 100.877 64.0036C100.877 68.915 99.9083 73.5953 98.1673 77.881C96.9169 77.8762 95.6393 77.8573 94.4505 77.6629C94.1222 77.7281 94.319 77.3097 94.031 77.2753C89.5972 76.8226 85.7501 78.054 81.6766 78.9559C81.2168 79.0567 80.6668 79.1847 80.2176 79.1183C80.1833 78.5719 80.1181 77.9236 80.3788 77.4685C80.38 77.3097 80.2828 77.0833 80.0564 77.177C79.6689 75.5604 79.4093 73.8822 79.2778 72.1304C79.471 70.5779 79.5385 69.158 78.9874 67.7642C78.4031 67.507 78.5323 68.3793 78.0179 68.3817C77.8212 68.5749 77.8567 68.8949 77.8567 69.158C78.0156 70.1299 77.8212 71.2285 77.8876 72.2656C77.756 74.6881 78.1803 77.209 78.6283 79.5047C76.7557 79.7287 75.1379 80.8664 73.1326 80.8984C71.3525 81.5764 69.2819 81.6119 67.4674 82.291C66.5951 82.547 65.8864 83.1953 64.9122 83.2617C64.7877 83.2273 64.8493 83.097 64.8197 83.001C64.6893 82.617 64.3006 82.9061 64.0458 82.9073C63.9794 82.7414 63.817 82.5838 63.6523 82.5174C62.556 79.6706 62.5548 76.467 61.7797 73.4899C62.4873 73.0359 61.4218 72.6827 61.5842 72.2324L61.5533 72.2312C61.5213 72.1032 61.5036 71.9645 61.4929 71.8176L61.4917 71.8021C61.4621 71.3518 61.5095 70.8469 61.4846 70.4842C61.423 68.2513 61.2938 65.5645 61.615 63.4324C61.455 62.8149 62.1969 62.4629 61.8437 61.913L61.5202 61.555C61.0662 61.491 60.841 61.9118 60.4535 62.0398L54.249 62.2709L54.4019 63.5284C53.7228 63.7453 53.0473 63.974 52.4013 64.2703C51.9154 64.4659 51.2991 64.3675 50.8807 64.7219C50.8144 64.9506 50.7172 65.2445 50.9767 65.4033C50.8784 65.5005 50.8807 65.6605 50.7184 65.6605C50.4588 65.7577 50.3948 66.0161 50.3285 66.2424C50.6864 66.502 50.1033 66.8244 50.4292 67.1491C50.9767 67.4715 51.6559 67.1799 52.1738 66.7912C52.4665 66.7616 52.8553 66.0173 53.0804 66.6632C52.6597 66.8884 52.6893 67.3435 52.6905 67.795C53.564 68.9257 53.6612 70.3811 53.8567 71.8045C54.0499 75.2013 54.3723 78.566 54.8274 81.8679C54.8262 82.483 54.5335 83.225 54.8274 83.8389C54.9542 84.1968 54.6639 84.7171 55.0858 84.9056C55.7305 84.8143 56.3124 84.5524 56.8339 84.1304C56.8588 83.929 56.8422 83.7346 56.8446 83.5367L56.9477 84.3829C56.9204 84.3995 56.8873 84.4066 56.86 84.4232C56.4096 85.0051 55.3098 84.7467 55.1154 85.5835C55.7293 86.2981 56.4085 85.491 57.0899 85.5538C56.8316 85.7494 56.5388 85.9438 56.2153 86.1382C56.0885 86.3349 56.1833 86.6253 56.3776 86.7201C57.0556 86.6857 57.8307 86.3005 58.3178 85.9106C58.3533 85.8264 58.4197 85.8667 58.46 85.9047C58.5904 85.7245 58.8096 85.7494 58.9329 85.7174C58.639 86.105 57.9302 86.2685 57.8959 86.8469C55.2138 87.4904 52.6882 88.5346 50.1696 89.4993C50.0393 89.3393 50.1353 89.2421 50.1033 89.0525C49.423 87.7239 47.8384 88.2395 46.8653 87.4312C46.8985 86.1358 46.8345 84.8475 46.8013 83.6161C46.319 80.4445 46.6093 77.081 46.6733 73.6854C46.607 73.0715 47.0953 72.4244 46.5133 71.9693C46.089 72.0984 45.6375 71.8721 45.2167 71.9053C44.988 71.9373 45.0212 72.1944 44.924 72.3592C45.1859 74.041 44.9904 75.9159 45.0876 77.5657C45.052 78.3076 45.0556 78.9938 44.9584 79.7026C44.9596 80.2205 44.9264 80.998 44.9892 81.5456C44.8612 83.2925 44.5684 85.1379 44.6348 86.9133L44.5673 87.0128C43.5338 87.3376 42.4695 87.0128 41.4325 87.3008C39.4615 86.9133 37.129 86.7177 34.9945 86.7189C34.9779 86.7165 34.9613 86.7106 34.9447 86.7094C30.044 80.4493 27.1154 72.5713 27.1142 64.0048C27.1154 57.2066 28.9631 50.8433 32.1702 45.3749C31.5705 45.3583 30.9696 44.9269 30.4162 45.2765L30.287 45.1663C29.98 45.7257 29.0105 45.267 28.6502 45.7755L28.4973 45.625C27.7839 45.9307 27.1687 45.9307 26.351 46.1346C25.6884 46.5968 24.6147 46.4913 23.8988 46.8504C23.0834 46.9014 22.3652 47.155 21.5996 47.3115C21.4976 47.6173 21.0366 47.3091 20.8825 47.5639C20.1667 47.974 19.5018 47.6161 18.8404 48.0759C18.4837 47.9242 18.1767 48.3817 17.769 48.23C17.2049 49.0466 16.4381 48.0771 15.8242 48.6389C14.9554 48.5879 14.2929 48.9435 13.372 49.0478C11.1818 49.3619 8.97023 49.2718 6.81319 49.081C5.5723 53.8478 4.90741 58.8493 4.9086 64.0036C4.90741 96.6389 31.3619 123.093 63.996 123.093C96.6277 123.093 123.082 96.6401 123.082 64.006C123.083 31.3707 96.6301 4.91622 63.9972 4.9174C36.9999 4.91859 14.2467 23.0318 7.18771 47.763C8.16667 47.6267 9.15867 47.3589 10.1519 47.4158L10.6639 47.1064C10.5098 46.7497 10.3071 46.4451 10.6153 46.0836C11.2778 45.523 12.2461 45.4721 12.9122 44.8605C13.321 44.9103 13.679 44.9103 14.1412 45.0656C14.9068 45.0098 15.7246 45.1165 16.4404 45.0632C16.9003 45.3701 17.3092 44.9103 17.769 45.062C19.5563 45.113 20.9347 43.9894 22.5738 43.8377C23.5433 43.4276 24.6644 43.379 25.7406 43.2747C27.0893 43.1266 28.1999 43.955 29.3945 43.7026L30.1329 43.4762C31.2399 43.7061 32.3883 43.8069 33.3708 43.4584C37.9776 36.6069 44.8268 31.3909 52.8624 28.8475C52.9276 29.2208 52.9963 29.5799 53.0579 29.8893C52.9062 30.3455 53.0082 31.0638 52.3942 31.1657C51.8822 31.8318 51.0668 31.4738 50.4541 31.7287C49.2772 31.6244 48.3065 32.3414 47.1296 31.8827C46.7729 31.8816 46.5157 32.3438 46.108 32.0866L46.1068 32.1873C44.9833 32.5986 42.9151 36.531 41.7916 36.121L39.8004 39.9349C39.3406 39.6291 39.5599 41.9224 39.3039 41.3097C39.2007 41.4104 39.1 41.4116 38.9981 41.2564C38.0262 41.2078 36.8849 42.7023 35.9652 42.7509C34.6864 43.3648 34.6105 42.3669 33.436 43.4407C33.4147 43.449 33.3922 43.4501 33.3708 43.4573C32.9501 44.0818 32.5542 44.7254 32.1714 45.3773C32.1833 45.3773 32.1951 45.382 32.207 45.382C33.0781 45.126 33.9942 45.2244 34.8642 45.2789C36.3978 45.4816 37.3092 43.7595 38.7895 44.0179C39.3205 43.7144 39.228 42.9986 39.3916 42.6656L39.6962 42.4901C40.0553 42.8967 41.6363 38.982 42.0464 38.9844C42.9661 39.0341 44.4606 34.9927 45.3305 35.4004C45.4822 34.995 46.2182 35.2119 46.4245 34.8552C47.3442 35.0081 47.7945 33.5681 48.5602 33.3618C48.7652 33.6688 48.4594 33.8727 48.4073 34.1298C48.1524 34.6904 48.8671 34.2839 49.02 34.5387C49.6849 33.67 50.8085 33.9236 51.676 34.1784C52.4428 33.8727 53.5166 33.9746 54.2846 34.3823C54.4873 34.9962 54.6402 35.6623 55.1012 36.1221C55.4093 36.2762 55.9699 36.275 56.2757 36.121L56.2236 35.9171C56.943 35.5604 57.4016 36.531 57.9113 36.7882C58.217 36.4813 58.4209 37.299 58.6781 36.787C58.8807 36.7373 58.9839 36.8901 59.087 36.9909C59.855 37.1959 59.8526 36.1221 60.3125 35.8685C60.5685 35.0496 61.231 34.3835 61.5391 33.6712C61.5901 33.3618 62.1021 33.2611 61.9504 32.902C62.3557 32.4421 62.8689 31.7287 63.4816 31.7275C63.4805 31.4229 63.7862 31.1657 63.9913 30.9595C63.8407 30.7058 64.1987 30.6561 64.2473 30.4498C64.5554 30.707 64.6562 30.195 64.9631 30.297C65.3199 30.195 65.5261 29.6818 65.8816 29.939C66.3403 29.4306 66.9554 29.4294 67.5658 29.1734C67.9237 29.4294 67.5682 29.8371 67.6677 30.1453C68.1323 30.6039 67.8242 31.219 68.233 31.6753C68.4879 32.0866 68.847 32.6472 69.3542 32.851C69.6126 33.2101 70.0203 33.4116 70.4316 33.414C71.503 32.5962 69.5071 32.9032 69.8141 32.0344C69.5083 31.7796 69.7667 31.6753 69.4064 31.5248C69.2535 31.3186 69.1516 31.0104 69.2025 30.8066C69.3056 30.9097 69.4064 30.9595 69.5059 31.0104C69.7133 31.3707 70.1744 31.5236 70.4292 31.8294C70.5821 32.0333 71.0407 31.8282 70.9933 32.2371C71.4532 32.4445 72.015 32.646 72.271 33.0573C72.553 33.0537 72.8742 33.0857 73.0828 32.851C73.3483 32.9269 73.6896 32.8984 73.9421 33.0241C74.0369 33.2896 74.2336 33.6404 74.588 33.5456L77.6944 36.0048C77.9847 36.2608 78.1791 36.5832 78.2099 36.9067C77.6956 36.7787 77.4313 37.3287 77.0828 37.5574C76.8541 37.2635 76.399 37.2611 76.2022 36.9079C76.3042 36.4232 75.9794 36.0024 75.7222 35.6813C75.5267 35.5189 75.2659 35.6445 75.1379 35.8401C75.3039 36.3876 74.9092 36.8119 74.7516 37.2955C74.3972 39.5284 73.8141 41.9544 74.2953 44.2845L74.2005 44.3461C73.8105 43.9906 73.5225 43.571 73.1018 43.2807C72.5187 42.9891 72.1607 42.4747 71.644 42.0824C71.7116 41.7589 71.3856 41.6001 71.3856 41.3393C70.8997 40.659 70.2206 40.2407 69.7702 39.6244C69.2487 39.0436 68.9927 38.2673 68.4736 37.7802C67.5006 36.6827 66.0487 36.8107 64.7865 36.4196C64.4002 36.4528 64.0458 36.0984 63.6547 36.3568C63.5587 36.4504 63.4615 36.646 63.5907 36.7764C63.3951 36.9376 63.4271 37.2623 63.1676 37.3891C63.1024 37.555 63.1676 37.7458 63.2351 37.9094C63.9782 38.6857 64.4926 39.654 65.0769 40.531C63.2967 42.342 61.9705 44.4125 60.0647 45.9983C57.5403 49.1663 54.2727 51.6587 51.7519 54.6667C50.1341 57.0253 48.1596 59.065 46.1862 61.2967C45.8947 61.9438 45.1847 62.3977 44.86 63.1088C44.8268 63.5627 44.4724 64.0487 44.7308 64.5014C44.86 64.6638 45.1184 64.531 45.2179 64.6294C44.9892 64.755 44.7 64.7254 44.4736 64.9198C44.1513 65.7257 43.631 66.4107 42.9519 67.0875L42.7575 67.0863C42.0784 66.5387 41.6233 65.5669 40.7202 65.5041C39.8147 66.15 38.876 66.8599 37.9065 67.5082C37.8745 67.411 37.9682 67.3139 37.9362 67.2167C38.0689 66.8931 38.4576 66.7947 38.6188 66.6336C39.1036 66.5387 39.2659 66.0848 39.5883 65.7601C39.8135 65.6321 40.1394 65.6641 40.3314 65.4081C42.0464 63.1432 44.1809 61.203 46.3154 59.2617C46.607 59.0045 46.9945 58.8066 47.1901 58.4498C47.1273 57.9983 47.5776 57.8987 47.836 57.6416C48.1607 57.0596 49.0319 56.7669 49.161 56.0581C50.1317 55.0875 51.2316 53.9213 52.201 52.9506C54.5311 51.4632 55.5362 49.0063 57.8639 47.4845C58.8997 46.6774 59.3513 45.4152 60.1287 44.4101C61.1646 43.6042 61.9705 42.4736 62.908 41.5005C63.1996 41.1781 63.6227 40.8558 63.5871 40.3698C63.5575 40.1755 63.3264 40.0783 63.1379 40.0795C62.4256 40.4647 61.7762 41.081 61.2286 41.7589C60.3231 43.5734 58.3806 44.3485 57.2523 46.0007C56.2781 47.9076 54.2419 48.6519 52.8185 50.1358C50.1981 53.2433 47.1261 55.8626 44.3433 58.5482M88.7593 58.5423L88.7545 58.643C87.951 58.675 86.9815 58.969 86.1056 58.9014C85.884 58.0279 85.9125 57.0573 85.4597 56.281L85.3957 55.8602C86.6911 56.441 87.6618 57.6072 88.7593 58.5423ZM84.4902 55.6315C84.8138 56.6993 84.7486 57.9936 85.1362 59.001C85.1053 59.0934 85.1053 59.289 85.0425 59.385C84.8493 59.0934 84.8778 58.8042 84.777 58.515C84.7498 57.574 84.2615 56.4753 84.0707 55.4727C84.1987 55.5355 84.3267 55.6315 84.4902 55.6315ZM80.7379 52.9482C80.7379 53.2066 80.4464 53.4661 80.284 53.6605L79.6381 54.2104C78.4719 53.4993 77.6636 52.5571 76.6905 51.6232C75.5622 50.3301 74.492 48.87 73.3945 47.5177L73.4905 47.5153C74.3664 48.326 75.305 48.9352 76.3409 49.3251C77.8259 50.489 79.4129 51.5272 80.7379 52.9482ZM76.3385 46.2827L75.695 45.6356C75.8514 45.574 75.9818 45.4116 76.0162 45.2504C75.9853 44.7941 75.7886 44.3106 76.0802 43.9242C76.2058 43.6018 76.2093 43.2427 76.5305 43.0176C76.7261 42.6288 76.9205 42.0777 76.6953 41.6937L76.7889 41.4626C76.9228 41.6937 76.9216 42.0469 76.8885 42.3693L76.9892 42.5956L76.9856 46.5115C76.7261 46.7367 76.5649 46.3823 76.3385 46.2827ZM56.6396 81.8667C56.3148 80.2798 56.1204 78.7592 55.8277 77.1414C55.4413 76.3023 55.407 75.3008 55.2173 74.3953C55.1877 72.7752 55.087 71.1266 54.6982 69.6084C54.569 68.1826 54.7622 66.662 54.1459 65.3346C54.2656 65.2173 54.428 65.1639 54.5999 65.1236L56.6479 81.9118C56.6443 81.8964 56.6443 81.8821 56.6396 81.8667ZM15.2043 67.5959C12.6964 67.5936 10.6627 65.5621 10.6615 63.0531C10.6639 60.5453 12.6964 58.5127 15.2067 58.5115C17.7157 58.5103 19.7483 60.5453 19.7483 63.0543C19.7471 65.5633 17.7133 67.5959 15.2043 67.5959ZM94.025 23.8365C95.5267 22.0125 97.2535 20.8321 99.1996 20.3035C99.4757 20.3426 99.6879 20.4244 99.8514 20.5559C100.301 20.9281 100.207 21.5053 99.5622 22.2863C99.1213 22.8173 98.3664 23.475 97.289 24.2525C96.1086 25.0952 95.241 25.5574 94.6828 25.638C94.2016 25.715 93.8283 25.6404 93.5545 25.4176C93.2262 25.145 93.3803 24.6175 94.025 23.8365ZM34.5916 38.0493C34.3486 38.809 33.9919 39.4359 33.5166 39.9313C33.2298 40.2324 32.9963 40.2952 32.8173 40.1257C32.6976 40.0072 32.6087 39.7986 32.5542 39.4987C34.1969 35.6267 34.5453 33.2362 33.5948 32.3284C33.1302 31.8792 32.2579 31.7453 30.985 31.9301C29.82 32.1293 28.6502 32.3213 27.4793 32.5133C26.1495 32.6424 25.1907 32.4279 24.6087 31.8697C23.9533 31.2392 23.6736 30.1263 23.7708 28.5204C23.8479 27.4027 24.0837 26.2033 24.4677 24.9174C24.6348 24.3556 24.8458 23.9361 25.1053 23.6599C25.3139 23.4466 25.545 23.3067 25.8022 23.2487C26.1033 23.1586 26.3545 23.2084 26.5489 23.398C26.671 23.513 26.7622 23.6647 26.8215 23.8448C26.8807 24.0842 26.8096 24.4386 26.6093 24.9138C26.2882 25.6344 26.1021 26.4273 26.0345 27.2818C25.9445 28.3307 26.1246 29.0738 26.5773 29.5064C27.0182 29.9284 27.8218 30.1026 28.9868 30.0362C30.0523 29.9213 31.1083 29.8122 32.1667 29.7079C33.3898 29.6712 34.2704 29.9153 34.8156 30.4368C35.9391 31.5201 35.8656 34.0587 34.5916 38.0493ZM48.0351 26.7343C47.3299 27.1337 46.6899 26.8184 46.108 25.7897C45.9812 25.5645 45.7797 25.209 45.5047 24.7195C45.2298 24.2371 45.0188 23.8626 44.8695 23.6018L44.6787 23.2641C42.9056 24.2952 41.1101 25.9047 39.3003 28.0795C39.9853 29.1995 40.6004 30.1298 41.1444 30.8706C41.116 31.289 40.9596 31.5829 40.6739 31.7417C39.9616 32.1458 39.1842 31.603 38.3379 30.1073C38.217 29.8916 38.0642 29.6202 37.8781 29.2919C37.6932 28.9648 37.577 28.7598 37.5332 28.6804C36.1524 26.2389 34.7184 23.9965 33.2345 21.9521C32.54 20.9873 32.2129 20.5358 32.252 20.6057C32.0541 20.2549 32.1714 19.9574 32.6052 19.7121C32.892 19.5497 33.2002 19.4715 33.5344 19.4762C33.8662 19.481 34.1127 19.6267 34.2739 19.9088C34.2988 19.9527 34.3367 20.0226 34.3889 20.1138C34.4434 20.2181 34.4837 20.2904 34.5133 20.3331C34.4636 20.243 34.6591 20.5334 35.1036 21.2054C35.4793 21.7826 36.457 23.379 38.0322 25.9947C38.7658 25.446 40.5696 23.8472 43.4449 21.2066C42.556 19.795 41.6956 18.5103 40.8647 17.3547C40.8055 17.2813 40.5862 17.0016 40.207 16.5168C39.9213 16.1672 39.7104 15.8756 39.5776 15.6398C39.3785 15.2854 39.4982 14.9891 39.9379 14.7402C40.2402 14.5672 40.5447 14.4783 40.8517 14.4676C41.2227 14.4676 41.4881 14.6098 41.6481 14.8895C41.6801 14.9476 41.7299 15.033 41.7916 15.1479C41.852 15.2605 41.9006 15.3482 41.9362 15.4004C42.0642 15.6244 42.2443 15.9183 42.4766 16.2798C42.7883 16.7325 42.9767 17.011 43.0407 17.1248C43.3702 17.6558 44.252 19.1278 45.6873 21.542C46.767 23.3506 47.7021 24.7918 48.4926 25.8679C48.4689 26.2875 48.3184 26.5743 48.0351 26.7343ZM52.2876 21.4448C52.1679 22.1654 52.0671 22.8374 51.9806 23.4644C51.8965 24.0925 51.8182 24.7041 51.7365 25.2967C51.5563 26.1844 51.279 26.662 50.9104 26.7272C50.7302 26.7604 50.5631 26.6383 50.4079 26.3645C50.3083 26.1725 50.2348 25.9592 50.1945 25.7293C50.1329 25.3855 50.2076 24.3106 50.4221 22.5103C50.5844 21.1509 50.7409 20.0084 50.8914 19.0863C51.2944 16.6436 51.6262 14.9168 51.8905 13.9094C52.5791 11.2961 53.385 9.90703 54.3024 9.74229C55.5682 9.51592 57.0567 11.5544 58.7741 15.8626L58.8286 15.833C59.1308 15.8294 59.3987 16.0048 59.6345 16.3568C59.8194 16.6413 59.9415 16.9553 60.0031 17.299C60.1062 17.8715 60.0055 18.2199 59.6973 18.3408C60.4582 20.5725 60.8564 21.8027 60.9003 22.0327C60.9548 22.3384 60.9489 22.6359 60.8802 22.9227C60.7913 23.2961 60.6076 23.507 60.3267 23.5568C59.9936 23.6149 59.7033 23.366 59.4567 22.8054C59.4544 22.7912 59.3264 22.3586 59.0644 21.5136C58.7907 20.563 58.479 19.5841 58.1365 18.5814C56.431 19.0448 54.4778 20.0001 52.2876 21.4448ZM55.5148 32.8487C54.6947 32.6922 53.724 32.0285 52.8031 32.4374L52.2413 32.3355C52.8564 32.0297 53.2642 31.5189 53.8259 31.2131C53.8781 31.4667 54.1329 31.3127 54.2846 31.4679L55.3098 32.2857C55.4615 32.3864 55.7163 32.6424 55.9213 32.5405C56.1252 32.8984 55.6156 32.6424 55.5148 32.8487ZM59.0372 33.817C58.3213 33.5124 57.6079 33.4069 56.943 32.9482C58.2194 33.0004 58.9874 32.2335 60.1619 32.0783C59.9083 32.691 59.4461 33.2042 59.0372 33.817ZM64.9655 27.6836C64.5566 28.5512 63.5895 28.6033 63.279 29.5242L61.9504 30.1891C61.6967 30.2922 61.3898 30.1891 61.1871 30.4451C60.3148 30.4451 59.6559 30.9559 58.8867 31.2096C58.5797 31.2096 58.4268 31.6184 58.1187 31.5687C58.0677 31.5165 57.916 31.5165 57.9646 31.366L57.7596 31.5698C57.4028 31.4655 56.5862 31.7725 56.4843 31.2629C55.9202 31.2095 55.5124 30.6987 55.0514 30.3408C54.2929 29.9213 54.2455 29.1781 54.1862 28.4552C57.3127 27.5947 60.5993 27.1218 63.9984 27.1218C64.5127 27.1218 65.0224 27.1396 65.532 27.161C65.3708 27.3435 65.1527 27.4964 64.9655 27.6836ZM74.5584 25.4401C74.121 25.3784 73.5616 24.3698 72.8932 22.4178C72.2982 20.6093 71.6914 18.7947 71.0799 16.9814C70.3474 15.0211 69.673 13.9959 69.071 13.9106C68.2093 13.7897 67.3726 15.1266 66.5726 17.9153C66.3865 18.5589 65.9871 20.3236 65.3708 23.206C65.1765 24.1091 64.9442 24.6555 64.668 24.857C64.4938 24.9636 64.3409 25.0051 64.201 24.985C63.9071 24.9435 63.6914 24.665 63.5575 24.147C63.4591 23.7393 63.4354 23.3624 63.484 23.0176C63.5065 22.8611 63.5705 22.5838 63.6807 22.1796C64.0493 20.7787 64.4274 19.3778 64.8079 17.9793C65.5059 15.5521 66.1886 13.6487 66.8547 12.2774C67.7791 10.3882 68.6573 9.50288 69.4965 9.62022C70.3486 9.74348 71.1913 10.9678 72.0363 13.2978C72.3053 14.067 72.7557 15.641 73.3744 18.0173C73.5842 18.7781 73.7062 19.2226 73.7418 19.3411C73.9148 19.9681 74.0713 20.39 74.2123 20.6045C74.2763 20.7195 74.3261 20.7787 74.3652 20.787C74.5347 20.8072 74.6686 20.4421 74.7753 19.686C74.9578 18.3894 75.0882 16.0629 75.1593 12.7064C75.1557 12.275 75.1557 11.8377 75.1628 11.3909C75.1581 10.8801 75.1782 10.451 75.2268 10.1026C75.2719 9.78496 75.4224 9.51829 75.6713 9.30377C75.9261 9.08925 76.2082 9.00392 76.5305 9.04896C77.2333 9.14733 77.5593 9.69488 77.5083 10.6833C77.4988 11.0756 77.3353 12.6816 77.0212 15.5094C76.8327 17.2256 76.6893 18.4605 76.5827 19.2202C75.9782 23.4738 75.3062 25.5456 74.5584 25.4401ZM92.4962 18.6324C92.2082 19.2131 91.9047 19.4241 91.5776 19.2653C91.5433 19.2487 91.4485 19.1799 91.2896 19.0567C90.8345 18.6881 90.3202 18.3621 89.7477 18.0872C88.1489 17.3061 86.3213 16.9221 84.2662 16.9304C83.708 18.1927 82.959 19.827 82.0179 21.8407C83.0147 22.1654 84.2887 22.5067 85.852 22.8623C88.3113 23.4276 89.6102 23.7287 89.7524 23.7666C89.9942 23.9455 90.1151 24.2478 90.1104 24.678C90.1127 25.0288 90.0393 25.3595 89.884 25.6724C89.5996 26.2567 89.2807 26.4605 88.9276 26.291C88.847 26.2519 88.7676 26.1855 88.7 26.0931L88.2911 25.894C86.2799 24.87 83.8301 24.2525 80.9394 24.0427L80.6965 24.55C80.5068 24.9352 80.367 25.2564 80.2698 25.5124C82.0369 25.9319 83.6914 26.5138 85.2369 27.2664C86.1602 27.7204 86.8914 28.1352 87.4271 28.5216C87.9664 28.9079 88.0742 29.4306 87.7471 30.0943C87.5836 30.4309 87.343 30.5233 87.0289 30.3681C86.8393 30.2768 86.5359 30.0955 86.1033 29.8205C85.6719 29.5444 85.3329 29.35 85.0887 29.2291C83.3714 28.3912 81.4585 27.8673 79.3501 27.6481C78.9886 27.8365 78.6686 27.8626 78.4031 27.7334C77.6636 27.3719 77.679 26.4107 78.4399 24.8487C78.5477 24.627 78.697 24.3533 78.8784 24.025C79.0668 23.6943 79.1782 23.4893 79.2209 23.4063C80.041 21.7257 80.7332 20.1696 81.3045 18.7284C81.4882 18.2993 81.8485 17.3263 82.3842 15.8116C82.6698 15.0247 82.8286 14.5968 82.8594 14.5269C83.0313 14.1773 83.375 14.1216 83.8917 14.3586C86.8938 14.5387 89.263 15.0507 90.9922 15.891C91.7602 16.2644 92.2591 16.6116 92.4796 16.9221C92.828 17.3666 92.8339 17.9367 92.4962 18.6324ZM103.945 29.9841C102.91 29.7992 102.153 29.9118 101.681 30.3195C101.219 30.7201 100.976 31.5094 100.949 32.6863C100.954 33.747 100.964 34.8066 100.968 35.8673C100.896 37.0881 100.573 37.9426 100.003 38.4368C98.8298 39.462 96.3089 39.1538 92.444 37.5195C91.7163 37.2113 91.1225 36.7989 90.6698 36.2774C90.3972 35.9657 90.3533 35.7287 90.543 35.5651C90.6698 35.4537 90.8843 35.3861 91.1925 35.3613C94.8962 37.3476 97.2428 37.9165 98.2301 37.0525C98.7243 36.6282 98.9353 35.7749 98.8748 34.4901C98.7824 33.3121 98.6994 32.1399 98.633 30.9654C98.6236 29.6297 98.927 28.6981 99.5338 28.1719C100.222 27.5734 101.359 27.3956 102.944 27.6362C104.039 27.8057 105.206 28.1423 106.452 28.6401C106.996 28.857 107.399 29.1118 107.651 29.4045C107.842 29.619 107.956 29.8703 108.01 30.1547C108.059 30.4392 107.977 30.6715 107.771 30.8481C107.644 30.9607 107.486 31.0353 107.299 31.0804C107.068 31.1242 106.715 31.0235 106.253 30.7722C105.56 30.3858 104.795 30.1263 103.945 29.9841ZM52.6929 90.1808C53.6292 90.1156 54.3095 89.7269 55.1498 89.4353C55.6025 89.4057 55.6381 88.7539 56.0896 88.8854C56.7687 88.2774 57.9326 88.1423 58.7741 87.7903C59.4212 87.494 60.1015 87.8176 60.7142 87.6232C60.8754 87.4928 61.1338 87.7559 61.2322 87.5272C62.0736 87.5272 62.7871 86.9808 63.5279 86.5909C64.4393 86.0101 65.2772 85.363 66.1839 84.9091C66.4102 84.8759 66.5726 84.6816 66.8286 84.7171C66.927 85.2623 67.4165 84.7171 67.7045 84.8771C69.0639 84.1316 70.5181 83.6493 71.9415 83.1633C72.5234 82.8706 73.2985 82.8042 73.7868 82.6146L73.7845 82.6727L73.8176 82.6738V82.5814L73.7833 82.5826C74.1744 82.4499 74.7243 82.3183 75.1083 82.1879C78.7966 81.1864 82.6793 80.3793 86.3711 79.7002C88.8908 79.2795 91.3477 78.8256 94.0665 79.0199C94.3865 79.0187 94.8085 78.9891 95.1687 79.0543C95.932 78.9808 96.8292 78.9216 97.7442 78.8824C92.0221 91.8365 79.0704 100.881 63.9996 100.882C56.1821 100.881 48.9382 98.4404 42.972 94.291C43.7412 93.7352 44.5163 93.2433 45.481 92.9897C45.8366 92.5358 46.4185 92.313 46.9045 92.0522C48.9394 91.4099 50.6887 90.7959 52.6929 90.1808ZM37.3625 88.9518C37.4265 88.9482 37.5225 89.0833 37.5865 88.9494C38.332 89.1106 39.3027 89.0845 40.0114 88.9826C41.1776 88.9494 42.3427 88.2395 43.4757 88.6922C43.2505 88.8866 43.3773 89.177 43.3453 89.4365C43.7637 89.7601 44.316 89.5965 44.8339 89.6273C45.0935 89.7613 45.5142 89.6617 45.7714 89.8608C46.3877 90.0184 46.9684 90.0516 47.5184 90.214C47.7471 90.2128 47.6464 89.9888 47.7127 89.862C48.0043 89.9224 48.2627 90.1192 48.4227 90.3076C47.2588 90.9583 46.1282 91.603 44.8956 92.1222C44.06 92.7159 43.1735 93.2481 42.3083 93.8229C40.316 92.371 38.4719 90.7296 36.809 88.915C36.9904 88.9494 37.1729 88.9719 37.3625 88.9518ZM35.5042 92.4967C35.6843 92.2881 35.913 92.1826 36.1833 92.1838C36.457 92.185 36.7012 92.2798 36.9169 92.4682C37.0556 92.5879 37.1124 92.9648 37.0982 93.6036C37.0864 93.9651 37.0153 94.195 36.8813 94.2993C36.719 94.4238 36.4997 94.3681 36.2236 94.1287C35.7305 93.6996 35.4627 93.2196 35.4141 92.6899C35.4093 92.633 35.439 92.5701 35.5042 92.4967ZM23.4722 91.4881C22.9922 91.7737 22.4802 92.1707 21.9397 92.6673C21.66 92.9233 21.103 93.4733 20.265 94.3337C19.8348 94.7793 19.503 95.1124 19.2683 95.3316L18.3877 94.3811C18.9127 93.8857 19.5042 93.2979 20.1702 92.6045L22.2953 90.3657C23.5172 89.0821 24.5767 88.0854 25.4763 87.3814L25.6316 87.5568L25.7524 87.6611C26.0452 87.7725 26.236 87.8721 26.3142 87.961C26.3996 88.057 26.4351 88.1696 26.4221 88.2845L24.9418 89.6475C27.5836 89.4223 29.6683 90.1381 31.1853 91.7998C31.4473 92.0937 31.7839 92.5524 32.1951 93.1853C32.6668 93.9165 32.892 94.4024 32.873 94.6395C32.6467 94.9014 32.4096 95.1337 32.156 95.3352C31.6381 95.7453 31.2742 95.8507 31.0704 95.641C31.1095 95.0839 30.9649 94.5281 30.633 93.9758C30.1684 93.1983 29.6387 92.6389 29.0461 92.2881C28.5234 91.9776 27.7815 91.7358 26.812 91.5556C25.5154 91.3139 24.4002 91.2925 23.4722 91.4881ZM29.7086 103.678C29.3353 104.103 29.0224 104.431 28.7687 104.652C28.5187 104.718 28.2236 104.605 27.8846 104.311C27.721 104.166 27.5634 103.993 27.4141 103.794C28.4156 102.357 29.4846 100.861 30.6176 99.3067C31.2896 98.3894 31.9 97.6131 32.4547 96.979C33.0722 96.2679 33.596 95.7524 34.0286 95.4383C34.3948 95.4099 34.6544 95.4644 34.8108 95.6007C34.9684 95.737 35.0609 95.9847 35.0893 96.3497L33.6351 98.4356C31.9391 100.878 30.6247 102.623 29.7086 103.678ZM43.0479 110.139C42.7907 110.592 42.4339 110.831 41.9729 110.859C39.5053 110.997 36.6645 110.378 33.4419 108.999C32.7095 108.582 32.5732 107.975 33.0307 107.17C33.3056 107.24 33.5356 107.325 33.7181 107.43C33.8295 107.492 33.9883 107.604 34.1933 107.768C34.3984 107.929 34.556 108.042 34.6686 108.104C35.0775 108.34 35.6938 108.544 36.5246 108.723C36.7415 108.767 37.1729 108.856 37.8176 108.997C38.0997 109.071 38.6496 109.204 39.4722 109.399C39.9984 109.521 40.559 109.587 41.1492 109.593C41.4716 109.594 41.6553 109.55 41.7039 109.469C41.9207 109.087 41.6446 108.465 40.8742 107.594C40.2935 106.938 39.5764 106.292 38.7338 105.645C38.2336 105.263 37.4455 104.702 36.3646 103.96C36.2484 104.133 36.1264 104.333 35.9936 104.569C35.3276 105.739 34.9756 106.421 34.9388 106.616L34.9033 106.675C34.6793 107.069 34.3 107.111 33.769 106.807C33.6884 106.763 33.5735 106.68 33.423 106.561C33.7299 105.681 34.1981 104.689 34.8227 103.59C35.1154 103.084 35.5646 102.333 36.1797 101.339C36.7913 100.35 37.244 99.5983 37.5344 99.0887C38.652 99.1491 39.8763 99.5592 41.2144 100.319C42.1116 100.83 42.8227 101.364 43.356 101.92C43.8123 102.399 43.8585 102.95 43.503 103.578C43.3844 103.784 43.2327 103.94 43.0479 104.044C42.524 104.33 42.0049 104.506 41.4917 104.582C41.2132 104.62 40.6763 104.641 39.868 104.65C40.2366 104.951 40.8707 105.491 41.7738 106.278C42.364 106.784 42.8381 107.483 43.2019 108.372C43.4425 108.949 43.3892 109.541 43.0479 110.139ZM63.2754 115.978C62.7421 116.929 61.6339 117.464 59.964 117.576C59.4022 117.611 58.7172 117.611 57.8994 117.575L57.3341 117.542L57.0105 117.524L55.2114 117.44C54.7539 117.047 54.5394 116.589 54.5655 116.062C54.5667 116.007 54.5844 115.904 54.62 115.765C54.6532 115.727 54.7042 115.716 54.78 115.72L55.4473 115.895C55.5468 115.924 56.0908 115.988 57.0722 116.089C57.6327 116.115 58.0274 116.134 58.2562 116.148C60.3326 116.249 61.4502 115.816 61.6185 114.843C61.6908 114.414 60.6076 113.749 58.3687 112.84C58.0926 112.731 57.2879 112.416 55.9581 111.899C55.7258 111.812 55.5101 111.642 55.3074 111.4C55.0407 111.078 54.9151 110.735 54.9353 110.363C54.9412 110.269 54.9602 110.155 55.0028 110.014C55.337 109.199 56.7261 108.48 59.1747 107.851C60.1524 107.599 61.0366 107.449 61.8105 107.391L61.9101 108.456C61.6742 108.651 61.1492 108.837 60.3444 109.028C59.407 109.242 58.7859 109.418 58.4861 109.551C57.8781 109.825 57.564 110.191 57.5403 110.663C57.5261 111.007 58.1708 111.359 59.4876 111.709C60.3255 111.933 60.8707 112.107 61.1314 112.221C61.7074 112.428 62.2336 112.802 62.7113 113.337C63.26 113.962 63.5231 114.583 63.4911 115.199C63.4793 115.488 63.4034 115.745 63.2754 115.978ZM75.1178 117.202C75.0005 116.989 74.908 116.685 74.8404 116.288C74.812 116.121 74.78 115.867 74.7575 115.524C74.7231 115.178 74.6982 114.919 74.6686 114.754C74.6117 114.419 74.5513 114.169 74.473 114.004C74.1685 113.303 73.6541 112.762 72.9311 112.379C72.2129 111.999 71.4686 111.869 70.7101 111.997C69.7939 112.147 69.1527 112.45 68.7842 112.904C68.7379 112.97 68.54 113.376 68.1987 114.12L68.4274 116.145C68.3148 116.177 68.1477 116.21 67.9273 116.247C67.2565 116.358 66.8499 116.343 66.7042 116.199C66.6425 115.124 66.492 113.707 66.2384 111.946C65.9338 109.825 65.7513 108.411 65.6849 107.699C65.5439 106.165 65.5237 104.778 65.6292 103.526C65.6339 103.554 65.8307 103.602 66.2301 103.669C66.6236 103.737 66.8298 103.819 66.8464 103.923C66.927 104.42 67.0159 105.079 67.1071 105.893L67.3714 108.345C67.4864 109.274 67.5765 109.926 67.6381 110.298C67.721 110.783 67.8076 111.195 67.9012 111.535C67.9794 111.57 68.0612 111.578 68.1489 111.566C68.2082 111.556 68.4559 111.373 68.8956 111.018C69.3293 110.662 69.6268 110.47 69.7762 110.436C69.8141 110.432 69.871 110.418 69.9599 110.397C70.0298 110.381 70.0867 110.368 70.1305 110.361C71.0218 110.214 72.0173 110.412 73.1101 110.965C73.9942 111.41 74.8369 112.02 75.6404 112.781C76.0327 113.159 76.2947 113.766 76.4333 114.599C76.5613 115.371 76.5507 116.057 76.3966 116.654C75.9996 116.942 75.5705 117.126 75.1178 117.202ZM82.8831 114.344L82.5394 114.502C81.6885 114.895 80.9205 114.801 80.2212 114.216C79.9249 113.963 79.5527 113.524 79.113 112.891C79.049 112.799 78.9922 112.701 78.9447 112.602C78.6236 111.91 78.8345 110.847 79.5836 109.416C79.9604 108.705 80.5839 108.141 81.4585 107.737C81.7477 107.601 82.1767 107.443 82.7279 107.256C83.3205 107.065 83.7424 106.906 83.9996 106.794C83.535 105.818 82.8013 105.309 81.801 105.254C81.532 105.241 81.2725 105.293 81.0165 105.409C80.6573 105.578 80.3219 105.914 79.9853 106.424L79.0597 107.871C78.8855 107.949 78.6899 107.922 78.4588 107.794C78.2479 107.675 78.1021 107.528 78.0203 107.351C77.9634 107.232 77.9504 107.105 77.98 106.961C78.729 105.373 79.5824 104.356 80.5412 103.915C81.7619 103.346 82.876 103.489 83.8763 104.353C84.3895 104.804 85.0378 105.651 85.8093 106.897C86.6141 108.194 87.2505 109.088 87.7199 109.575C86.9756 111.133 85.3649 112.727 82.8831 114.344ZM99.0147 104.236C98.3356 105.127 97.6932 105.823 97.0923 106.323C96.7924 106.573 96.5376 106.75 96.3125 106.865C94.108 108.027 92.1797 108.101 90.5299 107.103C90.0807 106.834 89.6991 106.497 89.3649 106.097C88.6692 105.252 88.2556 104.266 88.137 103.13C88.0138 101.997 88.2105 100.946 88.7166 99.9681C88.9513 99.5106 89.2535 99.1301 89.6173 98.8279C90.556 98.0576 91.759 97.9141 93.2369 98.4072C93.9089 98.6324 94.7006 99.238 95.6203 100.216C95.7021 100.301 95.8585 100.471 96.0908 100.717C96.0707 101.011 95.9474 101.258 95.7151 101.448C95.4781 101.644 95.2529 101.696 95.0419 101.601C94.3711 101.113 93.7098 100.625 93.0413 100.13C92.252 99.6564 91.5527 99.609 90.9329 99.9811C90.8606 100.03 90.8061 100.065 90.78 100.083L90.652 100.194C89.903 100.808 89.6268 101.794 89.8129 103.146C89.9136 103.874 90.1696 104.482 90.5773 104.973C90.985 105.464 91.548 105.841 92.2662 106.101C93.2748 106.474 94.3344 106.291 95.4425 105.547C95.7637 105.338 96.2473 104.96 96.9015 104.42C97.1622 104.202 97.468 103.878 97.8259 103.443C97.9444 103.298 98.0985 103.101 98.2893 102.837C98.5027 102.807 98.6864 102.891 98.8582 103.095C98.9791 103.239 99.0585 103.424 99.1047 103.65C99.1652 103.924 99.1367 104.116 99.0147 104.236ZM104.48 97.075C103.021 97.721 101.864 98.3823 101.013 99.0472C101.639 99.5888 101.995 99.8958 102.08 99.9776C102.512 100.392 102.806 100.746 102.968 101.043C103.188 101.234 103.112 101.556 102.727 102.005C102.456 102.324 102.153 102.465 101.822 102.429C97.961 99.1408 95.1308 96.4813 93.3388 94.4475C93.5036 94.3503 93.6031 94.291 93.6221 94.2661C93.6553 94.2258 93.6967 94.0599 93.7418 93.7624C93.7927 93.4626 93.8319 93.299 93.8579 93.2587C94.0156 93.0762 94.2147 93.0881 94.4612 93.2979C95.9652 94.579 97.3317 95.865 98.5572 97.1568C99.0941 95.9847 99.721 94.1014 100.437 91.5153C101.006 91.6019 101.396 91.7251 101.6 91.9017C101.646 92.5216 101.544 93.1746 101.302 93.8561C101.123 94.3444 100.924 94.9097 100.695 95.5497C100.47 96.1933 100.341 96.7586 100.32 97.2564C100.784 97.0762 101.487 96.7621 102.429 96.3201L104.865 95.187C105.752 94.7734 106.589 94.4759 107.373 94.2934C107.591 94.1536 107.789 94.1595 107.964 94.31C108.187 94.4996 108.221 94.8801 108.071 95.4537C107.752 95.6173 106.549 96.1577 104.48 97.075ZM112.109 67.5959C109.595 67.5959 107.565 65.5621 107.566 63.0531C107.567 60.5441 109.598 58.5127 112.104 58.5115C114.618 58.5138 116.65 60.5441 116.651 63.0567C116.647 65.561 114.614 67.5947 112.109 67.5959Z" fill="var(--fill-0, white)"/>
</g>
</g>
<path id="Vector_9" d="M70.3555 70.0289C69.7132 67.6017 69.7108 64.9516 69.6136 62.4912C69.5117 61.2918 69.4785 59.9323 69.6444 58.6405C69.9644 58.2861 70.6163 58.8372 70.8083 58.1889C70.6791 57.9922 70.8403 57.8334 70.8711 57.6722C70.5179 57.1211 69.6124 57.511 69.3197 56.9255C69.2237 56.8615 69.2557 56.7027 69.0921 56.6672C68.9641 56.7003 68.8373 56.7347 68.7378 56.8283C68.5067 57.4446 67.7375 57.1223 67.1828 57.2195C66.7656 57.1223 66.2821 56.9895 65.859 57.0891C65.763 57.5738 65.2415 57.3486 64.9215 57.4446C64.6631 57.5406 64.5979 57.799 64.5979 58.055C64.8563 58.4793 65.3067 58.5421 65.6978 58.7353C65.5698 59.8352 65.4074 61.0998 65.4726 62.2636C65.2118 65.1424 65.3067 67.9869 65.2735 70.8681C65.4726 71.2248 65.245 71.9667 65.8921 71.9335C66.2157 71.8375 65.9905 71.514 66.0865 71.3184C66.5049 71.3836 66.9268 71.418 67.2539 71.6763C68.1878 71.8363 69.2261 72.1291 70.1647 72.4846C70.3899 72.3886 70.5867 72.1919 70.5831 71.9347C70.4231 71.3172 70.3852 70.6737 70.3555 70.0289ZM67.4139 69.9626C66.704 67.5353 67.1188 64.6909 67.312 62.1996C67.4732 62.1676 67.4115 61.7789 67.3772 61.6509C67.1864 60.7762 67.5075 59.7392 67.3464 58.8977C67.7387 58.8005 68.1558 58.8029 68.5114 58.7697C68.5458 62.2624 67.2492 65.7587 67.9958 69.351L68.0504 69.8156C68.0539 69.8263 68.0527 69.8393 68.0539 69.8512L68.1001 70.2423C67.8726 70.138 67.645 70.0337 67.4139 69.9626ZM68.6821 70.4829L68.7235 70.1878C68.7378 70.17 68.7579 70.1593 68.7674 70.1285C68.752 70.0076 68.7603 69.8986 68.7793 69.7955L68.7804 69.7883C68.8385 69.4743 68.9902 69.2135 68.8681 68.8935C68.8041 68.6067 68.9013 68.346 68.835 68.122C68.9641 68.6043 68.9333 69.0891 69.2545 69.511L69.3541 70.6429C69.123 70.6298 68.9013 70.5635 68.6821 70.4829Z" fill="var(--fill-0, white)"/>
</g>
</svg>
