<svg preserveAspectRatio="xMidYMid meet" width="100%" height="100%" overflow="visible" style="display: block;" viewBox="0 0 58 58.0022" fill="none" xmlns="http://www.w3.org/2000/svg">
<g id="Group">
<path id="Vector" d="M24.8693 5.66287C24.8467 5.65964 24.8252 5.66018 24.8037 5.66448C24.6356 5.69617 24.3047 6.04422 23.9562 7.99075C24.388 7.82263 25.0003 7.55139 25.8608 7.14908C25.3838 5.97118 25.0589 5.68919 24.8693 5.66233V5.66287Z" fill="var(--fill-0, #D0202E)"/>
<path id="Vector_2" d="M24.9273 57.7191C10.7161 55.7221 0 43.3758 0 29.0019C0 13.015 13.0096 0.00483409 28.9997 0C30.3624 0 31.7321 0.0956077 33.0711 0.2836C47.2871 2.28169 58.0043 14.6296 58 29.0056C58.0021 36.7536 54.9862 44.037 49.5081 49.514C44.0305 54.9911 36.7472 58.0054 29.0008 58.0022C27.6381 58.0022 26.2674 57.9071 24.9273 57.7186V57.7191ZM32.9454 1.17898C31.6477 0.996898 30.32 0.903976 28.9997 0.903976C13.5081 0.908273 0.903976 13.5134 0.903976 29.0019C0.903976 42.9284 11.2855 54.8895 25.053 56.8242C26.3512 57.0069 27.6795 57.0987 29.0013 57.0993C36.506 57.1025 43.5627 54.1816 48.8689 48.8754C54.1762 43.5686 57.0982 36.5119 57.0966 29.0056C57.1003 15.077 46.7188 3.11423 32.946 1.17844L32.9454 1.17898Z" fill="var(--fill-0, #FFC425)"/>
<path id="Vector_3" d="M20.4164 27.4964L20.3906 27.4368V27.462L20.4164 27.4964Z" fill="var(--fill-0, #231F20)"/>
<path id="Vector_4" d="M28.2212 37.3606L28.2392 37.3574L28.2354 37.4081L28.2228 37.406L28.2212 37.3606Z" fill="var(--fill-0, white)"/>
<g id="Group_2">
<path id="Vector_5" d="M30.5674 31.7347C30.8623 31.826 31.1427 32.0355 31.4574 32.0495L31.4102 31.5306C31.2651 31.3335 31.2764 31.1116 31.2179 30.8947C31.2474 30.994 31.2028 31.1143 31.2335 31.2454C31.3092 31.4404 31.1556 31.5891 31.1867 31.8072C31.1604 31.912 31.0401 31.8507 30.967 31.8728C30.8344 31.7777 30.8612 31.6047 30.836 31.4549C30.4922 29.8043 31.0815 28.2031 31.0691 26.5998C30.9085 26.6154 30.7151 26.6202 30.5373 26.6594C30.6104 27.0483 30.4632 27.5215 30.5529 27.9254C30.5658 27.9861 30.5948 28.1612 30.5196 28.1757C30.4326 29.3161 30.2414 30.625 30.5674 31.7342V31.7347Z" fill="var(--fill-0, #D0202E)"/>
<path id="Vector_6" d="M29.852 25.8349C30.0459 25.7865 30.2672 25.8488 30.4611 25.8945C30.7125 25.8488 31.0702 25.9933 31.1717 25.7161C31.2201 25.6721 31.2775 25.6544 31.3372 25.6367C31.4129 25.6555 31.3952 25.7296 31.443 25.7597C31.5756 26.0261 31.9898 25.851 32.153 26.1018C32.138 26.1754 32.0633 26.2468 32.1235 26.3381C32.0327 26.6346 31.7389 26.3784 31.5864 26.5471C31.5155 27.139 31.5262 27.7604 31.574 28.311C31.6224 29.4389 31.6197 30.6544 31.9189 31.7657C31.9301 32.0649 31.9479 32.3571 32.0198 32.6407C32.0225 32.7175 31.9806 32.7745 31.9264 32.8212L32.3867 32.8749L32.7133 25.1796L29.4422 25.5115L29.497 25.9895C29.6393 25.9799 29.8155 26.0239 29.852 25.8343V25.8349Z" fill="var(--fill-0, #D0202E)"/>
<path id="Vector_7" d="M29.6881 27.655C29.7053 27.2898 29.7392 26.9245 29.7784 26.5905C29.7059 26.555 29.6296 26.5276 29.5555 26.4965L29.6881 27.6556V27.655Z" fill="var(--fill-0, #D0202E)"/>
<path id="Vector_8" d="M30.4932 32.5223C30.4159 32.4622 30.3273 32.4299 30.2333 32.4074L30.2585 32.6281L31.4343 32.7651C31.1179 32.6652 30.7956 32.5771 30.4932 32.5223Z" fill="var(--fill-0, #D0202E)"/>
</g>
<path id="Vector_9" d="M31.4431 25.7605C31.5757 26.027 31.9899 25.8518 32.1531 26.1027C32.1381 26.1763 32.0634 26.2477 32.1236 26.339C32.0328 26.6355 31.739 26.3793 31.5865 26.548C31.5156 27.1399 31.5263 27.7613 31.5741 28.3119C31.6225 29.4398 31.6198 30.6553 31.919 31.7666C31.9302 32.0658 31.948 32.358 32.0199 32.6416C32.0242 32.7625 31.9302 32.85 31.8276 32.8924C31.3969 32.7313 30.9221 32.6002 30.4929 32.5224C30.3441 32.4063 30.1513 32.3913 29.9574 32.358C29.9128 32.4531 30.0192 32.6013 29.8693 32.6421C29.5712 32.6583 29.677 32.3183 29.5878 32.1544C29.6007 30.8326 29.5556 29.529 29.6781 28.2087C29.6448 27.6738 29.7194 27.0953 29.7791 26.5904C29.6007 26.5028 29.3934 26.4738 29.2747 26.2789C29.2752 26.1596 29.3042 26.0431 29.4256 25.9979C29.5707 25.9534 29.8102 26.057 29.8532 25.8352C30.0471 25.7869 30.2684 25.8492 30.4623 25.8948C30.7137 25.8492 31.0714 25.9936 31.1729 25.7165C31.2212 25.6724 31.2787 25.6547 31.3383 25.637C31.4141 25.6558 31.3963 25.7299 31.4441 25.76M30.5375 26.6608C30.6105 27.0496 30.4634 27.5228 30.5531 27.9267C30.5659 27.9874 30.595 28.1625 30.5198 28.177C30.4327 29.3174 30.2415 30.6263 30.5676 31.7355C30.8624 31.8268 31.1428 32.0363 31.4576 32.0502L31.4103 31.5314C31.2653 31.3342 31.2766 31.1124 31.218 30.8954C31.2476 30.9948 31.203 31.1151 31.2336 31.2462C31.3093 31.4411 31.1557 31.5899 31.1869 31.808C31.1605 31.9127 31.0402 31.8515 30.9672 31.8735C30.8345 31.7784 30.8614 31.6055 30.8361 31.4556C30.4924 29.8051 31.0816 28.2039 31.0692 26.6006C30.9086 26.6162 30.7153 26.621 30.5375 26.6602V26.6608Z" fill="var(--fill-0, #231F20)"/>
<path id="Vector_10" d="M20.5237 24.6065L20.5248 25.6437L22.7179 23.4393L20.5237 24.6065Z" fill="var(--fill-0, #FFC52F)"/>
<path id="Vector_11" d="M35.8755 30.7262C36.1317 31.3649 36.1006 32.018 36.0114 32.7276C36.0619 33.4151 36.165 34.0714 36.303 34.7101L36.237 26.0914C36.2209 26.0914 36.2037 26.092 36.1892 26.0871L35.8234 26.1677L30.3254 19.3919L28.6072 20.3061L21.4151 29.0327C21.5021 29.1826 21.6004 29.3297 21.7401 29.4565L21.7546 29.6724C21.8883 29.8685 22.289 30.0264 22.1698 30.346C22.2745 30.5382 22.5404 30.7466 22.3921 30.9653C22.4362 31.0544 22.332 31.1028 22.2734 31.1146C22.065 31.1291 21.9925 30.8782 21.8137 30.7773C21.4871 30.557 21.1911 30.1564 20.7797 30.0908L20.5294 30.7015L20.5315 32.633C20.6819 32.6518 20.8356 32.7007 20.9838 32.655C21.2507 32.8694 21.03 33.1669 21.0595 33.443C21.0273 35.0023 20.893 36.5417 21.1159 37.9962C21.1294 38.4517 21.1439 38.9254 21.1444 39.4024L23.1473 40.5088C23.9143 40.2134 24.6899 39.9191 25.4919 39.6784L25.4419 39.3449C25.4188 39.3057 25.4156 39.2675 25.4236 39.2224L25.3903 38.9995C25.2303 39.0532 25.074 39.0736 24.9263 38.9007C24.9762 38.6944 25.1476 38.6337 25.3275 38.5784L25.3119 38.4764C25.1857 38.5301 25.0546 38.5693 24.9139 38.5881C24.7232 38.5043 24.8538 38.2696 24.7963 38.1047C24.6615 37.8195 24.7984 37.4773 24.7952 37.1991C24.5873 35.6866 24.4402 34.1423 24.3505 32.5841C24.2613 31.9326 24.2146 31.2612 23.8166 30.7434C23.8166 30.5404 23.8015 30.3304 23.9949 30.224C23.8907 29.9297 23.7118 30.274 23.5802 30.2853C23.3407 30.462 23.0297 30.5936 22.7778 30.4512C22.6301 30.2987 22.8949 30.1521 22.7316 30.0339C22.7622 29.9302 22.7966 29.8088 22.9121 29.7685C22.9862 29.7653 22.9862 29.6896 23.0318 29.6455C22.9115 29.5709 22.9566 29.4388 22.9867 29.3346C23.1796 29.1729 23.4621 29.2185 23.6818 29.1299C23.7532 29.0971 23.8295 29.0778 23.9025 29.0477L23.8751 28.8646L24.5938 28.7292L24.5304 28.2098L27.3782 28.104C27.5533 28.0455 27.6559 27.8516 27.8697 27.8816L28.0163 28.0476C28.0249 28.0616 28.019 28.0723 28.0255 28.0852L28.2156 28.0498L28.8999 37.5337C28.9525 37.5708 29.0003 37.618 29.0213 37.6739C29.1421 37.6701 29.3205 37.5439 29.3806 37.7174C29.3962 37.7631 29.3661 37.8222 29.422 37.8361C29.8683 37.8044 30.1933 37.5085 30.5945 37.3941C31.4271 37.0809 32.3799 37.061 33.192 36.7511C34.1137 36.7415 34.8523 36.2199 35.7138 36.112C35.5065 35.064 35.3158 33.9038 35.3722 32.7968C35.3421 32.3193 35.4318 31.8134 35.3561 31.3719C35.3556 31.2505 35.3437 31.1028 35.4324 31.0136C35.6666 31.0093 35.6096 30.6097 35.8755 30.7284V30.7262ZM31.9266 32.8221C31.896 32.8489 31.8648 32.8769 31.8277 32.8924C31.701 32.8446 31.5662 32.8065 31.434 32.7652L30.2583 32.6282L30.233 32.4074C30.1444 32.3865 30.0515 32.3741 29.9575 32.358C29.9129 32.4531 30.0193 32.6013 29.8694 32.6421C29.5713 32.6583 29.6771 32.3183 29.588 32.1544C29.6008 30.8326 29.5557 29.529 29.6782 28.2087C29.6669 28.0283 29.6798 27.8408 29.6889 27.655L29.5563 26.4959C29.4478 26.4502 29.3457 26.3944 29.2748 26.2783C29.2753 26.1591 29.3044 26.0425 29.4257 25.9974C29.4472 25.9904 29.4735 25.991 29.4983 25.9899L29.4435 25.5119L32.7145 25.1799L32.388 32.8753L31.9277 32.8215L31.9266 32.8221Z" fill="var(--fill-0, #FFC52F)"/>
<g id="Group_3" opacity="0.4">
<path id="Vector_12" d="M35.6737 20.1911C35.6785 20.4467 35.6957 20.7013 35.7456 20.9532L35.8042 20.9489C35.8617 21.16 35.6699 21.3346 35.7145 21.5194C36.5153 22.1816 37.4934 22.8391 38.2782 23.532C39.0806 23.9917 39.6156 24.5605 40.3423 25.1186C40.6678 25.6831 41.2619 26.028 41.7952 26.3986C42.1369 26.6945 42.3888 26.9889 42.6858 27.3606C42.7041 27.3896 42.7019 27.4153 42.7126 27.4433L43.2707 27.3912L35.6742 20.1911H35.6737Z" fill="var(--fill-0, #231F20)"/>
<path id="Vector_13" d="M34.3615 20.583L34.6601 20.8762C34.7649 20.923 34.8395 21.0852 34.9545 20.981L34.9561 19.5109L34.7676 19.332C34.76 19.3465 34.7541 19.3626 34.7471 19.3766C34.6032 19.4813 34.6016 19.6457 34.542 19.7972C34.4066 19.9733 34.5001 20.1957 34.5092 20.4057C34.499 20.4798 34.4356 20.554 34.362 20.583H34.3615Z" fill="var(--fill-0, #231F20)"/>
<path id="Vector_14" d="M33.3127 21.4409C33.8128 22.0618 34.3058 22.7327 34.8236 23.3241C35.2651 23.7532 35.639 24.1862 36.1723 24.5138L36.4747 24.2587C36.5413 24.1727 36.6799 24.053 36.6788 23.9337C36.0687 23.2838 35.3425 22.8084 34.6614 22.2762C34.1861 22.0962 33.758 21.8132 33.3519 21.4468L33.3127 21.4415V21.4409Z" fill="var(--fill-0, #231F20)"/>
<path id="Vector_15" d="M41.2891 27.4362C40.7858 27.4475 40.4013 27.3744 39.9544 27.5528C39.8314 27.6151 39.7073 27.6742 39.5838 27.7349L41.5174 27.5549C41.4406 27.5163 41.3697 27.4647 41.2891 27.4362Z" fill="var(--fill-0, #231F20)"/>
<path id="Vector_16" d="M40.3519 26.5448L40.3573 26.5007C39.854 26.0689 39.4066 25.5393 38.8125 25.2712L38.8431 25.4598C39.0531 25.818 39.0365 26.266 39.1418 26.6645C39.5408 26.6898 39.985 26.563 40.3519 26.5442V26.5448Z" fill="var(--fill-0, #231F20)"/>
<path id="Vector_17" d="M31.0556 16.9781C31.2936 17.2015 31.4096 17.5592 31.6486 17.8197C31.8559 18.1028 32.1669 18.2983 32.3914 18.6088C32.3882 18.7286 32.5386 18.8005 32.5101 18.9552C32.7454 19.1325 32.9098 19.365 33.1762 19.4972C33.3711 19.6331 33.5049 19.8221 33.6805 19.9854L33.7251 19.9607C33.6107 19.4166 33.6257 18.8607 33.6886 18.3112L30.6683 15.4483L29.6886 16.4334C30.1796 16.5307 30.6898 16.5645 31.0551 16.9786L31.0556 16.9781Z" fill="var(--fill-0, #231F20)"/>
<path id="Vector_18" d="M38.206 25.0924C38.2898 25.5532 38.516 26.0586 38.5305 26.4857C38.575 26.6194 38.5595 26.7553 38.6497 26.8874C38.6792 26.8418 38.6819 26.7548 38.6948 26.7118C38.5203 26.2499 38.5482 25.6579 38.3973 25.1627C38.3231 25.1649 38.2608 25.1246 38.2055 25.0924H38.206Z" fill="var(--fill-0, #231F20)"/>
<path id="Vector_19" d="M35.8461 25.6577C34.0811 23.8154 32.5939 21.77 30.8176 19.9567C30.5678 19.6623 30.3283 19.3809 30.1193 19.0672C30.1054 19.072 30.0925 19.0833 30.0785 19.0882L35.823 26.1674L36.1888 26.0869C36.0416 26.0369 35.9852 25.7597 35.8461 25.6582V25.6577Z" fill="var(--fill-0, #231F20)"/>
<path id="Vector_20" d="M27.4481 21.4269C27.0641 21.6965 26.7225 21.9898 26.4254 22.3787C26.0248 22.6585 25.6993 23.0549 25.3716 23.433C25.1213 23.6839 24.9113 24.0083 24.646 24.2301C23.8881 25.2254 22.8197 25.9983 22.1811 27.0484C21.825 27.5119 21.4265 27.9239 21.1316 28.446L21.1284 28.5335C21.232 28.6888 21.3158 28.8623 21.4141 29.032L28.6389 20.2656C28.2039 20.6078 27.7892 20.9902 27.4487 21.4269H27.4481Z" fill="var(--fill-0, #231F20)"/>
<path id="Vector_21" d="M37.5226 24.7681C36.9468 24.933 36.7094 25.6028 36.3656 26.0486L37.7036 25.7553L38.201 26.6426C38.0952 25.9675 38.021 25.2843 37.522 24.7681H37.5226Z" fill="var(--fill-0, #231F20)"/>
<path id="Vector_22" d="M20.6709 30.0655C20.2874 30.4006 20.0929 30.8405 19.8775 31.2729L20.2755 31.3207L20.7794 30.0902C20.7423 30.0843 20.7101 30.0649 20.6703 30.0649L20.6709 30.0655Z" fill="var(--fill-0, #231F20)"/>
<path id="Vector_23" d="M18.6952 31.1312C18.5351 31.0217 18.3815 30.8976 18.1806 30.874C18.0217 30.8836 17.8815 30.9416 17.7488 31.0179L18.6952 31.1312Z" fill="var(--fill-0, #231F20)"/>
<path id="Vector_24" d="M20.8347 27.7584C21.7392 26.7395 22.6459 25.8028 23.3871 24.7178C24.5441 23.3422 26.04 22.1976 27.1985 20.7453C28.073 20.0207 28.6826 19.0673 29.4974 18.2385C29.2863 17.9195 29.0822 17.5891 28.8421 17.2835L17.0996 29.0851C17.2177 29.0159 17.3321 28.9417 17.438 28.8569C18.3715 28.1457 19.1299 27.3792 19.9608 26.5134C19.9608 26.493 19.9469 26.4758 19.9345 26.4586L19.8539 26.3974C19.8846 26.4054 19.913 26.4296 19.9345 26.4586L19.9882 26.4994C21.265 25.2673 22.6754 24.0668 23.8754 22.6456C24.529 21.9591 25.4631 21.6218 25.9089 20.7469C26.4267 19.9906 27.3183 19.635 27.733 18.8009C27.9865 18.4872 28.2824 18.2063 28.6096 18.0312C28.6966 18.0301 28.804 18.0779 28.8163 18.1617C28.8298 18.3846 28.638 18.535 28.507 18.6816C28.0735 19.1258 27.704 19.6463 27.2297 20.0148C26.8704 20.4767 26.6625 21.0562 26.1887 21.4274C25.122 22.1251 24.6601 23.2499 23.5961 23.9352C23.1519 24.38 22.6459 24.9106 22.1995 25.3602C22.1383 25.6803 21.7419 25.8157 21.5899 26.0848C21.4685 26.2013 21.2676 26.2491 21.2966 26.4559C21.2059 26.6198 21.0249 26.7073 20.8949 26.8292C19.9152 27.7176 18.9355 28.6044 18.1507 29.647C18.0616 29.7608 17.9155 29.7469 17.808 29.8076C17.6603 29.958 17.5862 30.1631 17.3628 30.2067C17.2908 30.2856 17.1103 30.3307 17.0534 30.4731C17.0652 30.5182 17.0249 30.5654 17.0362 30.6106C17.4825 30.3125 17.9117 29.987 18.3312 29.6921C18.7448 29.7179 18.951 30.1653 19.2642 30.4177L19.3523 30.4167C19.6616 30.1062 19.9007 29.7925 20.05 29.4203C20.1547 29.3333 20.2879 29.3467 20.3905 29.2909C20.3454 29.2463 20.2272 29.3054 20.1698 29.2269C20.0494 29.0212 20.2127 28.8042 20.2272 28.5915C20.3782 28.2698 20.7037 28.056 20.8363 27.7584H20.8347Z" fill="var(--fill-0, #231F20)"/>
</g>
<path id="Vector_25" d="M35.7869 14.3625C35.9497 14.2019 36.1715 14.3211 36.3681 14.2481C36.591 14.2169 36.6206 14.4549 36.6915 14.5913C36.7205 14.8867 36.7382 15.18 36.8988 15.4179C36.8961 15.6446 37.0631 15.7886 37.1083 15.9991C37.2887 16.5486 37.5229 17.0825 37.7319 17.6293C37.8017 17.7157 37.864 17.8387 37.8199 17.9591C37.785 18.1492 37.4198 18.03 37.5519 18.3136C37.538 18.356 37.524 18.4043 37.4794 18.4307C37.1647 18.4613 37.2699 18.001 36.96 17.9843C36.6334 17.8495 36.3348 17.662 36.0082 17.5272C35.8186 18.653 35.5195 19.8256 35.745 20.953L35.8036 20.9487C35.8611 21.1598 35.6693 21.3343 35.7139 21.5191C36.5147 22.1814 37.4928 22.8388 38.2776 23.5317C39.08 23.9915 39.615 24.5603 40.3417 25.1184C40.6672 25.6829 41.2613 26.0277 41.7946 26.3983C42.1363 26.6943 42.3882 26.9886 42.6852 27.3603C42.8635 27.645 42.639 27.8663 42.5203 28.1037C42.4757 28.1472 42.3747 28.1456 42.3318 28.101C42.017 27.8367 41.677 27.5725 41.2887 27.4355C40.7854 27.4468 40.4008 27.3737 39.9539 27.5521C39.5119 27.775 39.0784 28.0118 38.5891 28.1187C38.3093 28.0172 38.5139 27.7481 38.4124 27.5563C38.0702 26.6346 38.2513 25.5212 37.5218 24.7671C36.9434 24.9325 36.707 25.6082 36.3617 26.0529C36.0684 26.2318 36.0286 25.7903 35.846 25.6571C34.081 23.8148 32.5938 21.7694 30.8175 19.9561C30.5677 19.6617 30.3282 19.3803 30.1192 19.0666C29.7347 19.1901 29.4204 19.6145 29.1084 19.9002C28.4901 20.2998 27.9111 20.8327 27.4481 21.4262C27.0641 21.6958 26.7225 21.9891 26.4255 22.378C26.0248 22.6578 25.6993 23.0542 25.3716 23.4323C25.1213 23.6832 24.9113 24.0076 24.646 24.2294C23.8881 25.2247 22.8198 25.9976 22.1811 27.0477C21.825 27.5112 21.4265 27.9232 21.1316 28.4453L21.1284 28.5328C21.3239 28.825 21.4426 29.1849 21.7391 29.4545L21.7536 29.6705C21.8873 29.8665 22.288 30.0244 22.1688 30.344C22.2735 30.5363 22.5394 30.7447 22.3911 30.9633C22.4352 31.0525 22.331 31.1008 22.2724 31.1126C22.064 31.1271 21.9915 30.8763 21.8127 30.7753C21.4571 30.5358 21.1439 30.0609 20.6697 30.0636C20.1653 30.5046 19.9886 31.1266 19.6609 31.675C19.3499 31.8415 19.2028 31.3318 18.9638 31.2738C18.6828 31.1841 18.4879 30.9085 18.1796 30.872C17.6167 30.9069 17.2595 31.4698 16.8131 31.7813C16.5139 31.8845 16.5795 32.3867 16.2218 32.21C16.1299 32 15.8055 32.0204 15.878 31.7523C15.806 31.6138 15.9994 31.3619 15.7024 31.3774C15.5509 31.3312 15.3446 31.3479 15.2582 31.2007C15.2539 31.0235 15.371 30.7995 15.2721 30.6529C15.5391 29.57 16.6939 29.4535 17.4362 28.8551C18.3697 28.144 19.1281 27.3775 19.959 26.5116C19.959 26.4553 19.9005 26.4091 19.8522 26.3962L19.9864 26.4982C21.2632 25.2661 22.6737 24.0656 23.8736 22.6444C24.5273 21.9579 25.4613 21.6206 25.9071 20.7456C26.4249 19.9894 27.3165 19.6338 27.7312 18.7997C27.9847 18.486 28.2807 18.2051 28.6078 18.03C28.6948 18.0289 28.8022 18.0767 28.8146 18.1605C28.828 18.3834 28.6362 18.5338 28.5052 18.6804C28.0717 19.1246 27.7022 19.6451 27.2279 20.0135C26.8686 20.4755 26.6607 21.055 26.187 21.4262C25.1202 22.1239 24.6583 23.2486 23.5943 23.934C23.1501 24.3787 22.6441 24.9094 22.1978 25.359C22.1365 25.6791 21.7401 25.8145 21.5881 26.0836C21.4667 26.2001 21.2659 26.2479 21.2949 26.4547C21.2041 26.6185 21.0231 26.7061 20.8931 26.828C19.9134 27.7164 18.9337 28.6032 18.1489 29.6458C18.0598 29.7596 17.9137 29.7457 17.8063 29.8064C17.6586 29.9567 17.5844 30.1619 17.361 30.2054C17.289 30.2844 17.1085 30.3295 17.0516 30.4718C17.0634 30.517 17.0231 30.5642 17.0344 30.6093C17.4808 30.3112 17.9099 29.9858 18.3294 29.6909C18.743 29.7167 18.9493 30.1641 19.2624 30.4165L19.3505 30.4154C19.6599 30.105 19.8989 29.7913 20.0482 29.4191C20.1529 29.3321 20.2862 29.3455 20.3887 29.2896C20.3436 29.2451 20.2255 29.3041 20.168 29.2257C20.0477 29.02 20.211 28.803 20.2255 28.5903C20.3764 28.2686 20.7019 28.0548 20.8346 27.7572C21.7391 26.7383 22.6457 25.8016 23.387 24.7166C24.5439 23.341 26.0398 22.1964 27.1984 20.744C28.0728 20.0195 28.6824 19.0661 29.4972 18.2373C29.2298 17.8334 28.9961 17.3951 28.6518 17.0363C28.6207 16.9616 28.5911 16.8762 28.6217 16.7978C28.7421 16.7387 28.7259 16.5915 28.8146 16.5147C28.7549 16.4557 28.799 16.3676 28.8436 16.323C29.0251 16.2021 29.1863 16.3649 29.3651 16.352C29.9441 16.5341 30.6096 16.4696 31.0565 16.9767C31.2945 17.2001 31.4105 17.5578 31.6495 17.8183C31.8568 18.1014 32.1678 18.2969 32.3923 18.6074C32.3891 18.7271 32.5395 18.7991 32.511 18.9538C32.7463 19.1311 32.9107 19.3636 33.1771 19.4958C33.372 19.6317 33.5058 19.8207 33.6814 19.984L33.726 19.9593C33.502 18.8904 33.7717 17.7748 33.9366 16.7548C34.0048 16.5298 34.1863 16.3407 34.1122 16.0899C34.1724 15.997 34.2911 15.9384 34.3786 16.0131C34.4957 16.1624 34.6434 16.3541 34.5978 16.576C34.6885 16.7414 34.8975 16.7393 35.0017 16.8725C35.1639 16.7699 35.2847 16.5201 35.5189 16.5781C35.5039 16.4256 35.4174 16.2795 35.2831 16.1592L33.8581 15.0355C33.6981 15.0753 33.6068 14.9163 33.5616 14.797C33.3849 14.7089 33.1008 14.7965 33.0138 14.6058C32.9526 14.515 32.8032 14.6085 32.7603 14.4817C32.7452 14.3979 32.6706 14.3034 32.7463 14.2336C33.3275 13.9027 33.9946 14.218 34.616 14.1407C34.999 14.1756 35.4185 14.2153 35.7869 14.3625ZM34.8642 18.6713L34.8239 18.7733C34.9286 18.9522 34.8405 19.1982 34.7471 19.3765C34.6031 19.4813 34.6015 19.6456 34.5419 19.7971C34.4065 19.9733 34.5 20.1956 34.5091 20.4056C34.4989 20.4798 34.4355 20.5539 34.362 20.5829L34.6606 20.8762C34.7653 20.9229 34.84 21.0851 34.9549 20.9809L34.9571 19.1907L34.9125 19.0827C34.9275 18.9334 34.9281 18.7749 34.8642 18.6713ZM33.3124 21.4407C33.8125 22.0616 34.3056 22.7325 34.8233 23.3238C35.2649 23.753 35.6387 24.1859 36.1721 24.5136L36.4745 24.2584C36.5411 24.1725 36.6796 24.0527 36.6786 23.9335C36.0684 23.2835 35.3422 22.8082 34.6611 22.2759C34.1858 22.096 33.7577 21.8129 33.3516 21.4466L33.3124 21.4412V21.4407ZM38.2067 25.092C38.2905 25.5529 38.5166 26.0583 38.5311 26.4853C38.5757 26.6191 38.5601 26.755 38.6503 26.8871C38.6799 26.8414 38.6826 26.7544 38.6955 26.7115C38.5209 26.2495 38.5488 25.6576 38.3979 25.1624C38.3238 25.1645 38.2615 25.1243 38.2061 25.092H38.2067ZM38.8125 25.2709L38.8432 25.4594C39.0532 25.8177 39.0365 26.2656 39.1418 26.6642C39.5409 26.6894 39.9851 26.5627 40.3519 26.5439L40.3573 26.4998C39.854 26.068 39.4066 25.5384 38.8125 25.2704V25.2709Z" fill="var(--fill-0, #231F20)"/>
<g id="Group_4">
<path id="Vector_26" d="M26.4623 39.0474C26.4623 39.0474 26.4583 39.0491 26.4566 39.0513C26.4855 39.0807 26.4792 39.0643 26.4623 39.0474Z" fill="var(--fill-0, #231F20)"/>
<path id="Vector_27" d="M46.28 35.5765C46.1419 35.4615 45.9469 35.4288 45.774 35.3922C44.8931 35.3444 43.8704 35.4153 42.9697 35.2698C42.8166 35.2982 42.9122 35.1033 42.7763 35.0909C40.7412 34.8798 38.9783 35.4411 37.1097 35.8633C36.9007 35.9095 36.6467 35.9632 36.4404 35.9342C36.4249 35.6844 36.3948 35.3885 36.5151 35.179C36.514 35.1092 36.4721 35.0017 36.3685 35.0436C36.1891 34.3035 36.0709 33.5338 36.0113 32.7276C36.1004 32.018 36.1316 31.3649 35.8754 30.7263C35.6095 30.6075 35.6664 31.0072 35.4322 31.0115C35.3442 31.1006 35.3554 31.2483 35.356 31.3697C35.4323 31.8107 35.3426 32.3172 35.3721 32.7947C35.3157 33.9017 35.5064 35.0624 35.7137 36.1098C34.8516 36.2178 34.1136 36.7399 33.1919 36.749C32.3803 37.0589 31.4269 37.0783 30.5944 37.3919C30.1932 37.5069 29.8682 37.8023 29.4219 37.834C29.366 37.82 29.3966 37.7609 29.3805 37.7153C29.3203 37.5418 29.142 37.6685 29.0212 37.6718C28.9932 37.5966 28.918 37.5246 28.8439 37.4924C28.3417 36.1882 28.339 34.7192 27.9856 33.3533C28.3122 33.146 27.8228 32.9822 27.8943 32.777L27.883 32.7754C27.8207 32.5374 27.8669 32.1964 27.8502 31.9729C27.8239 30.9502 27.7632 29.7202 27.9093 28.7394C27.8363 28.4564 28.1773 28.2958 28.0167 28.0449L27.8701 27.879C27.6563 27.8489 27.5532 28.0428 27.3786 28.1013L24.5308 28.2072L24.6017 28.7856C24.2902 28.8855 23.9803 28.9914 23.6827 29.1272C23.463 29.2159 23.1805 29.1697 22.9877 29.3319C22.9576 29.4361 22.9125 29.5682 23.0328 29.6429C22.9871 29.6875 22.9871 29.7632 22.913 29.7659C22.7975 29.8056 22.7632 29.9276 22.7325 30.0312C22.8958 30.1494 22.6305 30.296 22.7787 30.4486C23.0306 30.5909 23.3416 30.4588 23.5812 30.2826C23.7123 30.2713 23.8917 29.927 23.9959 30.2214C23.8025 30.3277 23.8181 30.5377 23.8175 30.7408C24.2155 31.2585 24.2628 31.9299 24.3514 32.5815C24.4411 34.1397 24.5883 35.6844 24.7962 37.1964C24.7994 37.4752 24.6624 37.8168 24.7972 38.102C24.8542 38.2669 24.7242 38.5016 24.9149 38.5854C25.2151 38.5467 25.4772 38.4259 25.7184 38.2315C25.7291 38.1423 25.7216 38.0558 25.7232 37.9683L25.7694 38.3475C25.7576 38.3539 25.742 38.3577 25.7302 38.3652C25.5207 38.6343 25.0185 38.5194 24.9267 38.8986C25.2092 39.23 25.5224 38.8556 25.835 38.8862C25.7173 38.9775 25.5836 39.0667 25.4332 39.1532C25.372 39.2455 25.416 39.3782 25.5062 39.4228C25.8183 39.4024 26.1723 39.2257 26.3968 39.0473C26.4134 39.0103 26.4446 39.0291 26.4623 39.0468C26.523 38.9678 26.6202 38.9786 26.682 38.9619C26.5456 39.1387 26.2195 39.2133 26.2083 39.4765C24.974 39.7789 23.8148 40.2553 22.6627 40.6942C22.5988 40.6227 22.6434 40.5781 22.6305 40.4927C22.3163 39.8815 21.5896 40.121 21.1459 39.7483C21.1599 39.1537 21.133 38.5618 21.1163 37.9957C20.8934 36.5411 21.0272 35.0017 21.0599 33.4425C21.0304 33.1664 21.2517 32.8688 20.9842 32.6545C20.7892 32.7147 20.583 32.6099 20.3902 32.6271C20.2865 32.6438 20.3015 32.7598 20.2553 32.8355C20.3783 33.6068 20.2865 34.4684 20.3332 35.2209C20.3128 35.5668 20.315 35.8762 20.2688 36.2065C20.272 36.4423 20.257 36.7989 20.2881 37.0514C20.2263 37.8469 20.0899 38.6945 20.1227 39.5087L20.0904 39.556C19.621 39.7037 19.129 39.5528 18.6542 39.6892C17.7507 39.5114 16.6819 39.4255 15.7038 39.4206C15.1978 39.3497 14.6499 39.1263 14.1177 39.3181C13.9807 39.3809 14.0258 39.5146 13.9957 39.6172C14.1918 39.8213 14.5624 39.7467 14.8288 39.7902C15.2123 39.983 15.613 40.1608 16.0309 40.2951C16.2651 40.3397 16.5175 40.4777 16.7871 40.4449C16.8167 40.4439 16.8602 40.5062 16.8876 40.4476C17.2292 40.5196 17.675 40.5067 18.001 40.4578C18.5355 40.4449 19.0715 40.1151 19.5888 40.3262C19.4873 40.4127 19.5463 40.5486 19.5297 40.6673C19.7214 40.8139 19.975 40.7403 20.2134 40.7565C20.3321 40.8166 20.5244 40.7753 20.6448 40.8607C20.9246 40.9332 21.1905 40.9498 21.4408 41.0234C21.5498 41.0272 21.5042 40.9192 21.5326 40.866C21.6653 40.8902 21.7829 40.9772 21.8592 41.0707C21.3253 41.3682 20.808 41.6626 20.2414 41.8995C19.636 42.3275 18.9684 42.6831 18.3738 43.1751C18.2991 43.2476 18.3851 43.3352 18.4157 43.4093C18.565 43.4995 18.6101 43.2219 18.7718 43.3266C19.3508 42.9082 19.8256 42.4747 20.5083 42.298C20.6711 42.0934 20.9402 41.9854 21.1609 41.8721C22.0966 41.5713 22.8985 41.2925 23.817 41.0089C24.2467 40.981 24.5593 40.8032 24.9423 40.6673C25.1528 40.6533 25.1689 40.3579 25.373 40.4186C25.6883 40.1329 26.2228 40.0754 26.6063 39.9148C26.9033 39.7789 27.2154 39.9239 27.4995 39.8364C27.5709 39.7778 27.6864 39.9019 27.7326 39.7945C28.1199 39.7918 28.4454 39.5469 28.7838 39.3664C29.2022 39.0957 29.5884 38.8013 30.0036 38.5951C30.1078 38.5779 30.1819 38.4871 30.2995 38.5038C30.3425 38.7557 30.5643 38.5027 30.6991 38.5784C31.3233 38.2347 31.9898 38.0128 32.6435 37.7867C32.9115 37.6605 33.2644 37.6288 33.4868 37.5391L33.4906 37.5643L33.5072 37.5665L33.5056 37.5219L33.4889 37.5267C33.6651 37.4644 33.9181 37.4027 34.0964 37.3463C35.79 36.8865 37.5673 36.5116 39.2646 36.2054C40.421 36.0126 41.5442 35.8021 42.7903 35.8896C42.9417 35.8912 43.1324 35.8799 43.2973 35.9095C44.0654 35.8348 45.1198 35.7859 45.948 35.8139C46.0538 35.7279 46.3342 35.7854 46.281 35.5765H46.28ZM20.5679 39.3514C20.4503 39.2713 20.4901 39.1558 20.5384 39.0672C20.5551 39.1526 20.641 39.259 20.5679 39.3514ZM25.2559 35.027C25.0782 34.6483 25.061 34.1832 24.9745 33.7653C24.9611 33.031 24.917 32.2699 24.736 31.5733C24.6742 30.9196 24.7661 30.223 24.4857 29.6139C24.5394 29.5591 24.6125 29.5338 24.6904 29.5156L25.6287 37.198C25.4767 36.4681 25.3881 35.7725 25.2554 35.0264L25.2559 35.027Z" fill="var(--fill-0, #231F20)"/>
</g>
<path id="Vector_28" d="M9.20092 29.0675C9.20092 28.3687 8.85608 27.7542 8.3297 27.3745C8.56711 27.7123 8.70838 28.1221 8.70784 28.5674C8.70784 29.719 7.7754 30.652 6.62381 30.6482C6.17585 30.6493 5.76334 30.5064 5.42334 30.2663C5.8004 30.7965 6.41701 31.1472 7.11742 31.1488C8.27062 31.1461 9.20145 30.2126 9.20038 29.0675H9.20092Z" fill="var(--fill-0, #271C02)"/>
<path id="Vector_29" d="M53.6374 29.0638C53.639 28.3618 53.2898 27.743 52.7586 27.366C53.0014 27.707 53.147 28.1217 53.147 28.5718C53.147 29.7164 52.2124 30.6488 51.064 30.6526C50.6128 30.6537 50.1976 30.507 49.856 30.2621C50.2325 30.7971 50.8508 31.1473 51.5528 31.1457C52.7065 31.1484 53.6406 30.21 53.6379 29.0643L53.6374 29.0638Z" fill="var(--fill-0, #271C02)"/>
<path id="Vector_30" d="M53.1478 28.5716C53.1478 29.7162 52.2132 30.6486 51.0648 30.6524C49.9154 30.6556 48.9797 29.7183 48.9819 28.5684C48.9819 27.4232 49.9122 26.4897 51.0621 26.4876C52.2121 26.4843 53.1483 27.42 53.1478 28.5721" fill="var(--fill-0, #FFC52F)"/>
<path id="Vector_31" d="M4.54123 28.5702C4.54284 27.4191 5.47421 26.4867 6.62526 26.4899C7.77416 26.4867 8.70875 27.4143 8.70714 28.5675C8.70714 29.7191 7.7747 30.6521 6.62311 30.6483C5.47367 30.6515 4.54069 29.7229 4.54069 28.5702" fill="var(--fill-0, #FFC52F)"/>
<path id="Vector_32" opacity="0.4" d="M2.93488 21.5585C3.38983 21.4956 3.84692 21.3694 4.30615 21.3973L4.54141 21.2528C4.47212 21.0906 4.37705 20.9499 4.51832 20.7877C4.8234 20.5256 5.26921 20.5062 5.57215 20.2199C5.76068 20.2463 5.92343 20.2436 6.13452 20.3177C6.48741 20.2908 6.86339 20.337 7.19318 20.3139C7.39944 20.4568 7.5885 20.2436 7.79906 20.3172C8.6187 20.337 9.25251 19.8252 10.0029 19.7532C10.446 19.5679 10.9627 19.5405 11.4542 19.4943C12.074 19.4298 12.5821 19.8053 13.1321 19.692L13.4732 19.5878C13.9888 19.693 14.526 19.743 14.9857 19.5668C15.5245 19.0791 15.5589 19.5335 16.1416 19.2553C16.567 19.2322 17.0886 18.5452 17.5344 18.5704C17.58 18.6419 17.6295 18.6397 17.6756 18.5968C17.7911 18.8723 17.6907 17.826 17.9018 17.9635L18.8138 16.2184C19.3316 16.4042 20.2812 14.6011 20.7952 14.4142L20.7963 14.3637C20.9849 14.4856 21.1003 14.2735 21.2652 14.2719C21.8018 14.4803 22.2503 14.1569 22.789 14.201C23.0689 14.0828 23.4422 14.2482 23.6791 13.9399C23.9589 13.8975 23.9116 13.5672 23.982 13.3561C23.9122 13.0043 23.8203 12.5359 23.7967 12.0895C23.8885 11.9252 24.1012 11.9735 24.2393 11.9982C24.7093 12.3753 24.2618 13.218 24.8956 13.5666C25.1073 13.7299 25.2953 13.9652 25.5525 13.9888C25.5987 14.2224 25.9742 14.0844 26.1396 14.1338L26.2315 14.0388C26.2073 14.1059 26.2798 14.1086 26.3013 14.1306C26.4447 14.151 26.5145 13.9652 26.6536 13.9652C27.0054 13.8513 27.3073 13.6139 27.7059 13.6134C27.8047 13.5016 27.9433 13.5462 28.0614 13.4995L28.6673 13.1922C28.8118 12.7695 29.2555 12.7502 29.4402 12.3506C29.5847 12.205 29.7673 12.1185 29.7915 11.9257C29.8645 12.0423 29.9338 11.8817 30.0037 11.9048C30.0284 11.6926 30.2636 11.7882 30.3802 11.6905C30.7556 11.5986 30.8013 12.0224 31.108 12.0466C31.1295 11.9241 31.2251 11.8607 31.3406 11.8323C31.4775 11.858 31.622 11.8344 31.7144 11.9741C31.8788 12.4199 31.13 12.6761 31.5511 13.0966C31.6918 13.3829 32.0206 13.5929 32.2075 13.7519C32.3665 13.8502 32.5126 13.9652 32.6968 14.0114C32.9562 13.8003 32.6775 13.2422 33.1206 13.2857C33.1926 13.6112 33.1442 13.9662 33.1206 14.2928C33.2162 14.3873 33.2404 14.5555 33.1904 14.6946C33.0969 14.8332 32.9342 14.8101 32.7962 14.8101C32.6748 14.6221 32.4196 14.5291 32.2053 14.4346C32.229 14.2412 32.0206 14.3401 31.9502 14.2472C31.8336 14.1054 31.6215 14.0371 31.5269 13.8712C31.4797 13.8518 31.4335 13.8261 31.3889 13.775C31.3663 13.8733 31.4104 14.0135 31.4791 14.1048C31.6462 14.1784 31.5248 14.2251 31.6671 14.3406C31.5248 14.7375 32.4406 14.6 31.948 14.9744C31.7617 14.9744 31.5764 14.8777 31.456 14.7145C31.224 14.6194 31.0602 14.3621 30.942 14.1741C30.7556 13.9641 30.8931 13.6794 30.6853 13.4742C30.6342 13.3335 30.8002 13.1493 30.6353 13.0306C30.3576 13.1428 30.0719 13.1477 29.8619 13.3765C29.698 13.2588 29.6067 13.493 29.4402 13.5451C29.3006 13.4946 29.2517 13.7283 29.1131 13.6134C29.0911 13.7057 28.9267 13.7331 28.996 13.8449C28.9026 13.9448 28.7634 14.0581 28.7624 14.1972C28.4788 14.2026 28.2478 14.5302 28.0604 14.7392C28.1323 14.9008 27.8938 14.9492 27.8702 15.092C27.7332 15.4202 27.4271 15.7194 27.3105 16.1018C27.0984 16.2162 27.1005 16.7039 26.7487 16.611C26.6982 16.5664 26.6542 16.4972 26.557 16.5219C26.4415 16.7518 26.348 16.3774 26.2078 16.5219C25.9752 16.4015 25.7631 15.9531 25.4354 16.1239L25.4596 16.2162C25.3157 16.2834 25.06 16.285 24.9182 16.2162C24.7076 16.0014 24.6384 15.7011 24.5427 15.4149C24.1909 15.2344 23.6979 15.1839 23.3466 15.3235C22.947 15.2102 22.4362 15.0942 22.13 15.4879C22.0575 15.3708 21.7309 15.5593 21.8485 15.3031C21.8722 15.1855 22.0113 15.0915 21.9178 14.9519C21.5687 15.0426 21.3576 15.7028 20.9381 15.6367C20.8425 15.7951 20.5074 15.6974 20.4365 15.8832C20.0358 15.7001 19.3509 17.5531 18.932 17.5263C18.7451 17.5252 18.0178 19.3219 17.854 19.136C17.5731 19.1092 17.7664 19.6479 17.4393 19.8364C16.7593 19.7215 16.3388 20.5105 15.6394 20.4122C15.2409 20.3881 14.8187 20.3494 14.4196 20.4638C14.1392 20.4617 13.8578 20.2506 13.5967 20.4171L13.5339 20.3644C13.3953 20.6228 12.9527 20.4074 12.7857 20.6453L12.7175 20.5723C12.3904 20.7162 12.1073 20.7141 11.7308 20.8081C11.43 21.0181 10.9348 20.9741 10.6093 21.1379C10.2333 21.161 9.90565 21.2786 9.55491 21.3436C9.5071 21.4892 9.29548 21.3452 9.2278 21.4618C8.89747 21.6508 8.59077 21.4865 8.28837 21.697C8.12509 21.6294 7.98436 21.8388 7.79476 21.7669C7.54016 22.1428 7.18781 21.7013 6.9069 21.9591C6.50943 21.9344 6.20488 22.1004 5.78109 22.1423C4.7756 22.2922 3.75883 22.2438 2.76784 22.1627C2.78342 22.1203 2.89621 21.6605 2.93166 21.5585M30.6144 12.4462C30.5424 12.5633 30.3571 12.5117 30.2427 12.5649C30.3082 12.4655 30.4967 12.3028 30.6144 12.4462ZM24.5449 14.0876C24.4767 14.014 24.3601 14.0796 24.3349 13.9689C24.0781 14.1037 23.8891 14.3428 23.6103 14.4813L23.866 14.5308C24.2892 14.3422 24.7323 14.6452 25.1083 14.7171C25.1551 14.621 25.3903 14.7381 25.2969 14.5732C25.2023 14.6221 25.0847 14.505 25.016 14.4577L24.5444 14.0876H24.5449ZM25.7642 14.7655C26.0703 14.9723 26.3969 15.0185 26.7251 15.1581C26.9163 14.8831 27.1225 14.6462 27.2412 14.3653C26.7036 14.4362 26.3502 14.7837 25.7642 14.7655ZM23.2332 15.5362C23.1623 15.6082 23.0474 15.5857 23.0211 15.7022C23.0925 15.96 22.7912 16.0309 22.8594 16.2635C22.9292 16.285 22.9523 16.1926 22.9991 16.1684C23.1392 16.1437 23.2332 16.2646 23.353 16.3118C23.5147 16.2597 23.7961 16.2608 23.8198 16.0309C23.6307 15.8397 23.5851 15.4648 23.2327 15.5368L23.2332 15.5362Z" fill="var(--fill-0, #231F20)"/>
<path id="Vector_33" d="M15.6761 13.5507C15.4096 13.2961 14.9928 13.1752 14.3956 13.1924C13.9116 13.2445 13.4266 13.2966 12.9389 13.3487C12.4286 13.3729 12.0763 13.2988 11.8985 13.1279C11.71 12.9459 11.6374 12.6333 11.6745 12.1719C11.704 11.783 11.7905 11.428 11.9323 11.1143C12.0306 10.8731 12.0634 10.7007 12.0322 10.5627C11.9989 10.4649 11.9511 10.3897 11.884 10.3285C11.7733 10.22 11.6267 10.1899 11.4666 10.2334C11.3318 10.2651 11.2094 10.3365 11.103 10.4472C10.9762 10.5831 10.8742 10.7829 10.7899 11.0595C10.6083 11.6745 10.5036 12.2202 10.4687 12.7294C10.4219 13.4996 10.5562 14.0233 10.8785 14.3316C11.1664 14.6023 11.6262 14.7087 12.2648 14.6448C12.796 14.5637 13.338 14.4745 13.8724 14.3778C14.4181 14.3005 14.8075 14.3547 14.9977 14.5357C15.4032 14.9262 15.2372 16.0037 14.5035 17.7375L14.4933 17.7606L14.4976 17.7853C14.5261 17.9427 14.575 18.0501 14.6405 18.1087C14.6776 18.1484 14.7216 18.1726 14.771 18.1796C14.8677 18.193 14.9724 18.1404 15.0809 18.0233C15.3044 17.7961 15.4773 17.4947 15.5955 17.129C16.1955 15.2474 16.2218 14.0765 15.6761 13.5501V13.5507Z" fill="var(--fill-0, #231F20)"/>
<path id="Vector_34" d="M21.9584 11.4683C21.5888 10.9666 21.157 10.3011 20.6752 9.48952C20.0849 8.49853 19.6316 7.74119 19.4608 7.46242C19.4301 7.41408 19.3437 7.27819 19.1997 7.07784C19.0939 6.91133 19.0133 6.78028 18.9521 6.67661C18.9365 6.64707 18.914 6.60517 18.8903 6.56865C18.8645 6.51225 18.8372 6.46874 18.8216 6.44511C18.7469 6.31137 18.6314 6.23241 18.4789 6.21093C18.4499 6.20663 18.4193 6.20502 18.3838 6.20502C18.2205 6.21146 18.0701 6.25604 17.9251 6.34145C17.6168 6.51977 17.6464 6.72656 17.7264 6.86944C17.7962 6.99083 17.8972 7.12994 18.025 7.28087C18.1389 7.42858 18.2227 7.53439 18.2743 7.59885L18.3237 7.66169C18.6975 8.18216 19.0815 8.75527 19.4651 9.36598C18.3247 10.4171 17.5003 11.1498 17.1173 11.4527C16.4266 10.3059 15.9904 9.59211 15.8201 9.32838L15.5962 8.99751C15.5741 8.96475 15.5591 8.94219 15.5473 8.92661C15.5419 8.91909 15.5365 8.91318 15.5322 8.90835C15.5242 8.89492 15.5097 8.8686 15.4925 8.83638C15.4807 8.81704 15.4716 8.79985 15.464 8.78481C15.4544 8.76601 15.4458 8.75044 15.4404 8.74292C15.3545 8.58823 15.2143 8.50282 15.03 8.4996C14.8657 8.49638 14.7126 8.53666 14.5611 8.62206C14.4322 8.69458 14.3533 8.78159 14.3264 8.88042C14.3033 8.96475 14.3184 9.05337 14.3715 9.14415L14.3742 9.14254C14.3758 9.14576 14.378 9.14952 14.3807 9.15328L14.3785 9.15543L14.3807 9.15381C14.4059 9.19571 14.4537 9.26178 14.5364 9.37618L14.8227 9.7715C15.5075 10.7136 16.1693 11.747 16.7875 12.839C16.802 12.8707 16.838 12.9314 16.8922 13.0259L16.9508 13.1269C17.0335 13.2784 17.1055 13.4035 17.1613 13.4986C17.4578 14.0293 17.7393 14.3064 18.024 14.3467C18.1341 14.3623 18.2426 14.3403 18.3494 14.2817C18.5009 14.1893 18.5863 14.0325 18.603 13.815L18.6057 13.7843L18.5869 13.7591C18.3537 13.4433 18.0873 13.0442 17.7747 12.5393C18.5643 11.602 19.3496 10.8946 20.1112 10.4343L20.1563 10.5111C20.2208 10.6352 20.3201 10.8076 20.4474 11.0284C20.5721 11.2561 20.6634 11.4146 20.7241 11.5182C21.0141 12.0344 21.3557 12.1875 21.7193 11.985C21.8257 11.928 21.9562 11.8013 21.9739 11.5214L21.9761 11.4914L21.9584 11.4667V11.4683Z" fill="var(--fill-0, #231F20)"/>
<path id="Vector_35" d="M27.1326 8.08841C27.2577 7.99817 27.2986 7.82146 27.2534 7.56096C27.2239 7.39176 27.1643 7.23922 27.0708 7.0942C26.9553 6.91802 26.8194 6.82295 26.6562 6.81543C25.9316 5.0107 25.3015 4.09384 24.73 4.01327C24.6667 4.00414 24.6038 4.00575 24.5431 4.01703C24.0817 4.0976 23.6982 4.74375 23.3711 5.99363C23.2476 6.46791 23.0918 7.27306 22.9087 8.38597C22.8437 8.78291 22.7722 9.29801 22.6911 9.96189C22.595 10.7901 22.559 11.295 22.5853 11.4658C22.6063 11.5749 22.6401 11.6748 22.6949 11.7838C22.7679 11.9122 22.848 11.9809 22.9398 11.9938C22.9656 11.9976 22.9925 11.9965 23.0139 11.9911C23.2223 11.9578 23.3679 11.721 23.4597 11.2628L23.5027 10.9405C23.5258 10.7708 23.5494 10.5989 23.572 10.4238C23.6048 10.1751 23.6488 9.89153 23.7095 9.5338C24.6516 8.90859 25.5094 8.48266 26.2614 8.2662C26.4059 8.69267 26.5401 9.11861 26.6599 9.53327C26.7743 9.90871 26.8318 10.1048 26.835 10.116L26.8415 10.1386C26.9757 10.4399 27.1439 10.5699 27.3329 10.5318C27.4951 10.5001 27.6036 10.3814 27.6552 10.1767C27.6869 10.0403 27.6901 9.89153 27.6633 9.73039C27.6418 9.62565 27.478 9.11807 27.1331 8.08841H27.1326ZM25.8607 7.14898C25.0002 7.55129 24.3879 7.822 23.956 7.99065C24.3046 6.04359 24.6355 5.69553 24.8036 5.66438C24.8251 5.66008 24.8466 5.65955 24.8692 5.66277C25.0588 5.68962 25.3837 5.97108 25.8607 7.14952V7.14898Z" fill="var(--fill-0, #231F20)"/>
<path id="Vector_36" d="M35.2821 4.55419C35.3117 3.93006 35.0152 3.75657 34.7611 3.72058C34.5909 3.69641 34.4346 3.74153 34.2987 3.85432C34.1682 3.96551 34.0903 4.10838 34.0661 4.27811C34.0435 4.43871 34.0339 4.64174 34.0376 4.87861L34.0355 5.0188C34.0333 5.1751 34.0301 5.33087 34.0333 5.47965C33.9995 7.0459 33.9436 8.08845 33.8625 8.66693C33.8239 8.94086 33.7836 9.0456 33.7696 9.08266C33.7653 9.07622 33.7599 9.06816 33.754 9.05903C33.6933 8.96879 33.6257 8.78134 33.5472 8.49505C33.5274 8.43973 33.457 8.17976 33.3818 7.8967C33.0864 6.76498 32.8893 6.07586 32.7614 5.72726C32.3634 4.61327 31.9622 4.04285 31.5336 3.98269C31.106 3.92254 30.6812 4.33612 30.2343 5.24654C29.9238 5.88357 29.6139 6.74296 29.2868 7.87468C29.1364 8.42845 28.9908 8.97685 28.8464 9.52471L28.7728 9.80348C28.7228 9.98986 28.6901 10.1209 28.6788 10.1999C28.6562 10.361 28.668 10.5404 28.7153 10.7515C28.7873 11.0222 28.9108 11.1721 29.0822 11.1962C29.1606 11.2075 29.2508 11.1844 29.3555 11.1237C29.5011 11.0195 29.6139 10.7617 29.7111 10.3132C30.0103 8.91508 30.1795 8.16956 30.259 7.89562C30.6973 6.36483 31.0743 6.08338 31.3134 6.11668C31.4804 6.14031 31.764 6.39383 32.1668 7.46754C32.2839 7.81935 32.4021 8.17063 32.5203 8.52191C32.6814 9.00048 32.842 9.47906 33.001 9.95871C33.4237 11.1978 33.6659 11.3837 33.8303 11.4068C34.108 11.446 34.4754 11.1479 34.853 8.4784C34.9019 8.13196 34.9695 7.55885 35.0549 6.77519C35.2037 5.41896 35.273 4.73413 35.2805 4.55473L35.2821 4.55419Z" fill="var(--fill-0, #231F20)"/>
<path id="Vector_37" d="M42.1317 7.36592C42.0189 7.21177 41.7858 7.04795 41.4179 6.86318C40.6181 6.47699 39.5149 6.23689 38.1463 6.15686C37.8686 6.03547 37.6742 6.07844 37.5726 6.28094C37.5646 6.2992 37.541 6.36527 37.5007 6.47645L37.353 6.88037C37.108 7.56949 36.941 8.01745 36.8572 8.21458C36.6048 8.85858 36.2841 9.57779 35.906 10.3518C35.8888 10.3862 35.8372 10.4791 35.7518 10.63C35.6653 10.7831 35.5993 10.9088 35.5477 11.0103C35.2958 11.5222 35.2174 11.8965 35.3065 12.1538C35.3522 12.2849 35.4403 12.3821 35.5681 12.4433C35.7088 12.5132 35.8759 12.5051 36.0553 12.4202C37.0022 12.5196 37.8632 12.7581 38.6372 13.1346C38.7334 13.1813 38.8789 13.2651 39.0932 13.3967C39.2742 13.516 39.422 13.6062 39.524 13.6588C39.5648 13.6787 39.6051 13.6911 39.6427 13.6964C39.7378 13.7099 39.8726 13.6846 39.9709 13.487C40.1777 13.0567 39.9897 12.8027 39.7969 12.6668C39.5713 12.5013 39.2662 12.3268 38.7758 12.0802C38.0797 11.7456 37.3395 11.4824 36.5741 11.296C36.6144 11.1999 36.6676 11.0882 36.7369 10.9496L36.8217 10.7654C38.1108 10.8653 39.2136 11.1473 40.1057 11.6043L40.2749 11.6871C40.3125 11.7316 40.3501 11.7655 40.3974 11.7854C40.6052 11.8863 40.7954 11.7757 40.9474 11.4658C41.0177 11.3132 41.0553 11.1467 41.058 10.9705C41.0596 10.7433 40.9925 10.5801 40.8582 10.485L40.8357 10.4737C40.7895 10.4587 40.5322 10.3996 39.9677 10.2696L39.0406 10.0553C38.3998 9.90919 37.8423 9.76256 37.3809 9.61861C37.7773 8.76459 38.1017 8.05935 38.3488 7.49913C39.2597 7.50611 40.0703 7.67906 40.7712 8.02067C41.021 8.13938 41.2466 8.28279 41.4657 8.46165L41.5409 8.5159C41.5764 8.54168 41.5994 8.55726 41.6134 8.56424C41.8105 8.65931 41.998 8.54276 42.1393 8.23552C42.3111 7.88801 42.3079 7.5942 42.1307 7.36431L42.1317 7.36592Z" fill="var(--fill-0, #231F20)"/>
<path id="Vector_38" d="M42.5016 11.3785C42.5817 11.443 42.6794 11.4838 42.7928 11.4999C42.8792 11.5123 42.9738 11.5101 43.085 11.4945C43.3605 11.4494 43.7752 11.2308 44.3155 10.843C44.8118 10.488 45.1679 10.1813 45.3742 9.93043C45.5793 9.68013 45.6701 9.47173 45.6524 9.29394C45.6411 9.18437 45.5874 9.08984 45.4956 9.01518C45.4134 8.94696 45.3049 8.90507 45.155 8.88412L45.1217 8.8868C44.2118 9.13388 43.3997 9.68765 42.7079 10.532C42.5854 10.6797 42.2132 11.1298 42.5016 11.379V11.3785Z" fill="var(--fill-0, #231F20)"/>
<path id="Vector_39" d="M49.2672 13.4632C49.2387 13.3182 49.1775 13.1946 49.0813 13.0856C48.954 12.9336 48.7574 12.8074 48.5001 12.7128C47.9372 12.483 47.3899 12.3267 46.8743 12.2466L46.7991 12.2359C46.0912 12.1365 45.5669 12.2284 45.242 12.5098C44.9428 12.766 44.7929 13.2193 44.7967 13.8628C44.8316 14.3994 44.8671 14.936 44.9111 15.4715C44.938 16.0355 44.8477 16.4093 44.6442 16.585C44.23 16.9448 43.1553 16.6779 41.51 15.797L41.4875 15.7846L41.4622 15.7873C41.3022 15.8024 41.1942 15.8378 41.1222 15.899C40.9966 16.0059 41.0111 16.1563 41.169 16.3481C41.3865 16.6 41.6717 16.7977 42.016 16.9352C42.869 17.2961 43.5909 17.5195 44.1607 17.5996C44.7962 17.6887 45.2699 17.6028 45.568 17.3444C45.8484 17.1076 46.0074 16.6913 46.0412 16.1015L46.0315 14.6465C46.0428 14.1287 46.1465 13.7844 46.3398 13.6206C46.5332 13.4492 46.849 13.3971 47.3045 13.4831C47.6875 13.5491 48.0345 13.6684 48.3358 13.8381C48.4894 13.923 48.6253 13.974 48.7386 13.9901C48.7864 13.9971 48.831 13.9976 48.8831 13.988C48.9879 13.9547 49.0674 13.9133 49.1307 13.8612C49.2441 13.7592 49.2903 13.6265 49.2666 13.4632H49.2672Z" fill="var(--fill-0, #231F20)"/>
<g id="Group_5">
<path id="Vector_40" d="M18.5856 46.8331C18.7978 46.7848 18.8537 46.7504 18.865 46.7418C18.8521 46.7396 18.8005 46.6333 18.3783 46.3927C17.9986 46.1789 17.6586 46.0398 17.3417 45.9683C17.2681 46.1005 17.2015 46.2342 17.1306 46.39C17.0645 46.5226 17.0103 46.6295 16.9646 46.7144C16.9845 46.7208 17.0113 46.7278 17.0457 46.7359C17.1413 46.7643 17.209 46.7885 17.2568 46.8213C17.3385 46.8481 17.4555 46.8766 17.5785 46.8943C17.8648 46.9346 18.2043 46.9142 18.5862 46.8336L18.5856 46.8331Z" fill="var(--fill-0, #D0202E)"/>
<path id="Vector_41" d="M56.0947 29.0048C56.0937 14.0385 43.9655 1.90813 28.9991 1.90759C16.6206 1.90598 6.18433 10.2142 2.94817 21.5566C3.39881 21.4932 3.85161 21.3697 4.30655 21.3976L4.54181 21.2531C4.47252 21.0909 4.37745 20.9502 4.51871 20.788C4.8238 20.5258 5.26961 20.5065 5.57255 20.2202C5.76107 20.2465 5.92382 20.2439 6.13491 20.318C6.4878 20.2911 6.86379 20.3373 7.19358 20.3142C7.39983 20.4571 7.5889 20.2439 7.79945 20.3174C8.6191 20.3373 9.2529 19.8254 10.0033 19.7535C10.4464 19.5682 10.9631 19.5408 11.4546 19.4946C12.0744 19.4301 12.5825 19.8056 13.1325 19.6922L13.4736 19.588C13.9796 19.6917 14.5054 19.7384 14.9593 19.5741C17.0718 16.4335 20.2107 14.0433 23.8954 12.8788C23.8513 12.6242 23.8121 12.3573 23.7976 12.0887C23.8895 11.9244 24.1022 11.9727 24.2402 11.9974C24.4551 12.1698 24.4782 12.4395 24.5002 12.7145C25.9343 12.3192 27.4382 12.0914 28.9991 12.0914C29.2306 12.0914 29.4562 12.1167 29.6861 12.1253C29.7393 12.0689 29.7822 12.0071 29.7924 11.9244C29.8655 12.0409 29.9348 11.8803 30.0046 11.9034C30.0293 11.6913 30.2646 11.7869 30.3811 11.6891C30.7566 11.5973 30.8022 12.0211 31.1089 12.0452C31.1304 11.9228 31.226 11.8594 31.3415 11.8309C31.4785 11.8567 31.6229 11.8331 31.7153 11.9727C31.7631 12.1027 31.7314 12.215 31.675 12.3218C39.7442 13.604 45.9163 20.5715 45.9104 29.0032C45.9109 31.2565 45.4613 33.4017 44.6632 35.3681C45.0435 35.3703 45.4205 35.3713 45.7723 35.3901C45.9453 35.4272 46.1403 35.46 46.2783 35.5744C46.332 35.7833 46.0511 35.7258 45.9453 35.8118C45.4914 35.7962 44.972 35.8053 44.4661 35.8274C41.8428 41.7669 35.9102 45.9156 29.0023 45.914C25.4154 45.914 22.096 44.7914 19.3599 42.8894C19.1676 43.0296 18.9748 43.1757 18.7696 43.3245C18.6079 43.2198 18.5628 43.498 18.4135 43.4072C18.3829 43.3336 18.297 43.2455 18.3716 43.173C18.5956 42.9877 18.8346 42.832 19.072 42.6746C18.1605 42.0118 17.3205 41.2614 16.5588 40.4337C16.3735 40.4031 16.1957 40.3252 16.0282 40.293C15.6097 40.1587 15.2096 39.9809 14.8261 39.7881C14.5602 39.7446 14.189 39.8187 13.993 39.6151C14.0231 39.5126 13.978 39.3783 14.1149 39.316C14.6429 39.1253 15.187 39.3434 15.6892 39.4164C13.4387 36.5444 12.0857 32.936 12.0873 29.0027C12.0873 25.8831 12.9456 22.9708 14.4179 20.4625C14.1386 20.4587 13.8587 20.2503 13.5988 20.4157L13.5359 20.3631C13.3973 20.6214 12.9547 20.4061 12.7877 20.644L12.7195 20.571C12.3924 20.7149 12.1093 20.7128 11.7328 20.8068C11.432 21.0168 10.9368 20.9727 10.6113 21.1365C10.2353 21.1596 9.90765 21.2773 9.55691 21.3423C9.50911 21.4878 9.29748 21.3439 9.22981 21.4604C8.89948 21.6495 8.59278 21.4851 8.29038 21.6957C8.1271 21.628 7.98637 21.8375 7.79677 21.7655C7.54217 22.1415 7.18982 21.7 6.9089 21.9578C6.51143 21.9331 6.20689 22.0991 5.7831 22.141C4.77868 22.2908 3.76406 22.2425 2.77468 22.1614C2.2064 24.3464 1.90239 26.6383 1.90293 29.0016C1.90132 43.9674 14.0322 56.0999 28.9986 56.0989C43.9606 56.101 56.0942 43.968 56.0931 29.0027L56.0947 29.0048ZM15.5958 17.1296C15.4776 17.4954 15.3047 17.7962 15.0812 18.0239C14.9727 18.1405 14.868 18.1937 14.7713 18.1802C14.7219 18.1732 14.6778 18.1491 14.6408 18.1093C14.5752 18.0508 14.5269 17.9434 14.4979 17.786L14.4936 17.7613L14.5038 17.7382C15.237 16.0044 15.4035 14.9269 14.998 14.5364C14.8078 14.3554 14.4184 14.3006 13.8727 14.3785C13.3388 14.4752 12.7968 14.5643 12.2651 14.6454C11.6264 14.7094 11.1661 14.6035 10.8788 14.3323C10.556 14.024 10.4222 13.5003 10.4689 12.7301C10.5039 12.2209 10.6086 11.6752 10.7901 11.0601C10.8745 10.7835 10.9765 10.5837 11.1033 10.4478C11.2091 10.3377 11.3316 10.2657 11.4669 10.2341C11.627 10.1905 11.7736 10.2212 11.8843 10.3291C11.9519 10.3909 11.9992 10.4656 12.0325 10.5633C12.0637 10.7013 12.0314 10.8738 11.9326 11.1149C11.7908 11.4286 11.7043 11.7836 11.6748 12.1725C11.6377 12.6339 11.7102 12.9465 11.8988 13.1286C12.076 13.2994 12.4284 13.3735 12.9392 13.3494C13.4263 13.2973 13.9114 13.2452 14.3958 13.1931C14.9931 13.1759 15.4105 13.2967 15.6763 13.5513C16.2221 14.0777 16.1957 15.2481 15.5958 17.1302V17.1296ZM21.72 11.9861C21.3564 12.1886 21.0148 12.0356 20.7247 11.5194C20.6641 11.4157 20.5727 11.2573 20.4481 11.0295C20.3203 10.8088 20.2215 10.6364 20.157 10.5123L20.1119 10.4355C19.3503 10.8958 18.565 11.6032 17.7754 12.5405C18.088 13.0453 18.3544 13.4444 18.5875 13.7603L18.6063 13.7855L18.6037 13.8161C18.587 14.0337 18.5016 14.1905 18.3501 14.2829C18.2432 14.342 18.1347 14.3634 18.0246 14.3479C17.74 14.3081 17.4585 14.0304 17.162 13.4998C17.1062 13.4047 17.0342 13.2795 16.9515 13.1281L16.8929 13.0271C16.8387 12.9326 16.8032 12.8713 16.7882 12.8402C16.1705 11.7482 15.5088 10.7148 14.8234 9.77267L14.5371 9.37734C14.4544 9.26294 14.4066 9.19687 14.3813 9.15498L14.3792 9.15659L14.3813 9.15444C14.3787 9.15122 14.3765 9.14692 14.3749 9.1437L14.3722 9.14531C14.3196 9.05453 14.304 8.96591 14.3271 8.88158C14.3539 8.78221 14.4329 8.69574 14.5618 8.62323C14.7127 8.53782 14.8664 8.497 15.0307 8.50076C15.2155 8.50345 15.3557 8.58939 15.4411 8.74408C15.4465 8.75213 15.4545 8.76717 15.4647 8.78597C15.4722 8.80101 15.4814 8.8182 15.4932 8.83754C15.5104 8.86976 15.5243 8.89555 15.5329 8.90951C15.5372 8.91435 15.5421 8.92025 15.548 8.92777C15.5598 8.94389 15.5748 8.96645 15.5968 8.99867L15.8208 9.32954C15.9911 9.59327 16.4272 10.3071 17.118 11.4539C17.5004 11.1509 18.3249 10.4183 19.4657 9.36714C19.0817 8.75643 18.6982 8.18332 18.3243 7.66285L18.2749 7.60001C18.2234 7.53502 18.1396 7.42974 18.0257 7.28203C17.8979 7.1311 17.7969 6.99199 17.7271 6.8706C17.6476 6.72772 17.6175 6.52093 17.9258 6.34261C18.0703 6.25774 18.2207 6.21316 18.3845 6.20618C18.42 6.20618 18.45 6.20779 18.4796 6.21209C18.6321 6.23357 18.7476 6.31253 18.8223 6.44627C18.8378 6.46991 18.8652 6.51287 18.891 6.56981C18.9146 6.60633 18.9372 6.64877 18.9528 6.67777C19.014 6.78144 19.0946 6.91249 19.2004 7.079C19.3443 7.27935 19.4308 7.4147 19.4614 7.46358C19.6322 7.74235 20.0856 8.50023 20.6759 9.49068C21.1577 10.3028 21.5895 10.9678 21.959 11.4694L21.9768 11.4941L21.9746 11.5242C21.9569 11.8041 21.8264 11.9308 21.72 11.9878V11.9861ZM27.3335 10.5316C27.1444 10.5698 26.9763 10.4398 26.842 10.1384L26.8356 10.1159C26.8324 10.1046 26.7749 9.90856 26.6605 9.53311C26.5407 9.11845 26.4064 8.69251 26.2619 8.26604C25.51 8.48196 24.6522 8.90844 23.7101 9.53365C23.6494 9.89137 23.6053 10.175 23.5726 10.4237C23.55 10.5988 23.5264 10.7706 23.5033 10.9404L23.4603 11.2626C23.3685 11.7208 23.2229 11.9577 23.0145 11.991C22.993 11.9958 22.9662 11.9974 22.9404 11.9937C22.8485 11.9808 22.769 11.912 22.6954 11.7836C22.6407 11.6746 22.6068 11.5747 22.5859 11.4657C22.5596 11.2949 22.5955 10.79 22.6917 9.96173C22.7728 9.29785 22.8442 8.78275 22.9092 8.38582C23.0924 7.2729 23.2476 6.46829 23.3717 5.99348C23.6988 4.7436 24.0823 4.09744 24.5437 4.01687C24.6044 4.00559 24.6672 4.00452 24.7306 4.01311C25.3021 4.09368 25.9321 5.01055 26.6567 6.81527C26.8195 6.82279 26.9554 6.91786 27.0714 7.09404C27.1648 7.23906 27.2245 7.39161 27.254 7.5608C27.2991 7.8213 27.2583 7.99802 27.1331 8.08825C27.478 9.11845 27.6418 9.62603 27.6633 9.73023C27.6901 9.89137 27.6869 10.0402 27.6552 10.1766C27.6037 10.3812 27.4952 10.4999 27.333 10.5316H27.3335ZM42.7081 10.5316C43.3999 9.68726 44.212 9.13403 45.1219 8.88642L45.1552 8.88373C45.3056 8.90468 45.4135 8.94657 45.4957 9.01479C45.5876 9.08891 45.6413 9.18344 45.6526 9.29355C45.6703 9.47134 45.5795 9.67974 45.3743 9.93004C45.1681 10.1809 44.812 10.4881 44.3157 10.8426C43.7753 11.2299 43.3607 11.449 43.0851 11.4941C42.9745 11.5097 42.8794 11.5119 42.7929 11.4995C42.6791 11.4834 42.5818 11.4426 42.5018 11.3781C42.2134 11.1289 42.5856 10.6788 42.7081 10.5311V10.5316ZM33.8321 11.4066C33.6678 11.3835 33.4255 11.1976 33.0028 9.95851C32.8438 9.47886 32.6832 8.99975 32.5221 8.52171C32.4039 8.16989 32.2857 7.81862 32.1687 7.46734C31.7658 6.39363 31.4822 6.14011 31.3152 6.11648C31.0762 6.08264 30.6991 6.36409 30.2608 7.89543C30.1813 8.16936 30.0121 8.91488 29.7129 10.313C29.6157 10.7615 29.5029 11.0193 29.3574 11.1235C29.2521 11.1842 29.1624 11.2073 29.084 11.196C28.9121 11.1719 28.7891 11.022 28.7171 10.7513C28.6698 10.5408 28.658 10.3608 28.6806 10.1997C28.6919 10.1213 28.7246 9.98966 28.7746 9.80328L28.8482 9.52452C28.9927 8.97665 29.1382 8.42825 29.2886 7.87448C29.6157 6.7433 29.9251 5.88391 30.2361 5.24634C30.683 4.33592 31.1078 3.92234 31.5354 3.98249C31.9635 4.04265 32.3652 4.61361 32.7633 5.72707C32.8905 6.07566 33.0877 6.76532 33.3836 7.8965C33.4588 8.17956 33.5292 8.43953 33.5491 8.49485C33.6275 8.78114 33.6957 8.96859 33.7559 9.05883C33.7618 9.06796 33.7666 9.07602 33.7714 9.08246C33.7854 9.0454 33.8262 8.94066 33.8643 8.66673C33.9455 8.08825 34.0013 7.0457 34.0352 5.47945C34.0319 5.33067 34.0352 5.1749 34.0373 5.0186L34.0395 4.87841C34.0352 4.64154 34.0448 4.43905 34.0679 4.27791C34.0916 4.10818 34.1694 3.96584 34.3005 3.85412C34.4369 3.74133 34.5927 3.69621 34.763 3.72038C35.0176 3.75637 35.314 3.92986 35.284 4.55399C35.2764 4.73339 35.2072 5.41822 35.0584 6.77445C34.973 7.55811 34.9053 8.13122 34.8564 8.47767C34.4788 11.1472 34.1114 11.4453 33.8337 11.4061L33.8321 11.4066ZM41.6145 8.56575C41.6005 8.55823 41.5774 8.5432 41.542 8.51741L41.4668 8.46316C41.2476 8.2843 41.022 8.14143 40.7723 8.02219C40.0719 7.68111 39.2608 7.50762 38.3499 7.50064C38.1028 8.0614 37.7784 8.7661 37.382 9.62012C37.8433 9.76407 38.4009 9.91071 39.0417 10.0568L39.9687 10.2711C40.5333 10.4011 40.7905 10.4602 40.8367 10.4752L40.8593 10.4865C40.9941 10.581 41.0607 10.7443 41.0591 10.9721C41.0569 11.1482 41.0188 11.3147 40.9484 11.4673C40.7959 11.7772 40.6058 11.8879 40.3984 11.7869C40.3512 11.767 40.3136 11.7332 40.276 11.6886L40.1068 11.6059C39.2146 11.1488 38.1119 10.8668 36.8228 10.7669L36.738 10.9511C36.6687 11.0897 36.6155 11.2014 36.5752 11.2976C37.3406 11.4834 38.0808 11.7471 38.7769 12.0818C39.2673 12.3278 39.5723 12.5029 39.7979 12.6683C39.9908 12.8047 40.1788 13.0582 39.972 13.4885C39.8737 13.6861 39.7394 13.7114 39.6438 13.698C39.6062 13.6926 39.5659 13.6797 39.5251 13.6604C39.423 13.6077 39.2753 13.5175 39.0943 13.3982C38.88 13.2666 38.7339 13.1829 38.6383 13.1361C37.8643 12.7596 37.0028 12.5206 36.0563 12.4217C35.8769 12.5066 35.7099 12.5141 35.5692 12.4448C35.4413 12.3836 35.3533 12.2864 35.3076 12.1553C35.2179 11.8981 35.2969 11.5237 35.5488 11.0118C35.6003 10.9103 35.6664 10.7846 35.7529 10.6315C35.8383 10.4806 35.8898 10.3877 35.907 10.3533C36.2852 9.5793 36.6053 8.8601 36.8583 8.21609C36.9421 8.01896 37.1096 7.571 37.354 6.88188L37.5017 6.47796C37.5426 6.36624 37.5657 6.30071 37.5737 6.28245C37.6752 6.07995 37.8691 6.03699 38.1474 6.15837C39.5159 6.23841 40.6192 6.4785 41.419 6.86469C41.7869 7.04946 42.0195 7.21328 42.1328 7.36744C42.31 7.59732 42.3133 7.89113 42.1414 8.23865C42.0001 8.54588 41.8127 8.66244 41.6156 8.56737L41.6145 8.56575ZM49.131 13.8612C49.0676 13.9139 48.9875 13.9547 48.8833 13.988C48.8312 13.9971 48.7867 13.9966 48.7389 13.9901C48.6255 13.974 48.4896 13.923 48.336 13.8381C48.0347 13.6689 47.6877 13.5492 47.3047 13.4831C46.8487 13.3972 46.5334 13.4493 46.3401 13.6206C46.1467 13.7839 46.043 14.1287 46.0318 14.6465L46.0414 16.1016C46.0076 16.6913 45.8481 17.1076 45.5682 17.3445C45.2701 17.6028 44.7964 17.6888 44.161 17.5996C43.5911 17.5196 42.8692 17.2961 42.0162 16.9352C41.672 16.7977 41.3867 16.6006 41.1692 16.3481C41.0118 16.1569 40.9973 16.0065 41.1225 15.8991C41.1944 15.8378 41.3029 15.8024 41.4625 15.7874L41.4877 15.7847L41.5103 15.797C43.1555 16.6779 44.2303 16.9449 44.6444 16.585C44.8479 16.4093 44.9382 16.0355 44.9113 15.4715C44.8673 14.936 44.8324 14.3994 44.7969 13.8628C44.7926 13.2199 44.943 12.766 45.2422 12.5098C45.5672 12.2284 46.0914 12.1365 46.7993 12.2359L46.8745 12.2466C47.3901 12.3267 47.9375 12.4835 48.5004 12.7129C48.7582 12.8074 48.9542 12.9336 49.0815 13.0856C49.1777 13.1947 49.2389 13.3182 49.2674 13.4632C49.291 13.6265 49.2443 13.7592 49.1315 13.8612H49.131ZM7.11731 31.149C6.4169 31.1474 5.80082 30.7967 5.42323 30.2665C4.89148 29.8906 4.54127 29.2739 4.54127 28.5703C4.54288 27.4193 5.47425 26.4868 6.6253 26.49C7.33001 26.4879 7.95199 26.8386 8.32905 27.3747C8.85543 27.7544 9.2008 28.3689 9.20026 29.0677C9.2008 30.2128 8.27051 31.1463 7.11731 31.149ZM15.8557 41.9919C15.9438 41.8775 16.0749 41.8157 16.2462 41.8136C16.4004 41.8114 16.533 41.8651 16.6566 41.9704C16.7527 42.0617 16.7893 42.2492 16.7796 42.5838C16.7699 42.7949 16.7253 42.9184 16.634 42.9867C16.5782 43.0307 16.51 43.0484 16.4369 43.0382C16.3601 43.0275 16.2785 42.985 16.1893 42.9088C15.9379 42.6896 15.801 42.4409 15.78 42.1708C15.7677 42.1203 15.7918 42.0548 15.8552 41.9914L15.8557 41.9919ZM10.4593 41.7158C10.253 41.841 10.028 42.0155 9.79217 42.2331C9.69549 42.3217 9.48494 42.5247 9.02785 42.9942C8.82858 43.1961 8.67281 43.3524 8.56592 43.4518L8.4816 43.5302L7.92299 42.9244L8.00678 42.8465C8.21948 42.6493 8.46978 42.4012 8.81783 42.0419L9.7911 41.0154C10.3551 40.4214 10.8514 39.9562 11.2666 39.6329L11.353 39.5647L11.5206 39.7559C11.6742 39.8155 11.757 39.8622 11.8053 39.9165C11.8606 39.9793 11.888 40.061 11.8832 40.1458L11.8805 40.192L11.4009 40.6341C12.496 40.6083 13.3812 40.9596 14.0365 41.6734C14.1654 41.8179 14.3244 42.0359 14.5108 42.3217C14.8196 42.7938 14.8497 42.9668 14.8411 43.0651L14.8379 43.1032L14.8126 43.1311C14.6956 43.2633 14.5828 43.3712 14.4678 43.4604C14.1649 43.6994 13.9538 43.7322 13.8168 43.5941L13.7808 43.5571L13.7846 43.5055C13.8018 43.2713 13.7422 43.042 13.603 42.8046C13.4027 42.4748 13.1696 42.2277 12.9107 42.0719C12.6835 41.936 12.3521 41.8292 11.9272 41.7529C11.3514 41.6476 10.8584 41.6336 10.4598 41.7158H10.4593ZM12.9193 47.7327L12.872 47.7574C12.8237 47.7697 12.7732 47.7719 12.7216 47.7649C12.6099 47.7493 12.4928 47.6881 12.3639 47.5774C12.2817 47.5001 12.2049 47.4168 12.1329 47.3271L12.0798 47.2605L12.1287 47.1902C12.6255 46.4731 13.1508 45.7464 13.5993 45.1298C13.8759 44.75 14.1622 44.3891 14.449 44.0561C14.7557 43.7021 14.991 43.4711 15.1913 43.3288L15.2171 43.31L15.2488 43.3079C15.4577 43.2912 15.6011 43.3256 15.6935 43.4142C15.7875 43.491 15.845 43.6333 15.8579 43.8315L15.8606 43.8713L15.1714 44.8607C14.4077 45.9607 13.7991 46.7739 13.364 47.2766C13.2115 47.4458 13.0536 47.6172 12.9204 47.7332L12.9193 47.7327ZM19.4888 50.2206C19.3551 50.4591 19.1596 50.5896 18.9082 50.6063C18.5129 50.6283 18.0928 50.6084 17.6589 50.5472C16.8328 50.4312 15.9186 50.1605 14.9421 49.7431C14.658 49.5825 14.3958 49.2844 14.6945 48.7462L14.7364 48.6705L14.8207 48.6904C14.9512 48.721 15.0678 48.7623 15.1666 48.8123C15.2053 48.837 15.2375 48.8606 15.2756 48.8891C15.3106 48.9149 15.3514 48.9449 15.3992 48.9788C15.4873 49.0529 15.556 49.0975 15.6028 49.1286C15.7757 49.228 16.0432 49.3172 16.4235 49.402L16.4938 49.4165C16.6061 49.4396 16.7801 49.4762 17.0191 49.5293C17.0895 49.5471 17.1905 49.5712 17.3232 49.6035L17.7776 49.713C18.0064 49.763 18.2567 49.7925 18.5263 49.7995C18.6563 49.7957 18.6896 49.7829 18.6966 49.7791C18.7175 49.7281 18.7224 49.5374 18.3104 49.0733C18.045 48.7736 17.7206 48.4771 17.3446 48.1914C17.147 48.0447 16.8188 47.8057 16.359 47.4888C16.3413 47.5178 16.3236 47.5484 16.3048 47.5796L16.2543 47.6644C15.8541 48.3772 15.7924 48.5351 15.7843 48.5706L15.7548 48.6318C15.6264 48.8633 15.3777 48.91 15.078 48.7322C15.0291 48.7016 14.9754 48.6678 14.9061 48.6141L14.8417 48.5636L14.869 48.4857C15.0173 48.0625 15.237 47.5957 15.5222 47.0999C15.6484 46.8727 15.8418 46.5564 16.1447 46.0638C16.4068 45.6454 16.6211 45.2914 16.7656 45.0395L16.8005 44.9788L16.8698 44.9821C17.3951 45.003 17.9591 45.1915 18.6096 45.5573C19.0156 45.791 19.3545 46.0445 19.6161 46.3109C19.8621 46.5687 19.8901 46.8792 19.6972 47.21C19.6349 47.3218 19.5484 47.4104 19.4485 47.4646C19.2181 47.5935 18.9796 47.6784 18.6982 47.7311C18.6037 47.7429 18.4543 47.7509 18.2416 47.7558C18.406 47.8954 18.6214 48.078 18.884 48.3036C19.1671 48.5485 19.3975 48.888 19.5699 49.3118C19.694 49.6067 19.6666 49.9134 19.4888 50.2206ZM28.7708 52.8965C28.5039 53.3687 27.9775 53.6286 27.16 53.6904C26.8823 53.706 26.559 53.7038 26.1969 53.6834L24.9283 53.6233L24.8987 53.5986C24.6629 53.4009 24.5453 53.1501 24.5593 52.8729C24.5587 52.8584 24.5614 52.8187 24.5883 52.7161L24.6108 52.672C24.6527 52.6215 24.7177 52.5984 24.7886 52.6081L25.1082 52.6919C25.1694 52.7075 25.4165 52.7333 25.836 52.7752C26.0868 52.7913 26.2678 52.7977 26.371 52.7999C27.2497 52.8477 27.7272 52.6774 27.7954 52.2944C27.7949 52.274 27.7471 52.0667 26.3774 51.5076C26.2979 51.4737 26.1255 51.4066 25.8612 51.304L25.2726 51.0746C25.1549 51.0322 25.0405 50.9479 24.9256 50.819C24.7806 50.6315 24.7188 50.4435 24.736 50.2544C24.7333 50.2083 24.743 50.1449 24.766 50.0697C24.9385 49.6454 25.5884 49.2984 26.7566 48.9997C27.211 48.8848 27.6257 48.8134 27.9899 48.7881L28.1016 48.7806L28.1644 49.4412L28.1145 49.4799C27.9893 49.5771 27.7396 49.6684 27.3512 49.7608C26.9355 49.8559 26.6562 49.9354 26.5203 49.995C26.2823 50.1008 26.162 50.2351 26.1529 50.4059C26.1529 50.4102 26.1561 50.5536 26.964 50.7679C27.3791 50.884 27.6171 50.9597 27.7369 51.0155C28.0178 51.116 28.2772 51.3002 28.499 51.558C28.7708 51.8621 28.9003 52.1768 28.882 52.4926C28.8756 52.6382 28.838 52.7741 28.7708 52.896V52.8965ZM34.785 53.2231L34.7522 53.2473C34.5621 53.3837 34.344 53.4761 34.1227 53.5148L34.0443 53.5287L34.004 53.4595C33.9412 53.3499 33.8934 53.2006 33.859 53.0034C33.8461 52.9223 33.8348 52.8026 33.8235 52.6398L33.8069 52.4937C33.7988 52.4126 33.7913 52.3465 33.7816 52.2987C33.7548 52.1397 33.7301 52.0447 33.7 51.9867C33.5738 51.6875 33.36 51.463 33.0431 51.2911C32.7359 51.1294 32.4184 51.073 32.0972 51.1267C31.7116 51.1896 31.4376 51.3174 31.2824 51.507C31.2743 51.5204 31.1965 51.6757 31.045 52.0108L31.1556 53.012L31.0079 53.0405C30.9596 53.0496 30.8968 53.0625 30.8205 53.0749C30.6212 53.1098 30.4628 53.1195 30.3505 53.1039C30.2667 53.0921 30.2044 53.0657 30.1604 53.0238L30.1271 52.9927L30.1249 52.9465C30.105 52.4862 30.0379 51.8706 29.916 51.0102C29.7806 50.0713 29.6931 49.3961 29.6619 49.0561C29.5964 48.3606 29.5878 47.7337 29.6318 47.1413L29.6211 47.1037L29.6367 47.0801L29.6667 46.6826L29.8032 46.978C29.8327 46.9769 29.8612 46.9796 29.8864 46.9828C30.0733 47.0151 30.3929 47.1536 30.4203 47.2933C30.4595 47.5361 30.4993 47.8412 30.5406 48.2064L30.6615 49.3322C30.7136 49.7485 30.7555 50.0466 30.785 50.2147C30.8156 50.4102 30.8479 50.5735 30.8823 50.7024C30.9091 50.6841 30.9891 50.6267 31.1804 50.4784C31.3753 50.3146 31.5246 50.2158 31.6224 50.1878L31.718 50.1717C31.7535 50.1594 31.7739 50.1535 31.7932 50.1497C32.2396 50.0815 32.7176 50.1809 33.2343 50.4414C33.6371 50.6433 34.0357 50.9301 34.4187 51.2938C34.6163 51.4839 34.749 51.7847 34.814 52.1892C34.8784 52.5566 34.872 52.8917 34.7963 53.1839L34.7855 53.2237L34.785 53.2231ZM39.9832 49.9504C39.6304 50.6906 38.8923 51.4222 37.7279 52.1865L37.5533 52.267C37.3325 52.368 37.1177 52.4045 36.9157 52.3761C36.7245 52.3492 36.5403 52.2633 36.3689 52.1199C36.2234 51.9963 36.0499 51.7901 35.8393 51.4888C35.8055 51.4426 35.7792 51.3953 35.7529 51.3421C35.5864 50.9908 35.6836 50.48 36.0461 49.7796C36.2352 49.4251 36.5419 49.1491 36.9592 48.9578C37.0871 48.8971 37.2821 48.8225 37.5533 48.7312C37.7273 48.6742 37.8928 48.6184 38.0147 48.569C37.8154 48.2284 37.5334 48.0549 37.1596 48.0394C37.0602 48.0308 36.9592 48.0506 36.8545 48.099C36.7122 48.1602 36.5693 48.302 36.4286 48.5222L35.9865 49.2119L35.9559 49.2259C35.8383 49.2817 35.7137 49.2704 35.574 49.1861C35.4505 49.1141 35.3672 49.0266 35.3291 48.9256C35.2936 48.8601 35.2813 48.7768 35.2979 48.6844L35.3076 48.6554C35.6702 47.8949 36.0725 47.4195 36.5376 47.2025C37.1413 46.9275 37.7021 47.0016 38.1903 47.4222C38.4347 47.6311 38.7398 48.0335 39.0981 48.6162C39.4622 49.2022 39.7528 49.6078 39.9607 49.821L40.0171 49.8779L39.9827 49.9504H39.9832ZM45.1407 47.5334C44.8399 47.9373 44.537 48.266 44.2491 48.4997C44.0992 48.6227 43.98 48.7065 43.8742 48.7645C43.1893 49.1217 42.5501 49.2613 41.9738 49.1802C41.6714 49.1378 41.3798 49.0336 41.1074 48.8703C40.9055 48.7467 40.7116 48.5792 40.5461 48.3853C40.2147 47.983 40.0165 47.5038 39.9558 46.9592C39.8989 46.4242 39.9929 45.915 40.2335 45.4451C40.3651 45.2082 40.5085 45.0277 40.6772 44.8902C41.1332 44.5121 41.7251 44.4347 42.4465 44.6721C42.7795 44.7887 43.1619 45.0782 43.5873 45.5348C43.6008 45.5471 43.6239 45.5724 43.655 45.6057C43.6915 45.6454 43.7393 45.6975 43.8011 45.7593L43.8376 45.7963L43.8328 45.8479C43.821 46.0155 43.7463 46.1594 43.6185 46.2631C43.4778 46.3834 43.3295 46.4124 43.1882 46.3501C42.9637 46.1906 42.7596 46.0397 42.5544 45.8882L42.2526 45.6647C41.9448 45.4837 41.6596 45.4531 41.419 45.6046C41.3776 45.625 41.3572 45.6384 41.3443 45.6465L41.2965 45.6878C40.9866 45.9462 40.8749 46.3539 40.9544 46.9372C41 47.2541 41.109 47.5178 41.2777 47.7192C41.4533 47.9271 41.6967 48.0909 42.0023 48.2059C42.0866 48.2354 42.1731 48.2569 42.2601 48.2692C42.6151 48.3192 42.9739 48.2188 43.3601 47.9615C43.5035 47.86 43.7323 47.6838 44.0181 47.4534C44.1314 47.3556 44.2657 47.2122 44.4279 47.0167C44.4784 46.9549 44.5472 46.8663 44.6304 46.7481L44.6573 46.7089L44.7045 46.7014C44.8415 46.6767 44.9704 46.7299 45.0741 46.8545C45.145 46.9404 45.1879 47.0387 45.2116 47.1622C45.2336 47.2654 45.2513 47.4195 45.1401 47.5318L45.1407 47.5334ZM49.3136 43.505L49.2668 43.5286C49.1208 43.6033 48.6266 43.823 47.6114 44.2747C46.9959 44.5502 46.5189 44.8139 46.1569 45.0798C46.3363 45.2356 46.4529 45.3392 46.5098 45.3903L46.5399 45.4171C46.7515 45.6223 46.8853 45.7818 46.9637 45.9199C47.062 46.0192 47.1135 46.1992 46.8503 46.5053C46.7037 46.6788 46.5324 46.7589 46.3395 46.7406L46.3036 46.7374L46.2767 46.7143C44.4999 45.2023 43.1872 43.9669 42.3724 43.0409L42.281 42.9367L42.4003 42.8663C42.4433 42.8416 42.4755 42.8212 42.4948 42.8078C42.5013 42.7858 42.5147 42.7353 42.5313 42.6305C42.5646 42.4334 42.5759 42.3835 42.6124 42.3443C42.6914 42.2513 42.7843 42.2417 42.8477 42.2503C42.9122 42.2594 42.9777 42.2911 43.0459 42.348C43.6663 42.8792 44.2603 43.4352 44.8141 44.0045C45.037 43.4835 45.2964 42.6918 45.6042 41.5923L45.6321 41.4967L45.731 41.5106C46.0264 41.552 46.2149 41.6175 46.3223 41.7164L46.3556 41.747L46.3599 41.7916C46.383 42.0832 46.3374 42.391 46.2187 42.731C46.1682 42.8685 46.1145 43.0173 46.0559 43.1795L45.9372 43.5093C45.861 43.7349 45.8137 43.918 45.7917 44.0781C45.9807 43.9964 46.2386 43.8788 46.5818 43.7182L47.6958 43.2042C48.0669 43.0253 48.444 42.8889 48.8474 42.7863C48.9881 42.7084 49.1299 42.7176 49.24 42.8137C49.377 42.9383 49.4044 43.1467 49.3265 43.454L49.3141 43.5044L49.3136 43.505ZM50.2116 42.7374L49.356 42.1869L49.1664 42.4818L49.0386 42.4033L49.5209 41.6541L49.6461 41.7405L49.4532 42.0359L50.3099 42.5929L50.2122 42.738L50.2116 42.7374ZM51.1178 41.3463L50.4979 40.9998C50.4238 40.9574 50.3346 40.8876 50.2374 40.8296L50.2315 40.8349C50.304 40.922 50.3889 41.0149 50.456 41.1008L50.8852 41.6729L50.8154 41.784L50.1074 41.6089C50.0113 41.5832 49.8942 41.5477 49.79 41.508L49.7884 41.5182C49.8776 41.5762 49.9619 41.6326 50.0478 41.6954L50.6161 42.1176L50.5248 42.2551L49.5929 41.5423L49.7202 41.3517L50.3765 41.508C50.4695 41.5262 50.5629 41.5584 50.6677 41.5928H50.6714C50.5946 41.5047 50.5237 41.4344 50.4652 41.3603L50.0634 40.8242L50.1864 40.633L51.2171 41.1948L51.1178 41.3457V41.3463ZM51.5528 31.1453C50.8514 31.1474 50.2331 30.7967 49.8561 30.2617C49.327 29.8836 48.98 29.267 48.9811 28.5676C48.9811 27.4225 49.9114 26.489 51.0614 26.4868C51.7623 26.4847 52.3805 26.8338 52.7587 27.3655C53.2904 27.7431 53.639 28.3614 53.6374 29.0634C53.6406 30.2091 52.7066 31.1474 51.5523 31.1447L51.5528 31.1453Z" fill="var(--fill-0, #D0202E)"/>
<path id="Vector_42" d="M37.4079 51.2734C37.6018 51.1703 38.0079 50.8974 38.5536 50.5037C38.6991 50.3823 38.8044 50.2486 38.864 50.11L38.6121 49.683C38.5138 49.5455 38.4 49.4601 38.2797 49.438C37.9848 49.481 37.7366 49.5487 37.5411 49.6384C37.0749 49.8559 36.7822 50.2298 36.6747 50.7497C36.6447 50.9049 36.6565 51.0344 36.7107 51.1547C36.794 51.3341 36.9229 51.4007 37.1152 51.3701C37.2242 51.354 37.3225 51.3207 37.4084 51.2734H37.4079Z" fill="var(--fill-0, #D0202E)"/>
</g>
<path id="Vector_43" d="M50.4977 40.9994L51.1175 41.3458L51.2169 41.1949L50.1862 40.6331L50.0632 40.8243L50.4649 41.3603C50.5229 41.4345 50.5944 41.5054 50.6712 41.5934H50.6674C50.5627 41.5585 50.4692 41.5268 50.3763 41.5086L49.7199 41.3523L49.5926 41.543L50.5245 42.2557L50.6159 42.1182L50.0476 41.696C49.9622 41.6332 49.8773 41.5768 49.7882 41.5188L49.7898 41.5086C49.894 41.5483 50.0111 41.5832 50.1072 41.6096L50.8151 41.7847L50.885 41.6735L50.4558 41.1014C50.3887 41.0155 50.3038 40.9226 50.2313 40.8356L50.2372 40.8302C50.3344 40.8882 50.4236 40.958 50.4977 41.0005V40.9994Z" fill="var(--fill-0, #231F20)"/>
<path id="Vector_44" d="M49.646 41.7396L49.5208 41.6531L49.0385 42.4029L49.1669 42.4813L49.356 42.1864L50.2116 42.737L50.3099 42.592L49.4532 42.035L49.646 41.7396Z" fill="var(--fill-0, #231F20)"/>
<path id="Vector_45" d="M14.8412 43.0654C14.8498 42.9671 14.8197 42.7941 14.5109 42.322C14.3245 42.0362 14.1655 41.8182 14.0366 41.6737C13.3813 40.9598 12.4967 40.608 11.4009 40.6343L11.8806 40.1923L11.8833 40.1461C11.8881 40.0612 11.8607 39.9796 11.8054 39.9167C11.7576 39.8625 11.6743 39.8152 11.5207 39.7561L11.3531 39.5649L11.2667 39.6331C10.8515 39.9565 10.3552 40.4216 9.79119 41.0157L8.81792 42.0421C8.46987 42.4015 8.21957 42.6491 8.00687 42.8467L7.92308 42.9246L8.48169 43.5305L8.56601 43.4521C8.67236 43.3527 8.82867 43.1964 9.02794 42.9945C9.48449 42.525 9.69558 42.322 9.79226 42.2333C10.0281 42.0158 10.2531 41.8413 10.4594 41.7161C10.8579 41.6339 11.3515 41.6473 11.9268 41.7532C12.3516 41.8294 12.6831 41.9363 12.9103 42.0722C13.1691 42.228 13.4023 42.4751 13.6026 42.8048C13.7417 43.0423 13.8013 43.2716 13.7842 43.5058L13.7804 43.5574L13.8164 43.5944C13.9533 43.7325 14.1644 43.6997 14.4674 43.4607C14.5823 43.3715 14.6951 43.2636 14.8122 43.1314L14.8374 43.1035L14.8407 43.0654H14.8412ZM14.3981 43.3704C14.1591 43.559 13.9942 43.6111 13.8991 43.5138C13.9179 43.2571 13.8524 43.003 13.702 42.7463C13.4887 42.3945 13.2422 42.1372 12.9704 41.9734C12.7335 41.8321 12.3919 41.7193 11.9477 41.6398C11.3564 41.5303 10.8429 41.5158 10.4175 41.6076C10.1951 41.7403 9.96092 41.9224 9.71492 42.149C9.58386 42.2688 9.33034 42.5202 8.9463 42.9144C8.74917 43.1142 8.59394 43.2695 8.48867 43.3677L8.08529 42.9305C8.32538 42.7076 8.59824 42.4342 8.90064 42.1216L9.87498 41.0936C10.4368 40.5022 10.9245 40.0451 11.3376 39.7223L11.4047 39.8023L11.46 39.855C11.5954 39.906 11.6819 39.9495 11.7195 39.9919C11.7581 40.0354 11.7716 40.0892 11.7689 40.1386L11.0889 40.7649C12.3001 40.6623 13.2556 40.9926 13.9517 41.7499C14.0742 41.8874 14.2283 42.098 14.4142 42.3837C14.6339 42.7194 14.7365 42.9413 14.7268 43.0551C14.6215 43.1739 14.5141 43.2791 14.3975 43.3699L14.3981 43.3704Z" fill="var(--fill-0, #231F20)"/>
<g id="Group_6">
<path id="Vector_46" d="M18.9607 46.8042C19.0235 46.6978 18.8474 46.5281 18.4349 46.2928C18.0325 46.0662 17.6496 45.9099 17.2886 45.8406C17.2704 45.8637 17.2564 45.8878 17.2387 45.9158C17.1866 46.0092 17.1162 46.1446 17.026 46.3428C16.9331 46.5302 16.8622 46.6667 16.8079 46.7607C16.8203 46.7698 16.8342 46.7768 16.8455 46.7864C16.8831 46.8095 16.9411 46.8299 17.0211 46.8477C17.0996 46.8713 17.1576 46.8917 17.1914 46.9153C17.5787 47.0588 18.0508 47.0631 18.6094 46.9454C18.8178 46.8982 18.9355 46.852 18.9607 46.8047V46.8042ZM17.5781 46.8933C17.4551 46.8761 17.3381 46.8471 17.2564 46.8203C17.2086 46.7875 17.1409 46.7633 17.0453 46.7349C17.0109 46.7274 16.9841 46.7198 16.9642 46.7134C17.0099 46.6291 17.0641 46.5222 17.1302 46.389C17.2011 46.2332 17.2677 46.0995 17.3413 45.9673C17.6582 46.0388 17.9982 46.1779 18.3779 46.3917C18.8001 46.6323 18.8511 46.7392 18.8645 46.7408C18.8533 46.7494 18.7974 46.7843 18.5852 46.8321C18.2034 46.9127 17.8639 46.9331 17.5776 46.8928L17.5781 46.8933Z" fill="var(--fill-0, #231F20)"/>
<path id="Vector_47" d="M19.5697 49.3107C19.3978 48.8869 19.1669 48.5475 18.8838 48.3025C18.6211 48.0769 18.4063 47.8943 18.2414 47.7547C18.4541 47.7498 18.6039 47.7418 18.6979 47.73C18.9794 47.6779 19.2179 47.5925 19.4483 47.4635C19.5482 47.4093 19.6347 47.3207 19.697 47.2089C19.8898 46.8781 19.8614 46.5676 19.6159 46.3098C19.3538 46.0429 19.0154 45.7893 18.6093 45.5562C17.9589 45.1904 17.3944 45.0019 16.8696 44.981L16.8003 44.9777L16.7654 45.0384C16.6214 45.2898 16.4066 45.6438 16.1445 46.0627C15.8415 46.5553 15.6487 46.8711 15.5219 47.0988C15.2367 47.5951 15.0171 48.0614 14.8688 48.4846L14.8414 48.5625L14.9059 48.613C14.9752 48.6667 15.0289 48.7005 15.0777 48.7312C15.3775 48.9089 15.6261 48.8622 15.7545 48.6307L15.7841 48.5695C15.7921 48.5346 15.8539 48.3767 16.254 47.6634L16.3045 47.5785C16.3233 47.5473 16.3411 47.5167 16.3588 47.4877C16.818 47.8052 17.1467 48.0436 17.3444 48.1903C17.7198 48.4755 18.0448 48.772 18.3101 49.0722C18.7221 49.5363 18.7173 49.727 18.6963 49.778C18.6888 49.7818 18.6555 49.7947 18.5261 49.7984C18.2559 49.7914 18.0056 49.7619 17.7773 49.7119L17.3229 49.6024C17.1897 49.5701 17.0887 49.5465 17.0189 49.5282C16.7799 49.4756 16.6059 49.4391 16.4936 49.4154L16.4232 49.4009C16.043 49.3161 15.7755 49.2275 15.6025 49.1275C15.5558 49.0964 15.487 49.0518 15.3989 48.9777C15.3517 48.9444 15.3109 48.9138 15.2754 48.888C15.2373 48.8595 15.205 48.8359 15.1664 48.8112C15.0675 48.7607 14.951 48.7199 14.8205 48.6893L14.7361 48.6694L14.6942 48.7451C14.3956 49.2833 14.6577 49.5814 14.9419 49.742C15.9183 50.1594 16.832 50.4301 17.6586 50.5461C18.0926 50.6073 18.5126 50.6267 18.908 50.6052C19.1588 50.588 19.3548 50.458 19.4886 50.2195C19.6664 49.9123 19.6932 49.6056 19.5697 49.3107ZM19.3898 50.1626C19.2721 50.3726 19.1115 50.4773 18.9004 50.4913C17.7682 50.5541 16.4657 50.2695 14.987 49.6373C14.6502 49.4455 14.5895 49.17 14.7941 48.801C14.9247 48.8316 15.0294 48.8708 15.1148 48.9138C15.1653 48.9476 15.2351 49.0029 15.3329 49.0717C15.4237 49.1474 15.4994 49.1968 15.5493 49.2296C15.7384 49.3381 16.0204 49.4283 16.3985 49.5132C16.4995 49.5347 16.6966 49.5744 16.9942 49.6405C17.1236 49.6727 17.3772 49.7329 17.7499 49.8237C17.9927 49.8774 18.2484 49.9064 18.5228 49.9134C18.6689 49.9091 18.7533 49.8951 18.7785 49.8548C18.8757 49.677 18.749 49.3934 18.3961 48.9965C18.1286 48.6941 17.7999 48.3933 17.4142 48.1C17.1817 47.9276 16.8229 47.6676 16.3255 47.326C16.2734 47.4071 16.2191 47.5011 16.1563 47.6053C15.8534 48.1457 15.6928 48.4583 15.6729 48.5448L15.6562 48.5738C15.5552 48.7559 15.378 48.7763 15.1363 48.6334C15.0976 48.6092 15.0455 48.577 14.9768 48.5238C15.1191 48.1178 15.3318 47.6612 15.6213 47.1574C15.7513 46.9227 15.9586 46.5853 16.2422 46.1245C16.5221 45.6771 16.7294 45.3328 16.8648 45.097C17.3745 45.1179 17.9368 45.3108 18.5529 45.6577C18.9617 45.8925 19.2877 46.1406 19.5342 46.392C19.7416 46.609 19.7647 46.8673 19.5982 47.1531C19.5461 47.2465 19.4757 47.3207 19.3935 47.3653C19.1491 47.5022 18.9144 47.5753 18.677 47.6193C18.5519 47.6349 18.3037 47.6435 17.9336 47.6467C18.0991 47.7858 18.3945 48.035 18.8091 48.3912C19.0793 48.6253 19.2984 48.9492 19.4639 49.3558C19.5745 49.619 19.5493 49.8881 19.3898 50.1647V50.1626Z" fill="var(--fill-0, #231F20)"/>
</g>
<path id="Vector_48" d="M28.4993 51.5583C28.277 51.2999 28.0175 51.1162 27.7372 51.0158C27.6174 50.9599 27.3794 50.8842 26.9642 50.7682C26.1564 50.5544 26.1532 50.411 26.1532 50.4062C26.1623 50.2354 26.2826 50.1011 26.5206 49.9953C26.6565 49.9356 26.9358 49.8561 27.3515 49.7611C27.7398 49.6692 27.9896 49.5774 28.1148 49.4802L28.1647 49.4415L28.1019 48.7808L27.9901 48.7884C27.6254 48.8136 27.2108 48.885 26.7569 49C25.5881 49.2986 24.9382 49.6456 24.7663 50.0699C24.7432 50.1451 24.7341 50.2085 24.7363 50.2547C24.7191 50.4438 24.7814 50.6318 24.9259 50.8192C25.0408 50.9481 25.1552 51.0324 25.2728 51.0749L25.8615 51.3042C26.1263 51.4068 26.2987 51.474 26.3777 51.5078C27.7474 52.0664 27.7952 52.2743 27.7957 52.2947C27.7275 52.6771 27.25 52.8474 26.3713 52.8001C26.2681 52.798 26.0871 52.7915 25.8363 52.7754C25.4173 52.7335 25.1697 52.7083 25.1085 52.6922L24.7889 52.6084C24.7175 52.5982 24.653 52.6213 24.6111 52.6723L24.5886 52.7163C24.5617 52.8184 24.5585 52.8587 24.5595 52.8732C24.5456 53.1503 24.6632 53.4012 24.899 53.5988L24.9285 53.6235L26.1972 53.6837C26.5592 53.7041 26.8826 53.7062 27.1603 53.6907C27.9773 53.6284 28.5042 53.3689 28.7711 52.8968C28.8383 52.7754 28.8759 52.639 28.8823 52.4934C28.9006 52.1781 28.7711 51.8628 28.4993 51.5588V51.5583ZM28.6712 52.8409C28.4231 53.2803 27.9166 53.5182 27.1517 53.5763C26.895 53.5908 26.5786 53.5902 26.2047 53.5687L25.9453 53.5564L25.7992 53.5499L24.9731 53.5107C24.7637 53.3351 24.6627 53.1175 24.6745 52.8785C24.6745 52.8544 24.6852 52.8033 24.7003 52.7448C24.7148 52.7271 24.7384 52.7163 24.7739 52.7212L25.08 52.8023C25.1267 52.8157 25.3765 52.8442 25.8261 52.8882C26.0834 52.9048 26.266 52.9118 26.3696 52.914C27.3177 52.9655 27.829 52.7652 27.9096 52.314C27.9429 52.1228 27.445 51.8193 26.4217 51.402C26.2966 51.3477 25.9228 51.2059 25.3147 50.9685C25.2068 50.9293 25.1079 50.8514 25.0118 50.7435C24.8952 50.5925 24.8351 50.4341 24.8501 50.2654C24.8485 50.2198 24.8555 50.1698 24.8754 50.1032C25.0268 49.7315 25.6676 49.3974 26.7854 49.1117C27.2382 48.9973 27.6426 48.9285 27.9982 48.9033L28.0449 49.3905C27.9348 49.4759 27.6963 49.5623 27.3257 49.6504C26.8971 49.7487 26.6151 49.8298 26.4744 49.8916C26.194 50.0162 26.0506 50.187 26.0393 50.4008C26.0323 50.5646 26.3331 50.7204 26.9352 50.8799C27.3166 50.9863 27.5706 51.0652 27.6883 51.1205C27.9488 51.214 28.1937 51.3794 28.4118 51.634C28.6637 51.9155 28.7845 52.198 28.7679 52.487C28.762 52.618 28.7292 52.7357 28.6707 52.8415L28.6712 52.8409Z" fill="var(--fill-0, #231F20)"/>
<path id="Vector_49" d="M34.8135 52.1879C34.748 51.7835 34.6158 51.4827 34.4182 51.2925C34.0352 50.9289 33.6372 50.6421 33.2338 50.4401C32.7171 50.1796 32.2391 50.0803 31.7927 50.1485C31.7734 50.1522 31.753 50.1581 31.7175 50.1705L31.6219 50.1866C31.5242 50.2145 31.3748 50.3134 31.1799 50.4772C30.9886 50.6254 30.9086 50.6834 30.8818 50.7012C30.8474 50.5723 30.8152 50.409 30.7845 50.2135C30.7545 50.0453 30.7126 49.7478 30.661 49.331L30.5402 48.2052C30.4988 47.8399 30.459 47.5348 30.4198 47.2921C30.3924 47.1524 30.0729 47.0138 29.8859 46.9816C29.8607 46.9778 29.8322 46.9757 29.8027 46.9768L29.6663 46.6814L29.6362 47.0788L29.6206 47.1025L29.6313 47.1401C29.5873 47.7325 29.5964 48.3593 29.6614 49.0549C29.692 49.3949 29.7801 50.0701 29.9155 51.0089C30.0379 51.8694 30.1045 52.4849 30.1244 52.9453L30.1266 52.9915L30.1599 53.0226C30.2039 53.065 30.2662 53.0908 30.35 53.1026C30.4628 53.1182 30.6207 53.1085 30.82 53.0736C30.8968 53.0613 30.9591 53.0484 31.0074 53.0393L31.1552 53.0108L31.0445 52.0096C31.196 51.6739 31.2739 51.5192 31.2819 51.5058C31.4371 51.3162 31.7105 51.1883 32.0967 51.1255C32.4179 51.0718 32.7354 51.1282 33.0426 51.2899C33.3595 51.4617 33.5733 51.6868 33.6995 51.9854C33.7296 52.0429 33.7548 52.1385 33.7811 52.2975C33.7903 52.3453 33.7983 52.4108 33.8064 52.4925L33.823 52.6386C33.8338 52.8013 33.8456 52.9211 33.8585 53.0022C33.8929 53.1993 33.9407 53.3486 34.0035 53.4582L34.0438 53.5275L34.1222 53.5135C34.3435 53.4749 34.5616 53.3825 34.7517 53.2461L34.7845 53.2219L34.7952 53.1821C34.871 52.8899 34.8774 52.5548 34.813 52.1874L34.8135 52.1879ZM34.1029 53.4018C34.047 53.3046 34.003 53.166 33.9707 52.9829C33.9595 52.9066 33.9482 52.79 33.9374 52.6316C33.9186 52.4747 33.909 52.3534 33.8939 52.276C33.8676 52.1208 33.8397 52.008 33.8005 51.9333C33.6651 51.6105 33.4272 51.3693 33.0968 51.1899C32.7676 51.0165 32.4281 50.9552 32.0779 51.0138C31.6574 51.082 31.3646 51.2243 31.1938 51.4338C31.1745 51.4623 31.0837 51.6454 30.9285 51.9919L31.0311 52.9189C30.9801 52.9286 30.9038 52.9447 30.8023 52.9619C30.4961 53.0151 30.3076 53.0054 30.2404 52.941C30.219 52.4484 30.1448 51.8001 30.0304 50.9934C29.8897 50.0174 29.8064 49.3718 29.7769 49.0452C29.7114 48.3389 29.7038 47.7062 29.7484 47.1293C29.7543 47.1427 29.8403 47.1599 30.0229 47.2002C30.2055 47.226 30.2995 47.2631 30.3097 47.3152C30.3457 47.5424 30.3849 47.8388 30.4279 48.2186L30.5487 49.3433C30.6025 49.7682 30.6444 50.0652 30.6739 50.2333C30.7077 50.4546 30.7469 50.6501 30.7926 50.8016C30.8264 50.8188 30.864 50.8242 30.9054 50.8172C30.9344 50.8086 31.0445 50.728 31.2518 50.5674C31.4506 50.4004 31.5827 50.3171 31.6552 50.2962C31.6676 50.2978 31.6966 50.2892 31.7363 50.2833C31.7685 50.2736 31.7933 50.2645 31.8153 50.2607C32.2262 50.1984 32.6811 50.2887 33.1839 50.5422C33.5867 50.7441 33.974 51.0267 34.3414 51.3753C34.5202 51.5477 34.6411 51.8238 34.7023 52.2056C34.7646 52.5618 34.7582 52.8781 34.6867 53.1537C34.51 53.2804 34.3113 53.3653 34.1045 53.4018H34.1029Z" fill="var(--fill-0, #231F20)"/>
<g id="Group_7">
<path id="Vector_50" d="M39.9608 49.8214C39.753 49.6077 39.4624 49.2021 39.0982 48.6167C38.7399 48.0339 38.4343 47.6316 38.1905 47.4227C37.7022 47.0021 37.1415 46.9274 36.5377 47.203C36.0726 47.4194 35.6703 47.8953 35.3077 48.6559L35.2981 48.6849C35.2814 48.7773 35.2938 48.8605 35.3292 48.9261C35.3674 49.027 35.4506 49.1146 35.5742 49.1866C35.7138 49.2709 35.839 49.2822 35.956 49.2263L35.9867 49.2123L36.4287 48.5227C36.5694 48.3025 36.7123 48.1607 36.8546 48.0994C36.9594 48.0516 37.0604 48.0312 37.1597 48.0398C37.5336 48.0554 37.8156 48.2294 38.0148 48.5694C37.8929 48.6188 37.7275 48.6742 37.5534 48.7316C37.2822 48.8229 37.0872 48.8976 36.9594 48.9583C36.542 49.1495 36.2353 49.4256 36.0463 49.7801C35.6832 50.4805 35.5865 50.9913 35.753 51.3426C35.7793 51.3957 35.8057 51.443 35.8395 51.4892C36.05 51.79 36.2235 51.9968 36.3691 52.1203C36.5404 52.2637 36.7247 52.3497 36.9159 52.3765C37.1178 52.405 37.3322 52.3679 37.5534 52.2675L37.728 52.1869C38.8925 51.4221 39.6305 50.691 39.9834 49.9509L40.0178 49.8784L39.9614 49.8214H39.9608ZM37.6646 52.0908L37.5056 52.1628C37.1125 52.3427 36.7612 52.2986 36.4432 52.0322C36.303 51.9135 36.1354 51.7116 35.9335 51.4231C35.9023 51.3802 35.8792 51.3388 35.8567 51.2921C35.7063 50.9741 35.8083 50.4875 36.1483 49.8322C36.324 49.5029 36.606 49.2457 37.0077 49.062C37.1404 48.9986 37.3381 48.925 37.5905 48.8401C37.8618 48.751 38.0562 48.6838 38.1749 48.6247C37.9574 48.1832 37.6238 47.9469 37.1651 47.9259C37.0416 47.9147 36.9213 47.9431 36.8068 47.9958C36.6398 48.0667 36.4808 48.2289 36.3326 48.4609L35.9088 49.1221C35.8228 49.1619 35.7374 49.1495 35.6327 49.0877C35.5376 49.0324 35.4673 48.9658 35.4356 48.8847C35.4066 48.8299 35.3985 48.7724 35.4109 48.7048C35.7584 47.9748 36.1494 47.5097 36.5861 47.3066C37.1479 47.0494 37.6576 47.1149 38.1153 47.5091C38.3516 47.7116 38.6476 48.1027 39.0004 48.6763C39.3705 49.272 39.6638 49.6813 39.8792 49.9015C39.5376 50.618 38.8012 51.3453 37.6641 52.0908H37.6646Z" fill="var(--fill-0, #231F20)"/>
<path id="Vector_51" d="M38.2809 49.3223C37.9661 49.3674 37.7029 49.4377 37.4935 49.5344C36.9918 49.7681 36.6792 50.1666 36.5632 50.7263C36.5283 50.9052 36.5417 51.0582 36.6067 51.2022C36.7125 51.4315 36.8919 51.5196 37.132 51.4836C37.2566 51.4648 37.3672 51.4278 37.4639 51.3735C37.6535 51.2725 38.0397 51.0158 38.6214 50.5968C38.8073 50.4422 38.9308 50.274 38.991 50.0995L38.7117 49.6252C38.5854 49.4469 38.4409 49.3448 38.2809 49.3223ZM38.5537 50.5039C38.008 50.8976 37.602 51.17 37.4081 51.2736C37.3221 51.3214 37.2238 51.3542 37.1148 51.3703C36.9225 51.4009 36.7936 51.3338 36.7103 51.1549C36.6561 51.0341 36.6448 50.9052 36.6743 50.7499C36.7823 50.23 37.0745 49.8562 37.5407 49.6386C37.7362 49.5495 37.9844 49.4818 38.2793 49.4383C38.4001 49.4603 38.5135 49.5457 38.6117 49.6832L38.8637 50.1102C38.804 50.2488 38.6988 50.3825 38.5532 50.5039H38.5537Z" fill="var(--fill-0, #231F20)"/>
</g>
<path id="Vector_52" d="M45.212 47.1629C45.1884 47.0394 45.1449 46.9416 45.0745 46.8551C44.9708 46.7305 44.8419 46.6773 44.705 46.702L44.6577 46.7096L44.6308 46.7488C44.5476 46.8669 44.4788 46.9556 44.4283 47.0173C44.2661 47.2123 44.1319 47.3563 44.0185 47.454C43.7333 47.6839 43.504 47.8606 43.3605 47.9621C42.9744 48.2194 42.615 48.3199 42.2605 48.2699C42.174 48.2575 42.087 48.2361 42.0027 48.2065C41.6971 48.0916 41.4538 47.9278 41.2781 47.7199C41.1095 47.5185 41.0004 47.2547 40.9548 46.9378C40.8753 46.3545 40.987 45.9463 41.2969 45.6885L41.3447 45.6471C41.3576 45.6391 41.378 45.6257 41.4194 45.6052C41.66 45.4538 41.9452 45.4844 42.253 45.6654L42.5549 45.8888C42.76 46.0403 42.9642 46.1912 43.1887 46.3508C43.3299 46.4131 43.4782 46.3841 43.6189 46.2638C43.7467 46.1601 43.8214 46.0161 43.8332 45.8486L43.838 45.797L43.8015 45.7599C43.7398 45.6976 43.692 45.6461 43.6554 45.6063C43.6243 45.573 43.6012 45.5478 43.5878 45.5354C43.1624 45.0789 42.7799 44.7894 42.4469 44.6728C41.7256 44.4349 41.1336 44.5127 40.6776 44.8909C40.5095 45.0284 40.3656 45.2088 40.234 45.4457C39.9933 45.9157 39.8993 46.4244 39.9563 46.9599C40.017 47.5045 40.2152 47.9836 40.5466 48.3859C40.712 48.5793 40.9059 48.7469 41.1079 48.8709C41.3802 49.0337 41.6718 49.1384 41.9742 49.1809C42.5511 49.262 43.1903 49.1223 43.8746 48.7651C43.9809 48.7077 44.0996 48.6233 44.2495 48.5003C44.5374 48.2667 44.8403 47.9374 45.1411 47.534C45.2523 47.4218 45.2346 47.2676 45.2125 47.1645L45.212 47.1629ZM45.0589 47.4524C44.7506 47.8644 44.4563 48.1834 44.1764 48.4106C44.0395 48.5234 43.9224 48.6078 43.8193 48.6636C42.8073 49.1916 41.9237 49.2271 41.1659 48.7721C40.9671 48.6507 40.7856 48.4907 40.6325 48.3113C40.3135 47.924 40.1271 47.4685 40.0691 46.947C40.0148 46.4329 40.1056 45.9452 40.3349 45.4978C40.4483 45.2916 40.5831 45.1149 40.748 44.9795C41.1788 44.6223 41.7304 44.5595 42.4093 44.7818C42.7149 44.8887 43.0807 45.1616 43.5018 45.6138C43.5394 45.6504 43.6076 45.7293 43.7177 45.841C43.7075 45.9769 43.6495 46.0908 43.5448 46.1757C43.4357 46.2681 43.3342 46.2922 43.2343 46.2471C42.9287 46.0269 42.6263 45.7997 42.3191 45.5741C41.956 45.3592 41.6364 45.3319 41.356 45.5091C41.319 45.5268 41.2932 45.544 41.2787 45.5537L41.2212 45.6026C40.8823 45.8845 40.7555 46.3357 40.8393 46.9545C40.8876 47.2902 41.002 47.5727 41.1884 47.7951C41.377 48.0185 41.6358 48.1931 41.9613 48.3156C42.4292 48.4821 42.9121 48.3994 43.4223 48.0594C43.5657 47.9584 43.7886 47.787 44.0889 47.5453C44.2097 47.4411 44.3499 47.2913 44.5143 47.0925C44.5669 47.0297 44.6367 46.9384 44.7222 46.817C44.8199 46.8003 44.9058 46.8358 44.9853 46.9303C45.0434 47.0007 45.0788 47.0823 45.0981 47.186C45.1266 47.3187 45.1126 47.3982 45.0579 47.454L45.0589 47.4524Z" fill="var(--fill-0, #231F20)"/>
<path id="Vector_53" d="M49.2393 42.8134C49.1286 42.7178 48.9874 42.7087 48.8466 42.786C48.4438 42.8886 48.0662 43.0256 47.6951 43.2039L46.5811 43.7179C46.2379 43.8785 45.9795 43.9961 45.791 44.0778C45.8135 43.9177 45.8608 43.7346 45.9365 43.509L46.0552 43.1792C46.1138 43.017 46.1675 42.8676 46.218 42.7307C46.3361 42.3901 46.3823 42.0824 46.3592 41.7913L46.3549 41.7467L46.3216 41.7161C46.2142 41.6172 46.0257 41.5522 45.7303 41.5103L45.6314 41.4964L45.6035 41.592C45.2957 42.6915 45.0363 43.4832 44.8134 44.0042C44.2596 43.4348 43.6661 42.8784 43.0452 42.3477C42.9764 42.2908 42.9115 42.2591 42.847 42.25C42.7842 42.2414 42.6907 42.2505 42.6117 42.344C42.5752 42.3832 42.5634 42.4331 42.5306 42.6302C42.514 42.735 42.5006 42.7855 42.4941 42.8075C42.4742 42.8209 42.442 42.8413 42.3996 42.866L42.2803 42.9364L42.3716 43.0406C43.1865 43.9666 44.4992 45.2025 46.276 46.714L46.3028 46.7371L46.3388 46.7403C46.5317 46.7586 46.703 46.6785 46.8496 46.505C47.1128 46.1983 47.0618 46.0189 46.963 45.9196C46.8845 45.7815 46.7508 45.6225 46.5392 45.4168L46.5091 45.39C46.4522 45.3389 46.3356 45.2353 46.1562 45.0795C46.5182 44.8142 46.9952 44.5499 47.6107 44.2744C48.6259 43.8226 49.1206 43.6024 49.2661 43.5283L49.3129 43.5047L49.3252 43.4542C49.4031 43.147 49.3757 42.938 49.2387 42.8139L49.2393 42.8134ZM47.564 44.1696C46.8974 44.4683 46.363 44.7674 45.9741 45.0736C46.2626 45.3218 46.4215 45.4652 46.464 45.5022C46.6606 45.694 46.7975 45.854 46.8711 45.9899C46.9726 46.0802 46.9377 46.2263 46.7632 46.4304C46.6391 46.5781 46.5 46.6404 46.3496 46.6264C44.576 45.1171 43.2778 43.8973 42.4581 42.9643C42.529 42.9224 42.5752 42.8918 42.5865 42.8805C42.6005 42.8639 42.6214 42.7903 42.644 42.648C42.6665 42.5121 42.6805 42.4374 42.6955 42.4218C42.768 42.3364 42.8594 42.3423 42.9727 42.4358C43.6618 43.0256 44.2865 43.6196 44.8494 44.2056C45.0965 43.6706 45.3822 42.8064 45.7142 41.6231C45.973 41.6597 46.1535 41.7171 46.2443 41.8004C46.2674 42.0818 46.2196 42.3778 46.11 42.6931C46.0278 42.9149 45.9365 43.1733 45.8286 43.4698C45.7292 43.7657 45.6664 44.0219 45.6599 44.2561C45.8699 44.1712 46.1911 44.0262 46.6294 43.821L47.7429 43.307C48.15 43.111 48.5324 42.9821 48.8902 42.8924C48.9922 42.8311 49.0851 42.8306 49.1646 42.8988C49.264 42.9896 49.2806 43.1631 49.2146 43.4246C49.0679 43.4993 48.5152 43.7453 47.564 44.1686V44.1696Z" fill="var(--fill-0, #231F20)"/>
<path id="Vector_54" d="M46.8717 45.9906C46.9733 46.0809 46.9384 46.2269 46.7638 46.4311C46.6397 46.5788 46.5006 46.6411 46.3502 46.6271C44.5766 45.1178 43.2784 43.898 42.4588 42.965C42.5297 42.9231 42.5758 42.8925 42.5871 42.8812C42.6011 42.8646 42.622 42.791 42.6446 42.6486C42.6672 42.5128 42.6811 42.4381 42.6962 42.4225C42.7687 42.3371 42.86 42.343 42.9733 42.4365C43.6624 43.0262 44.2871 43.6203 44.85 44.2063C45.0971 43.6713 45.3828 42.8071 45.7148 41.6238C45.9737 41.6603 46.1542 41.7178 46.2449 41.8011C46.268 42.0825 46.2202 42.3785 46.1106 42.6938C46.0285 42.9156 45.9372 43.174 45.8292 43.4704C45.7298 43.7664 45.667 44.0226 45.6605 44.2568C45.8706 44.1719 46.1918 44.0269 46.63 43.8217L47.7435 43.3077C48.1506 43.1116 48.5331 42.9827 48.8908 42.893C48.9928 42.8318 49.0858 42.8313 49.1653 42.8995C49.2646 42.9903 49.2813 43.1637 49.2152 43.4253C49.0686 43.5 48.5159 43.746 47.5646 44.1692C46.8981 44.4679 46.3636 44.7671 45.9748 45.0732C46.2632 45.3214 46.4222 45.4648 46.4646 45.5018C46.6612 45.6936 46.7982 45.8536 46.8717 45.9895" fill="var(--fill-0, #FFC52F)"/>
<path id="Vector_55" d="M44.7238 46.8148C44.8215 46.7981 44.9075 46.8336 44.987 46.9281C45.045 46.9985 45.0804 47.0801 45.0998 47.1838C45.1282 47.3164 45.1143 47.3959 45.0595 47.4518C44.7512 47.8638 44.4568 48.1828 44.177 48.41C44.04 48.5228 43.9229 48.6071 43.8198 48.663C42.8079 49.191 41.9243 49.2264 41.1664 48.7715C40.9677 48.6501 40.7861 48.49 40.6331 48.3106C40.314 47.9234 40.1276 47.4679 40.0696 46.9464C40.0154 46.4323 40.1062 45.9446 40.3355 45.4972C40.4488 45.291 40.5837 45.1142 40.7485 44.9789C41.1793 44.6217 41.7309 44.5589 42.4099 44.7812C42.7155 44.8881 43.0813 45.161 43.5024 45.6132C43.54 45.6497 43.6082 45.7287 43.7183 45.8404C43.7081 45.9763 43.6501 46.0902 43.5453 46.1751C43.4363 46.2674 43.3348 46.2916 43.2349 46.2465C42.9293 46.0263 42.6269 45.7991 42.3196 45.5735C41.9565 45.3586 41.6369 45.3312 41.3566 45.5085C41.3195 45.5262 41.2937 45.5434 41.2792 45.5531L41.2218 45.6019C40.8828 45.8839 40.7561 46.3351 40.8399 46.9539C40.8882 47.2896 41.0026 47.5721 41.189 47.7945C41.3775 48.0179 41.6364 48.1925 41.9619 48.3149C42.4297 48.4815 42.9126 48.3987 43.4229 48.0587C43.5663 47.9578 43.7892 47.7864 44.0894 47.5447C44.2103 47.4405 44.3505 47.2907 44.5148 47.0919C44.5675 47.0291 44.6373 46.9378 44.7227 46.8164" fill="var(--fill-0, #FFC52F)"/>
<path id="Vector_56" d="M37.6654 52.0904L37.5064 52.1624C37.1133 52.3424 36.762 52.2983 36.444 52.0319C36.3038 51.9132 36.1362 51.7112 35.9343 51.4228C35.9031 51.3798 35.88 51.3385 35.8575 51.2917C35.7071 50.9738 35.8091 50.4871 36.1491 49.8319C36.3248 49.5026 36.6067 49.2453 37.0085 49.0616C37.1412 48.9982 37.3388 48.9247 37.5913 48.8398C37.8625 48.7506 38.057 48.6835 38.1757 48.6244C37.9581 48.1829 37.6246 47.9466 37.1659 47.9256C37.0423 47.9143 36.922 47.9428 36.8076 47.9954C36.6406 48.0663 36.4816 48.2285 36.3333 48.4606L35.9096 49.1218C35.8236 49.1615 35.7382 49.1492 35.6335 49.0874C35.5384 49.0321 35.468 48.9655 35.4364 48.8844C35.4074 48.8296 35.3993 48.7721 35.4116 48.7044C35.7592 47.9745 36.1502 47.5093 36.5869 47.3063C37.1487 47.049 37.6584 47.1146 38.1161 47.5088C38.3524 47.7113 38.6483 48.1023 39.0012 48.676C39.3713 49.2716 39.6646 49.6809 39.88 49.9011C39.5384 50.6177 38.802 51.3449 37.6649 52.0904M38.281 49.3221C37.9662 49.3672 37.703 49.4376 37.4935 49.5343C36.9919 49.7679 36.6793 50.1665 36.5632 50.7262C36.5283 50.905 36.5418 51.0581 36.6067 51.202C36.7126 51.4314 36.892 51.5195 37.132 51.4835C37.2567 51.4647 37.3673 51.4276 37.464 51.3734C37.6536 51.2724 38.0398 51.0157 38.6215 50.5967C38.8073 50.442 38.9309 50.2739 38.991 50.0993L38.7117 49.6251C38.5855 49.4467 38.441 49.3447 38.281 49.3221Z" fill="var(--fill-0, #FFC52F)"/>
<path id="Vector_57" d="M34.6851 53.1536C34.5084 53.2804 34.3097 53.3653 34.1029 53.4018C34.047 53.3046 34.003 53.166 33.9708 52.9828C33.9595 52.9066 33.9482 52.79 33.9375 52.6316C33.9187 52.4747 33.909 52.3533 33.8939 52.276C33.8676 52.1208 33.8397 52.008 33.8005 51.9333C33.6651 51.6105 33.4272 51.3693 33.0969 51.1899C32.7676 51.0164 32.4281 50.9552 32.0779 51.0137C31.6574 51.082 31.3646 51.2243 31.1938 51.4338C31.1745 51.4622 31.0837 51.6454 30.9285 51.9918L31.0311 52.9189C30.9801 52.9286 30.9038 52.9447 30.8023 52.9619C30.4961 53.0151 30.3076 53.0054 30.2404 52.9409C30.219 52.4484 30.1448 51.8001 30.0304 50.9933C29.8897 50.0174 29.8065 49.3718 29.7769 49.0452C29.7114 48.3389 29.7039 47.7062 29.7484 47.1293C29.7544 47.1427 29.8403 47.1599 30.0229 47.2002C30.2055 47.226 30.2995 47.263 30.3097 47.3151C30.3457 47.5423 30.3849 47.8388 30.4279 48.2186L30.5488 49.3433C30.6025 49.7682 30.6444 50.0652 30.6739 50.2333C30.7077 50.4546 30.747 50.6501 30.7926 50.8016C30.8264 50.8188 30.864 50.8241 30.9054 50.8172C30.9344 50.8086 31.0445 50.728 31.2518 50.5674C31.4506 50.4004 31.5827 50.3171 31.6552 50.2962C31.6676 50.2978 31.6966 50.2892 31.7363 50.2833C31.7686 50.2736 31.7933 50.2645 31.8153 50.2607C32.2262 50.1984 32.6811 50.2886 33.1839 50.5422C33.5867 50.7441 33.974 51.0266 34.3414 51.3752C34.5202 51.5476 34.6411 51.8237 34.7023 52.2056C34.7646 52.5617 34.7582 52.8781 34.6867 53.1536" fill="var(--fill-0, #FFC52F)"/>
<path id="Vector_58" d="M28.6713 52.8407C28.4231 53.2801 27.9166 53.518 27.1517 53.576C26.895 53.5905 26.5786 53.59 26.2048 53.5685L25.9454 53.5562L25.7993 53.5497L24.9732 53.5105C24.7637 53.3349 24.6627 53.1173 24.6745 52.8783C24.6745 52.8541 24.6853 52.8031 24.7003 52.7446C24.7148 52.7268 24.7384 52.7161 24.7739 52.7209L25.0801 52.802C25.1268 52.8155 25.3765 52.8439 25.8261 52.888C26.0834 52.9046 26.266 52.9116 26.3697 52.9138C27.3177 52.9653 27.829 52.765 27.9096 52.3138C27.9429 52.1226 27.445 51.8191 26.4218 51.4018C26.2966 51.3475 25.9228 51.2057 25.3148 50.9683C25.2068 50.9291 25.108 50.8512 25.0118 50.7433C24.8953 50.5923 24.8351 50.4339 24.8502 50.2652C24.8486 50.2196 24.8555 50.1696 24.8754 50.103C25.0269 49.7313 25.6677 49.3972 26.7854 49.1115C27.2382 48.9971 27.6427 48.9283 27.9982 48.9031L28.045 49.3902C27.9349 49.4757 27.6964 49.5621 27.3258 49.6502C26.8971 49.7485 26.6152 49.8296 26.4744 49.8914C26.194 50.016 26.0506 50.1868 26.0394 50.4006C26.0324 50.5644 26.3332 50.7202 26.9353 50.8797C27.3166 50.986 27.5707 51.065 27.6883 51.1203C27.9488 51.2138 28.1938 51.3792 28.4118 51.6338C28.6637 51.9153 28.7846 52.1978 28.7679 52.4868C28.762 52.6178 28.7293 52.7354 28.6707 52.8413" fill="var(--fill-0, #FFC52F)"/>
<path id="Vector_59" d="M18.9015 50.4916C17.7693 50.5545 16.4668 50.2698 14.9881 49.6376C14.6513 49.4458 14.5906 49.1703 14.7952 48.8013C14.9258 48.8319 15.0305 48.8711 15.1159 48.9141C15.1664 48.9479 15.2362 49.0032 15.334 49.072C15.4247 49.1477 15.5005 49.1972 15.5504 49.2299C15.7395 49.3384 16.0215 49.4287 16.3996 49.5135C16.5006 49.535 16.6977 49.5747 16.9953 49.6408C17.1247 49.673 17.3783 49.7332 17.751 49.824C17.9938 49.8777 18.2495 49.9067 18.5239 49.9137C18.67 49.9094 18.7544 49.8954 18.7796 49.8551C18.8768 49.6773 18.7501 49.3937 18.3972 48.9968C18.1297 48.6944 17.801 48.3936 17.4153 48.1004C17.1827 47.9279 16.8239 47.668 16.3266 47.3264C16.2745 47.4075 16.2202 47.5015 16.1574 47.6057C15.8544 48.146 15.6938 48.4586 15.674 48.5451L15.6573 48.5741C15.5563 48.7562 15.3791 48.7766 15.1374 48.6337C15.0987 48.6095 15.0466 48.5773 14.9779 48.5241C15.1202 48.1181 15.3329 47.6615 15.6224 47.1577C15.7524 46.923 15.9597 46.5857 16.2433 46.1248C16.5232 45.6774 16.7305 45.3331 16.8658 45.0973C17.3756 45.1182 17.9379 45.3111 18.554 45.6581C18.9628 45.8928 19.2888 46.1409 19.5353 46.3923C19.7427 46.6093 19.7658 46.8677 19.5993 47.1534C19.5472 47.2469 19.4768 47.321 19.3946 47.3656C19.1502 47.5025 18.9155 47.5756 18.6781 47.6196C18.5529 47.6352 18.3048 47.6438 17.9347 47.647C18.1001 47.7861 18.3956 48.0354 18.8102 48.3915C19.0804 48.6257 19.2995 48.9495 19.465 49.3561C19.5756 49.6193 19.5504 49.8884 19.3909 50.165C19.2732 50.3751 19.1126 50.4798 18.9015 50.4938M18.4353 46.2924C18.033 46.0657 17.65 45.9094 17.2891 45.8401C17.2708 45.8632 17.2569 45.8874 17.2391 45.9153C17.187 46.0088 17.1167 46.1442 17.0264 46.3423C16.9335 46.5298 16.8626 46.6662 16.8084 46.7602C16.8207 46.7694 16.8347 46.7763 16.846 46.786C16.8836 46.8091 16.9416 46.8295 17.0216 46.8472C17.1 46.8709 17.158 46.8913 17.1919 46.9149C17.5791 47.0583 18.0513 47.0626 18.6099 46.945C18.8183 46.8977 18.9359 46.8515 18.9612 46.8043C19.024 46.6979 18.8478 46.5282 18.4353 46.2929V46.2924Z" fill="var(--fill-0, #FFC52F)"/>
<path id="Vector_60" d="M13.8983 43.5146C13.9171 43.2579 13.8516 43.0038 13.7012 42.747C13.4879 42.3952 13.2414 42.138 12.9696 41.9741C12.7328 41.8329 12.3911 41.7201 11.9469 41.6406C11.3556 41.531 10.8421 41.5165 10.4167 41.6084C10.1943 41.741 9.96013 41.9231 9.71413 42.1498C9.58307 42.2695 9.32955 42.5209 8.94551 42.9152C8.74839 43.115 8.59316 43.2702 8.48788 43.3685L8.08451 42.9313C8.3246 42.7084 8.59746 42.435 8.89986 42.1224L9.87419 41.0943C10.436 40.503 10.9237 40.0459 11.3368 39.7231L11.4039 39.8031L11.4592 39.8557C11.5946 39.9068 11.6811 39.9503 11.7187 39.9927C11.7573 40.0362 11.7708 40.0899 11.7681 40.1393L11.0881 40.7656C12.2993 40.663 13.2548 40.9933 13.9509 41.7507C14.0734 41.8882 14.2276 42.0987 14.4134 42.3845C14.6331 42.7202 14.7357 42.942 14.726 43.0559C14.6207 43.1746 14.5133 43.2799 14.3968 43.3706C14.1577 43.5592 13.9928 43.6113 13.8978 43.5141" fill="var(--fill-0, #FFC52F)"/>
<path id="Vector_61" d="M15.8577 43.8307C15.8448 43.6326 15.7873 43.4902 15.6933 43.4134C15.6009 43.3253 15.4575 43.2909 15.2486 43.3071L15.2169 43.3092L15.1911 43.328C14.9913 43.4703 14.7555 43.7013 14.4488 44.0553C14.162 44.3883 13.8757 44.7498 13.5991 45.129C13.1506 45.7456 12.6258 46.4723 12.1284 47.1894L12.0796 47.2597L12.1327 47.3263C12.2047 47.416 12.2815 47.4993 12.3637 47.5766C12.4926 47.6873 12.6097 47.7485 12.7214 47.7641C12.773 47.7716 12.8235 47.7689 12.8718 47.7566L12.9191 47.7319C13.0528 47.6158 13.2102 47.4445 13.3627 47.2753C13.7978 46.772 14.4064 45.9594 15.1702 44.8593L15.8593 43.87L15.8566 43.8302L15.8577 43.8307ZM15.0772 44.7938C14.2995 45.9137 13.6974 46.7146 13.2768 47.2001C13.1055 47.3908 12.9631 47.5423 12.8444 47.6454C12.7289 47.6744 12.5968 47.625 12.4389 47.4896C12.3669 47.4214 12.2928 47.3414 12.223 47.2544C12.6817 46.5916 13.1747 45.9067 13.692 45.1961C13.9982 44.7755 14.2823 44.4237 14.5358 44.1294C14.8194 43.8023 15.0568 43.5638 15.2577 43.4209C15.4242 43.408 15.5456 43.4301 15.6149 43.4961C15.6896 43.5574 15.7331 43.6723 15.7438 43.8377L15.0778 44.7938H15.0772Z" fill="var(--fill-0, #231F20)"/>
<path id="Vector_62" d="M16.6564 41.97C16.5323 41.8647 16.3997 41.811 16.2461 41.8132C16.0747 41.8153 15.9437 41.8771 15.8556 41.9915C15.7922 42.0549 15.768 42.1204 15.7804 42.1709C15.8013 42.4411 15.9383 42.6897 16.1897 42.9089C16.2794 42.9852 16.3605 43.0276 16.4373 43.0383C16.5103 43.0485 16.5785 43.0308 16.6344 42.9868C16.7257 42.9186 16.7703 42.795 16.78 42.5839C16.7896 42.2493 16.7531 42.0613 16.657 41.9705L16.6564 41.97ZM16.5656 42.8955C16.4899 42.9545 16.3905 42.9298 16.2632 42.8219C16.0387 42.6253 15.913 42.4061 15.8942 42.1623C15.8883 42.1365 15.9018 42.1075 15.9361 42.0726C16.0167 41.97 16.1204 41.9292 16.2477 41.9276C16.3744 41.9265 16.4835 41.9732 16.5823 42.0575C16.6441 42.1161 16.6736 42.2853 16.665 42.5807C16.6575 42.7445 16.6274 42.8493 16.5656 42.8955Z" fill="var(--fill-0, #231F20)"/>
<path id="Vector_63" d="M12.8436 47.6459C12.7281 47.6749 12.5959 47.6255 12.438 47.4901C12.3661 47.4219 12.2919 47.3419 12.2221 47.2549C12.6808 46.5921 13.1739 45.9072 13.6911 45.1966C13.9973 44.776 14.2814 44.4242 14.5349 44.1299C14.8185 43.8028 15.056 43.5643 15.2568 43.4214C15.4233 43.4085 15.5447 43.4306 15.614 43.4966C15.6887 43.5579 15.7322 43.6728 15.7429 43.8382L15.0769 44.7943C14.2992 45.9142 13.697 46.7151 13.2765 47.2006C13.1051 47.3913 12.9628 47.5428 12.8441 47.6459H12.8436Z" fill="var(--fill-0, #FFC52F)"/>
<path id="Vector_64" d="M16.2637 42.8216C16.0392 42.6251 15.9135 42.4059 15.8947 42.1621C15.8888 42.1363 15.9022 42.1073 15.9366 42.0724C16.0172 41.9698 16.1208 41.9289 16.2481 41.9273C16.3749 41.9263 16.4839 41.973 16.5828 42.0573C16.6445 42.1159 16.6741 42.2851 16.6655 42.5805C16.658 42.7443 16.6279 42.849 16.5661 42.8952C16.4904 42.9543 16.391 42.9296 16.2637 42.8216Z" fill="var(--fill-0, #FFC52F)"/>
</g>
</svg>
