<svg preserveAspectRatio="xMidYMid meet" width="100%" height="100%" overflow="visible" style="display: block;" viewBox="0 0 139.997 47.2516" fill="none" xmlns="http://www.w3.org/2000/svg">
<g id="Group">
<path id="Vector" d="M17.9304 13.9545L18.0082 15.729L16.9773 15.5223L17.133 14.1102L17.9304 13.9545Z" fill="var(--fill-0, #231F20)"/>
<path id="Vector_2" d="M13.968 13.9812C13.968 13.9812 13.7613 13.4148 13.968 12.953C14.0861 12.6845 14.3814 12.9799 14.3814 12.9799L14.87 13.4685L14.7143 14.2389L14.0727 14.2121L13.968 13.9812Z" fill="var(--fill-0, #231F20)"/>
<path id="Vector_3" d="M117.32 19.2564L118.571 29.525L121.097 28.9344L120.055 19.1544L117.32 19.2564Z" fill="var(--fill-0, #231F20)"/>
<path id="Vector_4" d="M108.584 21.6967L113.226 22.2471L113.935 20.5155L122.434 10.2066L128.177 17.2886L129.989 16.894L131.092 18.8618L135.339 18.4698L123.221 6.97968L108.584 21.6967Z" fill="var(--fill-0, #BEC0C2)"/>
<path id="Vector_5" d="M113.462 15.7933L113.478 29.6969L116.375 31.297L118.262 30.4299L116.689 19.8847L120.858 19.0981L121.567 28.8567L128.652 26.8888L128.571 16.5021L124.399 9.9704L113.462 15.7933Z" fill="var(--fill-0, #FFC425)"/>
<path id="Vector_6" d="M122.04 16.6605L122.826 23.5062L124.875 23.7425L125.189 16.3437L122.04 16.6605Z" fill="var(--fill-0, #E31936)"/>
<path id="Vector_7" d="M88.8684 39.1546C88.5999 38.905 88.2536 38.7546 87.8321 38.6982C87.2442 38.6204 86.7422 38.6633 86.3207 38.8244C85.9475 38.9667 85.518 39.2486 85.0348 39.6728C84.3824 40.2419 83.918 40.8057 83.6388 41.3614C83.5904 41.7265 83.5851 42.148 83.62 42.6258C83.6388 42.8728 83.6951 43.3856 83.7945 44.1668C83.8482 44.5695 83.8804 44.8755 83.8992 45.0849L83.0508 45.1494C83.0132 44.6796 82.9488 44.1346 82.8656 43.5118L82.5837 41.509C82.4199 40.3573 82.3421 39.407 82.3475 38.658L82.5005 38.6499L82.6025 38.6311C82.7797 38.5264 82.9085 38.47 82.9864 38.4647C83.0696 38.462 83.1421 38.4862 83.1985 38.5425L83.2951 39.858C84.2589 38.4083 85.475 37.6325 86.9462 37.5278C87.2039 37.5116 87.5771 37.5278 88.0684 37.5734C88.6348 37.6298 88.9758 37.7103 89.0912 37.8177C89.1342 38.0405 89.1556 38.258 89.1556 38.4674C89.1556 38.9023 89.0617 39.1278 88.8738 39.1519L88.8684 39.1546Z" fill="var(--fill-0, #231F20)"/>
<path id="Vector_8" d="M88.8684 39.1546C88.5999 38.905 88.2536 38.7546 87.8321 38.6982C87.2442 38.6204 86.7422 38.6633 86.3207 38.8244C85.9475 38.9667 85.518 39.2486 85.0348 39.6728C84.3824 40.2419 83.918 40.8057 83.6388 41.3614C83.5904 41.7265 83.5851 42.148 83.62 42.6258C83.6388 42.8728 83.6951 43.3856 83.7945 44.1668C83.8482 44.5695 83.8804 44.8755 83.8992 45.0849L83.0508 45.1494C83.0132 44.6796 82.9488 44.1346 82.8656 43.5118L82.5837 41.509C82.4199 40.3573 82.3421 39.407 82.3475 38.658L82.5005 38.6499L82.6025 38.6311C82.7797 38.5264 82.9085 38.47 82.9864 38.4647C83.0696 38.462 83.1421 38.4862 83.1985 38.5425L83.2951 39.858C84.2589 38.4083 85.475 37.6325 86.9462 37.5278C87.2039 37.5116 87.5771 37.5278 88.0684 37.5734C88.6348 37.6298 88.9758 37.7103 89.0912 37.8177C89.1342 38.0405 89.1556 38.258 89.1556 38.4674C89.1556 38.9023 89.0617 39.1278 88.8738 39.1519L88.8684 39.1546Z" stroke="var(--stroke-0, #231F20)" stroke-width="1.02821"/>
<path id="Vector_9" d="M91.2178 44.5081C91.1238 44.6504 90.9278 44.7202 90.6325 44.7202C90.4902 44.7202 90.3399 44.7041 90.1761 44.6692C90.0526 43.5255 89.9372 42.3255 89.8298 41.0718C89.7681 40.3308 89.7332 39.6839 89.7332 39.1308C89.7332 38.5134 89.7707 38.0328 89.8486 37.6919C90.015 37.5201 90.1681 37.4341 90.305 37.4341C90.4419 37.4341 90.5949 37.5174 90.7667 37.6838L90.9466 39.3429C91.156 41.2785 91.2607 42.7067 91.2607 43.6222C91.2607 43.9953 91.2446 44.2907 91.2151 44.5081H91.2178ZM90.3721 36.0972C89.9426 36.0972 89.6016 35.9764 89.3519 35.7348C89.3251 35.7079 89.3144 35.665 89.3144 35.6006C89.3144 35.418 89.3815 35.2703 89.5157 35.1522C89.6499 35.0341 89.811 34.9777 90.0016 34.9777C90.1197 34.9777 90.313 35.1388 90.5788 35.461C90.7265 35.6435 90.7909 35.7912 90.7694 35.9012C90.7453 36.0328 90.611 36.0972 90.3721 36.0972Z" fill="var(--fill-0, #231F20)"/>
<path id="Vector_10" d="M91.2178 44.5081C91.1238 44.6504 90.9278 44.7202 90.6325 44.7202C90.4902 44.7202 90.3399 44.7041 90.1761 44.6692C90.0526 43.5255 89.9372 42.3255 89.8298 41.0718C89.7681 40.3308 89.7332 39.6839 89.7332 39.1308C89.7332 38.5134 89.7707 38.0328 89.8486 37.6919C90.015 37.5201 90.1681 37.4341 90.305 37.4341C90.4419 37.4341 90.5949 37.5174 90.7667 37.6838L90.9466 39.3429C91.156 41.2785 91.2607 42.7067 91.2607 43.6222C91.2607 43.9953 91.2446 44.2907 91.2151 44.5081H91.2178ZM90.3721 36.0972C89.9426 36.0972 89.6016 35.9764 89.3519 35.7348C89.3251 35.7079 89.3144 35.665 89.3144 35.6006C89.3144 35.418 89.3815 35.2703 89.5157 35.1522C89.6499 35.0341 89.811 34.9777 90.0016 34.9777C90.1197 34.9777 90.313 35.1388 90.5788 35.461C90.7265 35.6435 90.7909 35.7912 90.7694 35.9012C90.7453 36.0328 90.611 36.0972 90.3721 36.0972Z" stroke="var(--stroke-0, #231F20)" stroke-width="1.02821"/>
<path id="Vector_11" d="M95.8861 38.277C95.223 38.277 94.6405 38.3602 94.1411 38.5267C94.1357 38.5642 94.1331 38.6099 94.1331 38.6609C94.1331 38.8112 94.1438 39.034 94.1653 39.3347C94.1868 39.6354 94.1975 39.8609 94.1975 40.0086C94.2136 40.0139 94.2351 40.0166 94.2619 40.0166C94.321 40.0166 94.4069 40.0032 94.5223 39.9737C94.6351 39.9468 94.7237 39.9334 94.7827 39.9334C95.3653 39.8341 95.9586 39.5119 96.5626 38.9616C96.7881 38.7575 96.9036 38.6179 96.9036 38.5481C96.9036 38.3683 96.5653 38.2797 95.8888 38.2797L95.8861 38.277ZM99.4379 43.1657C98.0794 44.0462 96.2566 44.6154 93.9747 44.8758C93.4243 44.8758 93.1478 44.5751 93.1478 43.9684C93.3277 43.9174 93.4861 43.8905 93.623 43.8905C93.7089 43.8905 93.8351 43.9039 94.0042 43.9281C94.1733 43.9549 94.2995 43.9657 94.3854 43.9657C94.6915 43.9657 95.1129 43.8851 95.6418 43.716C95.7787 43.6704 96.0552 43.5818 96.4687 43.4529C96.6539 43.4019 97.011 43.2999 97.5398 43.1442C97.8835 43.0422 98.2217 42.8972 98.56 42.7066C98.7425 42.6046 98.8338 42.5214 98.8338 42.4569C98.8338 42.1697 98.4741 41.9066 97.7546 41.6596C97.2096 41.477 96.5922 41.3374 95.9022 41.2435C95.4942 41.1871 94.8633 41.1227 94.0069 41.0502C93.9961 41.1871 93.9935 41.3428 93.9935 41.5173C93.9935 42.4006 94.0149 42.9026 94.0552 43.0261V43.0717C94.0552 43.367 93.8539 43.5147 93.4512 43.5147C93.3921 43.5147 93.2981 43.5066 93.1747 43.4905C93.0619 42.8891 93.0082 42.1724 93.0082 41.3428C93.0082 40.9562 93.0216 40.3844 93.0512 39.6193C93.078 38.8569 93.0914 38.2823 93.0914 37.8984C93.7465 37.5682 94.5787 37.4045 95.5881 37.4045C96.2646 37.4045 96.8418 37.477 97.3278 37.6219C97.7412 37.7454 97.9506 38.0461 97.9506 38.5186C97.9506 38.6743 97.9157 38.8112 97.8432 38.9293C97.6392 39.2622 97.4002 39.5334 97.1318 39.7428C96.9868 39.8529 96.6861 40.0408 96.2297 40.3065C96.5385 40.3576 97.0754 40.4596 97.8459 40.6126C98.3452 40.7119 98.8419 40.9535 99.3385 41.3428C99.6634 41.5952 99.8244 41.9468 99.8244 42.4005C99.8244 42.7415 99.6983 42.9939 99.4459 43.1576L99.4379 43.1657Z" fill="var(--fill-0, #231F20)"/>
<path id="Vector_12" d="M95.8861 38.277C95.223 38.277 94.6405 38.3602 94.1411 38.5267C94.1357 38.5642 94.1331 38.6099 94.1331 38.6609C94.1331 38.8112 94.1438 39.034 94.1653 39.3347C94.1868 39.6354 94.1975 39.8609 94.1975 40.0086C94.2136 40.0139 94.2351 40.0166 94.2619 40.0166C94.321 40.0166 94.4069 40.0032 94.5223 39.9737C94.6351 39.9468 94.7237 39.9334 94.7827 39.9334C95.3653 39.8341 95.9586 39.5119 96.5626 38.9616C96.7881 38.7575 96.9036 38.6179 96.9036 38.5481C96.9036 38.3683 96.5653 38.2797 95.8888 38.2797L95.8861 38.277ZM99.4379 43.1657C98.0794 44.0462 96.2566 44.6154 93.9747 44.8758C93.4243 44.8758 93.1478 44.5751 93.1478 43.9684C93.3277 43.9174 93.4861 43.8905 93.623 43.8905C93.7089 43.8905 93.8351 43.9039 94.0042 43.9281C94.1733 43.9549 94.2995 43.9657 94.3854 43.9657C94.6915 43.9657 95.1129 43.8851 95.6418 43.716C95.7787 43.6704 96.0552 43.5818 96.4687 43.4529C96.6539 43.4019 97.011 43.2999 97.5398 43.1442C97.8835 43.0422 98.2217 42.8972 98.56 42.7066C98.7425 42.6046 98.8338 42.5214 98.8338 42.4569C98.8338 42.1697 98.4741 41.9066 97.7546 41.6596C97.2096 41.477 96.5922 41.3374 95.9022 41.2435C95.4942 41.1871 94.8633 41.1227 94.0069 41.0502C93.9961 41.1871 93.9935 41.3428 93.9935 41.5173C93.9935 42.4006 94.0149 42.9026 94.0552 43.0261V43.0717C94.0552 43.367 93.8539 43.5147 93.4512 43.5147C93.3921 43.5147 93.2981 43.5066 93.1747 43.4905C93.0619 42.8891 93.0082 42.1724 93.0082 41.3428C93.0082 40.9562 93.0216 40.3844 93.0512 39.6193C93.078 38.8569 93.0914 38.2823 93.0914 37.8984C93.7465 37.5682 94.5787 37.4045 95.5881 37.4045C96.2646 37.4045 96.8418 37.477 97.3278 37.6219C97.7412 37.7454 97.9506 38.0461 97.9506 38.5186C97.9506 38.6743 97.9157 38.8112 97.8432 38.9293C97.6392 39.2622 97.4002 39.5334 97.1318 39.7428C96.9868 39.8529 96.6861 40.0408 96.2297 40.3065C96.5385 40.3576 97.0754 40.4596 97.8459 40.6126C98.3452 40.7119 98.8419 40.9535 99.3385 41.3428C99.6634 41.5952 99.8244 41.9468 99.8244 42.4005C99.8244 42.7415 99.6983 42.9939 99.4459 43.1576L99.4379 43.1657Z" stroke="var(--stroke-0, #231F20)" stroke-width="1.02821"/>
<path id="Vector_13" d="M111.21 43.348C110.891 43.9896 110.182 44.3735 109.092 44.5024C108.727 44.5453 108.279 44.5668 107.744 44.5668H105.978C105.667 44.3252 105.508 44.0326 105.508 43.6889C105.508 43.6513 105.516 43.5842 105.535 43.4903C105.557 43.4688 105.589 43.4581 105.637 43.4581L106.08 43.552C106.147 43.5654 106.504 43.5923 107.151 43.6245H107.93C109.291 43.6245 110.01 43.305 110.088 42.6634C110.12 42.3815 109.39 41.9815 107.895 41.458C107.712 41.3936 107.175 41.2137 106.289 40.9184C106.134 40.8674 105.989 40.7654 105.846 40.6124C105.661 40.411 105.57 40.1882 105.57 39.9439C105.57 39.8848 105.581 39.807 105.602 39.713C105.795 39.1707 106.681 38.6526 108.263 38.1613C108.896 37.9653 109.468 37.8365 109.975 37.7774L110.077 38.47C109.93 38.6016 109.594 38.7439 109.071 38.8915C108.464 39.0633 108.064 39.1976 107.873 39.2969C107.484 39.4929 107.288 39.7452 107.288 40.054C107.288 40.2822 107.726 40.4889 108.598 40.6768C109.154 40.7976 109.516 40.8916 109.688 40.9587C110.072 41.0741 110.429 41.3023 110.759 41.6406C111.141 42.0298 111.328 42.4298 111.328 42.8352C111.328 43.0231 111.291 43.195 111.213 43.348H111.21Z" fill="var(--fill-0, #231F20)"/>
<path id="Vector_14" d="M111.21 43.348C110.891 43.9896 110.182 44.3735 109.092 44.5024C108.727 44.5453 108.279 44.5668 107.744 44.5668H105.978C105.667 44.3252 105.508 44.0326 105.508 43.6889C105.508 43.6513 105.516 43.5842 105.535 43.4903C105.557 43.4688 105.589 43.4581 105.637 43.4581L106.08 43.552C106.147 43.5654 106.504 43.5923 107.151 43.6245H107.93C109.291 43.6245 110.01 43.305 110.088 42.6634C110.12 42.3815 109.39 41.9815 107.895 41.458C107.712 41.3936 107.175 41.2137 106.289 40.9184C106.134 40.8674 105.989 40.7654 105.846 40.6124C105.661 40.411 105.57 40.1882 105.57 39.9439C105.57 39.8848 105.581 39.807 105.602 39.713C105.795 39.1707 106.681 38.6526 108.263 38.1613C108.896 37.9653 109.468 37.8365 109.975 37.7774L110.077 38.47C109.93 38.6016 109.594 38.7439 109.071 38.8915C108.464 39.0633 108.064 39.1976 107.873 39.2969C107.484 39.4929 107.288 39.7452 107.288 40.054C107.288 40.2822 107.726 40.4889 108.598 40.6768C109.154 40.7976 109.516 40.8916 109.688 40.9587C110.072 41.0741 110.429 41.3023 110.759 41.6406C111.141 42.0298 111.328 42.4298 111.328 42.8352C111.328 43.0231 111.291 43.195 111.213 43.348H111.21Z" stroke="var(--stroke-0, #231F20)" stroke-width="1.02821"/>
<path id="Vector_15" d="M118.273 44.7363C117.983 44.8813 117.688 44.9538 117.39 44.9538C117.334 44.8034 117.307 44.5967 117.307 44.3336C117.307 44.2235 117.315 44.0544 117.334 43.8289C117.352 43.6034 117.36 43.4343 117.36 43.3242C117.36 43.1014 117.344 42.9349 117.315 42.8195C117.191 42.3336 116.915 41.9282 116.491 41.6033C116.064 41.2785 115.599 41.1174 115.095 41.1174C114.488 41.1174 114.04 41.2436 113.752 41.5013C113.712 41.5362 113.543 41.7779 113.245 42.2262L113.175 43.5577C113.097 43.5658 112.987 43.5712 112.84 43.5712C112.394 43.5712 112.131 43.5175 112.053 43.4101C112.131 42.7067 112.182 41.7752 112.209 40.61C112.238 39.206 112.27 38.2717 112.305 37.8019C112.378 36.7952 112.515 35.8959 112.713 35.0985C112.713 35.1146 112.713 34.9401 112.96 35.026C113.21 35.1119 113.46 35.418 113.46 35.4851C113.46 35.8153 113.446 36.2502 113.417 36.7898L113.328 38.4006C113.301 39.0127 113.288 39.4449 113.288 39.6919C113.288 40.0141 113.301 40.2906 113.328 40.5188C113.377 40.551 113.428 40.5644 113.481 40.5644C113.524 40.5644 113.707 40.4731 114.026 40.2906C114.346 40.108 114.558 40.0141 114.66 40.0114C114.681 40.0114 114.722 40.0114 114.781 40.006C114.829 40.0033 114.866 39.9979 114.896 39.9979C115.489 39.9979 116.109 40.2369 116.759 40.7094C117.285 41.0933 117.766 41.5738 118.201 42.1537C118.413 42.4409 118.52 42.8597 118.52 43.4155C118.52 43.9282 118.437 44.3685 118.276 44.7417L118.273 44.7363Z" fill="var(--fill-0, #231F20)"/>
<path id="Vector_16" d="M118.273 44.7363C117.983 44.8813 117.688 44.9538 117.39 44.9538C117.334 44.8034 117.307 44.5967 117.307 44.3336C117.307 44.2235 117.315 44.0544 117.334 43.8289C117.352 43.6034 117.36 43.4343 117.36 43.3242C117.36 43.1014 117.344 42.9349 117.315 42.8195C117.191 42.3336 116.915 41.9282 116.491 41.6033C116.064 41.2785 115.599 41.1174 115.095 41.1174C114.488 41.1174 114.04 41.2436 113.752 41.5013C113.712 41.5362 113.543 41.7779 113.245 42.2262L113.175 43.5577C113.097 43.5658 112.987 43.5712 112.84 43.5712C112.394 43.5712 112.131 43.5175 112.053 43.4101C112.131 42.7067 112.182 41.7752 112.209 40.61C112.238 39.206 112.27 38.2717 112.305 37.8019C112.378 36.7952 112.515 35.8959 112.713 35.0985C112.713 35.1146 112.713 34.9401 112.96 35.026C113.21 35.1119 113.46 35.418 113.46 35.4851C113.46 35.8153 113.446 36.2502 113.417 36.7898L113.328 38.4006C113.301 39.0127 113.288 39.4449 113.288 39.6919C113.288 40.0141 113.301 40.2906 113.328 40.5188C113.377 40.551 113.428 40.5644 113.481 40.5644C113.524 40.5644 113.707 40.4731 114.026 40.2906C114.346 40.108 114.558 40.0141 114.66 40.0114C114.681 40.0114 114.722 40.0114 114.781 40.006C114.829 40.0033 114.866 39.9979 114.896 39.9979C115.489 39.9979 116.109 40.2369 116.759 40.7094C117.285 41.0933 117.766 41.5738 118.201 42.1537C118.413 42.4409 118.52 42.8597 118.52 43.4155C118.52 43.9282 118.437 44.3685 118.276 44.7417L118.273 44.7363Z" stroke="var(--stroke-0, #231F20)" stroke-width="1.02821"/>
<path id="Vector_17" d="M123.385 41.3884C122.944 41.2568 122.555 41.1897 122.222 41.1897C121.435 41.1897 120.797 41.5172 120.311 42.175C120.155 42.3844 120.08 42.5965 120.08 42.8139C120.08 43.1737 120.252 43.4018 120.593 43.4985C120.764 43.5468 120.928 43.5656 121.086 43.5576C121.395 43.5414 122.05 43.4394 123.057 43.2515C123.385 43.1522 123.645 43.0099 123.836 42.822L123.758 42.0407C123.696 41.732 123.572 41.5146 123.385 41.3884ZM120.912 44.6046H120.662C120.05 44.6046 119.618 44.3334 119.363 43.7938C119.256 43.5629 119.159 43.1978 119.068 42.7012C119.054 42.6287 119.049 42.5562 119.049 42.4837C119.049 41.9817 119.468 41.4099 120.308 40.7656C120.727 40.4461 121.253 40.285 121.886 40.285C122.096 40.285 122.391 40.3065 122.772 40.3494C123.178 40.3978 123.476 40.4219 123.658 40.4273C123.65 39.7186 123.355 39.2085 122.772 38.9024C122.619 38.8219 122.45 38.7816 122.265 38.7816C122.007 38.7816 121.712 38.889 121.374 39.1011L120.423 39.7024C120.3 39.7024 120.187 39.6326 120.088 39.4904C119.994 39.3615 119.946 39.2353 119.946 39.1065C119.946 39.0206 119.972 38.94 120.029 38.8648C120.912 38.1266 121.704 37.7588 122.391 37.7588C123.277 37.7588 123.897 38.1534 124.254 38.94C124.437 39.3508 124.587 40.0327 124.705 40.9884C124.826 41.9817 124.958 42.6851 125.103 43.1065C124.23 43.8287 122.831 44.3307 120.909 44.6099L120.912 44.6046Z" fill="var(--fill-0, #231F20)"/>
<path id="Vector_18" d="M123.385 41.3884C122.944 41.2568 122.555 41.1897 122.222 41.1897C121.435 41.1897 120.797 41.5172 120.311 42.175C120.155 42.3844 120.08 42.5965 120.08 42.8139C120.08 43.1737 120.252 43.4018 120.593 43.4985C120.764 43.5468 120.928 43.5656 121.086 43.5576C121.395 43.5414 122.05 43.4394 123.057 43.2515C123.385 43.1522 123.645 43.0099 123.836 42.822L123.758 42.0407C123.696 41.732 123.572 41.5146 123.385 41.3884ZM120.912 44.6046H120.662C120.05 44.6046 119.618 44.3334 119.363 43.7938C119.256 43.5629 119.159 43.1978 119.068 42.7012C119.054 42.6287 119.049 42.5562 119.049 42.4837C119.049 41.9817 119.468 41.4099 120.308 40.7656C120.727 40.4461 121.253 40.285 121.886 40.285C122.096 40.285 122.391 40.3065 122.772 40.3494C123.178 40.3978 123.476 40.4219 123.658 40.4273C123.65 39.7186 123.355 39.2085 122.772 38.9024C122.619 38.8219 122.45 38.7816 122.265 38.7816C122.007 38.7816 121.712 38.889 121.374 39.1011L120.423 39.7024C120.3 39.7024 120.187 39.6326 120.088 39.4904C119.994 39.3615 119.946 39.2353 119.946 39.1065C119.946 39.0206 119.972 38.94 120.029 38.8648C120.912 38.1266 121.704 37.7588 122.391 37.7588C123.277 37.7588 123.897 38.1534 124.254 38.94C124.437 39.3508 124.587 40.0327 124.705 40.9884C124.826 41.9817 124.958 42.6851 125.103 43.1065C124.23 43.8287 122.831 44.3307 120.909 44.6099L120.912 44.6046Z" stroke="var(--stroke-0, #231F20)" stroke-width="1.02821"/>
<path id="Vector_19" d="M131.898 43.3856C132.016 43.458 132.078 43.5788 132.078 43.7533C132.078 43.8768 132.04 44.0057 131.968 44.1399C131.887 44.301 131.791 44.3842 131.678 44.3923C130.964 44.5614 130.349 44.6446 129.836 44.6446C129.581 44.6446 129.374 44.6285 129.213 44.5936C127.616 44.2554 126.612 43.4903 126.196 42.2929C126.083 41.9734 126.029 41.6406 126.029 41.2996C126.029 40.5828 126.236 39.9117 126.65 39.2888C127.063 38.666 127.603 38.215 128.263 37.9358C128.574 37.8042 128.886 37.7371 129.195 37.7371C129.992 37.7371 130.66 38.172 131.197 39.0365C131.442 39.4311 131.592 40.0674 131.648 40.9452C131.654 41.0231 131.662 41.1734 131.675 41.3963C131.541 41.5385 131.377 41.6083 131.181 41.6083C130.985 41.6083 130.846 41.5385 130.776 41.4016C130.644 40.8781 130.513 40.3519 130.384 39.8231C130.183 39.2566 129.85 38.9371 129.383 38.87C129.321 38.862 129.281 38.8566 129.259 38.8566H129.149C128.515 38.8566 127.962 39.2378 127.493 39.9976C127.24 40.4083 127.114 40.8217 127.114 41.2379C127.114 41.654 127.24 42.0808 127.493 42.5131C127.847 43.1251 128.462 43.4741 129.332 43.5627C129.579 43.5896 129.981 43.603 130.54 43.603C130.762 43.603 131.055 43.5681 131.415 43.4983C131.536 43.4741 131.697 43.4366 131.903 43.3856H131.898Z" fill="var(--fill-0, #231F20)"/>
<path id="Vector_20" d="M131.898 43.3856C132.016 43.458 132.078 43.5788 132.078 43.7533C132.078 43.8768 132.04 44.0057 131.968 44.1399C131.887 44.301 131.791 44.3842 131.678 44.3923C130.964 44.5614 130.349 44.6446 129.836 44.6446C129.581 44.6446 129.374 44.6285 129.213 44.5936C127.616 44.2554 126.612 43.4903 126.196 42.2929C126.083 41.9734 126.029 41.6406 126.029 41.2996C126.029 40.5828 126.236 39.9117 126.65 39.2888C127.063 38.666 127.603 38.215 128.263 37.9358C128.574 37.8042 128.886 37.7371 129.195 37.7371C129.992 37.7371 130.66 38.172 131.197 39.0365C131.442 39.4311 131.592 40.0674 131.648 40.9452C131.654 41.0231 131.662 41.1734 131.675 41.3963C131.541 41.5385 131.377 41.6083 131.181 41.6083C130.985 41.6083 130.846 41.5385 130.776 41.4016C130.644 40.8781 130.513 40.3519 130.384 39.8231C130.183 39.2566 129.85 38.9371 129.383 38.87C129.321 38.862 129.281 38.8566 129.259 38.8566H129.149C128.515 38.8566 127.962 39.2378 127.493 39.9976C127.24 40.4083 127.114 40.8217 127.114 41.2379C127.114 41.654 127.24 42.0808 127.493 42.5131C127.847 43.1251 128.462 43.4741 129.332 43.5627C129.579 43.5896 129.981 43.603 130.54 43.603C130.762 43.603 131.055 43.5681 131.415 43.4983C131.536 43.4741 131.697 43.4366 131.903 43.3856H131.898Z" stroke="var(--stroke-0, #231F20)" stroke-width="1.02821"/>
<path id="Vector_21" d="M133.588 44.5484C133.588 44.7417 133.392 44.8383 133.006 44.8383C132.732 44.8383 132.536 44.7497 132.413 44.5672C132.413 41.2409 132.539 38.6986 132.791 36.9402C132.912 36.9831 132.982 37.0046 133.003 37.0046C133.038 37.0046 133.137 36.9536 133.309 36.8489C133.478 36.7469 133.578 36.6959 133.607 36.6959C133.766 36.6959 133.846 36.8006 133.846 37.01C133.846 38.3066 133.784 39.5362 133.661 40.6959C134.474 40.4651 135.68 39.9791 137.277 39.2382C137.478 39.5603 137.578 39.8073 137.578 39.9845C137.288 40.2718 136.92 40.4973 136.474 40.6637C136.158 40.7845 135.79 40.9241 135.374 41.0798C134.958 41.2382 134.619 41.4181 134.362 41.6194C134.649 41.7752 135.102 41.9926 135.723 42.2745L137.325 43.0128C137.908 43.2785 138.413 43.5685 138.837 43.8799C139.001 43.9309 139.081 44.0329 139.081 44.1833C139.081 44.3765 138.907 44.5564 138.555 44.7229C138.335 44.6343 137.556 44.2638 136.217 43.6168C135.274 43.1631 134.453 42.8651 133.76 42.7255C133.757 43.2651 133.752 43.5765 133.749 43.6544C133.728 44.0463 133.677 44.3443 133.594 44.551L133.588 44.5484Z" fill="var(--fill-0, #231F20)"/>
<path id="Vector_22" d="M133.588 44.5484C133.588 44.7417 133.392 44.8383 133.006 44.8383C132.732 44.8383 132.536 44.7497 132.413 44.5672C132.413 41.2409 132.539 38.6986 132.791 36.9402C132.912 36.9831 132.982 37.0046 133.003 37.0046C133.038 37.0046 133.137 36.9536 133.309 36.8489C133.478 36.7469 133.578 36.6959 133.607 36.6959C133.766 36.6959 133.846 36.8006 133.846 37.01C133.846 38.3066 133.784 39.5362 133.661 40.6959C134.474 40.4651 135.68 39.9791 137.277 39.2382C137.478 39.5603 137.578 39.8073 137.578 39.9845C137.288 40.2718 136.92 40.4973 136.474 40.6637C136.158 40.7845 135.79 40.9241 135.374 41.0798C134.958 41.2382 134.619 41.4181 134.362 41.6194C134.649 41.7752 135.102 41.9926 135.723 42.2745L137.325 43.0128C137.908 43.2785 138.413 43.5685 138.837 43.8799C139.001 43.9309 139.081 44.0329 139.081 44.1833C139.081 44.3765 138.907 44.5564 138.555 44.7229C138.335 44.6343 137.556 44.2638 136.217 43.6168C135.274 43.1631 134.453 42.8651 133.76 42.7255C133.757 43.2651 133.752 43.5765 133.749 43.6544C133.728 44.0463 133.677 44.3443 133.594 44.551L133.588 44.5484Z" stroke="var(--stroke-0, #231F20)" stroke-width="1.02821"/>
<path id="Vector_23" d="M88.8684 39.1546C88.5999 38.905 88.2536 38.7546 87.8321 38.6982C87.2442 38.6204 86.7422 38.6633 86.3207 38.8244C85.9475 38.9667 85.518 39.2486 85.0348 39.6728C84.3824 40.2419 83.918 40.8057 83.6388 41.3614C83.5904 41.7265 83.5851 42.148 83.62 42.6258C83.6388 42.8728 83.6951 43.3856 83.7945 44.1668C83.8482 44.5695 83.8804 44.8755 83.8992 45.0849L83.0508 45.1494C83.0132 44.6796 82.9488 44.1346 82.8656 43.5118L82.5837 41.509C82.4199 40.3573 82.3421 39.407 82.3475 38.658L82.5005 38.6499L82.6025 38.6311C82.7797 38.5264 82.9085 38.47 82.9864 38.4647C83.0696 38.462 83.1421 38.4862 83.1985 38.5425L83.2951 39.858C84.2589 38.4083 85.475 37.6325 86.9462 37.5278C87.2039 37.5116 87.5771 37.5278 88.0684 37.5734C88.6348 37.6298 88.9758 37.7103 89.0912 37.8177C89.1342 38.0405 89.1556 38.258 89.1556 38.4674C89.1556 38.9023 89.0617 39.1278 88.8738 39.1519L88.8684 39.1546Z" fill="var(--fill-0, #FFC425)"/>
<path id="Vector_24" d="M91.2178 44.5081C91.1238 44.6504 90.9278 44.7202 90.6325 44.7202C90.4902 44.7202 90.3399 44.7041 90.1761 44.6692C90.0526 43.5255 89.9372 42.3255 89.8298 41.0718C89.7681 40.3308 89.7332 39.6839 89.7332 39.1308C89.7332 38.5134 89.7707 38.0328 89.8486 37.6919C90.015 37.5201 90.1681 37.4341 90.305 37.4341C90.4419 37.4341 90.5949 37.5174 90.7667 37.6838L90.9466 39.3429C91.156 41.2785 91.2607 42.7067 91.2607 43.6222C91.2607 43.9953 91.2446 44.2907 91.2151 44.5081H91.2178ZM90.3721 36.0972C89.9426 36.0972 89.6016 35.9764 89.3519 35.7348C89.3251 35.7079 89.3144 35.665 89.3144 35.6006C89.3144 35.418 89.3815 35.2703 89.5157 35.1522C89.6499 35.0341 89.811 34.9777 90.0016 34.9777C90.1197 34.9777 90.313 35.1388 90.5788 35.461C90.7265 35.6435 90.7909 35.7912 90.7694 35.9012C90.7453 36.0328 90.611 36.0972 90.3721 36.0972Z" fill="var(--fill-0, #FFC425)"/>
<path id="Vector_25" d="M95.8861 38.277C95.223 38.277 94.6405 38.3602 94.1411 38.5267C94.1357 38.5642 94.1331 38.6099 94.1331 38.6609C94.1331 38.8112 94.1438 39.034 94.1653 39.3347C94.1868 39.6354 94.1975 39.8609 94.1975 40.0086C94.2136 40.0139 94.2351 40.0166 94.2619 40.0166C94.321 40.0166 94.4069 40.0032 94.5223 39.9737C94.6351 39.9468 94.7237 39.9334 94.7827 39.9334C95.3653 39.8341 95.9586 39.5119 96.5626 38.9616C96.7881 38.7575 96.9036 38.6179 96.9036 38.5481C96.9036 38.3683 96.5653 38.2797 95.8888 38.2797L95.8861 38.277ZM99.4379 43.1657C98.0794 44.0462 96.2566 44.6154 93.9747 44.8758C93.4243 44.8758 93.1478 44.5751 93.1478 43.9684C93.3277 43.9174 93.4861 43.8905 93.623 43.8905C93.7089 43.8905 93.8351 43.9039 94.0042 43.9281C94.1733 43.9549 94.2995 43.9657 94.3854 43.9657C94.6915 43.9657 95.1129 43.8851 95.6418 43.716C95.7787 43.6704 96.0552 43.5818 96.4687 43.4529C96.6539 43.4019 97.011 43.2999 97.5398 43.1442C97.8835 43.0422 98.2217 42.8972 98.56 42.7066C98.7425 42.6046 98.8338 42.5214 98.8338 42.4569C98.8338 42.1697 98.4741 41.9066 97.7546 41.6596C97.2096 41.477 96.5922 41.3374 95.9022 41.2435C95.4942 41.1871 94.8633 41.1227 94.0069 41.0502C93.9961 41.1871 93.9935 41.3428 93.9935 41.5173C93.9935 42.4006 94.0149 42.9026 94.0552 43.0261V43.0717C94.0552 43.367 93.8539 43.5147 93.4512 43.5147C93.3921 43.5147 93.2981 43.5066 93.1747 43.4905C93.0619 42.8891 93.0082 42.1724 93.0082 41.3428C93.0082 40.9562 93.0216 40.3844 93.0512 39.6193C93.078 38.8569 93.0914 38.2823 93.0914 37.8984C93.7465 37.5682 94.5787 37.4045 95.5881 37.4045C96.2646 37.4045 96.8418 37.477 97.3278 37.6219C97.7412 37.7454 97.9506 38.0461 97.9506 38.5186C97.9506 38.6743 97.9157 38.8112 97.8432 38.9293C97.6392 39.2622 97.4002 39.5334 97.1318 39.7428C96.9868 39.8529 96.6861 40.0408 96.2297 40.3065C96.5385 40.3576 97.0754 40.4596 97.8459 40.6126C98.3452 40.7119 98.8419 40.9535 99.3385 41.3428C99.6634 41.5952 99.8244 41.9468 99.8244 42.4005C99.8244 42.7415 99.6983 42.9939 99.4459 43.1576L99.4379 43.1657Z" fill="var(--fill-0, #FFC425)"/>
<path id="Vector_26" d="M111.21 43.348C110.891 43.9896 110.182 44.3735 109.092 44.5024C108.727 44.5453 108.279 44.5668 107.744 44.5668H105.978C105.667 44.3252 105.508 44.0326 105.508 43.6889C105.508 43.6513 105.516 43.5842 105.535 43.4903C105.557 43.4688 105.589 43.4581 105.637 43.4581L106.08 43.552C106.147 43.5654 106.504 43.5923 107.151 43.6245H107.93C109.291 43.6245 110.01 43.305 110.088 42.6634C110.12 42.3815 109.39 41.9815 107.895 41.458C107.712 41.3936 107.175 41.2137 106.289 40.9184C106.134 40.8674 105.989 40.7654 105.846 40.6124C105.661 40.411 105.57 40.1882 105.57 39.9439C105.57 39.8848 105.581 39.807 105.602 39.713C105.795 39.1707 106.681 38.6526 108.263 38.1613C108.896 37.9653 109.468 37.8365 109.975 37.7774L110.077 38.47C109.93 38.6016 109.594 38.7439 109.071 38.8915C108.464 39.0633 108.064 39.1976 107.873 39.2969C107.484 39.4929 107.288 39.7452 107.288 40.054C107.288 40.2822 107.726 40.4889 108.598 40.6768C109.154 40.7976 109.516 40.8916 109.688 40.9587C110.072 41.0741 110.429 41.3023 110.759 41.6406C111.141 42.0298 111.328 42.4298 111.328 42.8352C111.328 43.0231 111.291 43.195 111.213 43.348H111.21Z" fill="var(--fill-0, #FFC425)"/>
<path id="Vector_27" d="M118.273 44.736C117.983 44.881 117.688 44.9535 117.39 44.9535C117.334 44.8032 117.307 44.5964 117.307 44.3333C117.307 44.2233 117.315 44.0541 117.334 43.8286C117.352 43.6031 117.36 43.434 117.36 43.3239C117.36 43.1011 117.344 42.9347 117.315 42.8192C117.191 42.3333 116.915 41.9279 116.491 41.6031C116.064 41.2782 115.599 41.1172 115.095 41.1172C114.488 41.1172 114.04 41.2434 113.752 41.5011C113.712 41.536 113.543 41.7776 113.245 42.2259L113.175 43.5575C113.097 43.5655 112.987 43.5709 112.84 43.5709C112.394 43.5709 112.131 43.5172 112.053 43.4098C112.131 42.7065 112.182 41.7749 112.209 40.6098C112.238 39.2057 112.27 38.2715 112.305 37.8017C112.378 36.7949 112.515 35.8956 112.713 35.0983C112.713 35.1144 112.837 35.1681 113.087 35.254C113.336 35.3399 113.46 35.4177 113.46 35.4849C113.46 35.8151 113.446 36.25 113.417 36.7896L113.328 38.4003C113.301 39.0124 113.288 39.4447 113.288 39.6916C113.288 40.0138 113.301 40.2903 113.328 40.5185C113.377 40.5507 113.428 40.5641 113.481 40.5641C113.524 40.5641 113.707 40.4729 114.026 40.2903C114.346 40.1078 114.558 40.0138 114.66 40.0111C114.681 40.0111 114.722 40.0111 114.781 40.0057C114.829 40.0031 114.866 39.9977 114.896 39.9977C115.489 39.9977 116.109 40.2366 116.759 40.7091C117.285 41.093 117.766 41.5736 118.201 42.1534C118.413 42.4407 118.52 42.8595 118.52 43.4152C118.52 43.928 118.437 44.3682 118.276 44.7414L118.273 44.736Z" fill="var(--fill-0, #FFC425)"/>
<path id="Vector_28" d="M123.385 41.3884C122.944 41.2568 122.555 41.1897 122.222 41.1897C121.435 41.1897 120.797 41.5172 120.311 42.175C120.155 42.3844 120.08 42.5965 120.08 42.8139C120.08 43.1737 120.252 43.4018 120.593 43.4985C120.764 43.5468 120.928 43.5656 121.086 43.5576C121.395 43.5414 122.05 43.4394 123.057 43.2515C123.385 43.1522 123.645 43.0099 123.836 42.822L123.758 42.0407C123.696 41.732 123.572 41.5146 123.385 41.3884ZM120.912 44.6046H120.662C120.05 44.6046 119.618 44.3334 119.363 43.7938C119.256 43.5629 119.159 43.1978 119.068 42.7012C119.054 42.6287 119.049 42.5562 119.049 42.4837C119.049 41.9817 119.468 41.4099 120.308 40.7656C120.727 40.4461 121.253 40.285 121.886 40.285C122.096 40.285 122.391 40.3065 122.772 40.3494C123.178 40.3978 123.476 40.4219 123.658 40.4273C123.65 39.7186 123.355 39.2085 122.772 38.9024C122.619 38.8219 122.45 38.7816 122.265 38.7816C122.007 38.7816 121.712 38.889 121.374 39.1011L120.423 39.7024C120.3 39.7024 120.187 39.6326 120.088 39.4904C119.994 39.3615 119.946 39.2353 119.946 39.1065C119.946 39.0206 119.972 38.94 120.029 38.8648C120.912 38.1266 121.704 37.7588 122.391 37.7588C123.277 37.7588 123.897 38.1534 124.254 38.94C124.437 39.3508 124.587 40.0327 124.705 40.9884C124.826 41.9817 124.958 42.6851 125.103 43.1065C124.23 43.8287 122.831 44.3307 120.909 44.6099L120.912 44.6046Z" fill="var(--fill-0, #FFC425)"/>
<path id="Vector_29" d="M131.898 43.3856C132.016 43.458 132.078 43.5788 132.078 43.7533C132.078 43.8768 132.04 44.0057 131.968 44.1399C131.887 44.301 131.791 44.3842 131.678 44.3923C130.964 44.5614 130.349 44.6446 129.836 44.6446C129.581 44.6446 129.374 44.6285 129.213 44.5936C127.616 44.2554 126.612 43.4903 126.196 42.2929C126.083 41.9734 126.029 41.6406 126.029 41.2996C126.029 40.5828 126.236 39.9117 126.65 39.2888C127.063 38.666 127.603 38.215 128.263 37.9358C128.574 37.8042 128.886 37.7371 129.195 37.7371C129.992 37.7371 130.66 38.172 131.197 39.0365C131.442 39.4311 131.592 40.0674 131.648 40.9452C131.654 41.0231 131.662 41.1734 131.675 41.3963C131.541 41.5385 131.377 41.6083 131.181 41.6083C130.985 41.6083 130.846 41.5385 130.776 41.4016C130.644 40.8781 130.513 40.3519 130.384 39.8231C130.183 39.2566 129.85 38.9371 129.383 38.87C129.321 38.862 129.281 38.8566 129.259 38.8566H129.149C128.515 38.8566 127.962 39.2378 127.493 39.9976C127.24 40.4083 127.114 40.8217 127.114 41.2379C127.114 41.654 127.24 42.0808 127.493 42.5131C127.847 43.1251 128.462 43.4741 129.332 43.5627C129.579 43.5896 129.981 43.603 130.54 43.603C130.762 43.603 131.055 43.5681 131.415 43.4983C131.536 43.4741 131.697 43.4366 131.903 43.3856H131.898Z" fill="var(--fill-0, #FFC425)"/>
<path id="Vector_30" d="M133.588 44.5484C133.588 44.7417 133.392 44.8383 133.006 44.8383C132.732 44.8383 132.536 44.7497 132.413 44.5672C132.413 41.2409 132.539 38.6986 132.791 36.9402C132.912 36.9831 132.982 37.0046 133.003 37.0046C133.038 37.0046 133.137 36.9536 133.309 36.8489C133.478 36.7469 133.578 36.6959 133.607 36.6959C133.766 36.6959 133.846 36.8006 133.846 37.01C133.846 38.3066 133.784 39.5362 133.661 40.6959C134.474 40.4651 135.68 39.9791 137.277 39.2382C137.478 39.5603 137.578 39.8073 137.578 39.9845C137.288 40.2718 136.92 40.4973 136.474 40.6637C136.158 40.7845 135.79 40.9241 135.374 41.0798C134.958 41.2382 134.619 41.4181 134.362 41.6194C134.649 41.7752 135.102 41.9926 135.723 42.2745L137.325 43.0128C137.908 43.2785 138.413 43.5685 138.837 43.8799C139.001 43.9309 139.081 44.0329 139.081 44.1833C139.081 44.3765 138.907 44.5564 138.555 44.7229C138.335 44.6343 137.556 44.2638 136.217 43.6168C135.274 43.1631 134.453 42.8651 133.76 42.7255C133.757 43.2651 133.752 43.5765 133.749 43.6544C133.728 44.0463 133.677 44.3443 133.594 44.551L133.588 44.5484Z" fill="var(--fill-0, #FFC425)"/>
<path id="Vector_31" d="M1.45506 33.6755C0.896662 33.6755 0.617462 33.509 0.617462 33.1788C0.617462 32.9506 0.738269 32.6714 0.982569 32.3412C6.26321 30.3331 8.90487 28.4458 8.90487 26.682C8.90487 25.8095 8.22298 24.8404 6.85919 23.7746C5.584 22.8323 4.30612 21.8793 3.03093 20.9182C1.66715 19.7477 0.985254 18.6228 0.985254 17.5382C0.985254 16.3167 1.80675 15.0066 3.44973 13.608C4.60412 12.6469 5.98669 11.7556 7.59478 10.9368C8.29278 10.569 8.89682 10.3891 9.40421 10.3891C9.8069 10.3891 10.1559 10.4857 10.4539 10.6764C10.8217 10.8858 11.0042 11.1757 11.0042 11.5408C11.0042 11.769 10.9425 11.9945 10.8217 12.2227C10.6472 12.5019 10.2364 12.765 9.58945 13.0093C8.59345 13.3771 7.64847 13.9247 6.75718 14.6576C5.65649 15.5489 5.10614 16.4134 5.10614 17.251C5.10614 18.0886 5.68065 19.0175 6.83503 20.0806C7.93572 21.0068 9.02568 21.9329 10.1103 22.8591C11.2808 24.0135 11.866 25.0954 11.866 26.1075C11.866 28.2015 9.33441 30.4888 4.27659 32.9721C3.31818 33.4419 2.37588 33.6781 1.44969 33.6781L1.45506 33.6755Z" fill="var(--fill-0, #231F20)"/>
<path id="Vector_32" d="M1.45506 33.6755C0.896662 33.6755 0.617462 33.509 0.617462 33.1788C0.617462 32.9506 0.738269 32.6714 0.982569 32.3412C6.26321 30.3331 8.90487 28.4458 8.90487 26.682C8.90487 25.8095 8.22298 24.8404 6.85919 23.7746C5.584 22.8323 4.30612 21.8793 3.03093 20.9182C1.66715 19.7477 0.985254 18.6228 0.985254 17.5382C0.985254 16.3167 1.80675 15.0066 3.44973 13.608C4.60412 12.6469 5.98669 11.7556 7.59478 10.9368C8.29278 10.569 8.89682 10.3891 9.40421 10.3891C9.8069 10.3891 10.1559 10.4857 10.4539 10.6764C10.8217 10.8858 11.0042 11.1757 11.0042 11.5408C11.0042 11.769 10.9425 11.9945 10.8217 12.2227C10.6472 12.5019 10.2364 12.765 9.58945 13.0093C8.59345 13.3771 7.64847 13.9247 6.75718 14.6576C5.65649 15.5489 5.10614 16.4134 5.10614 17.251C5.10614 18.0886 5.68065 19.0175 6.83503 20.0806C7.93572 21.0068 9.02568 21.9329 10.1103 22.8591C11.2808 24.0135 11.866 25.0954 11.866 26.1075C11.866 28.2015 9.33441 30.4888 4.27659 32.9721C3.31818 33.4419 2.37588 33.6781 1.44969 33.6781L1.45506 33.6755Z" stroke="var(--stroke-0, #231F20)" stroke-width="1.23492"/>
<path id="Vector_33" d="M30.0247 30.3146C29.7267 30.7871 29.3589 31.0207 28.9213 31.0207C27.834 31.0207 27.2917 30.226 27.2917 28.6394V24.7387C24.532 24.7736 21.3722 25.4635 17.8097 26.8112C17.8714 28.5777 17.9761 30.073 18.1238 31.2972C17.807 31.7697 17.4338 32.0059 16.9962 32.0059C15.8955 32.0059 15.3452 30.8515 15.3452 28.5481V26.3468C15.3452 22.5749 15.1546 19.0017 14.7707 15.6325C14.5962 14.0432 14.5103 13.3022 14.5103 13.4042C14.5103 12.8619 14.8432 12.5935 15.5116 12.5935C15.9573 12.5935 16.3707 12.7062 16.7573 12.9344C17.1412 13.1626 17.3345 13.4955 17.3345 13.9304V14.2445C17.3291 14.4029 17.3291 14.5157 17.3345 14.5855C17.3345 14.4459 17.3721 14.9184 17.4499 16.0003C17.5063 16.9238 17.5922 19.4366 17.7077 23.536C18.9292 23.3803 22.0943 22.7064 27.2058 21.5171C27.1011 19.2809 26.9427 17.211 26.7333 15.3049C26.7145 15.1814 26.6447 14.709 26.5239 13.8875C26.4192 13.2942 26.3655 12.8136 26.3655 12.4458C26.3655 11.9062 26.7038 11.6324 27.383 11.6324C27.8501 11.6324 28.2689 11.729 28.6314 11.9196C29.0663 12.1639 29.2837 12.5049 29.2837 12.9425V13.3371C29.2784 13.5116 29.2784 13.6432 29.2837 13.7291C29.2837 14.0781 29.2998 14.5398 29.3347 15.117C29.3992 15.8499 29.4341 16.3063 29.4341 16.4808C29.4663 17.3184 29.5253 19.6272 29.6086 23.3964C29.673 26.226 29.8126 28.532 30.0247 30.3146Z" fill="var(--fill-0, #231F20)"/>
<path id="Vector_34" d="M30.0247 30.3146C29.7267 30.7871 29.3589 31.0207 28.9213 31.0207C27.834 31.0207 27.2917 30.226 27.2917 28.6394V24.7387C24.532 24.7736 21.3722 25.4635 17.8097 26.8112C17.8714 28.5777 17.9761 30.073 18.1238 31.2972C17.807 31.7697 17.4338 32.0059 16.9962 32.0059C15.8955 32.0059 15.3452 30.8515 15.3452 28.5481V26.3468C15.3452 22.5749 15.1546 19.0017 14.7707 15.6325C14.5962 14.0432 14.5103 13.3022 14.5103 13.4042C14.5103 12.8619 14.8432 12.5935 15.5116 12.5935C15.9573 12.5935 16.3707 12.7062 16.7573 12.9344C17.1412 13.1626 17.3345 13.4955 17.3345 13.9304V14.2445C17.3291 14.4029 17.3291 14.5157 17.3345 14.5855C17.3345 14.4459 17.3721 14.9184 17.4499 16.0003C17.5063 16.9238 17.5922 19.4366 17.7077 23.536C18.9292 23.3803 22.0943 22.7064 27.2058 21.5171C27.1011 19.2809 26.9427 17.211 26.7333 15.3049C26.7145 15.1814 26.6447 14.709 26.5239 13.8875C26.4192 13.2942 26.3655 12.8136 26.3655 12.4458C26.3655 11.9062 26.7038 11.6324 27.383 11.6324C27.8501 11.6324 28.2689 11.729 28.6314 11.9196C29.0663 12.1639 29.2837 12.5049 29.2837 12.9425V13.3371C29.2784 13.5116 29.2784 13.6432 29.2837 13.7291C29.2837 14.0781 29.2998 14.5398 29.3347 15.117C29.3992 15.8499 29.4341 16.3063 29.4341 16.4808C29.4663 17.3184 29.5253 19.6272 29.6086 23.3964C29.673 26.226 29.8126 28.532 30.0247 30.3146Z" stroke="var(--stroke-0, #231F20)" stroke-width="1.23492"/>
<path id="Vector_35" d="M44.6984 20.8616C43.9816 17.3663 43.1279 15.6159 42.1319 15.6159C41.1359 15.6159 39.7587 17.8898 38.1023 22.4375C39.5868 22.1771 41.7855 21.6509 44.6984 20.8616ZM48.0219 29.0846C48.0219 29.5034 47.9441 29.8954 47.7857 30.2605C47.5763 30.733 47.2783 30.9665 46.8971 30.9665C46.4434 30.9665 46.1185 30.5665 45.9279 29.7638C45.9279 29.745 45.8581 29.1437 45.7185 27.9571C45.5789 26.6336 45.4044 25.2617 45.195 23.8496C42.8218 24.059 40.0137 24.8617 36.768 26.2577C36.4378 27.1839 36.1398 28.051 35.8794 28.8618C35.619 29.6752 35.3639 30.4618 35.1223 31.2296C34.6686 32.3652 34.1881 32.9344 33.6834 32.9344C33.4391 32.9344 33.2458 32.733 33.1062 32.3303C33.0176 32.0511 32.9746 31.7531 32.9746 31.439C32.9746 30.9692 33.3317 29.5625 34.0485 27.2215C34.5881 25.4577 35.0686 23.9838 35.4874 22.7946C36.6042 19.6509 37.4606 17.4414 38.0539 16.1663C39.5895 12.8669 40.9855 11.2158 42.2392 11.2158C43.9655 11.2158 45.45 14.2763 46.6877 20.3945L46.7655 20.3677C47.1655 20.4375 47.4796 20.7355 47.7078 21.259C47.8823 21.6778 47.9709 22.1234 47.9709 22.5932C47.9709 23.3798 47.7508 23.8147 47.3159 23.9006C47.7857 27.0416 48.0219 28.7678 48.0219 29.0819V29.0846Z" fill="var(--fill-0, #231F20)"/>
<path id="Vector_36" d="M44.6984 20.8616C43.9816 17.3663 43.1279 15.6159 42.1319 15.6159C41.1359 15.6159 39.7587 17.8898 38.1023 22.4375C39.5868 22.1771 41.7855 21.6509 44.6984 20.8616ZM48.0219 29.0846C48.0219 29.5034 47.9441 29.8954 47.7857 30.2605C47.5763 30.733 47.2783 30.9665 46.8971 30.9665C46.4434 30.9665 46.1185 30.5665 45.9279 29.7638C45.9279 29.745 45.8581 29.1437 45.7185 27.9571C45.5789 26.6336 45.4044 25.2617 45.195 23.8496C42.8218 24.059 40.0137 24.8617 36.768 26.2577C36.4378 27.1839 36.1398 28.051 35.8794 28.8618C35.619 29.6752 35.3639 30.4618 35.1223 31.2296C34.6686 32.3652 34.1881 32.9344 33.6834 32.9344C33.4391 32.9344 33.2458 32.733 33.1062 32.3303C33.0176 32.0511 32.9746 31.7531 32.9746 31.439C32.9746 30.9692 33.3317 29.5625 34.0485 27.2215C34.5881 25.4577 35.0686 23.9838 35.4874 22.7946C36.6042 19.6509 37.4606 17.4414 38.0539 16.1663C39.5895 12.8669 40.9855 11.2158 42.2392 11.2158C43.9655 11.2158 45.45 14.2763 46.6877 20.3945L46.7655 20.3677C47.1655 20.4375 47.4796 20.7355 47.7078 21.259C47.8823 21.6778 47.9709 22.1234 47.9709 22.5932C47.9709 23.3798 47.7508 23.8147 47.3159 23.9006C47.7857 27.0416 48.0219 28.7678 48.0219 29.0819V29.0846Z" stroke="var(--stroke-0, #231F20)" stroke-width="1.23492"/>
<path id="Vector_37" d="M66.6028 31.9169C66.0095 31.9169 65.0806 30.6793 63.8215 28.2094C62.6832 25.9141 61.5396 23.6133 60.3852 21.3153C59.0375 18.8428 57.953 17.6079 57.1315 17.6079C55.9583 17.6079 55.1019 19.5435 54.5596 23.4093C54.4361 24.2979 54.2348 26.7168 53.9556 30.6712C53.8697 31.9088 53.6603 32.682 53.3327 32.9961C53.1233 33.1706 52.9247 33.2565 52.7341 33.2565C52.3341 33.2565 51.9985 32.9263 51.7193 32.2632C51.5126 31.7397 51.4079 31.243 51.4079 30.7732C51.4079 30.5638 51.4428 30.1799 51.5126 29.6215C51.7408 27.6859 51.977 25.7503 52.2213 23.8174C52.6938 20.4536 53.2441 17.7931 53.875 15.8414C54.7475 13.1568 55.7543 11.8145 56.8925 11.8145C58.0308 11.8145 59.4027 13.2856 60.9597 16.2253C61.4671 17.1998 62.3584 19.2106 63.6363 22.2549C64.0551 23.2294 64.2994 23.7959 64.3692 23.9516C64.7182 24.7516 65.0081 25.2832 65.2363 25.5436C65.341 25.6832 65.4189 25.753 65.4726 25.753C65.7008 25.753 65.8135 25.2375 65.8135 24.2093C65.8135 22.4509 65.5451 19.3314 65.0108 14.8534C64.9195 14.2789 64.839 13.6964 64.7692 13.1031C64.6618 12.4239 64.6081 11.8494 64.6081 11.3796C64.6081 10.9446 64.7558 10.5607 65.0511 10.2305C65.3464 9.90033 65.7115 9.73389 66.1437 9.73389C67.0968 9.73389 67.6364 10.397 67.7572 11.7232C67.8135 12.2467 67.8995 14.4159 68.0122 18.2361C68.0874 20.5556 68.125 22.2281 68.125 23.2563C68.125 29.0282 67.6176 31.9142 66.6028 31.9142V31.9169Z" fill="var(--fill-0, #231F20)"/>
<path id="Vector_38" d="M66.6028 31.9169C66.0095 31.9169 65.0806 30.6793 63.8215 28.2094C62.6832 25.9141 61.5396 23.6133 60.3852 21.3153C59.0375 18.8428 57.953 17.6079 57.1315 17.6079C55.9583 17.6079 55.1019 19.5435 54.5596 23.4093C54.4361 24.2979 54.2348 26.7168 53.9556 30.6712C53.8697 31.9088 53.6603 32.682 53.3327 32.9961C53.1233 33.1706 52.9247 33.2565 52.7341 33.2565C52.3341 33.2565 51.9985 32.9263 51.7193 32.2632C51.5126 31.7397 51.4079 31.243 51.4079 30.7732C51.4079 30.5638 51.4428 30.1799 51.5126 29.6215C51.7408 27.6859 51.977 25.7503 52.2213 23.8174C52.6938 20.4536 53.2441 17.7931 53.875 15.8414C54.7475 13.1568 55.7543 11.8145 56.8925 11.8145C58.0308 11.8145 59.4027 13.2856 60.9597 16.2253C61.4671 17.1998 62.3584 19.2106 63.6363 22.2549C64.0551 23.2294 64.2994 23.7959 64.3692 23.9516C64.7182 24.7516 65.0081 25.2832 65.2363 25.5436C65.341 25.6832 65.4189 25.753 65.4726 25.753C65.7008 25.753 65.8135 25.2375 65.8135 24.2093C65.8135 22.4509 65.5451 19.3314 65.0108 14.8534C64.9195 14.2789 64.839 13.6964 64.7692 13.1031C64.6618 12.4239 64.6081 11.8494 64.6081 11.3796C64.6081 10.9446 64.7558 10.5607 65.0511 10.2305C65.3464 9.90033 65.7115 9.73389 66.1437 9.73389C67.0968 9.73389 67.6364 10.397 67.7572 11.7232C67.8135 12.2467 67.8995 14.4159 68.0122 18.2361C68.0874 20.5556 68.125 22.2281 68.125 23.2563C68.125 29.0282 67.6176 31.9142 66.6028 31.9142V31.9169Z" stroke="var(--stroke-0, #231F20)" stroke-width="1.23492"/>
<path id="Vector_39" d="M85.8243 30.4217C85.8243 30.9264 85.588 31.1788 85.1155 31.1788C84.8363 31.1788 84.3558 31.1412 83.6739 31.0607C82.992 30.9828 82.4685 30.9425 82.1007 30.9425C79.5342 30.9425 76.9113 31.4338 74.2402 32.4164C73.9073 32.854 73.5395 33.0741 73.1395 33.0741C72.0388 33.0741 71.4884 31.9063 71.4884 29.568C71.4884 29.2351 71.5045 28.819 71.5341 28.3116C71.5636 27.8069 71.5797 27.4928 71.5797 27.3693C71.5797 24.8592 71.5018 22.5665 71.3461 20.4887C71.3112 19.8605 71.1716 18.4752 70.93 16.3275C70.8092 15.2107 70.7475 14.6013 70.7475 14.4966C70.7475 13.9731 71.1314 13.7019 71.8992 13.6858C75.6335 12.1314 78.7906 11.3556 81.3732 11.3556C82.5249 11.3556 83.3276 11.4764 83.7813 11.7207C84.4605 12.0509 84.8014 12.7382 84.8014 13.7798C84.8014 14.6496 84.5571 15.0818 84.0685 15.0818C84.0148 15.0818 83.8591 15.055 83.5987 15.0013C82.8309 14.8241 82.0175 14.7355 81.1638 14.7355C78.7745 14.7355 76.3395 15.3476 73.8616 16.5691C73.9287 18.4188 73.9878 20.8377 74.0334 23.8229C75.4294 23.6297 77.1771 23.2914 79.2738 22.8028C82.5759 22.035 84.3209 21.6323 84.5142 21.5974C84.9142 21.6672 85.239 21.9652 85.4833 22.4887C85.6927 22.9075 85.7974 23.3531 85.7974 23.8229C85.7974 24.6954 85.5343 25.1304 85.0081 25.1304C84.8846 25.1304 84.7531 25.0955 84.6135 25.0257H84.0068C80.9732 24.972 77.6469 25.67 74.0334 27.1197V27.8794C74.0334 28.4566 74.0522 28.9264 74.0871 29.2942C76.4684 28.7573 78.812 28.4888 81.1235 28.4888C82.5061 28.4888 83.6336 28.564 84.5088 28.7116C85.384 28.8593 85.8216 29.4311 85.8216 30.4217H85.8243Z" fill="var(--fill-0, #231F20)"/>
<path id="Vector_40" d="M85.8243 30.4217C85.8243 30.9264 85.588 31.1788 85.1155 31.1788C84.8363 31.1788 84.3558 31.1412 83.6739 31.0607C82.992 30.9828 82.4685 30.9425 82.1007 30.9425C79.5342 30.9425 76.9113 31.4338 74.2402 32.4164C73.9073 32.854 73.5395 33.0741 73.1395 33.0741C72.0388 33.0741 71.4884 31.9063 71.4884 29.568C71.4884 29.2351 71.5045 28.819 71.5341 28.3116C71.5636 27.8069 71.5797 27.4928 71.5797 27.3693C71.5797 24.8592 71.5018 22.5665 71.3461 20.4887C71.3112 19.8605 71.1716 18.4752 70.93 16.3275C70.8092 15.2107 70.7475 14.6013 70.7475 14.4966C70.7475 13.9731 71.1314 13.7019 71.8992 13.6858C75.6335 12.1314 78.7906 11.3556 81.3732 11.3556C82.5249 11.3556 83.3276 11.4764 83.7813 11.7207C84.4605 12.0509 84.8014 12.7382 84.8014 13.7798C84.8014 14.6496 84.5571 15.0818 84.0685 15.0818C84.0148 15.0818 83.8591 15.055 83.5987 15.0013C82.8309 14.8241 82.0175 14.7355 81.1638 14.7355C78.7745 14.7355 76.3395 15.3476 73.8616 16.5691C73.9287 18.4188 73.9878 20.8377 74.0334 23.8229C75.4294 23.6297 77.1771 23.2914 79.2738 22.8028C82.5759 22.035 84.3209 21.6323 84.5142 21.5974C84.9142 21.6672 85.239 21.9652 85.4833 22.4887C85.6927 22.9075 85.7974 23.3531 85.7974 23.8229C85.7974 24.6954 85.5343 25.1304 85.0081 25.1304C84.8846 25.1304 84.7531 25.0955 84.6135 25.0257H84.0068C80.9732 24.972 77.6469 25.67 74.0334 27.1197V27.8794C74.0334 28.4566 74.0522 28.9264 74.0871 29.2942C76.4684 28.7573 78.812 28.4888 81.1235 28.4888C82.5061 28.4888 83.6336 28.564 84.5088 28.7116C85.384 28.8593 85.8216 29.4311 85.8216 30.4217H85.8243Z" stroke="var(--stroke-0, #231F20)" stroke-width="1.23492"/>
<path id="Vector_41" d="M90.7343 9.13269C91.5182 9.13269 91.9128 9.81458 91.9128 11.1757C91.9128 12.1019 91.6873 13.4281 91.2336 15.1543C90.7262 17.0389 90.2215 18.2604 89.7168 18.8188C89.2792 19.3074 88.8255 19.5517 88.3557 19.5517C87.7785 19.5517 87.4912 18.8725 87.4912 17.5114C87.4912 14.3355 88.2752 11.6401 89.8457 9.42263C90.1598 9.22934 90.4551 9.13269 90.7343 9.13269Z" fill="var(--fill-0, #231F20)"/>
<path id="Vector_42" d="M90.7343 9.13269C91.5182 9.13269 91.9128 9.81458 91.9128 11.1757C91.9128 12.1019 91.6873 13.4281 91.2336 15.1543C90.7262 17.0389 90.2215 18.2604 89.7168 18.8188C89.2792 19.3074 88.8255 19.5517 88.3557 19.5517C87.7785 19.5517 87.4912 18.8725 87.4912 17.5114C87.4912 14.3355 88.2752 11.6401 89.8457 9.42263C90.1598 9.22934 90.4551 9.13269 90.7343 9.13269Z" stroke="var(--stroke-0, #231F20)" stroke-width="1.23492"/>
<path id="Vector_43" d="M94.8364 33.6755C94.2753 33.6755 93.9988 33.509 93.9988 33.1788C93.9988 32.9506 94.1223 32.6714 94.3639 32.3412C99.6446 30.3331 102.286 28.4458 102.286 26.682C102.286 25.8095 101.607 24.8404 100.249 23.7746C98.9761 22.8323 97.7116 21.8793 96.4552 20.9182C95.0941 19.7477 94.4149 18.6228 94.4149 17.5382C94.4149 16.3167 95.2337 15.0066 96.8767 13.608C98.0096 12.6469 99.3815 11.7556 100.984 10.9368C101.682 10.569 102.292 10.3891 102.818 10.3891C103.202 10.3891 103.559 10.4884 103.892 10.6898C104.225 10.8911 104.388 11.1757 104.388 11.5408C104.388 11.769 104.327 11.9945 104.206 12.2227C104.047 12.5019 103.637 12.765 102.973 13.0093C101.977 13.3771 101.032 13.9247 100.141 14.6576C99.0405 15.5489 98.4902 16.4134 98.4902 17.251C98.4902 18.0886 99.0754 19.0175 100.246 20.0806C101.328 21.0068 102.412 21.9329 103.494 22.8591C104.665 24.0135 105.25 25.0954 105.25 26.1075C105.25 28.2015 102.721 30.4888 97.6606 32.9721C96.7022 33.4419 95.7599 33.6781 94.8337 33.6781L94.8364 33.6755Z" fill="var(--fill-0, #231F20)"/>
<path id="Vector_44" d="M94.8364 33.6755C94.2753 33.6755 93.9988 33.509 93.9988 33.1788C93.9988 32.9506 94.1223 32.6714 94.3639 32.3412C99.6446 30.3331 102.286 28.4458 102.286 26.682C102.286 25.8095 101.607 24.8404 100.249 23.7746C98.9761 22.8323 97.7116 21.8793 96.4552 20.9182C95.0941 19.7477 94.4149 18.6228 94.4149 17.5382C94.4149 16.3167 95.2337 15.0066 96.8767 13.608C98.0096 12.6469 99.3815 11.7556 100.984 10.9368C101.682 10.569 102.292 10.3891 102.818 10.3891C103.202 10.3891 103.559 10.4884 103.892 10.6898C104.225 10.8911 104.388 11.1757 104.388 11.5408C104.388 11.769 104.327 11.9945 104.206 12.2227C104.047 12.5019 103.637 12.765 102.973 13.0093C101.977 13.3771 101.032 13.9247 100.141 14.6576C99.0405 15.5489 98.4902 16.4134 98.4902 17.251C98.4902 18.0886 99.0754 19.0175 100.246 20.0806C101.328 21.0068 102.412 21.9329 103.494 22.8591C104.665 24.0135 105.25 25.0954 105.25 26.1075C105.25 28.2015 102.721 30.4888 97.6606 32.9721C96.7022 33.4419 95.7599 33.6781 94.8337 33.6781L94.8364 33.6755Z" stroke="var(--stroke-0, #231F20)" stroke-width="1.23492"/>
<path id="Vector_45" d="M1.45506 33.6755C0.896662 33.6755 0.617462 33.509 0.617462 33.1788C0.617462 32.9506 0.738269 32.6714 0.982569 32.3412C6.26321 30.3331 8.90487 28.4458 8.90487 26.682C8.90487 25.8095 8.22298 24.8404 6.85919 23.7746C5.584 22.8323 4.30612 21.8793 3.03093 20.9182C1.66715 19.7477 0.985254 18.6228 0.985254 17.5382C0.985254 16.3167 1.80675 15.0066 3.44973 13.608C4.60412 12.6469 5.98669 11.7556 7.59478 10.9368C8.29278 10.569 8.89682 10.3891 9.40421 10.3891C9.8069 10.3891 10.1559 10.4857 10.4539 10.6764C10.8217 10.8858 11.0042 11.1757 11.0042 11.5408C11.0042 11.769 10.9425 11.9945 10.8217 12.2227C10.6472 12.5019 10.2364 12.765 9.58945 13.0093C8.59345 13.3771 7.64847 13.9247 6.75718 14.6576C5.65649 15.5489 5.10614 16.4134 5.10614 17.251C5.10614 18.0886 5.68065 19.0175 6.83503 20.0806C7.93572 21.0068 9.02568 21.9329 10.1103 22.8591C11.2808 24.0135 11.866 25.0954 11.866 26.1075C11.866 28.2015 9.33441 30.4888 4.27659 32.9721C3.31818 33.4419 2.37588 33.6781 1.44969 33.6781L1.45506 33.6755Z" fill="var(--fill-0, #E31936)"/>
<path id="Vector_46" d="M30.0247 30.3146C29.7267 30.7871 29.3589 31.0207 28.9213 31.0207C27.834 31.0207 27.2917 30.226 27.2917 28.6394V24.7387C24.532 24.7736 21.3722 25.4635 17.8097 26.8112C17.8714 28.5777 17.9761 30.073 18.1238 31.2972C17.807 31.7697 17.4338 32.0059 16.9962 32.0059C15.8955 32.0059 15.3452 30.8515 15.3452 28.5481V26.3468C15.3452 22.5749 15.1546 19.0017 14.7707 15.6325C14.5962 14.0432 14.5103 13.3022 14.5103 13.4042C14.5103 12.8619 14.8432 12.5935 15.5116 12.5935C15.9573 12.5935 16.3707 12.7062 16.7573 12.9344C17.1412 13.1626 17.3345 13.4955 17.3345 13.9304V14.2445C17.3291 14.4029 17.3291 14.5157 17.3345 14.5855C17.3345 14.4459 17.3721 14.9184 17.4499 16.0003C17.5063 16.9238 17.5922 19.4366 17.7077 23.536C18.9292 23.3803 22.0943 22.7064 27.2058 21.5171C27.1011 19.2809 26.9427 17.211 26.7333 15.3049C26.7145 15.1814 26.6447 14.709 26.5239 13.8875C26.4192 13.2942 26.3655 12.8136 26.3655 12.4458C26.3655 11.9062 26.7038 11.6324 27.383 11.6324C27.8501 11.6324 28.2689 11.729 28.6314 11.9196C29.0663 12.1639 29.2837 12.5049 29.2837 12.9425V13.3371C29.2784 13.5116 29.2784 13.6432 29.2837 13.7291C29.2837 14.0781 29.2998 14.5398 29.3347 15.117C29.3992 15.8499 29.4341 16.3063 29.4341 16.4808C29.4663 17.3184 29.5253 19.6272 29.6086 23.3964C29.673 26.226 29.8126 28.532 30.0247 30.3146Z" fill="var(--fill-0, #E31936)"/>
<path id="Vector_47" d="M44.6984 20.8616C43.9816 17.3663 43.1279 15.6159 42.1319 15.6159C41.1359 15.6159 39.7587 17.8898 38.1023 22.4375C39.5868 22.1771 41.7855 21.6509 44.6984 20.8616ZM48.0219 29.0846C48.0219 29.5034 47.9441 29.8954 47.7857 30.2605C47.5763 30.733 47.2783 30.9665 46.8971 30.9665C46.4434 30.9665 46.1185 30.5665 45.9279 29.7638C45.9279 29.745 45.8581 29.1437 45.7185 27.9571C45.5789 26.6336 45.4044 25.2617 45.195 23.8496C42.8218 24.059 40.0137 24.8617 36.768 26.2577C36.4378 27.1839 36.1398 28.051 35.8794 28.8618C35.619 29.6752 35.3639 30.4618 35.1223 31.2296C34.6686 32.3652 34.1881 32.9344 33.6834 32.9344C33.4391 32.9344 33.2458 32.733 33.1062 32.3303C33.0176 32.0511 32.9746 31.7531 32.9746 31.439C32.9746 30.9692 33.3317 29.5625 34.0485 27.2215C34.5881 25.4577 35.0686 23.9838 35.4874 22.7946C36.6042 19.6509 37.4606 17.4414 38.0539 16.1663C39.5895 12.8669 40.9855 11.2158 42.2392 11.2158C43.9655 11.2158 45.45 14.2763 46.6877 20.3945L46.7655 20.3677C47.1655 20.4375 47.4796 20.7355 47.7078 21.259C47.8823 21.6778 47.9709 22.1234 47.9709 22.5932C47.9709 23.3798 47.7508 23.8147 47.3159 23.9006C47.7857 27.0416 48.0219 28.7678 48.0219 29.0819V29.0846Z" fill="var(--fill-0, #E31936)"/>
<path id="Vector_48" d="M66.6028 31.9169C66.0095 31.9169 65.0806 30.6793 63.8215 28.2094C62.6832 25.9141 61.5396 23.6133 60.3852 21.3153C59.0375 18.8428 57.953 17.6079 57.1315 17.6079C55.9583 17.6079 55.1019 19.5435 54.5596 23.4093C54.4361 24.2979 54.2348 26.7168 53.9556 30.6712C53.8697 31.9088 53.6603 32.682 53.3327 32.9961C53.1233 33.1706 52.9247 33.2565 52.7341 33.2565C52.3341 33.2565 51.9985 32.9263 51.7193 32.2632C51.5126 31.7397 51.4079 31.243 51.4079 30.7732C51.4079 30.5638 51.4428 30.1799 51.5126 29.6215C51.7408 27.6859 51.977 25.7503 52.2213 23.8174C52.6938 20.4536 53.2441 17.7931 53.875 15.8414C54.7475 13.1568 55.7543 11.8145 56.8925 11.8145C58.0308 11.8145 59.4027 13.2856 60.9597 16.2253C61.4671 17.1998 62.3584 19.2106 63.6363 22.2549C64.0551 23.2294 64.2994 23.7959 64.3692 23.9516C64.7182 24.7516 65.0081 25.2832 65.2363 25.5436C65.341 25.6832 65.4189 25.753 65.4726 25.753C65.7008 25.753 65.8135 25.2375 65.8135 24.2093C65.8135 22.4509 65.5451 19.3314 65.0108 14.8534C64.9195 14.2789 64.839 13.6964 64.7692 13.1031C64.6618 12.4239 64.6081 11.8494 64.6081 11.3796C64.6081 10.9446 64.7558 10.5607 65.0511 10.2305C65.3464 9.90033 65.7115 9.73389 66.1437 9.73389C67.0968 9.73389 67.6364 10.397 67.7572 11.7232C67.8135 12.2467 67.8995 14.4159 68.0122 18.2361C68.0874 20.5556 68.125 22.2281 68.125 23.2563C68.125 29.0282 67.6176 31.9142 66.6028 31.9142V31.9169Z" fill="var(--fill-0, #E31936)"/>
<path id="Vector_49" d="M85.8243 30.4217C85.8243 30.9264 85.588 31.1788 85.1155 31.1788C84.8363 31.1788 84.3558 31.1412 83.6739 31.0607C82.992 30.9828 82.4685 30.9425 82.1007 30.9425C79.5342 30.9425 76.9113 31.4338 74.2402 32.4164C73.9073 32.854 73.5395 33.0741 73.1395 33.0741C72.0388 33.0741 71.4884 31.9063 71.4884 29.568C71.4884 29.2351 71.5045 28.819 71.5341 28.3116C71.5636 27.8069 71.5797 27.4928 71.5797 27.3693C71.5797 24.8592 71.5018 22.5665 71.3461 20.4887C71.3112 19.8605 71.1716 18.4752 70.93 16.3275C70.8092 15.2107 70.7475 14.6013 70.7475 14.4966C70.7475 13.9731 71.1314 13.7019 71.8992 13.6858C75.6335 12.1314 78.7906 11.3556 81.3732 11.3556C82.5249 11.3556 83.3276 11.4764 83.7813 11.7207C84.4605 12.0509 84.8014 12.7382 84.8014 13.7798C84.8014 14.6496 84.5571 15.0818 84.0685 15.0818C84.0148 15.0818 83.8591 15.055 83.5987 15.0013C82.8309 14.8241 82.0175 14.7355 81.1638 14.7355C78.7745 14.7355 76.3395 15.3476 73.8616 16.5691C73.9287 18.4188 73.9878 20.8377 74.0334 23.8229C75.4294 23.6297 77.1771 23.2914 79.2738 22.8028C82.5759 22.035 84.3209 21.6323 84.5142 21.5974C84.9142 21.6672 85.239 21.9652 85.4833 22.4887C85.6927 22.9075 85.7974 23.3531 85.7974 23.8229C85.7974 24.6954 85.5343 25.1304 85.0081 25.1304C84.8846 25.1304 84.7531 25.0955 84.6135 25.0257H84.0068C80.9732 24.972 77.6469 25.67 74.0334 27.1197V27.8794C74.0334 28.4566 74.0522 28.9264 74.0871 29.2942C76.4684 28.7573 78.812 28.4888 81.1235 28.4888C82.5061 28.4888 83.6336 28.564 84.5088 28.7116C85.384 28.8593 85.8216 29.4311 85.8216 30.4217H85.8243Z" fill="var(--fill-0, #E31936)"/>
<path id="Vector_50" d="M90.7343 9.13269C91.5182 9.13269 91.9128 9.81458 91.9128 11.1757C91.9128 12.1019 91.6873 13.4281 91.2336 15.1543C90.7262 17.0389 90.2215 18.2604 89.7168 18.8188C89.2792 19.3074 88.8255 19.5517 88.3557 19.5517C87.7785 19.5517 87.4912 18.8725 87.4912 17.5114C87.4912 14.3355 88.2752 11.6401 89.8457 9.42263C90.1598 9.22934 90.4551 9.13269 90.7343 9.13269Z" fill="var(--fill-0, #E31936)"/>
<path id="Vector_51" d="M94.8364 33.6755C94.2753 33.6755 93.9988 33.509 93.9988 33.1788C93.9988 32.9506 94.1223 32.6714 94.3639 32.3412C99.6446 30.3331 102.286 28.4458 102.286 26.682C102.286 25.8095 101.607 24.8404 100.249 23.7746C98.9761 22.8323 97.7116 21.8793 96.4552 20.9182C95.0941 19.7477 94.4149 18.6228 94.4149 17.5382C94.4149 16.3167 95.2337 15.0066 96.8767 13.608C98.0096 12.6469 99.3815 11.7556 100.984 10.9368C101.682 10.569 102.292 10.3891 102.818 10.3891C103.202 10.3891 103.559 10.4884 103.892 10.6898C104.225 10.8911 104.388 11.1757 104.388 11.5408C104.388 11.769 104.327 11.9945 104.206 12.2227C104.047 12.5019 103.637 12.765 102.973 13.0093C101.977 13.3771 101.032 13.9247 100.141 14.6576C99.0405 15.5489 98.4902 16.4134 98.4902 17.251C98.4902 18.0886 99.0754 19.0175 100.246 20.0806C101.328 21.0068 102.412 21.9329 103.494 22.8591C104.665 24.0135 105.25 25.0954 105.25 26.1075C105.25 28.2015 102.721 30.4888 97.6606 32.9721C96.7022 33.4419 95.7599 33.6781 94.8337 33.6781L94.8364 33.6755Z" fill="var(--fill-0, #E31936)"/>
<path id="Vector_52" d="M131.055 16.4296L131.081 16.6148C131.283 16.9585 131.267 17.3853 131.366 17.7692C131.753 17.7988 132.179 17.6699 132.536 17.6565V17.6135C132.051 17.2001 131.624 16.6846 131.052 16.4296H131.055ZM130.469 16.2578C130.555 16.7007 130.77 17.184 130.783 17.6001C130.826 17.729 130.813 17.8578 130.899 17.984C130.928 17.941 130.928 17.8551 130.942 17.8149C130.77 17.3719 130.8 16.8001 130.657 16.3303C130.585 16.3303 130.528 16.2873 130.472 16.2578H130.469ZM125.76 12.7463C126.246 13.345 126.716 13.9866 127.216 14.5584C127.645 14.9719 127.999 15.3853 128.515 15.6994L128.799 15.4578C128.872 15.3719 129.001 15.2564 129.001 15.1437C128.416 14.5155 127.718 14.0591 127.06 13.5463C126.603 13.3745 126.187 13.106 125.803 12.749H125.76V12.7463ZM127.259 10.0778L127.216 10.1798C127.315 10.3489 127.232 10.5906 127.146 10.7624C127.001 10.8617 127.001 11.0201 126.944 11.1624C126.816 11.3342 126.901 11.5463 126.918 11.7476C126.904 11.8174 126.848 11.8899 126.775 11.9168L127.063 12.204C127.162 12.247 127.234 12.4054 127.347 12.3033V10.5771L127.304 10.4778C127.318 10.3355 127.318 10.1798 127.261 10.0778H127.259ZM128.144 5.94081C128.303 5.7851 128.515 5.89785 128.7 5.82805C128.915 5.79852 128.942 6.02672 129.014 6.15558C129.041 6.44283 129.057 6.7274 129.213 6.95559C129.213 7.17036 129.371 7.31265 129.414 7.50862C129.586 8.04018 129.814 8.55026 130.013 9.07912C130.083 9.16503 130.139 9.27779 130.099 9.39322C130.069 9.57846 129.712 9.46302 129.841 9.73417C129.825 9.77712 129.812 9.82008 129.769 9.84961C129.468 9.87914 129.567 9.43618 129.269 9.42007C128.955 9.29121 128.671 9.10597 128.357 8.97711C128.171 10.0617 127.884 11.1865 128.099 12.2711H128.155C128.212 12.4725 128.026 12.6416 128.069 12.8134C128.84 13.455 129.782 14.0832 130.539 14.7517C131.31 15.1947 131.822 15.737 132.523 16.2793C132.837 16.8216 133.409 17.1491 133.922 17.5061C134.249 17.7907 134.494 18.0753 134.778 18.4323C134.95 18.7035 134.735 18.9182 134.62 19.1464C134.577 19.1867 134.477 19.1867 134.434 19.1464C134.134 18.8887 133.806 18.631 133.436 18.5048C132.95 18.5182 132.579 18.4484 132.15 18.6202C131.723 18.8323 131.31 19.0605 130.837 19.1625C130.566 19.0605 130.767 18.8055 130.668 18.6202C130.338 17.7343 130.51 16.6658 129.812 15.9383C129.256 16.0967 129.028 16.7518 128.7 17.1786C128.416 17.3504 128.373 16.9209 128.201 16.7947C126.501 15.0255 125.076 13.0577 123.363 11.3154C123.119 11.0308 122.893 10.7597 122.692 10.459C122.321 10.5718 122.021 10.9879 121.72 11.2563C121.121 11.6429 120.566 12.1557 120.123 12.7275C119.752 12.9852 119.425 13.2698 119.138 13.6403C118.751 13.9114 118.44 14.298 118.125 14.6524C117.884 14.8967 117.682 15.2108 117.427 15.4229C116.7 16.3786 115.672 17.1222 115.06 18.1343C114.719 18.5773 114.332 18.9773 114.048 19.4766V19.5625C114.233 19.8498 114.348 20.1907 114.633 20.4485L114.649 20.6632C114.775 20.8485 115.162 21.0042 115.046 21.3049C115.148 21.4901 115.403 21.6914 115.261 21.9035C115.304 21.9894 115.205 22.0324 115.148 22.0458C114.947 22.0592 114.877 21.8176 114.705 21.7183C114.362 21.4901 114.061 21.0337 113.607 21.0337C113.121 21.4606 112.95 22.0619 112.635 22.5908C112.335 22.7465 112.192 22.2606 111.964 22.2069C111.693 22.121 111.508 21.8498 111.207 21.8203C110.665 21.8498 110.324 22.3921 109.894 22.6928C109.61 22.7921 109.666 23.2754 109.323 23.1036C109.237 22.9049 108.923 22.9183 108.995 22.6633C108.923 22.5344 109.108 22.2928 108.823 22.3062C108.681 22.2633 108.48 22.2767 108.396 22.1344C108.396 21.9626 108.512 21.7478 108.41 21.6055C108.668 20.5666 109.779 20.4512 110.493 19.8793C111.392 19.1921 112.12 18.4511 112.92 17.6243C112.92 17.5679 112.864 17.5249 112.821 17.5115L112.95 17.6108C114.176 16.4269 115.532 15.2698 116.689 13.9007C117.317 13.2456 118.217 12.9181 118.644 12.0752C119.143 11.3476 119.999 11.0067 120.399 10.2067C120.641 9.90598 120.928 9.63484 121.242 9.46571C121.326 9.46571 121.428 9.50866 121.441 9.59457C121.454 9.80934 121.269 9.95162 121.14 10.0939C120.727 10.5234 120.37 11.0228 119.913 11.3772C119.57 11.8201 119.371 12.3758 118.915 12.7329C117.889 13.404 117.446 14.4886 116.418 15.1437C115.988 15.5732 115.505 16.086 115.076 16.5155C115.019 16.8269 114.635 16.9585 114.49 17.2135C114.375 17.3289 114.176 17.3719 114.206 17.5706C114.12 17.7263 113.948 17.8149 113.822 17.9276C112.88 18.784 111.937 19.6404 111.183 20.6391C111.097 20.7518 110.955 20.7411 110.856 20.7948C110.713 20.9371 110.643 21.1357 110.429 21.1787C110.356 21.2485 110.187 21.2914 110.128 21.4364C110.141 21.4794 110.101 21.5223 110.115 21.5653C110.541 21.2807 110.955 20.9666 111.355 20.6793C111.755 20.7089 111.956 21.1357 112.254 21.38H112.337C112.638 21.082 112.866 20.7814 113.009 20.4243C113.111 20.3384 113.237 20.3545 113.336 20.2954C113.293 20.2525 113.18 20.3116 113.121 20.2391C113.006 20.0377 113.164 19.8256 113.178 19.6243C113.32 19.3102 113.634 19.1115 113.763 18.8243C114.635 17.839 115.505 16.9424 116.219 15.898C117.331 14.5718 118.772 13.4738 119.887 12.0752C120.727 11.3772 121.312 10.4617 122.099 9.66437C121.841 9.27778 121.613 8.85093 121.285 8.50999C121.256 8.4375 121.229 8.35428 121.256 8.28179C121.371 8.22542 121.355 8.08045 121.441 8.01065C121.385 7.95427 121.428 7.86568 121.468 7.82541C121.64 7.70997 121.798 7.86836 121.967 7.85225C122.523 8.02407 123.164 7.96769 123.594 8.45361C123.822 8.66838 123.938 9.00932 124.163 9.26436C124.362 9.53551 124.662 9.72075 124.877 10.0214C124.877 10.1369 125.02 10.2067 124.993 10.3489C125.221 10.5208 125.377 10.749 125.634 10.8778C125.82 11.0067 125.948 11.1892 126.12 11.3476L126.163 11.3208C125.948 10.2926 126.206 9.22409 126.362 8.23884C126.432 8.02675 126.603 7.83883 126.534 7.59722C126.59 7.51131 126.705 7.45493 126.791 7.52742C126.904 7.6697 127.049 7.85225 127.003 8.06702C127.089 8.22273 127.291 8.22273 127.39 8.35428C127.546 8.25495 127.661 8.01065 127.889 8.06702C127.876 7.92474 127.79 7.77977 127.661 7.6697L126.289 6.58512C126.134 6.62807 126.048 6.47236 126.005 6.35692C125.833 6.27102 125.562 6.35692 125.476 6.17169C125.42 6.08578 125.277 6.17169 125.232 6.05625C125.218 5.97302 125.146 5.88712 125.218 5.81463C125.774 5.50053 126.418 5.80121 127.017 5.72872C127.387 5.75825 127.787 5.80121 128.144 5.94081Z" fill="var(--fill-0, #231F20)"/>
<path id="Vector_53" d="M123.094 17.7691C123.167 18.1395 123.025 18.5959 123.108 18.9825C123.121 19.0389 123.151 19.2107 123.081 19.2241C122.995 20.3221 122.81 21.5785 123.121 22.6497C123.408 22.7356 123.677 22.937 123.978 22.9504L123.935 22.451C123.79 22.2631 123.806 22.051 123.749 21.8363C123.779 21.9356 123.736 22.051 123.765 22.1772C123.838 22.3651 123.693 22.5074 123.723 22.7195C123.693 22.8188 123.58 22.7598 123.508 22.7759C123.379 22.6927 123.408 22.5208 123.379 22.3786C123.051 20.7946 123.623 19.2537 123.607 17.7127C123.451 17.7261 123.266 17.7261 123.094 17.7691ZM123.964 16.8993C124.093 17.157 124.493 16.9852 124.649 17.2268C124.635 17.2993 124.563 17.3691 124.619 17.455C124.533 17.7395 124.249 17.4979 124.106 17.6536C124.034 18.2228 124.047 18.8214 124.093 19.353C124.136 20.4376 124.136 21.6054 124.421 22.6765C124.437 22.9611 124.45 23.2457 124.52 23.5195C124.52 23.6323 124.434 23.7209 124.335 23.7611C123.921 23.6027 123.465 23.4766 123.049 23.4041C122.906 23.2913 122.721 23.2752 122.536 23.2457C122.493 23.3316 122.592 23.4739 122.45 23.5195C122.163 23.5329 122.265 23.2054 122.179 23.0497C122.192 21.7799 122.149 20.5235 122.265 19.2537C122.235 18.7409 122.305 18.1825 122.364 17.6993C122.192 17.6134 121.994 17.5865 121.881 17.3986C121.881 17.2858 121.91 17.1704 122.023 17.1274C122.165 17.0845 122.394 17.1838 122.437 16.9717C122.622 16.9288 122.837 16.9852 123.022 17.0308C123.263 16.9878 123.607 17.1301 123.706 16.859C123.749 16.816 123.808 16.8026 123.865 16.7865C123.937 16.7999 123.924 16.8724 123.964 16.8993Z" fill="var(--fill-0, #231F20)"/>
<path id="Vector_54" d="M113.363 18.5694L113.334 18.5126V18.5396L113.363 18.5694Z" fill="var(--fill-0, #231F20)"/>
<path id="Vector_55" d="M120.866 28.0997H120.883V28.0563H120.866V28.0997Z" fill="var(--fill-0, white)"/>
<path id="Vector_56" d="M113.478 29.6969C113.435 29.7829 113.392 29.8956 113.508 29.9681C113.58 29.8822 113.494 29.7829 113.478 29.6969ZM120.668 19.0954C120.826 19.337 120.499 19.4954 120.568 19.7666C120.426 20.7089 120.482 21.8928 120.509 22.878C120.525 23.0928 120.48 23.4203 120.539 23.6485H120.552C120.48 23.8472 120.952 24.0029 120.638 24.2042C120.982 25.517 120.982 26.9291 121.465 28.1855C121.538 28.215 121.607 28.2848 121.637 28.3573C121.75 28.3573 121.921 28.2311 121.978 28.4003C121.994 28.4432 121.964 28.5023 122.021 28.5157C122.448 28.4862 122.764 28.2016 123.148 28.0862C123.948 27.7855 124.861 27.7721 125.645 27.4714C126.531 27.458 127.245 26.956 128.069 26.8566C127.871 25.8445 127.685 24.7331 127.742 23.6619C127.712 23.2055 127.798 22.7196 127.728 22.2901C127.728 22.1747 127.715 22.0324 127.798 21.9491C128.026 21.9491 127.97 21.5626 128.225 21.678C128.469 22.2928 128.44 22.9183 128.354 23.6029C128.41 24.3734 128.526 25.117 128.695 25.8284C128.794 25.7855 128.837 25.8848 128.837 25.9573C128.724 26.1586 128.751 26.4432 128.767 26.6848C128.966 26.7143 129.21 26.658 129.409 26.615C131.208 26.215 132.904 25.6727 134.859 25.8741C134.987 25.8875 134.902 26.0754 135.044 26.0459C135.914 26.1882 136.899 26.1184 137.739 26.1613C137.911 26.2043 138.096 26.2338 138.225 26.3465C138.281 26.5452 138.01 26.4888 137.911 26.5747C137.111 26.5452 136.099 26.5882 135.358 26.6606C135.2 26.6311 135.014 26.6472 134.872 26.6472C133.672 26.5613 132.59 26.76 131.476 26.9479C129.846 27.2459 128.136 27.6029 126.509 28.0459C126.338 28.1023 126.096 28.1613 125.924 28.2177H125.94V28.258H125.924V28.2311C125.709 28.3144 125.368 28.3439 125.111 28.4728C124.485 28.6875 123.844 28.8996 123.242 29.2298C123.113 29.1573 122.901 29.399 122.856 29.1573C122.743 29.1412 122.67 29.2298 122.571 29.2406C122.171 29.4419 121.801 29.7265 121.401 29.9842C121.073 30.156 120.759 30.3976 120.389 30.3976C120.346 30.4996 120.23 30.3842 120.16 30.4406C119.889 30.5238 119.591 30.3815 119.304 30.5131C118.933 30.6688 118.421 30.7278 118.12 30.999C117.921 30.9399 117.905 31.2272 117.707 31.2406C117.336 31.3695 117.035 31.5413 116.622 31.5708C115.736 31.842 114.968 32.1131 114.069 32.3977C113.854 32.5104 113.599 32.6098 113.441 32.8111C112.786 32.9829 112.327 33.3963 111.774 33.7964C111.615 33.697 111.575 33.9655 111.43 33.8796C111.4 33.8071 111.315 33.7239 111.387 33.6514C111.956 33.1789 112.6 32.8379 113.183 32.4245C113.725 32.1936 114.225 31.9118 114.74 31.6245C114.67 31.5386 114.555 31.4527 114.426 31.4258C114.396 31.4822 114.442 31.5815 114.34 31.5815C114.098 31.5091 113.841 31.4956 113.57 31.4258C113.454 31.3372 113.269 31.3802 113.156 31.3238C112.928 31.3104 112.686 31.3802 112.501 31.2379C112.515 31.1252 112.458 30.9963 112.557 30.9104C112.058 30.7117 111.545 31.0258 111.03 31.0393C110.719 31.0822 110.289 31.0956 109.959 31.0258C109.932 31.0849 109.889 31.0258 109.859 31.0258C109.602 31.0554 109.36 30.9265 109.132 30.8809C108.732 30.7547 108.348 30.5802 107.978 30.3976C107.72 30.3547 107.365 30.4272 107.178 30.2285C107.204 30.1292 107.164 30.0003 107.293 29.9412C107.806 29.756 108.335 29.9708 108.818 30.0406C109.76 30.0406 110.786 30.1265 111.655 30.2983C112.112 30.1694 112.584 30.3117 113.041 30.1694L113.07 30.1265C113.041 29.3426 113.17 28.5265 113.226 27.7587C113.199 27.517 113.213 27.1734 113.213 26.9479C113.255 26.6338 113.255 26.3331 113.269 26.0056C113.226 25.2781 113.312 24.4512 113.196 23.7103C113.239 23.6378 113.223 23.525 113.325 23.5089C113.511 23.4955 113.712 23.5948 113.894 23.5358C114.152 23.7371 113.937 24.0217 113.967 24.2928C113.937 25.7908 113.811 27.2727 114.023 28.6714C114.037 29.2137 114.066 29.7829 114.05 30.3547C114.48 30.7117 115.178 30.4835 115.478 31.0688C115.492 31.1547 115.449 31.195 115.508 31.2674C116.619 30.8406 117.733 30.3842 118.917 30.0996C118.931 29.8419 119.245 29.7721 119.374 29.6003C119.317 29.6137 119.215 29.6003 119.159 29.6862C119.215 29.7426 119.129 29.6137 119.1 29.6862C118.885 29.8553 118.544 30.0272 118.246 30.0406C118.16 30.0003 118.117 29.8714 118.174 29.7855C118.316 29.6996 118.445 29.6137 118.56 29.5278C118.26 29.501 117.962 29.8553 117.69 29.5412C117.776 29.1708 118.26 29.2862 118.461 29.0285C118.646 28.9157 118.874 28.8593 119.076 28.7869C119.36 28.7412 119.631 28.5855 119.903 28.5023C120.115 28.4298 120.359 28.4164 120.531 28.2875C120.418 26.9747 120.018 25.7479 119.959 24.4217C119.803 23.823 119.876 23.1948 119.731 22.5961C119.658 21.6968 119.645 20.8834 119.688 19.9142C119.529 19.9008 119.387 20.0431 119.231 20.086C118.762 20.1988 118.319 20.3706 117.846 20.427C117.674 20.5129 117.403 20.4699 117.261 20.6122C117.532 21.1975 117.446 21.8686 117.503 22.4941C117.674 23.1653 117.717 23.8928 117.731 24.6069C117.814 25.0069 117.83 25.4499 118.002 25.8177C118.131 26.5318 118.217 27.2029 118.359 27.9009C118.458 28.2311 118.488 28.556 118.445 28.8996C118.217 29.0849 117.959 29.2003 117.674 29.2432C117.489 29.16 117.618 28.9291 117.562 28.7734C117.433 28.5023 117.562 28.1748 117.562 27.9036C117.36 26.4486 117.218 24.964 117.132 23.466C117.046 22.8378 117.003 22.1961 116.617 21.6968C116.617 21.4981 116.603 21.2968 116.788 21.1975C116.689 20.9129 116.517 21.2404 116.388 21.2538C116.16 21.4256 115.86 21.5545 115.618 21.4122C115.476 21.2699 115.733 21.1277 115.575 21.0122C115.605 20.9129 115.634 20.7974 115.747 20.7545C115.817 20.7545 115.817 20.6847 115.862 20.6417C115.747 20.5719 115.79 20.4431 115.819 20.3411C116.005 20.1854 116.276 20.2283 116.49 20.1424C117.175 19.8283 117.929 19.6726 118.617 19.3988C119.086 19.3585 119.559 19.1974 120.042 19.1571C120.214 19.0981 120.313 18.9128 120.512 18.9424L120.654 19.1008L120.668 19.0954Z" fill="var(--fill-0, #231F20)"/>
<path id="Vector_57" d="M47.4987 4.53912L47.6087 4.61161C49.2383 4.57671 50.6826 4.57671 52.1269 5.16732C52.6075 5.01698 53.2384 5.24249 53.5713 4.79685C53.7565 4.94718 53.7565 4.68678 53.9417 4.68678C54.6478 4.46395 55.276 4.61161 55.7941 5.09484C56.3123 5.20491 57.0908 4.53912 57.3136 5.24249L57.4613 5.79821C57.166 5.83311 56.9431 6.1311 56.6478 6.20627C56.3525 6.27875 56.6102 6.61433 56.425 6.76198H55.7216L55.7941 6.64923C55.5364 6.57406 55.4237 6.09351 55.0532 6.24117C54.7928 6.42641 54.4223 6.53648 54.0894 6.38882C53.9793 6.12841 53.6062 6.24117 53.386 6.166C53.2008 6.20358 52.9028 6.27607 52.6451 6.23848C51.7941 6.2009 50.9779 6.166 50.1618 6.34855C49.5685 6.23848 49.2732 5.79284 48.6423 5.83042C48.1618 5.45995 47.6785 6.09083 47.1228 5.90559C46.7899 6.20358 46.3819 6.38882 45.9738 6.20358C45.6785 5.79552 45.308 5.27739 45.4557 4.72168C46.0839 4.27603 46.6772 4.79685 47.3456 4.68409L47.496 4.53644L47.4987 4.53912Z" fill="var(--fill-0, #BEC0C2)"/>
<path id="Vector_58" d="M110.769 6.09394C110.657 6.20669 110.471 6.1691 110.434 6.35434C110.544 6.7624 110.063 6.87247 110.176 7.24295C110.286 7.28054 110.324 7.13288 110.399 7.0953C110.622 7.05771 110.769 7.24295 110.954 7.31812C111.212 7.24295 111.658 7.24295 111.695 6.87247C111.397 6.57717 111.325 5.98387 110.769 6.09394ZM114.769 4.87244C115.25 5.20533 115.768 5.2805 116.289 5.50332C116.584 5.05767 116.92 4.6872 117.105 4.24424C116.254 4.3543 115.698 4.91002 114.772 4.87512L114.769 4.87244ZM76.9834 4.35162C76.8733 4.3892 76.7981 4.53686 76.6881 4.3892C75.9471 4.68451 75.131 4.7221 74.3176 4.90734C73.9471 4.79458 73.539 5.05499 73.1685 5.13016C72.2423 5.20533 71.3162 5.53822 70.39 5.72346C69.9067 5.6107 69.4262 5.9087 68.9456 5.87111C68.2799 6.24159 67.5013 6.01877 66.7953 6.31407C66.6476 6.38924 66.2771 6.204 66.202 6.46173C66.7953 6.60938 67.8691 6.49931 68.5 6.42414C69.1282 6.49663 69.7215 6.16642 70.3524 6.12615C70.6853 6.42414 71.0558 6.01608 71.3886 6.08857C72.092 5.75567 72.9833 5.71809 73.6115 5.3852C74.8706 5.0523 76.0948 5.12479 77.3539 4.75431L77.5015 4.60666C77.7995 4.7919 77.872 4.23618 78.0948 4.53417C78.3928 4.1986 78.9109 4.57176 79.1687 4.1986C78.4653 3.8657 77.7619 4.53417 76.9834 4.34625V4.35162ZM112.842 3.79859C112.732 3.68584 112.546 3.79859 112.509 3.61335C112.101 3.83617 111.806 4.20397 111.36 4.42947L111.768 4.50464C112.436 4.20665 113.14 4.68988 113.733 4.79995C113.808 4.6523 114.179 4.83485 114.028 4.57713C113.881 4.6523 113.695 4.46437 113.583 4.39189L112.842 3.79859ZM90.4682 3.72342C90.3581 3.79859 90.1353 3.72342 89.9877 3.64825C90.0252 3.5006 90.3581 3.61067 90.4682 3.72342ZM122.439 1.20257C122.327 1.3878 122.031 1.31264 121.846 1.3878C121.956 1.24015 122.254 0.979743 122.439 1.20257ZM123.215 0.574366C123.253 0.389127 123.4 0.276374 123.586 0.241474C123.808 0.279058 124.031 0.241474 124.179 0.464297C124.437 1.16767 123.253 1.57573 123.921 2.24151C124.141 2.68716 124.662 3.02005 124.957 3.27777C125.218 3.42543 125.438 3.61067 125.736 3.68584C126.144 3.35294 125.698 2.46434 126.402 2.53682C126.515 3.05495 126.439 3.61067 126.402 4.13148C126.549 4.27914 126.587 4.53954 126.515 4.75968C126.367 4.9825 126.106 4.94492 125.884 4.94492C125.698 4.64693 125.29 4.49927 124.957 4.35162C124.995 4.05631 124.662 4.20397 124.549 4.05631C124.364 3.83349 124.031 3.72342 123.884 3.46301C123.808 3.42543 123.733 3.39053 123.661 3.31536C123.623 3.46301 123.698 3.68315 123.808 3.83349C124.069 3.94356 123.884 4.01873 124.106 4.20397C123.886 4.83217 125.328 4.61203 124.552 5.20533C124.254 5.20533 123.959 5.05767 123.774 4.79727C123.403 4.64961 123.145 4.24155 122.96 3.94624C122.662 3.61335 122.885 3.1677 122.552 2.83481C122.477 2.61199 122.737 2.31668 122.477 2.13144C122.034 2.31668 121.588 2.31668 121.255 2.68716C120.995 2.50192 120.847 2.8724 120.59 2.94488C120.367 2.8724 120.294 3.24287 120.071 3.05495C120.037 3.20529 119.776 3.24019 119.886 3.42543C119.739 3.57308 119.516 3.75832 119.516 3.98114C119.07 3.98114 118.7 4.49927 118.404 4.83217C118.514 5.09257 118.144 5.16774 118.109 5.38788C117.886 5.90601 117.406 6.38924 117.22 6.97986C116.888 7.1651 116.887 7.94364 116.332 7.79598C116.257 7.7235 116.184 7.61074 116.034 7.64833C115.849 8.0188 115.701 7.4255 115.478 7.64833C115.108 7.46309 114.775 6.75972 114.257 7.01744L114.294 7.1651C114.071 7.27517 113.666 7.27517 113.443 7.1651C113.108 6.8322 112.997 6.34897 112.85 5.90601C112.294 5.6107 111.518 5.53554 110.96 5.75836C110.332 5.5758 109.516 5.38788 109.035 6.01877C108.922 5.83353 108.404 6.12884 108.589 5.72346C108.627 5.53822 108.847 5.39057 108.699 5.16774C108.144 5.3154 107.478 5.6107 106.809 5.50064C106.659 5.75836 106.329 5.5758 106.216 5.87111C105.588 5.5758 105.142 6.35166 104.477 6.31407C104.179 6.31407 103.808 6.57448 103.55 6.27649C103.105 6.2389 102.772 5.49795 102.254 5.79594C101.18 5.6107 100.068 5.87111 98.957 5.72077C98.3261 5.68319 97.6603 5.60802 97.0294 5.79594C96.5864 5.79594 96.1408 5.46305 95.7327 5.72077C94.7341 6.09125 93.585 5.75567 92.5112 5.75567C92.2884 6.08857 91.9904 5.72077 91.6951 5.68319C91.585 5.3852 91.287 5.46037 91.1018 5.3503L90.8789 5.42547C90.8414 5.3503 90.8414 5.24023 90.7313 5.24023C90.2856 5.20264 89.8803 4.97982 89.4722 5.0174C88.6185 4.68451 87.8426 4.53686 86.9165 4.35162C86.3983 4.05631 85.7674 4.27645 85.2493 4.05631C84.4708 3.98383 83.6197 3.64825 82.8788 4.20397C82.3607 4.42679 81.5821 4.27914 80.9888 4.16638C80.766 4.57444 80.0626 4.24155 79.8022 4.60934L79.6922 4.49927C79.174 4.7221 78.7284 4.7221 78.1351 4.86975C77.6545 5.20264 76.876 5.12747 76.3579 5.38788C75.7646 5.42547 75.2464 5.6107 74.6907 5.72077C74.6155 5.9436 74.2827 5.72077 74.1726 5.90601C73.6545 6.204 73.1739 5.9436 72.6907 6.27649C72.4303 6.16642 72.2101 6.49931 71.9121 6.38924C71.5041 6.97986 70.951 6.27649 70.5054 6.68455C69.8772 6.64697 69.394 6.90737 68.7282 6.98254C66.4328 7.31812 64.1348 7.02013 61.9119 6.79999C61.4287 6.57717 60.6529 6.68724 60.6529 5.94628C61.0985 5.42815 61.8019 5.98387 62.4301 5.9087C63.7643 6.42683 65.0583 5.72346 66.3926 5.79863L66.763 5.5758C66.653 5.3154 66.5053 5.09526 66.7255 4.83217C67.206 4.42679 67.9094 4.3892 68.3926 3.94356C68.6879 3.98114 68.9483 3.98114 69.2812 4.09121C69.8369 4.05363 70.4302 4.1288 70.9484 4.09121C71.2813 4.31404 71.5766 3.98114 71.9095 4.09121C73.2061 4.1288 74.2048 3.31536 75.3914 3.2026C76.0948 2.90461 76.9109 2.86971 77.6867 2.79454C78.6881 2.68447 79.5042 3.31267 80.3928 3.09254C81.0962 3.2026 82.06 3.16502 82.911 3.16502C83.3191 2.86971 83.8372 2.83213 84.3177 2.64689C85.1339 2.64689 86.095 1.61063 86.8359 2.53414C87.5769 2.71937 88.2051 2.6093 88.9836 2.64689C89.5769 2.23883 90.3528 2.42407 90.9085 2.68447C91.279 2.97978 91.6494 3.42543 92.0951 3.5355C92.1327 3.83349 92.5407 3.61067 92.6884 3.75832C93.1716 4.09121 93.9099 3.83349 94.3555 4.1288C95.4643 4.4241 96.8361 4.79458 97.9126 4.3892C98.7637 3.61067 99.6174 4.64961 100.541 4.20397C101.209 4.16638 101.69 3.761 102.393 3.79859C102.466 3.90866 102.541 3.90866 102.616 3.83617C102.801 4.27914 103.282 4.20665 103.615 4.42947L104.283 4.24424C105.097 4.54223 106.098 4.61471 106.911 4.3194V4.24424C107.209 4.42947 107.395 4.09658 107.652 4.09658C108.503 4.42947 109.21 3.91134 110.061 3.98651C110.503 3.80127 111.099 4.059 111.467 3.57845C111.913 3.50597 111.838 2.98515 111.95 2.65226C111.84 2.09654 111.693 1.35559 111.655 0.65222C111.803 0.391812 112.136 0.466981 112.359 0.504566C113.1 1.09787 112.396 2.43212 113.397 2.98515C113.73 3.24556 114.026 3.61604 114.434 3.65362C114.509 4.0241 115.102 3.80127 115.36 3.87644L115.508 3.72879C115.47 3.83886 115.583 3.83886 115.62 3.87644C115.843 3.91403 115.953 3.61604 116.176 3.61604C116.732 3.4308 117.212 3.06032 117.843 3.06032C117.994 2.87508 118.214 2.95025 118.399 2.87508L119.363 2.39454C119.586 1.72607 120.289 1.69117 120.584 1.06028C120.807 0.837458 121.102 0.689804 121.14 0.391812C121.25 0.57705 121.363 0.319327 121.473 0.354227C121.51 0.0213351 121.881 0.168989 122.066 0.0213351C122.657 -0.126319 122.732 0.539466 123.215 0.577051V0.574366Z" fill="var(--fill-0, #BEC0C2)"/>
<path id="Vector_59" d="M139.823 47.2516L139.777 46.559C139.772 46.4704 139.777 46.3603 139.774 46.2476H139.766C139.737 46.355 139.702 46.4758 139.667 46.5751L139.428 47.2355H139.294L139.06 46.559C139.031 46.4677 139.001 46.355 138.977 46.2476H138.969C138.969 46.3576 138.969 46.4543 138.964 46.559L138.921 47.2516H138.754L138.845 46.1026H139.071L139.296 46.7254C139.326 46.8113 139.347 46.908 139.377 47.0127H139.382C139.409 46.9053 139.433 46.806 139.463 46.7227L139.688 46.1026H139.911L139.997 47.2516H139.823ZM138.714 46.1026V46.2503H138.362V47.2489H138.19V46.2503H137.844V46.1026H138.717H138.714Z" fill="var(--fill-0, #231F20)"/>
</g>
</svg>
