<svg preserveAspectRatio="xMidYMid meet" width="100%" height="100%" overflow="visible" style="display: block;" viewBox="0 0 139.997 47.2517" fill="none" xmlns="http://www.w3.org/2000/svg">
<g id="Group">
<path id="Vector" d="M17.9304 13.9546L18.0082 15.7291L16.9773 15.5224L17.133 14.1103L17.9304 13.9546Z" fill="var(--fill-0, #231F20)"/>
<path id="Vector_2" d="M13.968 13.9813C13.968 13.9813 13.7613 13.4149 13.968 12.9531C14.0861 12.6847 14.3814 12.98 14.3814 12.98L14.87 13.4686L14.7143 14.2391L14.0727 14.2122L13.968 13.9813Z" fill="var(--fill-0, #231F20)"/>
<path id="Vector_3" d="M117.32 19.2565L118.571 29.5251L121.097 28.9345L120.055 19.1545L117.32 19.2565Z" fill="var(--fill-0, #231F20)"/>
<path id="Vector_4" d="M108.584 21.6969L113.226 22.2472L113.935 20.5156L122.434 10.2067L128.177 17.2887L129.989 16.8941L131.092 18.8619L135.339 18.4699L123.221 6.9798L108.584 21.6969Z" fill="var(--fill-0, #BEC0C2)"/>
<path id="Vector_5" d="M113.462 15.7935L113.478 29.6971L116.375 31.2971L118.262 30.43L116.689 19.8848L120.858 19.0982L121.567 28.8568L128.652 26.889L128.571 16.5022L124.399 9.97052L113.462 15.7935Z" fill="var(--fill-0, #FFC425)"/>
<path id="Vector_6" d="M122.04 16.6606L122.826 23.5064L124.875 23.7426L125.189 16.3438L122.04 16.6606Z" fill="var(--fill-0, #E31936)"/>
<path id="Vector_7" d="M88.8684 39.1547C88.5999 38.9051 88.2536 38.7547 87.8321 38.6984C87.2442 38.6205 86.7422 38.6635 86.3207 38.8245C85.9475 38.9668 85.518 39.2487 85.0348 39.6729C84.3824 40.242 83.918 40.8058 83.6388 41.3615C83.5904 41.7266 83.5851 42.1481 83.62 42.626C83.6388 42.8729 83.6951 43.3857 83.7945 44.1669C83.8482 44.5696 83.8804 44.8757 83.8992 45.0851L83.0508 45.1495C83.0132 44.6797 82.9488 44.1347 82.8656 43.5119L82.5837 41.5092C82.4199 40.3575 82.3421 39.4071 82.3475 38.6581L82.5005 38.65L82.6025 38.6312C82.7797 38.5265 82.9085 38.4702 82.9864 38.4648C83.0696 38.4621 83.1421 38.4863 83.1985 38.5427L83.2951 39.8581C84.2589 38.4084 85.475 37.6326 86.9462 37.5279C87.2039 37.5118 87.5771 37.5279 88.0684 37.5735C88.6348 37.6299 88.9758 37.7104 89.0912 37.8178C89.1342 38.0406 89.1556 38.2581 89.1556 38.4675C89.1556 38.9024 89.0617 39.1279 88.8738 39.1521L88.8684 39.1547Z" fill="var(--fill-0, #231F20)"/>
<path id="Vector_8" d="M88.8684 39.1547C88.5999 38.9051 88.2536 38.7547 87.8321 38.6984C87.2442 38.6205 86.7422 38.6635 86.3207 38.8245C85.9475 38.9668 85.518 39.2487 85.0348 39.6729C84.3824 40.242 83.918 40.8058 83.6388 41.3615C83.5904 41.7266 83.5851 42.1481 83.62 42.626C83.6388 42.8729 83.6951 43.3857 83.7945 44.1669C83.8482 44.5696 83.8804 44.8757 83.8992 45.0851L83.0508 45.1495C83.0132 44.6797 82.9488 44.1347 82.8656 43.5119L82.5837 41.5092C82.4199 40.3575 82.3421 39.4071 82.3475 38.6581L82.5005 38.65L82.6025 38.6312C82.7797 38.5265 82.9085 38.4702 82.9864 38.4648C83.0696 38.4621 83.1421 38.4863 83.1985 38.5427L83.2951 39.8581C84.2589 38.4084 85.475 37.6326 86.9462 37.5279C87.2039 37.5118 87.5771 37.5279 88.0684 37.5735C88.6348 37.6299 88.9758 37.7104 89.0912 37.8178C89.1342 38.0406 89.1556 38.2581 89.1556 38.4675C89.1556 38.9024 89.0617 39.1279 88.8738 39.1521L88.8684 39.1547Z" stroke="var(--stroke-0, #231F20)" stroke-width="1.02821"/>
<path id="Vector_9" d="M91.2178 44.5082C91.1238 44.6505 90.9278 44.7203 90.6325 44.7203C90.4902 44.7203 90.3399 44.7042 90.1761 44.6693C90.0526 43.5257 89.9372 42.3256 89.8298 41.0719C89.7681 40.331 89.7332 39.684 89.7332 39.1309C89.7332 38.5135 89.7707 38.0329 89.8486 37.692C90.015 37.5202 90.1681 37.4343 90.305 37.4343C90.4419 37.4343 90.5949 37.5175 90.7667 37.6839L90.9466 39.343C91.156 41.2786 91.2607 42.7069 91.2607 43.6223C91.2607 43.9955 91.2446 44.2908 91.2151 44.5082H91.2178ZM90.3721 36.0973C89.9426 36.0973 89.6016 35.9765 89.3519 35.7349C89.3251 35.7081 89.3144 35.6651 89.3144 35.6007C89.3144 35.4181 89.3815 35.2705 89.5157 35.1523C89.6499 35.0342 89.811 34.9778 90.0016 34.9778C90.1197 34.9778 90.313 35.1389 90.5788 35.4611C90.7265 35.6436 90.7909 35.7913 90.7694 35.9014C90.7453 36.0329 90.611 36.0973 90.3721 36.0973Z" fill="var(--fill-0, #231F20)"/>
<path id="Vector_10" d="M91.2178 44.5082C91.1238 44.6505 90.9278 44.7203 90.6325 44.7203C90.4902 44.7203 90.3399 44.7042 90.1761 44.6693C90.0526 43.5257 89.9372 42.3256 89.8298 41.0719C89.7681 40.331 89.7332 39.684 89.7332 39.1309C89.7332 38.5135 89.7707 38.0329 89.8486 37.692C90.015 37.5202 90.1681 37.4343 90.305 37.4343C90.4419 37.4343 90.5949 37.5175 90.7667 37.6839L90.9466 39.343C91.156 41.2786 91.2607 42.7069 91.2607 43.6223C91.2607 43.9955 91.2446 44.2908 91.2151 44.5082H91.2178ZM90.3721 36.0973C89.9426 36.0973 89.6016 35.9765 89.3519 35.7349C89.3251 35.7081 89.3144 35.6651 89.3144 35.6007C89.3144 35.4181 89.3815 35.2705 89.5157 35.1523C89.6499 35.0342 89.811 34.9778 90.0016 34.9778C90.1197 34.9778 90.313 35.1389 90.5788 35.4611C90.7265 35.6436 90.7909 35.7913 90.7694 35.9014C90.7453 36.0329 90.611 36.0973 90.3721 36.0973Z" stroke="var(--stroke-0, #231F20)" stroke-width="1.02821"/>
<path id="Vector_11" d="M95.8861 38.2771C95.223 38.2771 94.6405 38.3603 94.1411 38.5268C94.1357 38.5644 94.1331 38.61 94.1331 38.661C94.1331 38.8113 94.1438 39.0342 94.1653 39.3348C94.1868 39.6355 94.1975 39.861 94.1975 40.0087C94.2136 40.014 94.2351 40.0167 94.2619 40.0167C94.321 40.0167 94.4069 40.0033 94.5223 39.9738C94.6351 39.9469 94.7237 39.9335 94.7827 39.9335C95.3653 39.8342 95.9586 39.512 96.5626 38.9617C96.7881 38.7576 96.9036 38.6181 96.9036 38.5483C96.9036 38.3684 96.5653 38.2798 95.8888 38.2798L95.8861 38.2771ZM99.4379 43.1658C98.0794 44.0463 96.2566 44.6155 93.9747 44.8759C93.4243 44.8759 93.1478 44.5752 93.1478 43.9685C93.3277 43.9175 93.4861 43.8906 93.623 43.8906C93.7089 43.8906 93.8351 43.9041 94.0042 43.9282C94.1733 43.9551 94.2995 43.9658 94.3854 43.9658C94.6915 43.9658 95.1129 43.8853 95.6418 43.7161C95.7787 43.6705 96.0552 43.5819 96.4687 43.453C96.6539 43.402 97.011 43.3 97.5398 43.1443C97.8835 43.0423 98.2217 42.8973 98.56 42.7067C98.7425 42.6047 98.8338 42.5215 98.8338 42.457C98.8338 42.1698 98.4741 41.9067 97.7546 41.6597C97.2096 41.4772 96.5922 41.3376 95.9022 41.2436C95.4942 41.1872 94.8633 41.1228 94.0069 41.0503C93.9961 41.1872 93.9935 41.3429 93.9935 41.5174C93.9935 42.4007 94.0149 42.9027 94.0552 43.0262V43.0718C94.0552 43.3671 93.8539 43.5148 93.4512 43.5148C93.3921 43.5148 93.2981 43.5067 93.1747 43.4906C93.0619 42.8893 93.0082 42.1725 93.0082 41.3429C93.0082 40.9563 93.0216 40.3845 93.0512 39.6194C93.078 38.857 93.0914 38.2825 93.0914 37.8986C93.7465 37.5684 94.5787 37.4046 95.5881 37.4046C96.2646 37.4046 96.8418 37.4771 97.3278 37.6221C97.7412 37.7455 97.9506 38.0462 97.9506 38.5187C97.9506 38.6744 97.9157 38.8113 97.8432 38.9295C97.6392 39.2624 97.4002 39.5335 97.1318 39.7429C96.9868 39.853 96.6861 40.0409 96.2297 40.3067C96.5385 40.3577 97.0754 40.4597 97.8459 40.6127C98.3452 40.712 98.8419 40.9537 99.3385 41.3429C99.6634 41.5953 99.8244 41.947 99.8244 42.4007C99.8244 42.7416 99.6983 42.994 99.4459 43.1577L99.4379 43.1658Z" fill="var(--fill-0, #231F20)"/>
<path id="Vector_12" d="M95.8861 38.2771C95.223 38.2771 94.6405 38.3603 94.1411 38.5268C94.1357 38.5644 94.1331 38.61 94.1331 38.661C94.1331 38.8113 94.1438 39.0342 94.1653 39.3348C94.1868 39.6355 94.1975 39.861 94.1975 40.0087C94.2136 40.014 94.2351 40.0167 94.2619 40.0167C94.321 40.0167 94.4069 40.0033 94.5223 39.9738C94.6351 39.9469 94.7237 39.9335 94.7827 39.9335C95.3653 39.8342 95.9586 39.512 96.5626 38.9617C96.7881 38.7576 96.9036 38.6181 96.9036 38.5483C96.9036 38.3684 96.5653 38.2798 95.8888 38.2798L95.8861 38.2771ZM99.4379 43.1658C98.0794 44.0463 96.2566 44.6155 93.9747 44.8759C93.4243 44.8759 93.1478 44.5752 93.1478 43.9685C93.3277 43.9175 93.4861 43.8906 93.623 43.8906C93.7089 43.8906 93.8351 43.9041 94.0042 43.9282C94.1733 43.9551 94.2995 43.9658 94.3854 43.9658C94.6915 43.9658 95.1129 43.8853 95.6418 43.7161C95.7787 43.6705 96.0552 43.5819 96.4687 43.453C96.6539 43.402 97.011 43.3 97.5398 43.1443C97.8835 43.0423 98.2217 42.8973 98.56 42.7067C98.7425 42.6047 98.8338 42.5215 98.8338 42.457C98.8338 42.1698 98.4741 41.9067 97.7546 41.6597C97.2096 41.4772 96.5922 41.3376 95.9022 41.2436C95.4942 41.1872 94.8633 41.1228 94.0069 41.0503C93.9961 41.1872 93.9935 41.3429 93.9935 41.5174C93.9935 42.4007 94.0149 42.9027 94.0552 43.0262V43.0718C94.0552 43.3671 93.8539 43.5148 93.4512 43.5148C93.3921 43.5148 93.2981 43.5067 93.1747 43.4906C93.0619 42.8893 93.0082 42.1725 93.0082 41.3429C93.0082 40.9563 93.0216 40.3845 93.0512 39.6194C93.078 38.857 93.0914 38.2825 93.0914 37.8986C93.7465 37.5684 94.5787 37.4046 95.5881 37.4046C96.2646 37.4046 96.8418 37.4771 97.3278 37.6221C97.7412 37.7455 97.9506 38.0462 97.9506 38.5187C97.9506 38.6744 97.9157 38.8113 97.8432 38.9295C97.6392 39.2624 97.4002 39.5335 97.1318 39.7429C96.9868 39.853 96.6861 40.0409 96.2297 40.3067C96.5385 40.3577 97.0754 40.4597 97.8459 40.6127C98.3452 40.712 98.8419 40.9537 99.3385 41.3429C99.6634 41.5953 99.8244 41.947 99.8244 42.4007C99.8244 42.7416 99.6983 42.994 99.4459 43.1577L99.4379 43.1658Z" stroke="var(--stroke-0, #231F20)" stroke-width="1.02821"/>
<path id="Vector_13" d="M111.21 43.3481C110.891 43.9897 110.182 44.3736 109.092 44.5025C108.727 44.5454 108.279 44.5669 107.744 44.5669H105.978C105.667 44.3253 105.508 44.0327 105.508 43.6891C105.508 43.6515 105.516 43.5843 105.535 43.4904C105.557 43.4689 105.589 43.4582 105.637 43.4582L106.08 43.5521C106.147 43.5656 106.504 43.5924 107.151 43.6246H107.93C109.291 43.6246 110.01 43.3051 110.088 42.6635C110.12 42.3816 109.39 41.9816 107.895 41.4581C107.712 41.3937 107.175 41.2138 106.289 40.9185C106.134 40.8675 105.989 40.7655 105.846 40.6125C105.661 40.4111 105.57 40.1883 105.57 39.944C105.57 39.885 105.581 39.8071 105.602 39.7131C105.795 39.1708 106.681 38.6527 108.263 38.1614C108.896 37.9655 109.468 37.8366 109.975 37.7775L110.077 38.4702C109.93 38.6017 109.594 38.744 109.071 38.8916C108.464 39.0635 108.064 39.1977 107.873 39.297C107.484 39.493 107.288 39.7454 107.288 40.0541C107.288 40.2823 107.726 40.489 108.598 40.6769C109.154 40.7977 109.516 40.8917 109.688 40.9588C110.072 41.0742 110.429 41.3024 110.759 41.6407C111.141 42.03 111.328 42.43 111.328 42.8353C111.328 43.0233 111.291 43.1951 111.213 43.3481H111.21Z" fill="var(--fill-0, #231F20)"/>
<path id="Vector_14" d="M111.21 43.3481C110.891 43.9897 110.182 44.3736 109.092 44.5025C108.727 44.5454 108.279 44.5669 107.744 44.5669H105.978C105.667 44.3253 105.508 44.0327 105.508 43.6891C105.508 43.6515 105.516 43.5843 105.535 43.4904C105.557 43.4689 105.589 43.4582 105.637 43.4582L106.08 43.5521C106.147 43.5656 106.504 43.5924 107.151 43.6246H107.93C109.291 43.6246 110.01 43.3051 110.088 42.6635C110.12 42.3816 109.39 41.9816 107.895 41.4581C107.712 41.3937 107.175 41.2138 106.289 40.9185C106.134 40.8675 105.989 40.7655 105.846 40.6125C105.661 40.4111 105.57 40.1883 105.57 39.944C105.57 39.885 105.581 39.8071 105.602 39.7131C105.795 39.1708 106.681 38.6527 108.263 38.1614C108.896 37.9655 109.468 37.8366 109.975 37.7775L110.077 38.4702C109.93 38.6017 109.594 38.744 109.071 38.8916C108.464 39.0635 108.064 39.1977 107.873 39.297C107.484 39.493 107.288 39.7454 107.288 40.0541C107.288 40.2823 107.726 40.489 108.598 40.6769C109.154 40.7977 109.516 40.8917 109.688 40.9588C110.072 41.0742 110.429 41.3024 110.759 41.6407C111.141 42.03 111.328 42.43 111.328 42.8353C111.328 43.0233 111.291 43.1951 111.213 43.3481H111.21Z" stroke="var(--stroke-0, #231F20)" stroke-width="1.02821"/>
<path id="Vector_15" d="M118.273 44.7364C117.983 44.8814 117.688 44.9539 117.39 44.9539C117.334 44.8035 117.307 44.5968 117.307 44.3337C117.307 44.2237 117.315 44.0545 117.334 43.829C117.352 43.6035 117.36 43.4344 117.36 43.3243C117.36 43.1015 117.344 42.935 117.315 42.8196C117.191 42.3337 116.915 41.9283 116.491 41.6035C116.064 41.2786 115.599 41.1176 115.095 41.1176C114.488 41.1176 114.04 41.2437 113.752 41.5015C113.712 41.5364 113.543 41.778 113.245 42.2263L113.175 43.5579C113.097 43.5659 112.987 43.5713 112.84 43.5713C112.394 43.5713 112.131 43.5176 112.053 43.4102C112.131 42.7069 112.182 41.7753 112.209 40.6102C112.238 39.2061 112.27 38.2719 112.305 37.8021C112.378 36.7953 112.515 35.896 112.713 35.0986C112.713 35.1148 112.713 34.9403 112.96 35.0262C113.21 35.1121 113.46 35.4181 113.46 35.4852C113.46 35.8154 113.446 36.2503 113.417 36.79L113.328 38.4007C113.301 39.0128 113.288 39.445 113.288 39.692C113.288 40.0142 113.301 40.2907 113.328 40.5189C113.377 40.5511 113.428 40.5645 113.481 40.5645C113.524 40.5645 113.707 40.4732 114.026 40.2907C114.346 40.1081 114.558 40.0142 114.66 40.0115C114.681 40.0115 114.722 40.0115 114.781 40.0061C114.829 40.0034 114.866 39.9981 114.896 39.9981C115.489 39.9981 116.109 40.237 116.759 40.7095C117.285 41.0934 117.766 41.5739 118.201 42.1538C118.413 42.4411 118.52 42.8599 118.52 43.4156C118.52 43.9283 118.437 44.3686 118.276 44.7418L118.273 44.7364Z" fill="var(--fill-0, #231F20)"/>
<path id="Vector_16" d="M118.273 44.7364C117.983 44.8814 117.688 44.9539 117.39 44.9539C117.334 44.8035 117.307 44.5968 117.307 44.3337C117.307 44.2237 117.315 44.0545 117.334 43.829C117.352 43.6035 117.36 43.4344 117.36 43.3243C117.36 43.1015 117.344 42.935 117.315 42.8196C117.191 42.3337 116.915 41.9283 116.491 41.6035C116.064 41.2786 115.599 41.1176 115.095 41.1176C114.488 41.1176 114.04 41.2437 113.752 41.5015C113.712 41.5364 113.543 41.778 113.245 42.2263L113.175 43.5579C113.097 43.5659 112.987 43.5713 112.84 43.5713C112.394 43.5713 112.131 43.5176 112.053 43.4102C112.131 42.7069 112.182 41.7753 112.209 40.6102C112.238 39.2061 112.27 38.2719 112.305 37.8021C112.378 36.7953 112.515 35.896 112.713 35.0986C112.713 35.1148 112.713 34.9403 112.96 35.0262C113.21 35.1121 113.46 35.4181 113.46 35.4852C113.46 35.8154 113.446 36.2503 113.417 36.79L113.328 38.4007C113.301 39.0128 113.288 39.445 113.288 39.692C113.288 40.0142 113.301 40.2907 113.328 40.5189C113.377 40.5511 113.428 40.5645 113.481 40.5645C113.524 40.5645 113.707 40.4732 114.026 40.2907C114.346 40.1081 114.558 40.0142 114.66 40.0115C114.681 40.0115 114.722 40.0115 114.781 40.0061C114.829 40.0034 114.866 39.9981 114.896 39.9981C115.489 39.9981 116.109 40.237 116.759 40.7095C117.285 41.0934 117.766 41.5739 118.201 42.1538C118.413 42.4411 118.52 42.8599 118.52 43.4156C118.52 43.9283 118.437 44.3686 118.276 44.7418L118.273 44.7364Z" stroke="var(--stroke-0, #231F20)" stroke-width="1.02821"/>
<path id="Vector_17" d="M123.385 41.3885C122.944 41.257 122.555 41.1898 122.222 41.1898C121.435 41.1898 120.797 41.5174 120.311 42.1751C120.155 42.3845 120.08 42.5966 120.08 42.814C120.08 43.1738 120.252 43.402 120.593 43.4986C120.764 43.5469 120.928 43.5657 121.086 43.5577C121.395 43.5416 122.05 43.4396 123.057 43.2516C123.385 43.1523 123.645 43.01 123.836 42.8221L123.758 42.0409C123.696 41.7321 123.572 41.5147 123.385 41.3885ZM120.912 44.6047H120.662C120.05 44.6047 119.618 44.3335 119.363 43.7939C119.256 43.563 119.159 43.1979 119.068 42.7013C119.054 42.6288 119.049 42.5563 119.049 42.4838C119.049 41.9818 119.468 41.41 120.308 40.7657C120.727 40.4462 121.253 40.2851 121.886 40.2851C122.096 40.2851 122.391 40.3066 122.772 40.3496C123.178 40.3979 123.476 40.422 123.658 40.4274C123.65 39.7187 123.355 39.2086 122.772 38.9026C122.619 38.822 122.45 38.7817 122.265 38.7817C122.007 38.7817 121.712 38.8891 121.374 39.1012L120.423 39.7026C120.3 39.7026 120.187 39.6328 120.088 39.4905C119.994 39.3616 119.946 39.2354 119.946 39.1066C119.946 39.0207 119.972 38.9401 120.029 38.865C120.912 38.1267 121.704 37.7589 122.391 37.7589C123.277 37.7589 123.897 38.1535 124.254 38.9401C124.437 39.3509 124.587 40.0328 124.705 40.9885C124.826 41.9818 124.958 42.6852 125.103 43.1067C124.23 43.8288 122.831 44.3308 120.909 44.61L120.912 44.6047Z" fill="var(--fill-0, #231F20)"/>
<path id="Vector_18" d="M123.385 41.3885C122.944 41.257 122.555 41.1898 122.222 41.1898C121.435 41.1898 120.797 41.5174 120.311 42.1751C120.155 42.3845 120.08 42.5966 120.08 42.814C120.08 43.1738 120.252 43.402 120.593 43.4986C120.764 43.5469 120.928 43.5657 121.086 43.5577C121.395 43.5416 122.05 43.4396 123.057 43.2516C123.385 43.1523 123.645 43.01 123.836 42.8221L123.758 42.0409C123.696 41.7321 123.572 41.5147 123.385 41.3885ZM120.912 44.6047H120.662C120.05 44.6047 119.618 44.3335 119.363 43.7939C119.256 43.563 119.159 43.1979 119.068 42.7013C119.054 42.6288 119.049 42.5563 119.049 42.4838C119.049 41.9818 119.468 41.41 120.308 40.7657C120.727 40.4462 121.253 40.2851 121.886 40.2851C122.096 40.2851 122.391 40.3066 122.772 40.3496C123.178 40.3979 123.476 40.422 123.658 40.4274C123.65 39.7187 123.355 39.2086 122.772 38.9026C122.619 38.822 122.45 38.7817 122.265 38.7817C122.007 38.7817 121.712 38.8891 121.374 39.1012L120.423 39.7026C120.3 39.7026 120.187 39.6328 120.088 39.4905C119.994 39.3616 119.946 39.2354 119.946 39.1066C119.946 39.0207 119.972 38.9401 120.029 38.865C120.912 38.1267 121.704 37.7589 122.391 37.7589C123.277 37.7589 123.897 38.1535 124.254 38.9401C124.437 39.3509 124.587 40.0328 124.705 40.9885C124.826 41.9818 124.958 42.6852 125.103 43.1067C124.23 43.8288 122.831 44.3308 120.909 44.61L120.912 44.6047Z" stroke="var(--stroke-0, #231F20)" stroke-width="1.02821"/>
<path id="Vector_19" d="M131.898 43.3857C132.016 43.4582 132.078 43.579 132.078 43.7535C132.078 43.877 132.04 44.0058 131.968 44.14C131.887 44.3011 131.791 44.3843 131.678 44.3924C130.964 44.5615 130.349 44.6448 129.836 44.6448C129.581 44.6448 129.374 44.6286 129.213 44.5937C127.616 44.2555 126.612 43.4904 126.196 42.293C126.083 41.9736 126.029 41.6407 126.029 41.2997C126.029 40.5829 126.236 39.9118 126.65 39.289C127.063 38.6661 127.603 38.2151 128.263 37.9359C128.574 37.8044 128.886 37.7372 129.195 37.7372C129.992 37.7372 130.66 38.1722 131.197 39.0366C131.442 39.4312 131.592 40.0675 131.648 40.9454C131.654 41.0232 131.662 41.1736 131.675 41.3964C131.541 41.5387 131.377 41.6085 131.181 41.6085C130.985 41.6085 130.846 41.5387 130.776 41.4017C130.644 40.8782 130.513 40.3521 130.384 39.8232C130.183 39.2567 129.85 38.9373 129.383 38.8702C129.321 38.8621 129.281 38.8567 129.259 38.8567H129.149C128.515 38.8567 127.962 39.2379 127.493 39.9977C127.24 40.4084 127.114 40.8219 127.114 41.238C127.114 41.6541 127.24 42.0809 127.493 42.5132C127.847 43.1253 128.462 43.4743 129.332 43.5629C129.579 43.5897 129.981 43.6031 130.54 43.6031C130.762 43.6031 131.055 43.5682 131.415 43.4984C131.536 43.4743 131.697 43.4367 131.903 43.3857H131.898Z" fill="var(--fill-0, #231F20)"/>
<path id="Vector_20" d="M131.898 43.3857C132.016 43.4582 132.078 43.579 132.078 43.7535C132.078 43.877 132.04 44.0058 131.968 44.14C131.887 44.3011 131.791 44.3843 131.678 44.3924C130.964 44.5615 130.349 44.6448 129.836 44.6448C129.581 44.6448 129.374 44.6286 129.213 44.5937C127.616 44.2555 126.612 43.4904 126.196 42.293C126.083 41.9736 126.029 41.6407 126.029 41.2997C126.029 40.5829 126.236 39.9118 126.65 39.289C127.063 38.6661 127.603 38.2151 128.263 37.9359C128.574 37.8044 128.886 37.7372 129.195 37.7372C129.992 37.7372 130.66 38.1722 131.197 39.0366C131.442 39.4312 131.592 40.0675 131.648 40.9454C131.654 41.0232 131.662 41.1736 131.675 41.3964C131.541 41.5387 131.377 41.6085 131.181 41.6085C130.985 41.6085 130.846 41.5387 130.776 41.4017C130.644 40.8782 130.513 40.3521 130.384 39.8232C130.183 39.2567 129.85 38.9373 129.383 38.8702C129.321 38.8621 129.281 38.8567 129.259 38.8567H129.149C128.515 38.8567 127.962 39.2379 127.493 39.9977C127.24 40.4084 127.114 40.8219 127.114 41.238C127.114 41.6541 127.24 42.0809 127.493 42.5132C127.847 43.1253 128.462 43.4743 129.332 43.5629C129.579 43.5897 129.981 43.6031 130.54 43.6031C130.762 43.6031 131.055 43.5682 131.415 43.4984C131.536 43.4743 131.697 43.4367 131.903 43.3857H131.898Z" stroke="var(--stroke-0, #231F20)" stroke-width="1.02821"/>
<path id="Vector_21" d="M133.588 44.5485C133.588 44.7418 133.392 44.8384 133.006 44.8384C132.732 44.8384 132.536 44.7498 132.413 44.5673C132.413 41.241 132.539 38.6987 132.791 36.9403C132.912 36.9832 132.982 37.0047 133.003 37.0047C133.038 37.0047 133.137 36.9537 133.309 36.849C133.478 36.747 133.578 36.696 133.607 36.696C133.766 36.696 133.846 36.8007 133.846 37.0101C133.846 38.3068 133.784 39.5363 133.661 40.6961C134.474 40.4652 135.68 39.9793 137.277 39.2383C137.478 39.5605 137.578 39.8075 137.578 39.9846C137.288 40.2719 136.92 40.4974 136.474 40.6638C136.158 40.7847 135.79 40.9243 135.374 41.08C134.958 41.2384 134.619 41.4182 134.362 41.6196C134.649 41.7753 135.102 41.9927 135.723 42.2746L137.325 43.0129C137.908 43.2787 138.413 43.5686 138.837 43.88C139.001 43.931 139.081 44.033 139.081 44.1834C139.081 44.3767 138.907 44.5565 138.555 44.723C138.335 44.6344 137.556 44.2639 136.217 43.6169C135.274 43.1632 134.453 42.8652 133.76 42.7256C133.757 43.2652 133.752 43.5767 133.749 43.6545C133.728 44.0465 133.677 44.3445 133.594 44.5512L133.588 44.5485Z" fill="var(--fill-0, #231F20)"/>
<path id="Vector_22" d="M133.588 44.5485C133.588 44.7418 133.392 44.8384 133.006 44.8384C132.732 44.8384 132.536 44.7498 132.413 44.5673C132.413 41.241 132.539 38.6987 132.791 36.9403C132.912 36.9832 132.982 37.0047 133.003 37.0047C133.038 37.0047 133.137 36.9537 133.309 36.849C133.478 36.747 133.578 36.696 133.607 36.696C133.766 36.696 133.846 36.8007 133.846 37.0101C133.846 38.3068 133.784 39.5363 133.661 40.6961C134.474 40.4652 135.68 39.9793 137.277 39.2383C137.478 39.5605 137.578 39.8075 137.578 39.9846C137.288 40.2719 136.92 40.4974 136.474 40.6638C136.158 40.7847 135.79 40.9243 135.374 41.08C134.958 41.2384 134.619 41.4182 134.362 41.6196C134.649 41.7753 135.102 41.9927 135.723 42.2746L137.325 43.0129C137.908 43.2787 138.413 43.5686 138.837 43.88C139.001 43.931 139.081 44.033 139.081 44.1834C139.081 44.3767 138.907 44.5565 138.555 44.723C138.335 44.6344 137.556 44.2639 136.217 43.6169C135.274 43.1632 134.453 42.8652 133.76 42.7256C133.757 43.2652 133.752 43.5767 133.749 43.6545C133.728 44.0465 133.677 44.3445 133.594 44.5512L133.588 44.5485Z" stroke="var(--stroke-0, #231F20)" stroke-width="1.02821"/>
<path id="Vector_23" d="M88.8684 39.1547C88.5999 38.9051 88.2536 38.7547 87.8321 38.6984C87.2442 38.6205 86.7422 38.6635 86.3207 38.8245C85.9475 38.9668 85.518 39.2487 85.0348 39.6729C84.3824 40.242 83.918 40.8058 83.6388 41.3615C83.5904 41.7266 83.5851 42.1481 83.62 42.626C83.6388 42.8729 83.6951 43.3857 83.7945 44.1669C83.8482 44.5696 83.8804 44.8757 83.8992 45.0851L83.0508 45.1495C83.0132 44.6797 82.9488 44.1347 82.8656 43.5119L82.5837 41.5092C82.4199 40.3575 82.3421 39.4071 82.3475 38.6581L82.5005 38.65L82.6025 38.6312C82.7797 38.5265 82.9085 38.4702 82.9864 38.4648C83.0696 38.4621 83.1421 38.4863 83.1985 38.5427L83.2951 39.8581C84.2589 38.4084 85.475 37.6326 86.9462 37.5279C87.2039 37.5118 87.5771 37.5279 88.0684 37.5735C88.6348 37.6299 88.9758 37.7104 89.0912 37.8178C89.1342 38.0406 89.1556 38.2581 89.1556 38.4675C89.1556 38.9024 89.0617 39.1279 88.8738 39.1521L88.8684 39.1547Z" fill="var(--fill-0, #FFC425)"/>
<path id="Vector_24" d="M91.2178 44.5082C91.1238 44.6505 90.9278 44.7203 90.6325 44.7203C90.4902 44.7203 90.3399 44.7042 90.1761 44.6693C90.0526 43.5257 89.9372 42.3256 89.8298 41.0719C89.7681 40.331 89.7332 39.684 89.7332 39.1309C89.7332 38.5135 89.7707 38.0329 89.8486 37.692C90.015 37.5202 90.1681 37.4343 90.305 37.4343C90.4419 37.4343 90.5949 37.5175 90.7667 37.6839L90.9466 39.343C91.156 41.2786 91.2607 42.7069 91.2607 43.6223C91.2607 43.9955 91.2446 44.2908 91.2151 44.5082H91.2178ZM90.3721 36.0973C89.9426 36.0973 89.6016 35.9765 89.3519 35.7349C89.3251 35.7081 89.3144 35.6651 89.3144 35.6007C89.3144 35.4181 89.3815 35.2705 89.5157 35.1523C89.6499 35.0342 89.811 34.9778 90.0016 34.9778C90.1197 34.9778 90.313 35.1389 90.5788 35.4611C90.7265 35.6436 90.7909 35.7913 90.7694 35.9014C90.7453 36.0329 90.611 36.0973 90.3721 36.0973Z" fill="var(--fill-0, #FFC425)"/>
<path id="Vector_25" d="M95.8861 38.2771C95.223 38.2771 94.6405 38.3603 94.1411 38.5268C94.1357 38.5644 94.1331 38.61 94.1331 38.661C94.1331 38.8113 94.1438 39.0342 94.1653 39.3348C94.1868 39.6355 94.1975 39.861 94.1975 40.0087C94.2136 40.014 94.2351 40.0167 94.2619 40.0167C94.321 40.0167 94.4069 40.0033 94.5223 39.9738C94.6351 39.9469 94.7237 39.9335 94.7827 39.9335C95.3653 39.8342 95.9586 39.512 96.5626 38.9617C96.7881 38.7576 96.9036 38.6181 96.9036 38.5483C96.9036 38.3684 96.5653 38.2798 95.8888 38.2798L95.8861 38.2771ZM99.4379 43.1658C98.0794 44.0463 96.2566 44.6155 93.9747 44.8759C93.4243 44.8759 93.1478 44.5752 93.1478 43.9685C93.3277 43.9175 93.4861 43.8906 93.623 43.8906C93.7089 43.8906 93.8351 43.9041 94.0042 43.9282C94.1733 43.9551 94.2995 43.9658 94.3854 43.9658C94.6915 43.9658 95.1129 43.8853 95.6418 43.7161C95.7787 43.6705 96.0552 43.5819 96.4687 43.453C96.6539 43.402 97.011 43.3 97.5398 43.1443C97.8835 43.0423 98.2217 42.8973 98.56 42.7067C98.7425 42.6047 98.8338 42.5215 98.8338 42.457C98.8338 42.1698 98.4741 41.9067 97.7546 41.6597C97.2096 41.4772 96.5922 41.3376 95.9022 41.2436C95.4942 41.1872 94.8633 41.1228 94.0069 41.0503C93.9961 41.1872 93.9935 41.3429 93.9935 41.5174C93.9935 42.4007 94.0149 42.9027 94.0552 43.0262V43.0718C94.0552 43.3671 93.8539 43.5148 93.4512 43.5148C93.3921 43.5148 93.2981 43.5067 93.1747 43.4906C93.0619 42.8893 93.0082 42.1725 93.0082 41.3429C93.0082 40.9563 93.0216 40.3845 93.0512 39.6194C93.078 38.857 93.0914 38.2825 93.0914 37.8986C93.7465 37.5684 94.5787 37.4046 95.5881 37.4046C96.2646 37.4046 96.8418 37.4771 97.3278 37.6221C97.7412 37.7455 97.9506 38.0462 97.9506 38.5187C97.9506 38.6744 97.9157 38.8113 97.8432 38.9295C97.6392 39.2624 97.4002 39.5335 97.1318 39.7429C96.9868 39.853 96.6861 40.0409 96.2297 40.3067C96.5385 40.3577 97.0754 40.4597 97.8459 40.6127C98.3452 40.712 98.8419 40.9537 99.3385 41.3429C99.6634 41.5953 99.8244 41.947 99.8244 42.4007C99.8244 42.7416 99.6983 42.994 99.4459 43.1577L99.4379 43.1658Z" fill="var(--fill-0, #FFC425)"/>
<path id="Vector_26" d="M111.21 43.3481C110.891 43.9897 110.182 44.3736 109.092 44.5025C108.727 44.5454 108.279 44.5669 107.744 44.5669H105.978C105.667 44.3253 105.508 44.0327 105.508 43.6891C105.508 43.6515 105.516 43.5843 105.535 43.4904C105.557 43.4689 105.589 43.4582 105.637 43.4582L106.08 43.5521C106.147 43.5656 106.504 43.5924 107.151 43.6246H107.93C109.291 43.6246 110.01 43.3051 110.088 42.6635C110.12 42.3816 109.39 41.9816 107.895 41.4581C107.712 41.3937 107.175 41.2138 106.289 40.9185C106.134 40.8675 105.989 40.7655 105.846 40.6125C105.661 40.4111 105.57 40.1883 105.57 39.944C105.57 39.885 105.581 39.8071 105.602 39.7131C105.795 39.1708 106.681 38.6527 108.263 38.1614C108.896 37.9655 109.468 37.8366 109.975 37.7775L110.077 38.4702C109.93 38.6017 109.594 38.744 109.071 38.8916C108.464 39.0635 108.064 39.1977 107.873 39.297C107.484 39.493 107.288 39.7454 107.288 40.0541C107.288 40.2823 107.726 40.489 108.598 40.6769C109.154 40.7977 109.516 40.8917 109.688 40.9588C110.072 41.0742 110.429 41.3024 110.759 41.6407C111.141 42.03 111.328 42.43 111.328 42.8353C111.328 43.0233 111.291 43.1951 111.213 43.3481H111.21Z" fill="var(--fill-0, #FFC425)"/>
<path id="Vector_27" d="M118.273 44.7362C117.983 44.8811 117.688 44.9536 117.39 44.9536C117.334 44.8033 117.307 44.5966 117.307 44.3335C117.307 44.2234 117.315 44.0543 117.334 43.8288C117.352 43.6033 117.36 43.4341 117.36 43.324C117.36 43.1012 117.344 42.9348 117.315 42.8193C117.191 42.3334 116.915 41.928 116.491 41.6032C116.064 41.2784 115.599 41.1173 115.095 41.1173C114.488 41.1173 114.04 41.2435 113.752 41.5012C113.712 41.5361 113.543 41.7777 113.245 42.226L113.175 43.5576C113.097 43.5657 112.987 43.571 112.84 43.571C112.394 43.571 112.131 43.5173 112.053 43.41C112.131 42.7066 112.182 41.775 112.209 40.6099C112.238 39.2058 112.27 38.2716 112.305 37.8018C112.378 36.7951 112.515 35.8957 112.713 35.0984C112.713 35.1145 112.837 35.1682 113.087 35.2541C113.336 35.34 113.46 35.4179 113.46 35.485C113.46 35.8152 113.446 36.2501 113.417 36.7897L113.328 38.4005C113.301 39.0126 113.288 39.4448 113.288 39.6918C113.288 40.0139 113.301 40.2904 113.328 40.5186C113.377 40.5508 113.428 40.5643 113.481 40.5643C113.524 40.5643 113.707 40.473 114.026 40.2904C114.346 40.1079 114.558 40.0139 114.66 40.0112C114.681 40.0112 114.722 40.0112 114.781 40.0059C114.829 40.0032 114.866 39.9978 114.896 39.9978C115.489 39.9978 116.109 40.2367 116.759 40.7092C117.285 41.0931 117.766 41.5737 118.201 42.1536C118.413 42.4408 118.52 42.8596 118.52 43.4153C118.52 43.9281 118.437 44.3684 118.276 44.7415L118.273 44.7362Z" fill="var(--fill-0, #FFC425)"/>
<path id="Vector_28" d="M123.385 41.3885C122.944 41.257 122.555 41.1898 122.222 41.1898C121.435 41.1898 120.797 41.5174 120.311 42.1751C120.155 42.3845 120.08 42.5966 120.08 42.814C120.08 43.1738 120.252 43.402 120.593 43.4986C120.764 43.5469 120.928 43.5657 121.086 43.5577C121.395 43.5416 122.05 43.4396 123.057 43.2516C123.385 43.1523 123.645 43.01 123.836 42.8221L123.758 42.0409C123.696 41.7321 123.572 41.5147 123.385 41.3885ZM120.912 44.6047H120.662C120.05 44.6047 119.618 44.3335 119.363 43.7939C119.256 43.563 119.159 43.1979 119.068 42.7013C119.054 42.6288 119.049 42.5563 119.049 42.4838C119.049 41.9818 119.468 41.41 120.308 40.7657C120.727 40.4462 121.253 40.2851 121.886 40.2851C122.096 40.2851 122.391 40.3066 122.772 40.3496C123.178 40.3979 123.476 40.422 123.658 40.4274C123.65 39.7187 123.355 39.2086 122.772 38.9026C122.619 38.822 122.45 38.7817 122.265 38.7817C122.007 38.7817 121.712 38.8891 121.374 39.1012L120.423 39.7026C120.3 39.7026 120.187 39.6328 120.088 39.4905C119.994 39.3616 119.946 39.2354 119.946 39.1066C119.946 39.0207 119.972 38.9401 120.029 38.865C120.912 38.1267 121.704 37.7589 122.391 37.7589C123.277 37.7589 123.897 38.1535 124.254 38.9401C124.437 39.3509 124.587 40.0328 124.705 40.9885C124.826 41.9818 124.958 42.6852 125.103 43.1067C124.23 43.8288 122.831 44.3308 120.909 44.61L120.912 44.6047Z" fill="var(--fill-0, #FFC425)"/>
<path id="Vector_29" d="M131.898 43.3857C132.016 43.4582 132.078 43.579 132.078 43.7535C132.078 43.877 132.04 44.0058 131.968 44.14C131.887 44.3011 131.791 44.3843 131.678 44.3924C130.964 44.5615 130.349 44.6448 129.836 44.6448C129.581 44.6448 129.374 44.6286 129.213 44.5937C127.616 44.2555 126.612 43.4904 126.196 42.293C126.083 41.9736 126.029 41.6407 126.029 41.2997C126.029 40.5829 126.236 39.9118 126.65 39.289C127.063 38.6661 127.603 38.2151 128.263 37.9359C128.574 37.8044 128.886 37.7372 129.195 37.7372C129.992 37.7372 130.66 38.1722 131.197 39.0366C131.442 39.4312 131.592 40.0675 131.648 40.9454C131.654 41.0232 131.662 41.1736 131.675 41.3964C131.541 41.5387 131.377 41.6085 131.181 41.6085C130.985 41.6085 130.846 41.5387 130.776 41.4017C130.644 40.8782 130.513 40.3521 130.384 39.8232C130.183 39.2567 129.85 38.9373 129.383 38.8702C129.321 38.8621 129.281 38.8567 129.259 38.8567H129.149C128.515 38.8567 127.962 39.2379 127.493 39.9977C127.24 40.4084 127.114 40.8219 127.114 41.238C127.114 41.6541 127.24 42.0809 127.493 42.5132C127.847 43.1253 128.462 43.4743 129.332 43.5629C129.579 43.5897 129.981 43.6031 130.54 43.6031C130.762 43.6031 131.055 43.5682 131.415 43.4984C131.536 43.4743 131.697 43.4367 131.903 43.3857H131.898Z" fill="var(--fill-0, #FFC425)"/>
<path id="Vector_30" d="M133.588 44.5485C133.588 44.7418 133.392 44.8384 133.006 44.8384C132.732 44.8384 132.536 44.7498 132.413 44.5673C132.413 41.241 132.539 38.6987 132.791 36.9403C132.912 36.9832 132.982 37.0047 133.003 37.0047C133.038 37.0047 133.137 36.9537 133.309 36.849C133.478 36.747 133.578 36.696 133.607 36.696C133.766 36.696 133.846 36.8007 133.846 37.0101C133.846 38.3068 133.784 39.5363 133.661 40.6961C134.474 40.4652 135.68 39.9793 137.277 39.2383C137.478 39.5605 137.578 39.8075 137.578 39.9846C137.288 40.2719 136.92 40.4974 136.474 40.6638C136.158 40.7847 135.79 40.9243 135.374 41.08C134.958 41.2384 134.619 41.4182 134.362 41.6196C134.649 41.7753 135.102 41.9927 135.723 42.2746L137.325 43.0129C137.908 43.2787 138.413 43.5686 138.837 43.88C139.001 43.931 139.081 44.033 139.081 44.1834C139.081 44.3767 138.907 44.5565 138.555 44.723C138.335 44.6344 137.556 44.2639 136.217 43.6169C135.274 43.1632 134.453 42.8652 133.76 42.7256C133.757 43.2652 133.752 43.5767 133.749 43.6545C133.728 44.0465 133.677 44.3445 133.594 44.5512L133.588 44.5485Z" fill="var(--fill-0, #FFC425)"/>
<path id="Vector_31" d="M1.45506 33.6756C0.896662 33.6756 0.617462 33.5091 0.617462 33.1789C0.617462 32.9507 0.738269 32.6715 0.982569 32.3413C6.26321 30.3332 8.90487 28.4459 8.90487 26.6822C8.90487 25.8097 8.22298 24.8405 6.85919 23.7747C5.584 22.8324 4.30612 21.8794 3.03093 20.9183C1.66715 19.7478 0.985254 18.6229 0.985254 17.5384C0.985254 16.3169 1.80675 15.0068 3.44973 13.6081C4.60412 12.647 5.98669 11.7557 7.59478 10.9369C8.29278 10.5691 8.89682 10.3892 9.40421 10.3892C9.8069 10.3892 10.1559 10.4859 10.4539 10.6765C10.8217 10.8859 11.0042 11.1758 11.0042 11.5409C11.0042 11.7691 10.9425 11.9946 10.8217 12.2228C10.6472 12.502 10.2364 12.7651 9.58945 13.0094C8.59345 13.3772 7.64847 13.9249 6.75718 14.6578C5.65649 15.5491 5.10614 16.4135 5.10614 17.2511C5.10614 18.0887 5.68065 19.0176 6.83503 20.0807C7.93572 21.0069 9.02568 21.9331 10.1103 22.8593C11.2808 24.0136 11.866 25.0955 11.866 26.1076C11.866 28.2016 9.33441 30.4889 4.27659 32.9722C3.31818 33.442 2.37588 33.6783 1.44969 33.6783L1.45506 33.6756Z" fill="var(--fill-0, #231F20)"/>
<path id="Vector_32" d="M1.45506 33.6756C0.896662 33.6756 0.617462 33.5091 0.617462 33.1789C0.617462 32.9507 0.738269 32.6715 0.982569 32.3413C6.26321 30.3332 8.90487 28.4459 8.90487 26.6822C8.90487 25.8097 8.22298 24.8405 6.85919 23.7747C5.584 22.8324 4.30612 21.8794 3.03093 20.9183C1.66715 19.7478 0.985254 18.6229 0.985254 17.5384C0.985254 16.3169 1.80675 15.0068 3.44973 13.6081C4.60412 12.647 5.98669 11.7557 7.59478 10.9369C8.29278 10.5691 8.89682 10.3892 9.40421 10.3892C9.8069 10.3892 10.1559 10.4859 10.4539 10.6765C10.8217 10.8859 11.0042 11.1758 11.0042 11.5409C11.0042 11.7691 10.9425 11.9946 10.8217 12.2228C10.6472 12.502 10.2364 12.7651 9.58945 13.0094C8.59345 13.3772 7.64847 13.9249 6.75718 14.6578C5.65649 15.5491 5.10614 16.4135 5.10614 17.2511C5.10614 18.0887 5.68065 19.0176 6.83503 20.0807C7.93572 21.0069 9.02568 21.9331 10.1103 22.8593C11.2808 24.0136 11.866 25.0955 11.866 26.1076C11.866 28.2016 9.33441 30.4889 4.27659 32.9722C3.31818 33.442 2.37588 33.6783 1.44969 33.6783L1.45506 33.6756Z" stroke="var(--stroke-0, #231F20)" stroke-width="1.23492"/>
<path id="Vector_33" d="M30.0247 30.3147C29.7267 30.7872 29.3589 31.0208 28.9213 31.0208C27.834 31.0208 27.2917 30.2262 27.2917 28.6395V24.7388C24.532 24.7737 21.3722 25.4636 17.8097 26.8113C17.8714 28.5778 17.9761 30.0731 18.1238 31.2973C17.807 31.7698 17.4338 32.0061 16.9962 32.0061C15.8955 32.0061 15.3452 30.8517 15.3452 28.5483V26.3469C15.3452 22.575 15.1546 19.0018 14.7707 15.6326C14.5962 14.0433 14.5103 13.3023 14.5103 13.4044C14.5103 12.8621 14.8432 12.5936 15.5116 12.5936C15.9573 12.5936 16.3707 12.7064 16.7573 12.9345C17.1412 13.1627 17.3345 13.4956 17.3345 13.9305V14.2446C17.3291 14.403 17.3291 14.5158 17.3345 14.5856C17.3345 14.446 17.3721 14.9185 17.4499 16.0004C17.5063 16.9239 17.5922 19.4367 17.7077 23.5361C18.9292 23.3804 22.0943 22.7065 27.2058 21.5173C27.1011 19.281 26.9427 17.2111 26.7333 15.3051C26.7145 15.1816 26.6447 14.7091 26.5239 13.8876C26.4192 13.2943 26.3655 12.8137 26.3655 12.4459C26.3655 11.9063 26.7038 11.6325 27.383 11.6325C27.8501 11.6325 28.2689 11.7292 28.6314 11.9198C29.0663 12.1641 29.2837 12.505 29.2837 12.9426V13.3372C29.2784 13.5117 29.2784 13.6433 29.2837 13.7292C29.2837 14.0782 29.2998 14.5399 29.3347 15.1171C29.3992 15.85 29.4341 16.3064 29.4341 16.4809C29.4663 17.3185 29.5253 19.6273 29.6086 23.3965C29.673 26.2261 29.8126 28.5322 30.0247 30.3147Z" fill="var(--fill-0, #231F20)"/>
<path id="Vector_34" d="M30.0247 30.3147C29.7267 30.7872 29.3589 31.0208 28.9213 31.0208C27.834 31.0208 27.2917 30.2262 27.2917 28.6395V24.7388C24.532 24.7737 21.3722 25.4636 17.8097 26.8113C17.8714 28.5778 17.9761 30.0731 18.1238 31.2973C17.807 31.7698 17.4338 32.0061 16.9962 32.0061C15.8955 32.0061 15.3452 30.8517 15.3452 28.5483V26.3469C15.3452 22.575 15.1546 19.0018 14.7707 15.6326C14.5962 14.0433 14.5103 13.3023 14.5103 13.4044C14.5103 12.8621 14.8432 12.5936 15.5116 12.5936C15.9573 12.5936 16.3707 12.7064 16.7573 12.9345C17.1412 13.1627 17.3345 13.4956 17.3345 13.9305V14.2446C17.3291 14.403 17.3291 14.5158 17.3345 14.5856C17.3345 14.446 17.3721 14.9185 17.4499 16.0004C17.5063 16.9239 17.5922 19.4367 17.7077 23.5361C18.9292 23.3804 22.0943 22.7065 27.2058 21.5173C27.1011 19.281 26.9427 17.2111 26.7333 15.3051C26.7145 15.1816 26.6447 14.7091 26.5239 13.8876C26.4192 13.2943 26.3655 12.8137 26.3655 12.4459C26.3655 11.9063 26.7038 11.6325 27.383 11.6325C27.8501 11.6325 28.2689 11.7292 28.6314 11.9198C29.0663 12.1641 29.2837 12.505 29.2837 12.9426V13.3372C29.2784 13.5117 29.2784 13.6433 29.2837 13.7292C29.2837 14.0782 29.2998 14.5399 29.3347 15.1171C29.3992 15.85 29.4341 16.3064 29.4341 16.4809C29.4663 17.3185 29.5253 19.6273 29.6086 23.3965C29.673 26.2261 29.8126 28.5322 30.0247 30.3147Z" stroke="var(--stroke-0, #231F20)" stroke-width="1.23492"/>
<path id="Vector_35" d="M44.6984 20.8618C43.9816 17.3664 43.1279 15.616 42.1319 15.616C41.1359 15.616 39.7587 17.8899 38.1023 22.4376C39.5868 22.1772 41.7855 21.651 44.6984 20.8618ZM48.0219 29.0847C48.0219 29.5035 47.9441 29.8955 47.7857 30.2606C47.5763 30.7331 47.2783 30.9667 46.8971 30.9667C46.4434 30.9667 46.1185 30.5666 45.9279 29.7639C45.9279 29.7452 45.8581 29.1438 45.7185 27.9572C45.5789 26.6337 45.4044 25.2618 45.195 23.8497C42.8218 24.0591 40.0137 24.8618 36.768 26.2578C36.4378 27.184 36.1398 28.0512 35.8794 28.8619C35.619 29.6754 35.3639 30.4619 35.1223 31.2297C34.6686 32.3653 34.1881 32.9345 33.6834 32.9345C33.4391 32.9345 33.2458 32.7331 33.1062 32.3304C33.0176 32.0512 32.9746 31.7532 32.9746 31.4391C32.9746 30.9693 33.3317 29.5626 34.0485 27.2216C34.5881 25.4578 35.0686 23.984 35.4874 22.7947C36.6042 19.651 37.4606 17.4416 38.0539 16.1664C39.5895 12.867 40.9855 11.2159 42.2392 11.2159C43.9655 11.2159 45.45 14.2764 46.6877 20.3946L46.7655 20.3678C47.1655 20.4376 47.4796 20.7356 47.7078 21.2591C47.8823 21.6779 47.9709 22.1235 47.9709 22.5933C47.9709 23.3799 47.7508 23.8148 47.3159 23.9007C47.7857 27.0417 48.0219 28.768 48.0219 29.0821V29.0847Z" fill="var(--fill-0, #231F20)"/>
<path id="Vector_36" d="M44.6984 20.8618C43.9816 17.3664 43.1279 15.616 42.1319 15.616C41.1359 15.616 39.7587 17.8899 38.1023 22.4376C39.5868 22.1772 41.7855 21.651 44.6984 20.8618ZM48.0219 29.0847C48.0219 29.5035 47.9441 29.8955 47.7857 30.2606C47.5763 30.7331 47.2783 30.9667 46.8971 30.9667C46.4434 30.9667 46.1185 30.5666 45.9279 29.7639C45.9279 29.7452 45.8581 29.1438 45.7185 27.9572C45.5789 26.6337 45.4044 25.2618 45.195 23.8497C42.8218 24.0591 40.0137 24.8618 36.768 26.2578C36.4378 27.184 36.1398 28.0512 35.8794 28.8619C35.619 29.6754 35.3639 30.4619 35.1223 31.2297C34.6686 32.3653 34.1881 32.9345 33.6834 32.9345C33.4391 32.9345 33.2458 32.7331 33.1062 32.3304C33.0176 32.0512 32.9746 31.7532 32.9746 31.4391C32.9746 30.9693 33.3317 29.5626 34.0485 27.2216C34.5881 25.4578 35.0686 23.984 35.4874 22.7947C36.6042 19.651 37.4606 17.4416 38.0539 16.1664C39.5895 12.867 40.9855 11.2159 42.2392 11.2159C43.9655 11.2159 45.45 14.2764 46.6877 20.3946L46.7655 20.3678C47.1655 20.4376 47.4796 20.7356 47.7078 21.2591C47.8823 21.6779 47.9709 22.1235 47.9709 22.5933C47.9709 23.3799 47.7508 23.8148 47.3159 23.9007C47.7857 27.0417 48.0219 28.768 48.0219 29.0821V29.0847Z" stroke="var(--stroke-0, #231F20)" stroke-width="1.23492"/>
<path id="Vector_37" d="M66.6028 31.917C66.0095 31.917 65.0806 30.6794 63.8215 28.2095C62.6832 25.9142 61.5396 23.6135 60.3852 21.3154C59.0375 18.8429 57.953 17.608 57.1315 17.608C55.9583 17.608 55.1019 19.5436 54.5596 23.4094C54.4361 24.298 54.2348 26.7169 53.9556 30.6713C53.8697 31.9089 53.6603 32.6821 53.3327 32.9962C53.1233 33.1707 52.9247 33.2566 52.7341 33.2566C52.3341 33.2566 51.9985 32.9264 51.7193 32.2633C51.5126 31.7398 51.4079 31.2431 51.4079 30.7733C51.4079 30.5639 51.4428 30.18 51.5126 29.6216C51.7408 27.686 51.977 25.7504 52.2213 23.8175C52.6938 20.4537 53.2441 17.7932 53.875 15.8415C54.7475 13.1569 55.7543 11.8146 56.8925 11.8146C58.0308 11.8146 59.4027 13.2858 60.9597 16.2254C61.4671 17.1999 62.3584 19.2107 63.6363 22.2551C64.0551 23.2296 64.2994 23.796 64.3692 23.9517C64.7182 24.7517 65.0081 25.2833 65.2363 25.5437C65.341 25.6833 65.4189 25.7531 65.4726 25.7531C65.7008 25.7531 65.8135 25.2377 65.8135 24.2095C65.8135 22.451 65.5451 19.3315 65.0108 14.8536C64.9195 14.2791 64.839 13.6965 64.7692 13.1032C64.6618 12.424 64.6081 11.8495 64.6081 11.3797C64.6081 10.9448 64.7558 10.5609 65.0511 10.2307C65.3464 9.90045 65.7115 9.73401 66.1437 9.73401C67.0968 9.73401 67.6364 10.3971 67.7572 11.7233C67.8135 12.2468 67.8995 14.416 68.0122 18.2362C68.0874 20.5557 68.125 22.2282 68.125 23.2564C68.125 29.0283 67.6176 31.9143 66.6028 31.9143V31.917Z" fill="var(--fill-0, #231F20)"/>
<path id="Vector_38" d="M66.6028 31.917C66.0095 31.917 65.0806 30.6794 63.8215 28.2095C62.6832 25.9142 61.5396 23.6135 60.3852 21.3154C59.0375 18.8429 57.953 17.608 57.1315 17.608C55.9583 17.608 55.1019 19.5436 54.5596 23.4094C54.4361 24.298 54.2348 26.7169 53.9556 30.6713C53.8697 31.9089 53.6603 32.6821 53.3327 32.9962C53.1233 33.1707 52.9247 33.2566 52.7341 33.2566C52.3341 33.2566 51.9985 32.9264 51.7193 32.2633C51.5126 31.7398 51.4079 31.2431 51.4079 30.7733C51.4079 30.5639 51.4428 30.18 51.5126 29.6216C51.7408 27.686 51.977 25.7504 52.2213 23.8175C52.6938 20.4537 53.2441 17.7932 53.875 15.8415C54.7475 13.1569 55.7543 11.8146 56.8925 11.8146C58.0308 11.8146 59.4027 13.2858 60.9597 16.2254C61.4671 17.1999 62.3584 19.2107 63.6363 22.2551C64.0551 23.2296 64.2994 23.796 64.3692 23.9517C64.7182 24.7517 65.0081 25.2833 65.2363 25.5437C65.341 25.6833 65.4189 25.7531 65.4726 25.7531C65.7008 25.7531 65.8135 25.2377 65.8135 24.2095C65.8135 22.451 65.5451 19.3315 65.0108 14.8536C64.9195 14.2791 64.839 13.6965 64.7692 13.1032C64.6618 12.424 64.6081 11.8495 64.6081 11.3797C64.6081 10.9448 64.7558 10.5609 65.0511 10.2307C65.3464 9.90045 65.7115 9.73401 66.1437 9.73401C67.0968 9.73401 67.6364 10.3971 67.7572 11.7233C67.8135 12.2468 67.8995 14.416 68.0122 18.2362C68.0874 20.5557 68.125 22.2282 68.125 23.2564C68.125 29.0283 67.6176 31.9143 66.6028 31.9143V31.917Z" stroke="var(--stroke-0, #231F20)" stroke-width="1.23492"/>
<path id="Vector_39" d="M85.8243 30.4219C85.8243 30.9266 85.588 31.1789 85.1155 31.1789C84.8363 31.1789 84.3558 31.1413 83.6739 31.0608C82.992 30.9829 82.4685 30.9427 82.1007 30.9427C79.5342 30.9427 76.9113 31.4339 74.2402 32.4165C73.9073 32.8541 73.5395 33.0742 73.1395 33.0742C72.0388 33.0742 71.4884 31.9064 71.4884 29.5681C71.4884 29.2352 71.5045 28.8191 71.5341 28.3117C71.5636 27.807 71.5797 27.4929 71.5797 27.3694C71.5797 24.8593 71.5018 22.5667 71.3461 20.4888C71.3112 19.8606 71.1716 18.4753 70.93 16.3276C70.8092 15.2108 70.7475 14.6014 70.7475 14.4967C70.7475 13.9732 71.1314 13.7021 71.8992 13.686C75.6335 12.1316 78.7906 11.3557 81.3732 11.3557C82.5249 11.3557 83.3276 11.4765 83.7813 11.7208C84.4605 12.051 84.8014 12.7383 84.8014 13.7799C84.8014 14.6497 84.5571 15.082 84.0685 15.082C84.0148 15.082 83.8591 15.0551 83.5987 15.0014C82.8309 14.8242 82.0175 14.7356 81.1638 14.7356C78.7745 14.7356 76.3395 15.3477 73.8616 16.5692C73.9287 18.4189 73.9878 20.8378 74.0334 23.8231C75.4294 23.6298 77.1771 23.2915 79.2738 22.8029C82.5759 22.0351 84.3209 21.6324 84.5142 21.5975C84.9142 21.6673 85.239 21.9653 85.4833 22.4888C85.6927 22.9076 85.7974 23.3533 85.7974 23.8231C85.7974 24.6956 85.5343 25.1305 85.0081 25.1305C84.8846 25.1305 84.7531 25.0956 84.6135 25.0258H84.0068C80.9732 24.9721 77.6469 25.6701 74.0334 27.1198V27.8795C74.0334 28.4567 74.0522 28.9265 74.0871 29.2943C76.4684 28.7574 78.812 28.4889 81.1235 28.4889C82.5061 28.4889 83.6336 28.5641 84.5088 28.7117C85.384 28.8594 85.8216 29.4312 85.8216 30.4219H85.8243Z" fill="var(--fill-0, #231F20)"/>
<path id="Vector_40" d="M85.8243 30.4219C85.8243 30.9266 85.588 31.1789 85.1155 31.1789C84.8363 31.1789 84.3558 31.1413 83.6739 31.0608C82.992 30.9829 82.4685 30.9427 82.1007 30.9427C79.5342 30.9427 76.9113 31.4339 74.2402 32.4165C73.9073 32.8541 73.5395 33.0742 73.1395 33.0742C72.0388 33.0742 71.4884 31.9064 71.4884 29.5681C71.4884 29.2352 71.5045 28.8191 71.5341 28.3117C71.5636 27.807 71.5797 27.4929 71.5797 27.3694C71.5797 24.8593 71.5018 22.5667 71.3461 20.4888C71.3112 19.8606 71.1716 18.4753 70.93 16.3276C70.8092 15.2108 70.7475 14.6014 70.7475 14.4967C70.7475 13.9732 71.1314 13.7021 71.8992 13.686C75.6335 12.1316 78.7906 11.3557 81.3732 11.3557C82.5249 11.3557 83.3276 11.4765 83.7813 11.7208C84.4605 12.051 84.8014 12.7383 84.8014 13.7799C84.8014 14.6497 84.5571 15.082 84.0685 15.082C84.0148 15.082 83.8591 15.0551 83.5987 15.0014C82.8309 14.8242 82.0175 14.7356 81.1638 14.7356C78.7745 14.7356 76.3395 15.3477 73.8616 16.5692C73.9287 18.4189 73.9878 20.8378 74.0334 23.8231C75.4294 23.6298 77.1771 23.2915 79.2738 22.8029C82.5759 22.0351 84.3209 21.6324 84.5142 21.5975C84.9142 21.6673 85.239 21.9653 85.4833 22.4888C85.6927 22.9076 85.7974 23.3533 85.7974 23.8231C85.7974 24.6956 85.5343 25.1305 85.0081 25.1305C84.8846 25.1305 84.7531 25.0956 84.6135 25.0258H84.0068C80.9732 24.9721 77.6469 25.6701 74.0334 27.1198V27.8795C74.0334 28.4567 74.0522 28.9265 74.0871 29.2943C76.4684 28.7574 78.812 28.4889 81.1235 28.4889C82.5061 28.4889 83.6336 28.5641 84.5088 28.7117C85.384 28.8594 85.8216 29.4312 85.8216 30.4219H85.8243Z" stroke="var(--stroke-0, #231F20)" stroke-width="1.23492"/>
<path id="Vector_41" d="M90.7343 9.13281C91.5182 9.13281 91.9128 9.8147 91.9128 11.1758C91.9128 12.102 91.6873 13.4282 91.2336 15.1544C90.7262 17.039 90.2215 18.2605 89.7168 18.8189C89.2792 19.3075 88.8255 19.5518 88.3557 19.5518C87.7785 19.5518 87.4912 18.8726 87.4912 17.5115C87.4912 14.3356 88.2752 11.6402 89.8457 9.42275C90.1598 9.22946 90.4551 9.13281 90.7343 9.13281Z" fill="var(--fill-0, #231F20)"/>
<path id="Vector_42" d="M90.7343 9.13281C91.5182 9.13281 91.9128 9.8147 91.9128 11.1758C91.9128 12.102 91.6873 13.4282 91.2336 15.1544C90.7262 17.039 90.2215 18.2605 89.7168 18.8189C89.2792 19.3075 88.8255 19.5518 88.3557 19.5518C87.7785 19.5518 87.4912 18.8726 87.4912 17.5115C87.4912 14.3356 88.2752 11.6402 89.8457 9.42275C90.1598 9.22946 90.4551 9.13281 90.7343 9.13281Z" stroke="var(--stroke-0, #231F20)" stroke-width="1.23492"/>
<path id="Vector_43" d="M94.8364 33.6756C94.2753 33.6756 93.9988 33.5091 93.9988 33.1789C93.9988 32.9507 94.1223 32.6715 94.3639 32.3413C99.6446 30.3332 102.286 28.4459 102.286 26.6822C102.286 25.8097 101.607 24.8405 100.249 23.7747C98.9761 22.8324 97.7116 21.8794 96.4552 20.9183C95.0941 19.7478 94.4149 18.6229 94.4149 17.5384C94.4149 16.3169 95.2337 15.0068 96.8767 13.6081C98.0096 12.647 99.3815 11.7557 100.984 10.9369C101.682 10.5691 102.292 10.3892 102.818 10.3892C103.202 10.3892 103.559 10.4886 103.892 10.6899C104.225 10.8912 104.388 11.1758 104.388 11.5409C104.388 11.7691 104.327 11.9946 104.206 12.2228C104.047 12.502 103.637 12.7651 102.973 13.0094C101.977 13.3772 101.032 13.9249 100.141 14.6578C99.0405 15.5491 98.4902 16.4135 98.4902 17.2511C98.4902 18.0887 99.0754 19.0176 100.246 20.0807C101.328 21.0069 102.412 21.9331 103.494 22.8593C104.665 24.0136 105.25 25.0955 105.25 26.1076C105.25 28.2016 102.721 30.4889 97.6606 32.9722C96.7022 33.442 95.7599 33.6783 94.8337 33.6783L94.8364 33.6756Z" fill="var(--fill-0, #231F20)"/>
<path id="Vector_44" d="M94.8364 33.6756C94.2753 33.6756 93.9988 33.5091 93.9988 33.1789C93.9988 32.9507 94.1223 32.6715 94.3639 32.3413C99.6446 30.3332 102.286 28.4459 102.286 26.6822C102.286 25.8097 101.607 24.8405 100.249 23.7747C98.9761 22.8324 97.7116 21.8794 96.4552 20.9183C95.0941 19.7478 94.4149 18.6229 94.4149 17.5384C94.4149 16.3169 95.2337 15.0068 96.8767 13.6081C98.0096 12.647 99.3815 11.7557 100.984 10.9369C101.682 10.5691 102.292 10.3892 102.818 10.3892C103.202 10.3892 103.559 10.4886 103.892 10.6899C104.225 10.8912 104.388 11.1758 104.388 11.5409C104.388 11.7691 104.327 11.9946 104.206 12.2228C104.047 12.502 103.637 12.7651 102.973 13.0094C101.977 13.3772 101.032 13.9249 100.141 14.6578C99.0405 15.5491 98.4902 16.4135 98.4902 17.2511C98.4902 18.0887 99.0754 19.0176 100.246 20.0807C101.328 21.0069 102.412 21.9331 103.494 22.8593C104.665 24.0136 105.25 25.0955 105.25 26.1076C105.25 28.2016 102.721 30.4889 97.6606 32.9722C96.7022 33.442 95.7599 33.6783 94.8337 33.6783L94.8364 33.6756Z" stroke="var(--stroke-0, #231F20)" stroke-width="1.23492"/>
<path id="Vector_45" d="M1.45506 33.6756C0.896662 33.6756 0.617462 33.5091 0.617462 33.1789C0.617462 32.9507 0.738269 32.6715 0.982569 32.3413C6.26321 30.3332 8.90487 28.4459 8.90487 26.6822C8.90487 25.8097 8.22298 24.8405 6.85919 23.7747C5.584 22.8324 4.30612 21.8794 3.03093 20.9183C1.66715 19.7478 0.985254 18.6229 0.985254 17.5384C0.985254 16.3169 1.80675 15.0068 3.44973 13.6081C4.60412 12.647 5.98669 11.7557 7.59478 10.9369C8.29278 10.5691 8.89682 10.3892 9.40421 10.3892C9.8069 10.3892 10.1559 10.4859 10.4539 10.6765C10.8217 10.8859 11.0042 11.1758 11.0042 11.5409C11.0042 11.7691 10.9425 11.9946 10.8217 12.2228C10.6472 12.502 10.2364 12.7651 9.58945 13.0094C8.59345 13.3772 7.64847 13.9249 6.75718 14.6578C5.65649 15.5491 5.10614 16.4135 5.10614 17.2511C5.10614 18.0887 5.68065 19.0176 6.83503 20.0807C7.93572 21.0069 9.02568 21.9331 10.1103 22.8593C11.2808 24.0136 11.866 25.0955 11.866 26.1076C11.866 28.2016 9.33441 30.4889 4.27659 32.9722C3.31818 33.442 2.37588 33.6783 1.44969 33.6783L1.45506 33.6756Z" fill="var(--fill-0, #E31936)"/>
<path id="Vector_46" d="M30.0247 30.3147C29.7267 30.7872 29.3589 31.0208 28.9213 31.0208C27.834 31.0208 27.2917 30.2262 27.2917 28.6395V24.7388C24.532 24.7737 21.3722 25.4636 17.8097 26.8113C17.8714 28.5778 17.9761 30.0731 18.1238 31.2973C17.807 31.7698 17.4338 32.0061 16.9962 32.0061C15.8955 32.0061 15.3452 30.8517 15.3452 28.5483V26.3469C15.3452 22.575 15.1546 19.0018 14.7707 15.6326C14.5962 14.0433 14.5103 13.3023 14.5103 13.4044C14.5103 12.8621 14.8432 12.5936 15.5116 12.5936C15.9573 12.5936 16.3707 12.7064 16.7573 12.9345C17.1412 13.1627 17.3345 13.4956 17.3345 13.9305V14.2446C17.3291 14.403 17.3291 14.5158 17.3345 14.5856C17.3345 14.446 17.3721 14.9185 17.4499 16.0004C17.5063 16.9239 17.5922 19.4367 17.7077 23.5361C18.9292 23.3804 22.0943 22.7065 27.2058 21.5173C27.1011 19.281 26.9427 17.2111 26.7333 15.3051C26.7145 15.1816 26.6447 14.7091 26.5239 13.8876C26.4192 13.2943 26.3655 12.8137 26.3655 12.4459C26.3655 11.9063 26.7038 11.6325 27.383 11.6325C27.8501 11.6325 28.2689 11.7292 28.6314 11.9198C29.0663 12.1641 29.2837 12.505 29.2837 12.9426V13.3372C29.2784 13.5117 29.2784 13.6433 29.2837 13.7292C29.2837 14.0782 29.2998 14.5399 29.3347 15.1171C29.3992 15.85 29.4341 16.3064 29.4341 16.4809C29.4663 17.3185 29.5253 19.6273 29.6086 23.3965C29.673 26.2261 29.8126 28.5322 30.0247 30.3147Z" fill="var(--fill-0, #E31936)"/>
<path id="Vector_47" d="M44.6984 20.8618C43.9816 17.3664 43.1279 15.616 42.1319 15.616C41.1359 15.616 39.7587 17.8899 38.1023 22.4376C39.5868 22.1772 41.7855 21.651 44.6984 20.8618ZM48.0219 29.0847C48.0219 29.5035 47.9441 29.8955 47.7857 30.2606C47.5763 30.7331 47.2783 30.9667 46.8971 30.9667C46.4434 30.9667 46.1185 30.5666 45.9279 29.7639C45.9279 29.7452 45.8581 29.1438 45.7185 27.9572C45.5789 26.6337 45.4044 25.2618 45.195 23.8497C42.8218 24.0591 40.0137 24.8618 36.768 26.2578C36.4378 27.184 36.1398 28.0512 35.8794 28.8619C35.619 29.6754 35.3639 30.4619 35.1223 31.2297C34.6686 32.3653 34.1881 32.9345 33.6834 32.9345C33.4391 32.9345 33.2458 32.7331 33.1062 32.3304C33.0176 32.0512 32.9746 31.7532 32.9746 31.4391C32.9746 30.9693 33.3317 29.5626 34.0485 27.2216C34.5881 25.4578 35.0686 23.984 35.4874 22.7947C36.6042 19.651 37.4606 17.4416 38.0539 16.1664C39.5895 12.867 40.9855 11.2159 42.2392 11.2159C43.9655 11.2159 45.45 14.2764 46.6877 20.3946L46.7655 20.3678C47.1655 20.4376 47.4796 20.7356 47.7078 21.2591C47.8823 21.6779 47.9709 22.1235 47.9709 22.5933C47.9709 23.3799 47.7508 23.8148 47.3159 23.9007C47.7857 27.0417 48.0219 28.768 48.0219 29.0821V29.0847Z" fill="var(--fill-0, #E31936)"/>
<path id="Vector_48" d="M66.6028 31.917C66.0095 31.917 65.0806 30.6794 63.8215 28.2095C62.6832 25.9142 61.5396 23.6135 60.3852 21.3154C59.0375 18.8429 57.953 17.608 57.1315 17.608C55.9583 17.608 55.1019 19.5436 54.5596 23.4094C54.4361 24.298 54.2348 26.7169 53.9556 30.6713C53.8697 31.9089 53.6603 32.6821 53.3327 32.9962C53.1233 33.1707 52.9247 33.2566 52.7341 33.2566C52.3341 33.2566 51.9985 32.9264 51.7193 32.2633C51.5126 31.7398 51.4079 31.2431 51.4079 30.7733C51.4079 30.5639 51.4428 30.18 51.5126 29.6216C51.7408 27.686 51.977 25.7504 52.2213 23.8175C52.6938 20.4537 53.2441 17.7932 53.875 15.8415C54.7475 13.1569 55.7543 11.8146 56.8925 11.8146C58.0308 11.8146 59.4027 13.2858 60.9597 16.2254C61.4671 17.1999 62.3584 19.2107 63.6363 22.2551C64.0551 23.2296 64.2994 23.796 64.3692 23.9517C64.7182 24.7517 65.0081 25.2833 65.2363 25.5437C65.341 25.6833 65.4189 25.7531 65.4726 25.7531C65.7008 25.7531 65.8135 25.2377 65.8135 24.2095C65.8135 22.451 65.5451 19.3315 65.0108 14.8536C64.9195 14.2791 64.839 13.6965 64.7692 13.1032C64.6618 12.424 64.6081 11.8495 64.6081 11.3797C64.6081 10.9448 64.7558 10.5609 65.0511 10.2307C65.3464 9.90045 65.7115 9.73401 66.1437 9.73401C67.0968 9.73401 67.6364 10.3971 67.7572 11.7233C67.8135 12.2468 67.8995 14.416 68.0122 18.2362C68.0874 20.5557 68.125 22.2282 68.125 23.2564C68.125 29.0283 67.6176 31.9143 66.6028 31.9143V31.917Z" fill="var(--fill-0, #E31936)"/>
<path id="Vector_49" d="M85.8243 30.4219C85.8243 30.9266 85.588 31.1789 85.1155 31.1789C84.8363 31.1789 84.3558 31.1413 83.6739 31.0608C82.992 30.9829 82.4685 30.9427 82.1007 30.9427C79.5342 30.9427 76.9113 31.4339 74.2402 32.4165C73.9073 32.8541 73.5395 33.0742 73.1395 33.0742C72.0388 33.0742 71.4884 31.9064 71.4884 29.5681C71.4884 29.2352 71.5045 28.8191 71.5341 28.3117C71.5636 27.807 71.5797 27.4929 71.5797 27.3694C71.5797 24.8593 71.5018 22.5667 71.3461 20.4888C71.3112 19.8606 71.1716 18.4753 70.93 16.3276C70.8092 15.2108 70.7475 14.6014 70.7475 14.4967C70.7475 13.9732 71.1314 13.7021 71.8992 13.686C75.6335 12.1316 78.7906 11.3557 81.3732 11.3557C82.5249 11.3557 83.3276 11.4765 83.7813 11.7208C84.4605 12.051 84.8014 12.7383 84.8014 13.7799C84.8014 14.6497 84.5571 15.082 84.0685 15.082C84.0148 15.082 83.8591 15.0551 83.5987 15.0014C82.8309 14.8242 82.0175 14.7356 81.1638 14.7356C78.7745 14.7356 76.3395 15.3477 73.8616 16.5692C73.9287 18.4189 73.9878 20.8378 74.0334 23.8231C75.4294 23.6298 77.1771 23.2915 79.2738 22.8029C82.5759 22.0351 84.3209 21.6324 84.5142 21.5975C84.9142 21.6673 85.239 21.9653 85.4833 22.4888C85.6927 22.9076 85.7974 23.3533 85.7974 23.8231C85.7974 24.6956 85.5343 25.1305 85.0081 25.1305C84.8846 25.1305 84.7531 25.0956 84.6135 25.0258H84.0068C80.9732 24.9721 77.6469 25.6701 74.0334 27.1198V27.8795C74.0334 28.4567 74.0522 28.9265 74.0871 29.2943C76.4684 28.7574 78.812 28.4889 81.1235 28.4889C82.5061 28.4889 83.6336 28.5641 84.5088 28.7117C85.384 28.8594 85.8216 29.4312 85.8216 30.4219H85.8243Z" fill="var(--fill-0, #E31936)"/>
<path id="Vector_50" d="M90.7343 9.13281C91.5182 9.13281 91.9128 9.8147 91.9128 11.1758C91.9128 12.102 91.6873 13.4282 91.2336 15.1544C90.7262 17.039 90.2215 18.2605 89.7168 18.8189C89.2792 19.3075 88.8255 19.5518 88.3557 19.5518C87.7785 19.5518 87.4912 18.8726 87.4912 17.5115C87.4912 14.3356 88.2752 11.6402 89.8457 9.42275C90.1598 9.22946 90.4551 9.13281 90.7343 9.13281Z" fill="var(--fill-0, #E31936)"/>
<path id="Vector_51" d="M94.8364 33.6756C94.2753 33.6756 93.9988 33.5091 93.9988 33.1789C93.9988 32.9507 94.1223 32.6715 94.3639 32.3413C99.6446 30.3332 102.286 28.4459 102.286 26.6822C102.286 25.8097 101.607 24.8405 100.249 23.7747C98.9761 22.8324 97.7116 21.8794 96.4552 20.9183C95.0941 19.7478 94.4149 18.6229 94.4149 17.5384C94.4149 16.3169 95.2337 15.0068 96.8767 13.6081C98.0096 12.647 99.3815 11.7557 100.984 10.9369C101.682 10.5691 102.292 10.3892 102.818 10.3892C103.202 10.3892 103.559 10.4886 103.892 10.6899C104.225 10.8912 104.388 11.1758 104.388 11.5409C104.388 11.7691 104.327 11.9946 104.206 12.2228C104.047 12.502 103.637 12.7651 102.973 13.0094C101.977 13.3772 101.032 13.9249 100.141 14.6578C99.0405 15.5491 98.4902 16.4135 98.4902 17.2511C98.4902 18.0887 99.0754 19.0176 100.246 20.0807C101.328 21.0069 102.412 21.9331 103.494 22.8593C104.665 24.0136 105.25 25.0955 105.25 26.1076C105.25 28.2016 102.721 30.4889 97.6606 32.9722C96.7022 33.442 95.7599 33.6783 94.8337 33.6783L94.8364 33.6756Z" fill="var(--fill-0, #E31936)"/>
<path id="Vector_52" d="M131.055 16.4297L131.081 16.615C131.283 16.9586 131.267 17.3854 131.366 17.7693C131.753 17.7989 132.179 17.67 132.536 17.6566V17.6136C132.051 17.2002 131.624 16.6848 131.052 16.4297H131.055ZM130.469 16.2579C130.555 16.7009 130.77 17.1841 130.783 17.6002C130.826 17.7291 130.813 17.8579 130.899 17.9841C130.928 17.9412 130.928 17.8553 130.942 17.815C130.77 17.372 130.8 16.8002 130.657 16.3304C130.585 16.3304 130.528 16.2874 130.472 16.2579H130.469ZM125.76 12.7464C126.246 13.3451 126.716 13.9867 127.216 14.5585C127.645 14.972 127.999 15.3854 128.515 15.6995L128.799 15.4579C128.872 15.372 129.001 15.2565 129.001 15.1438C128.416 14.5156 127.718 14.0592 127.06 13.5464C126.603 13.3746 126.187 13.1062 125.803 12.7491H125.76V12.7464ZM127.259 10.0779L127.216 10.1799C127.315 10.3491 127.232 10.5907 127.146 10.7625C127.001 10.8618 127.001 11.0202 126.944 11.1625C126.816 11.3343 126.901 11.5464 126.918 11.7478C126.904 11.8176 126.848 11.89 126.775 11.9169L127.063 12.2041C127.162 12.2471 127.234 12.4055 127.347 12.3035V10.5773L127.304 10.4779C127.318 10.3356 127.318 10.1799 127.261 10.0779H127.259ZM128.144 5.94093C128.303 5.78522 128.515 5.89798 128.7 5.82818C128.915 5.79865 128.942 6.02684 129.014 6.1557C129.041 6.44295 129.057 6.72752 129.213 6.95572C129.213 7.17048 129.371 7.31277 129.414 7.50875C129.586 8.0403 129.814 8.55038 130.013 9.07925C130.083 9.16515 130.139 9.27791 130.099 9.39335C130.069 9.57858 129.712 9.46315 129.841 9.73429C129.825 9.77725 129.812 9.8202 129.769 9.84973C129.468 9.87926 129.567 9.4363 129.269 9.42019C128.955 9.29133 128.671 9.10609 128.357 8.97723C128.171 10.0618 127.884 11.1867 128.099 12.2713H128.155C128.212 12.4726 128.026 12.6417 128.069 12.8135C128.84 13.4552 129.782 14.0834 130.539 14.7518C131.31 15.1948 131.822 15.7371 132.523 16.2794C132.837 16.8217 133.409 17.1492 133.922 17.5063C134.249 17.7908 134.494 18.0754 134.778 18.4324C134.95 18.7036 134.735 18.9184 134.62 19.1466C134.577 19.1868 134.477 19.1868 134.434 19.1466C134.134 18.8888 133.806 18.6311 133.436 18.5049C132.95 18.5184 132.579 18.4486 132.15 18.6204C131.723 18.8325 131.31 19.0606 130.837 19.1627C130.566 19.0606 130.767 18.8056 130.668 18.6204C130.338 17.7344 130.51 16.666 129.812 15.9384C129.256 16.0968 129.028 16.7519 128.7 17.1787C128.416 17.3505 128.373 16.921 128.201 16.7948C126.501 15.0257 125.076 13.0578 123.363 11.3155C123.119 11.031 122.893 10.7598 122.692 10.4591C122.321 10.5719 122.021 10.988 121.72 11.2565C121.121 11.6431 120.566 12.1558 120.123 12.7276C119.752 12.9854 119.425 13.2699 119.138 13.6404C118.751 13.9116 118.44 14.2981 118.125 14.6525C117.884 14.8968 117.682 15.2109 117.427 15.423C116.7 16.3787 115.672 17.1224 115.06 18.1345C114.719 18.5774 114.332 18.9774 114.048 19.4768V19.5627C114.233 19.8499 114.348 20.1909 114.633 20.4486L114.649 20.6634C114.775 20.8486 115.162 21.0043 115.046 21.305C115.148 21.4902 115.403 21.6916 115.261 21.9037C115.304 21.9896 115.205 22.0325 115.148 22.0459C114.947 22.0594 114.877 21.8177 114.705 21.7184C114.362 21.4902 114.061 21.0338 113.607 21.0338C113.121 21.4607 112.95 22.062 112.635 22.5909C112.335 22.7466 112.192 22.2607 111.964 22.207C111.693 22.1211 111.508 21.85 111.207 21.8204C110.665 21.85 110.324 22.3923 109.894 22.6929C109.61 22.7923 109.666 23.2755 109.323 23.1037C109.237 22.905 108.923 22.9184 108.995 22.6634C108.923 22.5345 109.108 22.2929 108.823 22.3063C108.681 22.2634 108.48 22.2768 108.396 22.1345C108.396 21.9627 108.512 21.7479 108.41 21.6057C108.668 20.5667 109.779 20.4513 110.493 19.8795C111.392 19.1922 112.12 18.4512 112.92 17.6244C112.92 17.568 112.864 17.525 112.821 17.5116L112.95 17.611C114.176 16.427 115.532 15.27 116.689 13.9008C117.317 13.2458 118.217 12.9182 118.644 12.0753C119.143 11.3477 119.999 11.0068 120.399 10.2068C120.641 9.90611 120.928 9.63496 121.242 9.46583C121.326 9.46583 121.428 9.50878 121.441 9.59469C121.454 9.80946 121.269 9.95175 121.14 10.094C120.727 10.5236 120.37 11.0229 119.913 11.3773C119.57 11.8202 119.371 12.376 118.915 12.733C117.889 13.4042 117.446 14.4887 116.418 15.1438C115.988 15.5733 115.505 16.0861 115.076 16.5156C115.019 16.827 114.635 16.9586 114.49 17.2136C114.375 17.3291 114.176 17.372 114.206 17.5707C114.12 17.7264 113.948 17.815 113.822 17.9277C112.88 18.7841 111.937 19.6405 111.183 20.6392C111.097 20.752 110.955 20.7412 110.856 20.7949C110.713 20.9372 110.643 21.1359 110.429 21.1788C110.356 21.2486 110.187 21.2916 110.128 21.4365C110.141 21.4795 110.101 21.5224 110.115 21.5654C110.541 21.2808 110.955 20.9667 111.355 20.6795C111.755 20.709 111.956 21.1359 112.254 21.3802H112.337C112.638 21.0822 112.866 20.7815 113.009 20.4244C113.111 20.3385 113.237 20.3546 113.336 20.2956C113.293 20.2526 113.18 20.3117 113.121 20.2392C113.006 20.0378 113.164 19.8258 113.178 19.6244C113.32 19.3103 113.634 19.1117 113.763 18.8244C114.635 17.8391 115.505 16.9425 116.219 15.8982C117.331 14.572 118.772 13.474 119.887 12.0753C120.727 11.3773 121.312 10.4618 122.099 9.66449C121.841 9.27791 121.613 8.85105 121.285 8.51011C121.256 8.43762 121.229 8.3544 121.256 8.28192C121.371 8.22554 121.355 8.08057 121.441 8.01077C121.385 7.95439 121.428 7.8658 121.468 7.82553C121.64 7.71009 121.798 7.86848 121.967 7.85238C122.523 8.02419 123.164 7.96782 123.594 8.45373C123.822 8.6685 123.938 9.00945 124.163 9.26448C124.362 9.53563 124.662 9.72087 124.877 10.0215C124.877 10.137 125.02 10.2068 124.993 10.3491C125.221 10.5209 125.377 10.7491 125.634 10.8779C125.82 11.0068 125.948 11.1894 126.12 11.3477L126.163 11.3209C125.948 10.2927 126.206 9.22422 126.362 8.23896C126.432 8.02688 126.603 7.83895 126.534 7.59734C126.59 7.51143 126.705 7.45505 126.791 7.52754C126.904 7.66982 127.049 7.85238 127.003 8.06715C127.089 8.22285 127.291 8.22285 127.39 8.3544C127.546 8.25507 127.661 8.01077 127.889 8.06715C127.876 7.92486 127.79 7.77989 127.661 7.66982L126.289 6.58524C126.134 6.62819 126.048 6.47248 126.005 6.35705C125.833 6.27114 125.562 6.35705 125.476 6.17181C125.42 6.0859 125.277 6.17181 125.232 6.05637C125.218 5.97315 125.146 5.88724 125.218 5.81475C125.774 5.50065 126.418 5.80133 127.017 5.72885C127.387 5.75838 127.787 5.80133 128.144 5.94093Z" fill="var(--fill-0, #231F20)"/>
<path id="Vector_53" d="M123.094 17.7692C123.167 18.1397 123.025 18.5961 123.108 18.9826C123.121 19.039 123.151 19.2108 123.081 19.2243C122.995 20.3223 122.81 21.5787 123.121 22.6498C123.408 22.7357 123.677 22.9371 123.978 22.9505L123.935 22.4512C123.79 22.2632 123.806 22.0512 123.749 21.8364C123.779 21.9357 123.736 22.0512 123.765 22.1773C123.838 22.3653 123.693 22.5075 123.723 22.7196C123.693 22.819 123.58 22.7599 123.508 22.776C123.379 22.6928 123.408 22.521 123.379 22.3787C123.051 20.7948 123.623 19.2538 123.607 17.7128C123.451 17.7262 123.266 17.7262 123.094 17.7692ZM123.964 16.8994C124.093 17.1571 124.493 16.9853 124.649 17.2269C124.635 17.2994 124.563 17.3692 124.619 17.4551C124.533 17.7397 124.249 17.498 124.106 17.6538C124.034 18.2229 124.047 18.8216 124.093 19.3531C124.136 20.4377 124.136 21.6055 124.421 22.6767C124.437 22.9612 124.45 23.2458 124.52 23.5196C124.52 23.6324 124.434 23.721 124.335 23.7613C123.921 23.6029 123.465 23.4767 123.049 23.4042C122.906 23.2914 122.721 23.2753 122.536 23.2458C122.493 23.3317 122.592 23.474 122.45 23.5196C122.163 23.5331 122.265 23.2055 122.179 23.0498C122.192 21.78 122.149 20.5236 122.265 19.2538C122.235 18.741 122.305 18.1826 122.364 17.6994C122.192 17.6135 121.994 17.5866 121.881 17.3987C121.881 17.286 121.91 17.1705 122.023 17.1276C122.165 17.0846 122.394 17.1839 122.437 16.9719C122.622 16.9289 122.837 16.9853 123.022 17.0309C123.263 16.988 123.607 17.1303 123.706 16.8591C123.749 16.8162 123.808 16.8027 123.865 16.7866C123.937 16.8 123.924 16.8725 123.964 16.8994Z" fill="var(--fill-0, #231F20)"/>
<path id="Vector_54" d="M113.363 18.5695L113.334 18.5127V18.5398L113.363 18.5695Z" fill="var(--fill-0, #231F20)"/>
<path id="Vector_55" d="M120.866 28.0998H120.883V28.0565H120.866V28.0998Z" fill="var(--fill-0, white)"/>
<path id="Vector_56" d="M113.478 29.6971C113.435 29.783 113.392 29.8957 113.508 29.9682C113.58 29.8823 113.494 29.783 113.478 29.6971ZM120.668 19.0955C120.826 19.3371 120.499 19.4955 120.568 19.7667C120.426 20.709 120.482 21.8929 120.509 22.8781C120.525 23.0929 120.48 23.4204 120.539 23.6486H120.552C120.48 23.8473 120.952 24.003 120.638 24.2043C120.982 25.5171 120.982 26.9292 121.465 28.1856C121.538 28.2152 121.607 28.285 121.637 28.3574C121.75 28.3574 121.921 28.2313 121.978 28.4004C121.994 28.4434 121.964 28.5024 122.021 28.5158C122.448 28.4863 122.764 28.2017 123.148 28.0863C123.948 27.7856 124.861 27.7722 125.645 27.4715C126.531 27.4581 127.245 26.9561 128.069 26.8567C127.871 25.8446 127.685 24.7332 127.742 23.6621C127.712 23.2057 127.798 22.7198 127.728 22.2902C127.728 22.1748 127.715 22.0325 127.798 21.9493C128.026 21.9493 127.97 21.5627 128.225 21.6781C128.469 22.2929 128.44 22.9184 128.354 23.603C128.41 24.3735 128.526 25.1171 128.695 25.8285C128.794 25.7856 128.837 25.8849 128.837 25.9574C128.724 26.1587 128.751 26.4433 128.767 26.6849C128.966 26.7145 129.21 26.6581 129.409 26.6151C131.208 26.2151 132.904 25.6728 134.859 25.8742C134.987 25.8876 134.902 26.0755 135.044 26.046C135.914 26.1883 136.899 26.1185 137.739 26.1614C137.911 26.2044 138.096 26.2339 138.225 26.3467C138.281 26.5453 138.01 26.489 137.911 26.5749C137.111 26.5453 136.099 26.5883 135.358 26.6608C135.2 26.6312 135.014 26.6473 134.872 26.6473C133.672 26.5614 132.59 26.7601 131.476 26.948C129.846 27.246 128.136 27.6031 126.509 28.046C126.338 28.1024 126.096 28.1615 125.924 28.2178H125.94V28.2581H125.924V28.2313C125.709 28.3145 125.368 28.344 125.111 28.4729C124.485 28.6877 123.844 28.8997 123.242 29.2299C123.113 29.1575 122.901 29.3991 122.856 29.1575C122.743 29.1414 122.67 29.2299 122.571 29.2407C122.171 29.442 121.801 29.7266 121.401 29.9843C121.073 30.1561 120.759 30.3978 120.389 30.3978C120.346 30.4998 120.23 30.3843 120.16 30.4407C119.889 30.5239 119.591 30.3816 119.304 30.5132C118.933 30.6689 118.421 30.728 118.12 30.9991C117.921 30.94 117.905 31.2273 117.707 31.2407C117.336 31.3696 117.035 31.5414 116.622 31.5709C115.736 31.8421 114.968 32.1132 114.069 32.3978C113.854 32.5105 113.599 32.6099 113.441 32.8112C112.786 32.983 112.327 33.3965 111.774 33.7965C111.615 33.6971 111.575 33.9656 111.43 33.8797C111.4 33.8072 111.315 33.724 111.387 33.6515C111.956 33.179 112.6 32.8381 113.183 32.4246C113.725 32.1938 114.225 31.9119 114.74 31.6246C114.67 31.5387 114.555 31.4528 114.426 31.426C114.396 31.4823 114.442 31.5817 114.34 31.5817C114.098 31.5092 113.841 31.4958 113.57 31.426C113.454 31.3374 113.269 31.3803 113.156 31.3239C112.928 31.3105 112.686 31.3803 112.501 31.238C112.515 31.1253 112.458 30.9964 112.557 30.9105C112.058 30.7119 111.545 31.026 111.03 31.0394C110.719 31.0823 110.289 31.0958 109.959 31.026C109.932 31.085 109.889 31.026 109.859 31.026C109.602 31.0555 109.36 30.9266 109.132 30.881C108.732 30.7548 108.348 30.5803 107.978 30.3978C107.72 30.3548 107.365 30.4273 107.178 30.2286C107.204 30.1293 107.164 30.0004 107.293 29.9414C107.806 29.7561 108.335 29.9709 108.818 30.0407C109.76 30.0407 110.786 30.1266 111.655 30.2984C112.112 30.1696 112.584 30.3118 113.041 30.1696L113.07 30.1266C113.041 29.3427 113.17 28.5266 113.226 27.7588C113.199 27.5172 113.213 27.1735 113.213 26.948C113.255 26.6339 113.255 26.3332 113.269 26.0057C113.226 25.2782 113.312 24.4513 113.196 23.7104C113.239 23.6379 113.223 23.5251 113.325 23.509C113.511 23.4956 113.712 23.5949 113.894 23.5359C114.152 23.7372 113.937 24.0218 113.967 24.2929C113.937 25.791 113.811 27.2729 114.023 28.6715C114.037 29.2138 114.066 29.783 114.05 30.3548C114.48 30.7119 115.178 30.4837 115.478 31.0689C115.492 31.1548 115.449 31.1951 115.508 31.2676C116.619 30.8407 117.733 30.3843 118.917 30.0998C118.931 29.842 119.245 29.7722 119.374 29.6004C119.317 29.6138 119.215 29.6004 119.159 29.6863C119.215 29.7427 119.129 29.6138 119.1 29.6863C118.885 29.8555 118.544 30.0273 118.246 30.0407C118.16 30.0004 118.117 29.8716 118.174 29.7857C118.316 29.6998 118.445 29.6138 118.56 29.5279C118.26 29.5011 117.962 29.8555 117.69 29.5414C117.776 29.1709 118.26 29.2863 118.461 29.0286C118.646 28.9158 118.874 28.8595 119.076 28.787C119.36 28.7413 119.631 28.5856 119.903 28.5024C120.115 28.4299 120.359 28.4165 120.531 28.2876C120.418 26.9749 120.018 25.748 119.959 24.4218C119.803 23.8231 119.876 23.1949 119.731 22.5963C119.658 21.6969 119.645 20.8835 119.688 19.9143C119.529 19.9009 119.387 20.0432 119.231 20.0861C118.762 20.1989 118.319 20.3707 117.846 20.4271C117.674 20.513 117.403 20.47 117.261 20.6123C117.532 21.1976 117.446 21.8687 117.503 22.4942C117.674 23.1654 117.717 23.8929 117.731 24.607C117.814 25.007 117.83 25.45 118.002 25.8178C118.131 26.5319 118.217 27.2031 118.359 27.9011C118.458 28.2313 118.488 28.5561 118.445 28.8997C118.217 29.085 117.959 29.2004 117.674 29.2434C117.489 29.1601 117.618 28.9293 117.562 28.7736C117.433 28.5024 117.562 28.1749 117.562 27.9037C117.36 26.4487 117.218 24.9641 117.132 23.4661C117.046 22.8379 117.003 22.1963 116.617 21.6969C116.617 21.4983 116.603 21.2969 116.788 21.1976C116.689 20.913 116.517 21.2405 116.388 21.254C116.16 21.4258 115.86 21.5546 115.618 21.4123C115.476 21.2701 115.733 21.1278 115.575 21.0123C115.605 20.913 115.634 20.7976 115.747 20.7546C115.817 20.7546 115.817 20.6848 115.862 20.6419C115.747 20.5721 115.79 20.4432 115.819 20.3412C116.005 20.1855 116.276 20.2284 116.49 20.1425C117.175 19.8284 117.929 19.6727 118.617 19.3989C119.086 19.3586 119.559 19.1975 120.042 19.1573C120.214 19.0982 120.313 18.913 120.512 18.9425L120.654 19.1009L120.668 19.0955Z" fill="var(--fill-0, #231F20)"/>
<path id="Vector_57" d="M47.4987 4.53924L47.6087 4.61173C49.2383 4.57683 50.6826 4.57683 52.1269 5.16744C52.6075 5.01711 53.2384 5.24261 53.5713 4.79697C53.7565 4.94731 53.7565 4.6869 53.9417 4.6869C54.6478 4.46408 55.276 4.61173 55.7941 5.09496C56.3123 5.20503 57.0908 4.53924 57.3136 5.24261L57.4613 5.79833C57.166 5.83323 56.9431 6.13122 56.6478 6.20639C56.3525 6.27888 56.6102 6.61445 56.425 6.76211H55.7216L55.7941 6.64935C55.5364 6.57418 55.4237 6.09364 55.0532 6.24129C54.7928 6.42653 54.4223 6.5366 54.0894 6.38894C53.9793 6.12854 53.6062 6.24129 53.386 6.16612C53.2008 6.20371 52.9028 6.27619 52.6451 6.23861C51.7941 6.20102 50.9779 6.16612 50.1618 6.34868C49.5685 6.23861 49.2732 5.79296 48.6423 5.83054C48.1618 5.46007 47.6785 6.09095 47.1228 5.90571C46.7899 6.20371 46.3819 6.38894 45.9738 6.20371C45.6785 5.79564 45.308 5.27751 45.4557 4.7218C46.0839 4.27615 46.6772 4.79697 47.3456 4.68421L47.496 4.53656L47.4987 4.53924Z" fill="var(--fill-0, #BEC0C2)"/>
<path id="Vector_58" d="M110.769 6.09406C110.657 6.20681 110.471 6.16923 110.434 6.35447C110.544 6.76253 110.063 6.8726 110.176 7.24307C110.286 7.28066 110.324 7.133 110.399 7.09542C110.622 7.05783 110.769 7.24307 110.954 7.31824C111.212 7.24307 111.658 7.24307 111.695 6.8726C111.397 6.57729 111.325 5.98399 110.769 6.09406ZM114.769 4.87256C115.25 5.20545 115.768 5.28062 116.289 5.50344C116.584 5.0578 116.92 4.68732 117.105 4.24436C116.254 4.35443 115.698 4.91014 114.772 4.87524L114.769 4.87256ZM76.9834 4.35174C76.8733 4.38933 76.7981 4.53698 76.6881 4.38933C75.9471 4.68463 75.131 4.72222 74.3176 4.90746C73.9471 4.7947 73.539 5.05511 73.1685 5.13028C72.2423 5.20545 71.3162 5.53834 70.39 5.72358C69.9067 5.61083 69.4262 5.90882 68.9456 5.87123C68.2799 6.24171 67.5013 6.01889 66.7953 6.3142C66.6476 6.38937 66.2771 6.20413 66.202 6.46185C66.7953 6.6095 67.8691 6.49943 68.5 6.42427C69.1282 6.49675 69.7215 6.16654 70.3524 6.12627C70.6853 6.42427 71.0558 6.0162 71.3886 6.08869C72.092 5.7558 72.9833 5.71821 73.6115 5.38532C74.8706 5.05243 76.0948 5.12491 77.3539 4.75443L77.5015 4.60678C77.7995 4.79202 77.872 4.2363 78.0948 4.5343C78.3928 4.19872 78.9109 4.57188 79.1687 4.19872C78.4653 3.86583 77.7619 4.5343 76.9834 4.34637V4.35174ZM112.842 3.79871C112.732 3.68596 112.546 3.79871 112.509 3.61347C112.101 3.8363 111.806 4.20409 111.36 4.4296L111.768 4.50477C112.436 4.20677 113.14 4.69 113.733 4.80007C113.808 4.65242 114.179 4.83497 114.028 4.57725C113.881 4.65242 113.695 4.4645 113.583 4.39201L112.842 3.79871ZM90.4682 3.72354C90.3581 3.79871 90.1353 3.72354 89.9877 3.64837C90.0252 3.50072 90.3581 3.61079 90.4682 3.72354ZM122.439 1.20269C122.327 1.38793 122.031 1.31276 121.846 1.38793C121.956 1.24027 122.254 0.979865 122.439 1.20269ZM123.215 0.574488C123.253 0.38925 123.4 0.276496 123.586 0.241596C123.808 0.27918 124.031 0.241596 124.179 0.464419C124.437 1.16779 123.253 1.57585 123.921 2.24163C124.141 2.68728 124.662 3.02017 124.957 3.2779C125.218 3.42555 125.438 3.61079 125.736 3.68596C126.144 3.35306 125.698 2.46446 126.402 2.53694C126.515 3.05507 126.439 3.61079 126.402 4.1316C126.549 4.27926 126.587 4.53967 126.515 4.7598C126.367 4.98263 126.106 4.94504 125.884 4.94504C125.698 4.64705 125.29 4.4994 124.957 4.35174C124.995 4.05643 124.662 4.20409 124.549 4.05643C124.364 3.83361 124.031 3.72354 123.884 3.46313C123.808 3.42555 123.733 3.39065 123.661 3.31548C123.623 3.46313 123.698 3.68327 123.808 3.83361C124.069 3.94368 123.884 4.01885 124.106 4.20409C123.886 4.83229 125.328 4.61215 124.552 5.20545C124.254 5.20545 123.959 5.0578 123.774 4.79739C123.403 4.64973 123.145 4.24167 122.96 3.94637C122.662 3.61347 122.885 3.16783 122.552 2.83493C122.477 2.61211 122.737 2.3168 122.477 2.13156C122.034 2.3168 121.588 2.3168 121.255 2.68728C120.995 2.50204 120.847 2.87252 120.59 2.945C120.367 2.87252 120.294 3.243 120.071 3.05507C120.037 3.20541 119.776 3.24031 119.886 3.42555C119.739 3.5732 119.516 3.75844 119.516 3.98127C119.07 3.98127 118.7 4.4994 118.404 4.83229C118.514 5.0927 118.144 5.16787 118.109 5.388C117.886 5.90613 117.406 6.38937 117.22 6.97998C116.888 7.16522 116.887 7.94376 116.332 7.7961C116.257 7.72362 116.184 7.61087 116.034 7.64845C115.849 8.01893 115.701 7.42563 115.478 7.64845C115.108 7.46321 114.775 6.75984 114.257 7.01757L114.294 7.16522C114.071 7.27529 113.666 7.27529 113.443 7.16522C113.108 6.83233 112.997 6.3491 112.85 5.90613C112.294 5.61083 111.518 5.53566 110.96 5.75848C110.332 5.57593 109.516 5.388 109.035 6.01889C108.922 5.83365 108.404 6.12896 108.589 5.72358C108.627 5.53834 108.847 5.39069 108.699 5.16787C108.144 5.31552 107.478 5.61083 106.809 5.50076C106.659 5.75848 106.329 5.57593 106.216 5.87123C105.588 5.57593 105.142 6.35178 104.477 6.3142C104.179 6.3142 103.808 6.5746 103.55 6.27661C103.105 6.23903 102.772 5.49807 102.254 5.79607C101.18 5.61083 100.068 5.87123 98.957 5.7209C98.3261 5.68331 97.6603 5.60814 97.0294 5.79607C96.5864 5.79607 96.1408 5.46317 95.7327 5.7209C94.7341 6.09137 93.585 5.7558 92.5112 5.7558C92.2884 6.08869 91.9904 5.7209 91.6951 5.68331C91.585 5.38532 91.287 5.46049 91.1018 5.35042L90.8789 5.42559C90.8414 5.35042 90.8414 5.24035 90.7313 5.24035C90.2856 5.20277 89.8803 4.97994 89.4722 5.01753C88.6185 4.68463 87.8426 4.53698 86.9165 4.35174C86.3983 4.05643 85.7674 4.27657 85.2493 4.05643C84.4708 3.98395 83.6197 3.64837 82.8788 4.20409C82.3607 4.42691 81.5821 4.27926 80.9888 4.1665C80.766 4.57456 80.0626 4.24167 79.8022 4.60947L79.6922 4.4994C79.174 4.72222 78.7284 4.72222 78.1351 4.86987C77.6545 5.20277 76.876 5.1276 76.3579 5.388C75.7646 5.42559 75.2464 5.61083 74.6907 5.7209C74.6155 5.94372 74.2827 5.7209 74.1726 5.90613C73.6545 6.20413 73.1739 5.94372 72.6907 6.27661C72.4303 6.16654 72.2101 6.49943 71.9121 6.38937C71.5041 6.97998 70.951 6.27661 70.5054 6.68467C69.8772 6.64709 69.394 6.9075 68.7282 6.98267C66.4328 7.31824 64.1348 7.02025 61.9119 6.80011C61.4287 6.57729 60.6529 6.68736 60.6529 5.9464C61.0985 5.42827 61.8019 5.98399 62.4301 5.90882C63.7643 6.42695 65.0583 5.72358 66.3926 5.79875L66.763 5.57593C66.653 5.31552 66.5053 5.09538 66.7255 4.83229C67.206 4.42691 67.9094 4.38933 68.3926 3.94368C68.6879 3.98126 68.9483 3.98127 69.2812 4.09133C69.8369 4.05375 70.4302 4.12892 70.9484 4.09133C71.2813 4.31416 71.5766 3.98127 71.9095 4.09133C73.2061 4.12892 74.2048 3.31548 75.3914 3.20273C76.0948 2.90473 76.9109 2.86983 77.6867 2.79466C78.6881 2.6846 79.5042 3.3128 80.3928 3.09266C81.0962 3.20273 82.06 3.16514 82.911 3.16514C83.3191 2.86983 83.8372 2.83225 84.3177 2.64701C85.1339 2.64701 86.095 1.61075 86.8359 2.53426C87.5769 2.7195 88.2051 2.60943 88.9836 2.64701C89.5769 2.23895 90.3528 2.42419 90.9085 2.6846C91.279 2.9799 91.6494 3.42555 92.0951 3.53562C92.1327 3.83361 92.5407 3.61079 92.6884 3.75844C93.1716 4.09133 93.9099 3.83361 94.3555 4.12892C95.4643 4.42423 96.8361 4.7947 97.9126 4.38933C98.7637 3.61079 99.6174 4.64973 100.541 4.20409C101.209 4.1665 101.69 3.76113 102.393 3.79871C102.466 3.90878 102.541 3.90878 102.616 3.8363C102.801 4.27926 103.282 4.20677 103.615 4.4296L104.283 4.24436C105.097 4.54235 106.098 4.61483 106.911 4.31953V4.24436C107.209 4.4296 107.395 4.0967 107.652 4.0967C108.503 4.4296 109.21 3.91146 110.061 3.98663C110.503 3.8014 111.099 4.05912 111.467 3.57857C111.913 3.50609 111.838 2.98527 111.95 2.65238C111.84 2.09667 111.693 1.35571 111.655 0.652342C111.803 0.391934 112.136 0.467103 112.359 0.504688C113.1 1.09799 112.396 2.43224 113.397 2.98527C113.73 3.24568 114.026 3.61616 114.434 3.65374C114.509 4.02422 115.102 3.8014 115.36 3.87656L115.508 3.72891C115.47 3.83898 115.583 3.83898 115.62 3.87656C115.843 3.91415 115.953 3.61616 116.176 3.61616C116.732 3.43092 117.212 3.06044 117.843 3.06044C117.994 2.8752 118.214 2.95037 118.399 2.8752L119.363 2.39466C119.586 1.72619 120.289 1.69129 120.584 1.0604C120.807 0.83758 121.102 0.689926 121.14 0.391934C121.25 0.577173 121.363 0.319449 121.473 0.354349C121.51 0.0214571 121.881 0.169111 122.066 0.0214571C122.657 -0.126197 122.732 0.539588 123.215 0.577173V0.574488Z" fill="var(--fill-0, #BEC0C2)"/>
<path id="Vector_59" d="M139.823 47.2517L139.777 46.5591C139.772 46.4705 139.777 46.3604 139.774 46.2477H139.766C139.737 46.3551 139.702 46.4759 139.667 46.5752L139.428 47.2356H139.294L139.06 46.5591C139.031 46.4678 139.001 46.3551 138.977 46.2477H138.969C138.969 46.3578 138.969 46.4544 138.964 46.5591L138.921 47.2517H138.754L138.845 46.1027H139.071L139.296 46.7256C139.326 46.8115 139.347 46.9081 139.377 47.0128H139.382C139.409 46.9054 139.433 46.8061 139.463 46.7229L139.688 46.1027H139.911L139.997 47.2517H139.823ZM138.714 46.1027V46.2504H138.362V47.249H138.19V46.2504H137.844V46.1027H138.717H138.714Z" fill="var(--fill-0, #231F20)"/>
</g>
</svg>
