<svg preserveAspectRatio="xMidYMid meet" width="100%" height="100%" overflow="visible" style="display: block;" viewBox="0 0 22 17" fill="none" xmlns="http://www.w3.org/2000/svg">
<path id="Vector" d="M0 15.5C0 15.1022 0.158035 14.7206 0.43934 14.4393C0.720644 14.158 1.10218 14 1.5 14H20.5C20.8978 14 21.2794 14.158 21.5607 14.4393C21.842 14.7206 22 15.1022 22 15.5C22 15.8978 21.842 16.2794 21.5607 16.5607C21.2794 16.842 20.8978 17 20.5 17H1.5C1.10218 17 0.720644 16.842 0.43934 16.5607C0.158035 16.2794 0 15.8978 0 15.5ZM20.5 0H1.5C1.10218 0 0.720644 0.158035 0.43934 0.43934C0.158035 0.720644 0 1.10218 0 1.5C0 1.89782 0.158035 2.27936 0.43934 2.56066C0.720644 2.84196 1.10218 3 1.5 3H20.5C20.8978 3 21.2794 2.84196 21.5607 2.56066C21.842 2.27936 22 1.89782 22 1.5C22 1.10218 21.842 0.720644 21.5607 0.43934C21.2794 0.158035 20.8978 0 20.5 0ZM1.5 10H20.5C20.8978 10 21.2794 9.84196 21.5607 9.56066C21.842 9.27936 22 8.89782 22 8.5C22 8.10218 21.842 7.72064 21.5607 7.43934C21.2794 7.15804 20.8978 7 20.5 7H1.5C1.10218 7 0.720644 7.15804 0.43934 7.43934C0.158035 7.72064 0 8.10218 0 8.5C0 8.89782 0.158035 9.27936 0.43934 9.56066C0.720644 9.84196 1.10218 10 1.5 10Z" fill="var(--fill-0, black)"/>
</svg>
