<svg preserveAspectRatio="xMidYMid meet" width="100%" height="100%" overflow="visible" style="display: block;" viewBox="0 0 35 35" fill="none" xmlns="http://www.w3.org/2000/svg">
<g id="List &#226;&#134;&#146; Item &#226;&#134;&#146; Link" clip-path="url(#clip0_7750_9493)">
<path id="Vector" d="M23.5156 21.1572C23.4701 21.4762 23.3789 21.7839 23.2422 22.0801C23.1055 22.3763 22.9118 22.6497 22.6611 22.9004C22.4561 23.0827 22.2282 23.2251 21.9775 23.3276C21.7269 23.4302 21.4762 23.4928 21.2256 23.5156C20.9521 23.584 20.6673 23.6239 20.3711 23.6353C20.0749 23.6466 19.7786 23.6523 19.4824 23.6523C18.571 23.6523 17.6481 23.6523 16.7139 23.6523C15.7796 23.6523 14.8568 23.6296 13.9453 23.584C13.8086 23.584 13.6776 23.5726 13.5522 23.5498C13.4269 23.527 13.3073 23.5042 13.1934 23.4814C12.8971 23.4359 12.618 23.339 12.356 23.1909C12.0939 23.0428 11.849 22.8548 11.6211 22.627C11.4388 22.3991 11.2907 22.1655 11.1768 21.9263C11.0628 21.687 10.9945 21.4535 10.9717 21.2256C10.9261 20.9294 10.8976 20.6331 10.8862 20.3369C10.8748 20.0407 10.8691 19.7445 10.8691 19.4482C10.8691 18.6051 10.8691 17.7677 10.8691 16.936C10.8691 16.1043 10.8691 15.2669 10.8691 14.4238C10.8691 14.3555 10.8805 14.2814 10.9033 14.2017C10.9261 14.1219 10.9375 14.0365 10.9375 13.9453C10.9375 13.7402 10.9603 13.5295 11.0059 13.313C11.0514 13.0965 11.1198 12.8743 11.2109 12.6465C11.2793 12.4186 11.3932 12.2078 11.5527 12.0142C11.7122 11.8205 11.8945 11.6439 12.0996 11.4844C12.3503 11.2793 12.6237 11.1312 12.9199 11.04C13.2161 10.9489 13.5238 10.8919 13.8428 10.8691C14.0706 10.8464 14.2985 10.835 14.5264 10.835C14.7542 10.835 14.9935 10.835 15.2441 10.835C16.0189 10.835 16.7879 10.835 17.5513 10.835C18.3146 10.835 19.0837 10.8464 19.8584 10.8691C20.0863 10.8691 20.3141 10.8805 20.542 10.9033C20.7699 10.9261 20.9977 10.9489 21.2256 10.9717C21.5674 11.04 21.875 11.1426 22.1484 11.2793C22.4219 11.416 22.6839 11.6211 22.9346 11.8945C23.1169 12.1224 23.265 12.356 23.3789 12.5952C23.4928 12.8345 23.5612 13.0908 23.584 13.3643C23.6296 13.6377 23.658 13.9168 23.6694 14.2017C23.6808 14.4865 23.6865 14.777 23.6865 15.0732C23.6865 15.8936 23.6865 16.6968 23.6865 17.4829C23.6865 18.269 23.6637 19.0609 23.6182 19.8584C23.5954 20.0635 23.584 20.2686 23.584 20.4736C23.584 20.6787 23.5612 20.9066 23.5156 21.1572ZM17.2266 13.2617C16.1328 13.2617 15.1815 13.6548 14.3726 14.4409C13.5636 15.2271 13.1706 16.2126 13.1934 17.3975C13.2161 18.4456 13.6149 19.3685 14.3896 20.166C15.1644 20.9635 16.1442 21.3509 17.3291 21.3281C18.3773 21.3053 19.3001 20.9066 20.0977 20.1318C20.8952 19.3571 21.2826 18.3773 21.2598 17.1924C21.237 16.0986 20.8439 15.1701 20.0806 14.4067C19.3172 13.6434 18.3659 13.2617 17.2266 13.2617ZM21.4307 20.5078C21.18 20.485 20.9578 20.5762 20.7642 20.7812C20.5705 20.9863 20.4736 21.2256 20.4736 21.499C20.4736 21.7041 20.5648 21.9035 20.7471 22.0972C20.9294 22.2909 21.1572 22.3877 21.4307 22.3877C21.6813 22.3877 21.9035 22.2909 22.0972 22.0972C22.2909 21.9035 22.3763 21.6585 22.3535 21.3623C22.3535 21.1572 22.2624 20.9578 22.0801 20.7642C21.8978 20.5705 21.6813 20.485 21.4307 20.5078ZM17.4316 19.8584C16.6113 19.9268 15.9562 19.6875 15.4663 19.1406C14.9764 18.5938 14.6973 18.0241 14.6289 17.4316C14.5833 16.6341 14.8283 15.9847 15.3638 15.4834C15.8993 14.9821 16.4632 14.7087 17.0557 14.6631C17.876 14.5947 18.5482 14.8454 19.0723 15.415C19.5964 15.9847 19.847 16.5885 19.8242 17.2266C19.847 17.9557 19.6021 18.5653 19.0894 19.0552C18.5767 19.5451 18.0241 19.8128 17.4316 19.8584ZM17.2266 34.7266C14.834 34.7266 12.6009 34.2822 10.5273 33.3936C8.43099 32.4821 6.60238 31.2459 5.0415 29.6851C3.48063 28.1242 2.24447 26.2956 1.33301 24.1992C0.444336 22.1257 0 19.8926 0 17.5C0 15.1074 0.444336 12.8743 1.33301 10.8008C2.24447 8.70443 3.48063 6.87581 5.0415 5.31494C6.60238 3.75407 8.43099 2.5179 10.5273 1.60645C12.6009 0.717773 14.834 0.273438 17.2266 0.273438C19.6191 0.273438 21.8522 0.717773 23.9258 1.60645C26.0221 2.5179 27.8507 3.75407 29.4116 5.31494C30.9725 6.87581 32.2087 8.70443 33.1201 10.8008C34.0088 12.8743 34.4531 15.1074 34.4531 17.5C34.4531 19.8926 34.0088 22.1257 33.1201 24.1992C32.2087 26.2956 30.9725 28.1242 29.4116 29.6851C27.8507 31.2459 26.0221 32.4821 23.9258 33.3936C21.8522 34.2822 19.6191 34.7266 17.2266 34.7266ZM25.0879 14.4238C25.0879 14.4238 25.0765 14.4181 25.0537 14.4067C25.0309 14.3953 25.0195 14.3896 25.0195 14.3896C24.9967 14.1846 24.9797 13.9795 24.9683 13.7744C24.9569 13.5693 24.9398 13.3757 24.917 13.1934C24.8942 12.9883 24.8543 12.7775 24.7974 12.561C24.7404 12.3446 24.6549 12.1452 24.541 11.9629C24.4043 11.6895 24.2562 11.4331 24.0967 11.1938C23.9372 10.9546 23.7435 10.7438 23.5156 10.5615C23.3561 10.4248 23.1966 10.2995 23.0371 10.1855C22.8776 10.0716 22.6953 9.98047 22.4902 9.91211C22.1484 9.7526 21.7839 9.63867 21.3965 9.57031C21.0091 9.50195 20.6217 9.46777 20.2344 9.46777C20.2116 9.46777 20.1888 9.46777 20.166 9.46777C20.1432 9.46777 20.109 9.45638 20.0635 9.43359C19.1292 9.43359 18.1893 9.43359 17.2437 9.43359C16.298 9.43359 15.3581 9.43359 14.4238 9.43359C14.4238 9.43359 14.4181 9.43929 14.4067 9.45068C14.3953 9.46208 14.3896 9.46777 14.3896 9.46777C14.1846 9.49056 13.9795 9.50765 13.7744 9.51904C13.5693 9.53044 13.3757 9.54753 13.1934 9.57031C12.9655 9.61589 12.749 9.66715 12.5439 9.72412C12.3389 9.78109 12.1452 9.85514 11.9629 9.94629C11.6895 10.083 11.4331 10.2368 11.1938 10.4077C10.9546 10.5786 10.7438 10.7666 10.5615 10.9717C10.4248 11.1312 10.2995 11.2964 10.1855 11.4673C10.0716 11.6382 9.98047 11.8148 9.91211 11.9971C9.7526 12.3617 9.63867 12.7376 9.57031 13.125C9.50195 13.5124 9.46777 13.8883 9.46777 14.2529C9.46777 14.2985 9.46777 14.3327 9.46777 14.3555C9.46777 14.3783 9.45638 14.401 9.43359 14.4238C9.43359 15.3809 9.43359 16.3265 9.43359 17.2607C9.43359 18.195 9.43359 19.1406 9.43359 20.0977C9.43359 20.0977 9.43929 20.1034 9.45068 20.1147C9.46208 20.1261 9.46777 20.1318 9.46777 20.1318C9.49056 20.3141 9.50765 20.5135 9.51904 20.73C9.53044 20.9465 9.54753 21.1458 9.57031 21.3281C9.5931 21.5332 9.63867 21.744 9.70703 21.9604C9.77539 22.1769 9.85514 22.3763 9.94629 22.5586C10.083 22.832 10.2368 23.0884 10.4077 23.3276C10.5786 23.5669 10.7666 23.7777 10.9717 23.96C11.1312 24.0967 11.2964 24.2163 11.4673 24.3188C11.6382 24.4214 11.8148 24.5182 11.9971 24.6094C12.3617 24.7689 12.7376 24.8828 13.125 24.9512C13.5124 25.0195 13.8883 25.0537 14.2529 25.0537C14.2985 25.0537 14.3327 25.0537 14.3555 25.0537C14.3783 25.0537 14.401 25.0651 14.4238 25.0879C15.3581 25.0879 16.298 25.0879 17.2437 25.0879C18.1893 25.0879 19.1292 25.0879 20.0635 25.0879C20.0635 25.0879 20.0749 25.0822 20.0977 25.0708C20.1204 25.0594 20.1318 25.0537 20.1318 25.0537C20.3141 25.0081 20.5078 24.9854 20.7129 24.9854C20.918 24.9854 21.123 24.9626 21.3281 24.917C21.5332 24.8942 21.744 24.8543 21.9604 24.7974C22.1769 24.7404 22.3763 24.6549 22.5586 24.541C22.832 24.4043 23.0884 24.2562 23.3276 24.0967C23.5669 23.9372 23.7777 23.7435 23.96 23.5156C24.0967 23.3561 24.2163 23.1966 24.3188 23.0371C24.4214 22.8776 24.5182 22.7067 24.6094 22.5244C24.7689 22.1598 24.8771 21.7839 24.9341 21.3965C24.991 21.0091 25.0195 20.6217 25.0195 20.2344C25.0195 20.2116 25.0252 20.1888 25.0366 20.166C25.048 20.1432 25.0651 20.1204 25.0879 20.0977C25.0879 19.1406 25.0879 18.195 25.0879 17.2607C25.0879 16.3265 25.0879 15.3809 25.0879 14.4238Z" fill="var(--fill-0, #F8F5EC)"/>
</g>
<defs>
<clipPath id="clip0_7750_9493">
<rect width="35" height="35" fill="white"/>
</clipPath>
</defs>
</svg>
