<svg preserveAspectRatio="xMidYMid meet" width="100%" height="100%" overflow="visible" style="display: block;" viewBox="0 0 35 35" fill="none" xmlns="http://www.w3.org/2000/svg">
<g id="List &#226;&#134;&#146; Item &#226;&#134;&#146; Link" clip-path="url(#clip0_7750_9476)">
<path id="Vector" d="M15.4492 14.6289C16.2012 15.0163 16.9474 15.4093 17.688 15.8081C18.4285 16.2069 19.1748 16.5885 19.9268 16.9531C19.1748 17.3633 18.4229 17.762 17.6709 18.1494C16.9189 18.5368 16.1784 18.9242 15.4492 19.3115C15.4492 18.5368 15.4492 17.762 15.4492 16.9873C15.4492 16.2126 15.4492 15.4264 15.4492 14.6289ZM17.2949 34.3506C14.9023 34.3506 12.6579 33.8949 10.5615 32.9834C8.46517 32.0719 6.63086 30.8358 5.05859 29.2749C3.48633 27.714 2.25586 25.8854 1.36719 23.7891C0.455729 21.6927 0 19.4482 0 17.0557C0 14.6859 0.455729 12.4528 1.36719 10.3564C2.25586 8.2373 3.48633 6.3973 5.05859 4.83643C6.63086 3.27555 8.46517 2.03939 10.5615 1.12793C12.6579 0.239258 14.9023 -0.205078 17.2949 -0.205078C19.6647 -0.205078 21.8978 0.239258 23.9941 1.12793C26.0905 2.03939 27.9248 3.27555 29.4971 4.83643C31.0693 6.3973 32.2998 8.2373 33.1885 10.3564C34.0999 12.4528 34.5557 14.6859 34.5557 17.0557C34.5557 19.4482 34.0999 21.6927 33.1885 23.7891C32.2998 25.8854 31.0693 27.714 29.4971 29.2749C27.9248 30.8358 26.0905 32.0719 23.9941 32.9834C21.8978 33.8949 19.6647 34.3506 17.2949 34.3506ZM25.4639 14.6289C25.4411 14.4238 25.4126 14.2017 25.3784 13.9624C25.3442 13.7231 25.3158 13.501 25.293 13.2959C25.2702 13.1136 25.2303 12.937 25.1733 12.7661C25.1164 12.5952 25.0537 12.43 24.9854 12.2705C24.8258 11.9743 24.6208 11.735 24.3701 11.5527C24.1195 11.3704 23.8346 11.2451 23.5156 11.1768C23.3333 11.154 23.1396 11.1312 22.9346 11.1084C22.7295 11.0856 22.5358 11.0742 22.3535 11.0742C21.9889 11.0514 21.6414 11.0343 21.311 11.0229C20.9806 11.0116 20.6445 10.9945 20.3027 10.9717C19.9837 10.9717 19.659 10.966 19.3286 10.9546C18.9982 10.9432 18.6735 10.9375 18.3545 10.9375C18.1038 10.9375 17.8703 10.9375 17.6538 10.9375C17.4373 10.9375 17.2038 10.9375 16.9531 10.9375C16.4974 10.9375 16.0303 10.9375 15.5518 10.9375C15.0732 10.9375 14.6061 10.9489 14.1504 10.9717C13.8086 10.9717 13.4611 10.9831 13.1079 11.0059C12.7547 11.0286 12.4072 11.04 12.0654 11.04C11.8376 11.04 11.6154 11.0514 11.3989 11.0742C11.1825 11.097 10.9717 11.1312 10.7666 11.1768C10.3792 11.2679 10.0659 11.4217 9.82666 11.6382C9.5874 11.8547 9.39941 12.1566 9.2627 12.5439C9.17155 12.749 9.10889 12.9598 9.07471 13.1763C9.04053 13.3927 9.01204 13.6149 8.98926 13.8428C8.96647 14.139 8.94368 14.4352 8.9209 14.7314C8.89811 15.0277 8.88672 15.3239 8.88672 15.6201C8.88672 16.2126 8.88102 16.805 8.86963 17.3975C8.85824 17.9899 8.87533 18.5824 8.9209 19.1748C8.96647 19.4255 8.99495 19.6818 9.00635 19.9438C9.01774 20.2059 9.06901 20.4622 9.16016 20.7129C9.18294 20.804 9.21143 20.9009 9.24561 21.0034C9.27979 21.106 9.31966 21.1914 9.36523 21.2598C9.52474 21.6016 9.73551 21.8693 9.99756 22.063C10.2596 22.2567 10.5729 22.3877 10.9375 22.4561C11.1654 22.4788 11.4046 22.5016 11.6553 22.5244C11.9059 22.5472 12.1452 22.5586 12.373 22.5586C12.806 22.5814 13.2389 22.5985 13.6719 22.6099C14.1048 22.6213 14.5378 22.6383 14.9707 22.6611C15.1986 22.6611 15.4378 22.6611 15.6885 22.6611C15.9391 22.6611 16.1784 22.6611 16.4062 22.6611C16.543 22.6611 16.6797 22.6611 16.8164 22.6611C16.9531 22.6611 17.0898 22.6611 17.2266 22.6611C17.5456 22.6611 17.8589 22.6611 18.1665 22.6611C18.4741 22.6611 18.7874 22.6611 19.1064 22.6611C19.6533 22.6611 20.1831 22.6497 20.6958 22.627C21.2085 22.6042 21.7383 22.5814 22.2852 22.5586C22.4674 22.5586 22.6554 22.5472 22.8491 22.5244C23.0428 22.5016 23.2308 22.4788 23.4131 22.4561C23.8688 22.3877 24.2448 22.2339 24.541 21.9946C24.8372 21.7554 25.0537 21.4193 25.1904 20.9863C25.2816 20.7812 25.3442 20.5762 25.3784 20.3711C25.4126 20.166 25.4411 19.9609 25.4639 19.7559C25.4867 19.4596 25.5094 19.1634 25.5322 18.8672C25.555 18.571 25.5664 18.2747 25.5664 17.9785C25.5436 17.4089 25.5265 16.8506 25.5151 16.3037C25.5037 15.7568 25.4867 15.1986 25.4639 14.6289Z" fill="var(--fill-0, #F8F5EC)"/>
</g>
<defs>
<clipPath id="clip0_7750_9476">
<rect width="35" height="35" fill="white"/>
</clipPath>
</defs>
</svg>
