<svg preserveAspectRatio="xMidYMid meet" width="100%" height="100%" overflow="visible" style="display: block;" viewBox="0 0 35 35" fill="none" xmlns="http://www.w3.org/2000/svg">
<g id="List &#226;&#134;&#146; Item &#226;&#134;&#146; Link" clip-path="url(#clip0_7750_9496)">
<path id="Vector" d="M17.5684 34.624C15.1302 34.624 12.8516 34.1569 10.7324 33.2227C8.59049 32.3112 6.7277 31.0579 5.14404 29.4629C3.56038 27.8678 2.30143 26.0107 1.36719 23.8916C0.455729 21.7497 0 19.471 0 17.0557C0 14.6403 0.455729 12.3617 1.36719 10.2197C2.30143 8.10059 3.56038 6.24349 5.14404 4.64844C6.7277 3.05339 8.59049 1.80013 10.7324 0.888672C12.8516 -0.0227864 15.1302 -0.478516 17.5684 -0.478516C19.9837 -0.478516 22.251 -0.0227864 24.3701 0.888672C26.512 1.80013 28.3748 3.05339 29.9585 4.64844C31.5422 6.24349 32.8011 8.10059 33.7354 10.2197C34.6468 12.3617 35.1025 14.6403 35.1025 17.0557C35.1025 19.471 34.6468 21.7497 33.7354 23.8916C32.8011 26.0107 31.5422 27.8678 29.9585 29.4629C28.3748 31.0579 26.512 32.3112 24.3701 33.2227C22.251 34.1569 19.9837 34.624 17.5684 34.624ZM24.6777 10.7324C24.6777 10.5046 24.6037 10.3166 24.4556 10.1685C24.3075 10.0203 24.1195 9.94629 23.8916 9.94629H20.2344V15.4834H22.0801L22.3535 17.6025H20.2344V18.9697C20.2344 19.266 20.297 19.5166 20.4224 19.7217C20.5477 19.9268 20.8268 20.0293 21.2598 20.0293H22.4219V21.9434C22.3079 21.9434 22.1029 21.9604 21.8066 21.9946C21.5104 22.0288 21.1686 22.0459 20.7812 22.0459C19.9609 22.0459 19.3001 21.8009 18.7988 21.311C18.2975 20.8211 18.0469 20.1204 18.0469 19.209V17.6025H16.2012V15.4834H18.0469V9.94629H11.2109C10.9831 9.94629 10.8008 10.0203 10.6641 10.1685C10.5273 10.3166 10.459 10.5046 10.459 10.7324V23.4131C10.459 23.6182 10.5273 23.7948 10.6641 23.9429C10.8008 24.091 10.9831 24.165 11.2109 24.165H23.8574C24.0625 24.165 24.2391 24.091 24.3872 23.9429C24.5353 23.7948 24.6094 23.6182 24.6094 23.4131V10.7324H24.6777Z" fill="var(--fill-0, #F8F5EC)"/>
</g>
<defs>
<clipPath id="clip0_7750_9496">
<rect width="35" height="35" fill="white"/>
</clipPath>
</defs>
</svg>
